<?xml version="1.0" encoding="UTF-8"?>
<!DOCTYPE svg PUBLIC "-//W3C//DTD SVG 1.1//EN" "http://www.w3.org/Graphics/SVG/1.1/DTD/svg11.dtd">
<svg xmlns="http://www.w3.org/2000/svg" version="1.1" width="24px" height="24px" style="shape-rendering:geometricPrecision; text-rendering:geometricPrecision; image-rendering:optimizeQuality; fill-rule:evenodd; clip-rule:evenodd" xmlns:xlink="http://www.w3.org/1999/xlink">
<g><path style="opacity:0.74" fill="#325daa" d="M 4.5,0.5 C 4.5,0.166667 4.5,-0.166667 4.5,-0.5C 9.16667,-0.5 13.8333,-0.5 18.5,-0.5C 20.348,3.85362 21.0147,8.52028 20.5,13.5C 20.1667,13.5 19.8333,13.5 19.5,13.5C 19.8168,9.29841 19.4834,5.29841 18.5,1.5C 13.8809,0.686398 9.21425,0.353065 4.5,0.5 Z"/></g>
<g><path style="opacity:1" fill="#9eb8de" d="M 4.5,0.5 C 9.21425,0.353065 13.8809,0.686398 18.5,1.5C 16.1561,1.93971 14.1561,2.93971 12.5,4.5C 10.5315,2.68501 8.19822,2.18501 5.5,3C 6.4158,3.27842 7.08247,3.77842 7.5,4.5C 6.83333,4.5 6.16667,4.5 5.5,4.5C 4.51192,9.64045 4.17859,14.9738 4.5,20.5C 3.19137,13.9322 3.19137,7.26556 4.5,0.5 Z"/></g>
<g><path style="opacity:1" fill="#bed8e5" d="M 5.5,4.5 C 5.21427,10.2586 5.5476,15.9252 6.5,21.5C 5.50838,21.6716 4.84171,21.3382 4.5,20.5C 4.17859,14.9738 4.51192,9.64045 5.5,4.5 Z"/></g>
<g><path style="opacity:1" fill="#deeef4" d="M 5.5,4.5 C 6.16667,4.5 6.83333,4.5 7.5,4.5C 8.49162,4.32842 9.15829,4.66175 9.5,5.5C 9.5,8.16667 9.5,10.8333 9.5,13.5C 8.83333,13.5 8.5,13.8333 8.5,14.5C 9.01017,17.3878 8.34351,19.7211 6.5,21.5C 5.5476,15.9252 5.21427,10.2586 5.5,4.5 Z"/></g>
<g><path style="opacity:1" fill="#d9f3fd" d="M 9.5,5.5 C 10.5,5.5 11.5,5.5 12.5,5.5C 12.5,8.16667 12.5,10.8333 12.5,13.5C 11.5,13.5 10.5,13.5 9.5,13.5C 9.5,10.8333 9.5,8.16667 9.5,5.5 Z"/></g>
<g><path style="opacity:1" fill="#c2d7ec" d="M 12.5,4.5 C 13.1667,4.5 13.8333,4.5 14.5,4.5C 14.5,7.5 14.5,10.5 14.5,13.5C 13.8333,13.5 13.1667,13.5 12.5,13.5C 12.5,10.8333 12.5,8.16667 12.5,5.5C 11.5,5.5 10.5,5.5 9.5,5.5C 9.15829,4.66175 8.49162,4.32842 7.5,4.5C 7.08247,3.77842 6.4158,3.27842 5.5,3C 8.19822,2.18501 10.5315,2.68501 12.5,4.5 Z"/></g>
<g><path style="opacity:1" fill="#b9cae6" d="M 14.5,4.5 C 15.8333,4.5 17.1667,4.5 18.5,4.5C 18.5,7.5 18.5,10.5 18.5,13.5C 17.1667,13.5 15.8333,13.5 14.5,13.5C 14.5,10.5 14.5,7.5 14.5,4.5 Z"/></g>
<g><path style="opacity:0.298" fill="#1b4c91" d="M 4.5,0.5 C 3.19137,7.26556 3.19137,13.9322 4.5,20.5C 4.84171,21.3382 5.50838,21.6716 6.5,21.5C 7.16667,22.1667 7.83333,22.8333 8.5,23.5C 7.16667,23.5 5.83333,23.5 4.5,23.5C 4.21719,22.7109 3.71719,22.0442 3,21.5C 2.83333,18 2.66667,14.5 2.5,11C 2.51229,7.09823 3.17896,3.59823 4.5,0.5 Z"/></g>
<g><path style="opacity:1" fill="#7f9ece" d="M 18.5,1.5 C 19.4834,5.29841 19.8168,9.29841 19.5,13.5C 19.5,13.8333 19.5,14.1667 19.5,14.5C 16.1667,14.5 12.8333,14.5 9.5,14.5C 9.16667,14.5 8.83333,14.5 8.5,14.5C 8.5,13.8333 8.83333,13.5 9.5,13.5C 10.5,13.5 11.5,13.5 12.5,13.5C 13.1667,13.5 13.8333,13.5 14.5,13.5C 15.8333,13.5 17.1667,13.5 18.5,13.5C 18.5,10.5 18.5,7.5 18.5,4.5C 17.1667,4.5 15.8333,4.5 14.5,4.5C 13.8333,4.5 13.1667,4.5 12.5,4.5C 14.1561,2.93971 16.1561,1.93971 18.5,1.5 Z"/></g>
<g><path style="opacity:1" fill="#d5e7f2" d="M 9.5,14.5 C 12.8333,14.5 16.1667,14.5 19.5,14.5C 23.0048,14.6941 23.3382,15.6941 20.5,17.5C 18.0715,16.6105 15.7382,16.2771 13.5,16.5C 12.5713,17.6888 12.238,19.0222 12.5,20.5C 13.8333,20.5 15.1667,20.5 16.5,20.5C 16.9175,21.2216 17.5842,21.7216 18.5,22C 15.5,22.6667 12.5,22.6667 9.5,22C 11.3249,20.5341 11.8249,18.7008 11,16.5C 10.6667,17.5 10.3333,18.5 10,19.5C 9.50649,17.8659 9.33982,16.1992 9.5,14.5 Z"/></g>
<g><path style="opacity:0.784" fill="#496ea8" d="M 19.5,14.5 C 19.5,14.1667 19.5,13.8333 19.5,13.5C 19.8333,13.5 20.1667,13.5 20.5,13.5C 21.5,13.5 22.5,13.5 23.5,13.5C 23.5,16.8333 23.5,20.1667 23.5,23.5C 22.1667,23.5 20.8333,23.5 19.5,23.5C 20.209,22.596 21.209,22.2627 22.5,22.5C 22.9227,20.2188 22.256,18.5521 20.5,17.5C 23.3382,15.6941 23.0048,14.6941 19.5,14.5 Z"/></g>
<g><path style="opacity:1" fill="#5a759b" d="M 20.5,17.5 C 20.4142,18.4959 20.7476,19.3292 21.5,20C 19.8659,20.4935 18.1992,20.6602 16.5,20.5C 15.1667,20.5 13.8333,20.5 12.5,20.5C 12.238,19.0222 12.5713,17.6888 13.5,16.5C 15.7382,16.2771 18.0715,16.6105 20.5,17.5 Z"/></g>
<g><path style="opacity:0.784" fill="#7796b9" d="M 8.5,14.5 C 8.83333,14.5 9.16667,14.5 9.5,14.5C 9.33982,16.1992 9.50649,17.8659 10,19.5C 10.3333,18.5 10.6667,17.5 11,16.5C 11.8249,18.7008 11.3249,20.5341 9.5,22C 12.5,22.6667 15.5,22.6667 18.5,22C 17.5842,21.7216 16.9175,21.2216 16.5,20.5C 18.1992,20.6602 19.8659,20.4935 21.5,20C 20.7476,19.3292 20.4142,18.4959 20.5,17.5C 22.256,18.5521 22.9227,20.2188 22.5,22.5C 21.209,22.2627 20.209,22.596 19.5,23.5C 15.8333,23.5 12.1667,23.5 8.5,23.5C 7.83333,22.8333 7.16667,22.1667 6.5,21.5C 8.34351,19.7211 9.01017,17.3878 8.5,14.5 Z"/></g>
</svg>
