<?xml version="1.0" encoding="UTF-8"?>
<!DOCTYPE svg PUBLIC "-//W3C//DTD SVG 1.1//EN" "http://www.w3.org/Graphics/SVG/1.1/DTD/svg11.dtd">
<svg xmlns="http://www.w3.org/2000/svg" version="1.1" width="24px" height="24px" style="shape-rendering:geometricPrecision; text-rendering:geometricPrecision; image-rendering:optimizeQuality; fill-rule:evenodd; clip-rule:evenodd" xmlns:xlink="http://www.w3.org/1999/xlink">
<g><path style="opacity:0.725" fill="#2b58a2" d="M 9.5,-0.5 C 11.1667,-0.5 12.8333,-0.5 14.5,-0.5C 15.7199,1.28374 15.7199,2.95041 14.5,4.5C 14.5,4.16667 14.5,3.83333 14.5,3.5C 14.6716,2.50838 14.3382,1.84171 13.5,1.5C 12.2946,0.314337 10.9613,0.314337 9.5,1.5C 9.5,1.16667 9.5,0.833333 9.5,0.5C 9.5,0.166667 9.5,-0.166667 9.5,-0.5 Z"/></g>
<g><path style="opacity:1" fill="#afc9dd" d="M 13.5,1.5 C 11.9731,1.42702 10.9731,2.09368 10.5,3.5C 9.60895,4.10978 8.60895,4.44312 7.5,4.5C 7.5,4.16667 7.5,3.83333 7.5,3.5C 8.5,3.16667 9.16667,2.5 9.5,1.5C 10.9613,0.314337 12.2946,0.314337 13.5,1.5 Z"/></g>
<g><path style="opacity:0.867" fill="#24539d" d="M 9.5,0.5 C 9.5,0.833333 9.5,1.16667 9.5,1.5C 9.16667,2.5 8.5,3.16667 7.5,3.5C 7.16667,3.5 6.83333,3.5 6.5,3.5C 7.16667,2.16667 8.16667,1.16667 9.5,0.5 Z"/></g>
<g><path style="opacity:1" fill="#d6e5ed" d="M 13.5,1.5 C 14.3382,1.84171 14.6716,2.50838 14.5,3.5C 13.8333,3.83333 13.1667,4.16667 12.5,4.5C 12.1583,3.66175 11.4916,3.32842 10.5,3.5C 10.9731,2.09368 11.9731,1.42702 13.5,1.5 Z"/></g>
<g><path style="opacity:0.976" fill="#3d659f" d="M 6.5,3.5 C 6.83333,3.5 7.16667,3.5 7.5,3.5C 7.5,3.83333 7.5,4.16667 7.5,4.5C 5.51877,5.10541 5.18543,6.10541 6.5,7.5C 5.5,7.5 4.5,7.5 3.5,7.5C 3.83333,6.83333 4.16667,6.16667 4.5,5.5C 4.83333,4.5 5.5,3.83333 6.5,3.5 Z"/></g>
<g><path style="opacity:1" fill="#d7e6ed" d="M 10.5,3.5 C 11.4916,3.32842 12.1583,3.66175 12.5,4.5C 12.1667,5.16667 11.8333,5.83333 11.5,6.5C 11.1667,6.5 10.8333,6.5 10.5,6.5C 9.0527,5.11484 8.0527,5.44818 7.5,7.5C 7.16667,7.5 6.83333,7.5 6.5,7.5C 5.18543,6.10541 5.51877,5.10541 7.5,4.5C 8.60895,4.44312 9.60895,4.10978 10.5,3.5 Z"/></g>
<g><path style="opacity:0.157" fill="#2c4e8b" d="M 14.5,3.5 C 14.5,3.83333 14.5,4.16667 14.5,4.5C 16.5676,7.24509 18.2343,10.2451 19.5,13.5C 18.8333,13.1667 18.1667,12.8333 17.5,12.5C 17.573,10.9731 16.9063,9.97306 15.5,9.5C 15.5,8.83333 15.1667,8.5 14.5,8.5C 14.5,7.83333 14.1667,7.5 13.5,7.5C 13.1583,6.66175 12.4916,6.32842 11.5,6.5C 11.8333,5.83333 12.1667,5.16667 12.5,4.5C 13.1667,4.16667 13.8333,3.83333 14.5,3.5 Z"/></g>
<g><path style="opacity:1" fill="#e3edf1" d="M 10.5,6.5 C 10.1667,7.16667 9.83333,7.83333 9.5,8.5C 8.50838,8.67158 7.84171,8.33825 7.5,7.5C 8.0527,5.44818 9.0527,5.11484 10.5,6.5 Z"/></g>
<g><path style="opacity:1" fill="#b4c9df" d="M 10.5,6.5 C 10.8333,6.5 11.1667,6.5 11.5,6.5C 12.4916,6.32842 13.1583,6.66175 13.5,7.5C 12.1667,7.83333 10.8333,8.16667 9.5,8.5C 9.83333,7.83333 10.1667,7.16667 10.5,6.5 Z"/></g>
<g><path style="opacity:1" fill="#a3b0b8" d="M 3.5,7.5 C 4.5,7.5 5.5,7.5 6.5,7.5C 6.5,8.16667 6.5,8.83333 6.5,9.5C 5.5,9.5 4.5,9.5 3.5,9.5C 3.5,9.16667 3.5,8.83333 3.5,8.5C 3.5,8.16667 3.5,7.83333 3.5,7.5 Z"/></g>
<g><path style="opacity:1" fill="#d5e9f7" d="M 13.5,7.5 C 14.1667,7.5 14.5,7.83333 14.5,8.5C 14.1667,9.5 13.5,10.1667 12.5,10.5C 11.8333,10.5 11.1667,10.5 10.5,10.5C 10.5,9.83333 10.1667,9.5 9.5,9.5C 9.5,9.16667 9.5,8.83333 9.5,8.5C 10.8333,8.16667 12.1667,7.83333 13.5,7.5 Z"/></g>
<g><path style="opacity:0.071" fill="#17468c" d="M 4.5,5.5 C 4.16667,6.16667 3.83333,6.83333 3.5,7.5C 3.5,7.83333 3.5,8.16667 3.5,8.5C 2.66175,8.84171 2.32842,9.50838 2.5,10.5C 1.1674,8.17584 1.83407,6.50918 4.5,5.5 Z"/></g>
<g><path style="opacity:1" fill="#708fb8" d="M 6.5,7.5 C 6.83333,7.5 7.16667,7.5 7.5,7.5C 7.84171,8.33825 8.50838,8.67158 9.5,8.5C 9.5,8.83333 9.5,9.16667 9.5,9.5C 8.60895,10.1098 7.60895,10.4431 6.5,10.5C 6.5,10.1667 6.5,9.83333 6.5,9.5C 6.5,8.83333 6.5,8.16667 6.5,7.5 Z"/></g>
<g><path style="opacity:1" fill="#bccde6" d="M 14.5,8.5 C 15.1667,8.5 15.5,8.83333 15.5,9.5C 14.1667,11.1667 12.8333,12.8333 11.5,14.5C 10.8333,14.5 10.1667,14.5 9.5,14.5C 9.5,14.1667 9.5,13.8333 9.5,13.5C 10.8333,12.8333 11.8333,11.8333 12.5,10.5C 13.5,10.1667 14.1667,9.5 14.5,8.5 Z"/></g>
<g><path style="opacity:0.776" fill="#32538c" d="M 3.5,8.5 C 3.5,8.83333 3.5,9.16667 3.5,9.5C 3.73758,11.4044 4.73758,12.7377 6.5,13.5C 6.83333,14.5 7.5,15.1667 8.5,15.5C 8.5,15.8333 8.5,16.1667 8.5,16.5C 8.16667,16.5 7.83333,16.5 7.5,16.5C 5.08605,15.0892 3.41938,13.0892 2.5,10.5C 2.32842,9.50838 2.66175,8.84171 3.5,8.5 Z"/></g>
<g><path style="opacity:1" fill="#daedf8" d="M 9.5,9.5 C 10.1667,9.5 10.5,9.83333 10.5,10.5C 10.1667,11.1667 9.83333,11.8333 9.5,12.5C 8.83333,12.5 8.16667,12.5 7.5,12.5C 6.66175,12.1583 6.32842,11.4916 6.5,10.5C 7.60895,10.4431 8.60895,10.1098 9.5,9.5 Z"/></g>
<g><path style="opacity:1" fill="#dfebf2" d="M 3.5,9.5 C 4.5,9.5 5.5,9.5 6.5,9.5C 6.5,9.83333 6.5,10.1667 6.5,10.5C 6.32842,11.4916 6.66175,12.1583 7.5,12.5C 7.5,13.1667 7.16667,13.5 6.5,13.5C 4.73758,12.7377 3.73758,11.4044 3.5,9.5 Z"/></g>
<g><path style="opacity:1" fill="#c9dcef" d="M 10.5,10.5 C 11.1667,10.5 11.8333,10.5 12.5,10.5C 11.8333,11.8333 10.8333,12.8333 9.5,13.5C 9.5,13.1667 9.5,12.8333 9.5,12.5C 9.83333,11.8333 10.1667,11.1667 10.5,10.5 Z"/></g>
<g><path style="opacity:1" fill="#adbedd" d="M 15.5,9.5 C 16.9063,9.97306 17.573,10.9731 17.5,12.5C 17.1667,13.1667 16.8333,13.8333 16.5,14.5C 16.5,14.8333 16.5,15.1667 16.5,15.5C 15.8333,15.8333 15.1667,16.1667 14.5,16.5C 13.7095,15.5987 12.7095,14.9321 11.5,14.5C 12.8333,12.8333 14.1667,11.1667 15.5,9.5 Z"/></g>
<g><path style="opacity:1" fill="#d3e3f1" d="M 7.5,12.5 C 8.16667,12.5 8.83333,12.5 9.5,12.5C 9.5,12.8333 9.5,13.1667 9.5,13.5C 8.66175,13.8417 8.32842,14.5084 8.5,15.5C 7.5,15.1667 6.83333,14.5 6.5,13.5C 7.16667,13.5 7.5,13.1667 7.5,12.5 Z"/></g>
<g><path style="opacity:1" fill="#b4c4e0" d="M 9.5,14.5 C 10.1667,14.5 10.8333,14.5 11.5,14.5C 12.7095,14.9321 13.7095,15.5987 14.5,16.5C 14.1667,16.5 13.8333,16.5 13.5,16.5C 13.1667,16.5 12.8333,16.5 12.5,16.5C 10.9731,16.573 9.97306,15.9063 9.5,14.5 Z"/></g>
<g><path style="opacity:1" fill="#3e5f93" d="M 17.5,12.5 C 18.1667,12.8333 18.8333,13.1667 19.5,13.5C 21.0269,13.427 22.0269,14.0937 22.5,15.5C 22.5,15.8333 22.5,16.1667 22.5,16.5C 22.1667,16.5 21.8333,16.5 21.5,16.5C 20.3646,14.7868 18.698,14.1201 16.5,14.5C 16.8333,13.8333 17.1667,13.1667 17.5,12.5 Z"/></g>
<g><path style="opacity:1" fill="#c5d1e6" d="M 9.5,13.5 C 9.5,13.8333 9.5,14.1667 9.5,14.5C 9.97306,15.9063 10.9731,16.573 12.5,16.5C 12.1583,17.3382 11.4916,17.6716 10.5,17.5C 10.1667,17.5 9.83333,17.5 9.5,17.5C 9.5,16.8333 9.16667,16.5 8.5,16.5C 8.5,16.1667 8.5,15.8333 8.5,15.5C 8.32842,14.5084 8.66175,13.8417 9.5,13.5 Z"/></g>
<g><path style="opacity:1" fill="#d6dfec" d="M 16.5,15.5 C 16.5,15.1667 16.5,14.8333 16.5,14.5C 18.698,14.1201 20.3646,14.7868 21.5,16.5C 20.8333,17.1667 20.1667,17.8333 19.5,18.5C 18.8333,18.5 18.5,18.8333 18.5,19.5C 17.2089,18.4583 17.2089,17.2917 18.5,16C 17.9056,15.5357 17.2389,15.369 16.5,15.5 Z"/></g>
<g><path style="opacity:1" fill="#e6f2f7" d="M 16.5,15.5 C 16.7947,17.7354 16.4614,19.7354 15.5,21.5C 14.6993,19.9582 14.366,18.2915 14.5,16.5C 15.1667,16.1667 15.8333,15.8333 16.5,15.5 Z"/></g>
<g><path style="opacity:1" fill="#6883aa" d="M 8.5,18.5 C 8.5,17.8333 8.83333,17.5 9.5,17.5C 9.83333,17.5 10.1667,17.5 10.5,17.5C 10.5,18.5 10.5,19.5 10.5,20.5C 10.5,21.1667 10.5,21.8333 10.5,22.5C 10.1667,22.5 9.83333,22.5 9.5,22.5C 9.76781,20.901 9.43448,19.5676 8.5,18.5 Z"/></g>
<g><path style="opacity:1" fill="#cfdcee" d="M 12.5,16.5 C 12.8333,16.5 13.1667,16.5 13.5,16.5C 13.2624,18.4044 12.2624,19.7377 10.5,20.5C 10.5,19.5 10.5,18.5 10.5,17.5C 11.4916,17.6716 12.1583,17.3382 12.5,16.5 Z"/></g>
<g><path style="opacity:1" fill="#94a9c1" d="M 16.5,15.5 C 17.2389,15.369 17.9056,15.5357 18.5,16C 17.2089,17.2917 17.2089,18.4583 18.5,19.5C 17.8902,20.391 17.5569,21.391 17.5,22.5C 16.8333,22.5 16.1667,22.5 15.5,22.5C 15.5,22.1667 15.5,21.8333 15.5,21.5C 16.4614,19.7354 16.7947,17.7354 16.5,15.5 Z"/></g>
<g><path style="opacity:1" fill="#9baaca" d="M 21.5,16.5 C 21.8333,16.5 22.1667,16.5 22.5,16.5C 22.7678,18.099 22.4345,19.4324 21.5,20.5C 20.8333,19.8333 20.1667,19.1667 19.5,18.5C 20.1667,17.8333 20.8333,17.1667 21.5,16.5 Z"/></g>
<g><path style="opacity:0.675" fill="#2e4c7b" d="M 7.5,16.5 C 7.83333,16.5 8.16667,16.5 8.5,16.5C 9.16667,16.5 9.5,16.8333 9.5,17.5C 8.83333,17.5 8.5,17.8333 8.5,18.5C 5.78217,20.4226 6.1155,21.756 9.5,22.5C 9.83333,22.5 10.1667,22.5 10.5,22.5C 10.5,22.8333 10.5,23.1667 10.5,23.5C 8.83333,23.5 7.16667,23.5 5.5,23.5C 5.1658,20.812 5.83247,18.4786 7.5,16.5 Z"/></g>
<g><path style="opacity:1" fill="#b2c3db" d="M 19.5,18.5 C 20.1667,19.1667 20.8333,19.8333 21.5,20.5C 20.713,22.1042 19.3797,22.7709 17.5,22.5C 17.5569,21.391 17.8902,20.391 18.5,19.5C 18.5,18.8333 18.8333,18.5 19.5,18.5 Z"/></g>
<g><path style="opacity:1" fill="#c3d2e8" d="M 8.5,18.5 C 9.43448,19.5676 9.76781,20.901 9.5,22.5C 6.1155,21.756 5.78217,20.4226 8.5,18.5 Z"/></g>
<g><path style="opacity:0.459" fill="#2a508c" d="M 13.5,16.5 C 13.8333,16.5 14.1667,16.5 14.5,16.5C 14.366,18.2915 14.6993,19.9582 15.5,21.5C 15.5,21.8333 15.5,22.1667 15.5,22.5C 14.8333,22.1667 14.1667,21.8333 13.5,21.5C 13.1667,20.1667 12.8333,20.1667 12.5,21.5C 11.8333,21.8333 11.1667,22.1667 10.5,22.5C 10.5,21.8333 10.5,21.1667 10.5,20.5C 12.2624,19.7377 13.2624,18.4044 13.5,16.5 Z"/></g>
<g><path style="opacity:0.004" fill="#1e4785" d="M 12.5,21.5 C 12.8333,21.5 13.1667,21.5 13.5,21.5C 13.3147,22.1701 12.9813,22.1701 12.5,21.5 Z"/></g>
<g><path style="opacity:0.341" fill="#25467d" d="M 22.5,15.5 C 22.8333,15.5 23.1667,15.5 23.5,15.5C 23.5,17.8333 23.5,20.1667 23.5,22.5C 22.8333,22.5 22.5,22.8333 22.5,23.5C 20.1667,23.5 17.8333,23.5 15.5,23.5C 15.5,23.1667 15.5,22.8333 15.5,22.5C 16.1667,22.5 16.8333,22.5 17.5,22.5C 19.3797,22.7709 20.713,22.1042 21.5,20.5C 22.4345,19.4324 22.7678,18.099 22.5,16.5C 22.5,16.1667 22.5,15.8333 22.5,15.5 Z"/></g>
</svg>
