<?xml version="1.0" encoding="UTF-8"?>
<!DOCTYPE svg PUBLIC "-//W3C//DTD SVG 1.1//EN" "http://www.w3.org/Graphics/SVG/1.1/DTD/svg11.dtd">
<svg xmlns="http://www.w3.org/2000/svg" version="1.1" width="24px" height="24px" style="shape-rendering:geometricPrecision; text-rendering:geometricPrecision; image-rendering:optimizeQuality; fill-rule:evenodd; clip-rule:evenodd" xmlns:xlink="http://www.w3.org/1999/xlink">
<g><path style="opacity:1" fill="#b4c0cf" d="M 8.5,-0.5 C 9.5,-0.5 10.5,-0.5 11.5,-0.5C 11.5,0.166667 11.8333,0.5 12.5,0.5C 12.9926,2.80562 13.3259,5.13895 13.5,7.5C 13.1667,7.5 12.8333,7.5 12.5,7.5C 12.1898,5.85637 11.1898,4.85637 9.5,4.5C 10.4935,2.14567 9.49352,1.14567 6.5,1.5C 7.16667,0.833333 7.83333,0.166667 8.5,-0.5 Z"/></g>
<g><path style="opacity:1" fill="#f4f5f6" d="M 6.5,3.5 C 7.60895,3.55688 8.60895,3.89022 9.5,4.5C 11.1898,4.85637 12.1898,5.85637 12.5,7.5C 11.612,10.0545 11.2786,12.7212 11.5,15.5C 9.97306,15.573 8.97306,14.9063 8.5,13.5C 8.5,12.8333 8.16667,12.5 7.5,12.5C 7.51909,10.9397 7.85242,9.43975 8.5,8C 7.58618,6.59362 6.91951,5.09362 6.5,3.5 Z"/></g>
<g><path style="opacity:1" fill="#465061" d="M 15.5,1.5 C 18.8695,2.55917 20.5361,4.8925 20.5,8.5C 20.5,9.16667 20.5,9.83333 20.5,10.5C 19.7677,9.19174 18.9344,7.85841 18,6.5C 17.2588,7.64055 16.4255,7.64055 15.5,6.5C 14.3336,4.83268 14.3336,3.16602 15.5,1.5 Z"/></g>
<g><path style="opacity:1" fill="#e0e6ec" d="M 6.5,3.5 C 6.91951,5.09362 7.58618,6.59362 8.5,8C 7.85242,9.43975 7.51909,10.9397 7.5,12.5C 6.16667,12.5 4.83333,12.5 3.5,12.5C 1.89961,10.4287 1.39961,8.09534 2,5.5C 3.47049,4.73344 4.97049,4.06677 6.5,3.5 Z"/></g>
<g><path style="opacity:0.944" fill="#d0d8e1" d="M 6.5,1.5 C 9.49352,1.14567 10.4935,2.14567 9.5,4.5C 8.60895,3.89022 7.60895,3.55688 6.5,3.5C 4.97049,4.06677 3.47049,4.73344 2,5.5C 1.39961,8.09534 1.89961,10.4287 3.5,12.5C 2.16667,11.8333 0.833333,11.1667 -0.5,10.5C -0.5,9.16667 -0.5,7.83333 -0.5,6.5C 0.967116,3.71021 3.30045,2.04354 6.5,1.5 Z"/></g>
<g><path style="opacity:1" fill="#666a79" d="M 12.5,7.5 C 12.8333,7.5 13.1667,7.5 13.5,7.5C 15.335,8.12225 16.5017,9.45559 17,11.5C 17.769,14.0991 17.6023,16.5991 16.5,19C 17.0944,19.4643 17.7611,19.631 18.5,19.5C 17.7377,21.2624 16.4044,22.2624 14.5,22.5C 15.3982,19.5348 14.0649,18.2015 10.5,18.5C 11.2625,17.7321 12.2625,17.2321 13.5,17C 13.2716,16.6012 12.9382,16.4346 12.5,16.5C 12.5,15.8333 12.1667,15.5 11.5,15.5C 11.2786,12.7212 11.612,10.0545 12.5,7.5 Z"/></g>
<g><path style="opacity:1" fill="#4d5869" d="M 12.5,0.5 C 13.791,0.262695 14.791,0.596028 15.5,1.5C 14.3336,3.16602 14.3336,4.83268 15.5,6.5C 16.4255,7.64055 17.2588,7.64055 18,6.5C 18.9344,7.85841 19.7677,9.19174 20.5,10.5C 20.5792,11.9305 20.2458,13.2638 19.5,14.5C 20.2003,14.7871 20.8669,15.1205 21.5,15.5C 20.9744,17.2303 19.9744,18.5637 18.5,19.5C 17.7611,19.631 17.0944,19.4643 16.5,19C 17.6023,16.5991 17.769,14.0991 17,11.5C 16.5017,9.45559 15.335,8.12225 13.5,7.5C 13.3259,5.13895 12.9926,2.80562 12.5,0.5 Z"/></g>
<g><path style="opacity:0.287" fill="#3a4453" d="M 23.5,4.5 C 23.5,7.5 23.5,10.5 23.5,13.5C 22.8333,14.1667 22.1667,14.8333 21.5,15.5C 20.8669,15.1205 20.2003,14.7871 19.5,14.5C 20.2458,13.2638 20.5792,11.9305 20.5,10.5C 20.5,9.83333 20.5,9.16667 20.5,8.5C 21.5,7.16667 22.5,5.83333 23.5,4.5 Z"/></g>
<g><path style="opacity:1" fill="#c6cfdb" d="M -0.5,10.5 C 0.833333,11.1667 2.16667,11.8333 3.5,12.5C 4.83333,12.5 6.16667,12.5 7.5,12.5C 8.16667,12.5 8.5,12.8333 8.5,13.5C 7.54163,13.9528 6.7083,14.6195 6,15.5C 3.77875,14.5941 1.61208,13.5941 -0.5,12.5C -0.5,11.8333 -0.5,11.1667 -0.5,10.5 Z"/></g>
<g><path style="opacity:1" fill="#b3c0d0" d="M -0.5,12.5 C 1.61208,13.5941 3.77875,14.5941 6,15.5C 6.7083,14.6195 7.54163,13.9528 8.5,13.5C 8.97306,14.9063 9.97306,15.573 11.5,15.5C 12.1667,15.5 12.5,15.8333 12.5,16.5C 10.7085,16.366 9.04181,16.6993 7.5,17.5C 6.11552,16.1991 4.61552,16.1991 3,17.5C 1.9609,16.2899 0.794229,15.2899 -0.5,14.5C -0.5,13.8333 -0.5,13.1667 -0.5,12.5 Z"/></g>
<g><path style="opacity:1" fill="#a4b2c5" d="M -0.5,14.5 C 0.794229,15.2899 1.9609,16.2899 3,17.5C 4.61552,16.1991 6.11552,16.1991 7.5,17.5C 3.5,18.1667 3.5,18.8333 7.5,19.5C 7.16667,20.1667 6.83333,20.8333 6.5,21.5C 3.88825,20.2213 1.55492,18.5547 -0.5,16.5C -0.5,15.8333 -0.5,15.1667 -0.5,14.5 Z"/></g>
<g><path style="opacity:1" fill="#f0f2f4" d="M 12.5,16.5 C 12.9382,16.4346 13.2716,16.6012 13.5,17C 12.2625,17.2321 11.2625,17.7321 10.5,18.5C 9.60895,19.1098 8.60895,19.4431 7.5,19.5C 3.5,18.8333 3.5,18.1667 7.5,17.5C 9.04181,16.6993 10.7085,16.366 12.5,16.5 Z"/></g>
<g><path style="opacity:0.984" fill="#535767" d="M 10.5,18.5 C 14.0649,18.2015 15.3982,19.5348 14.5,22.5C 13.209,22.2627 12.209,22.596 11.5,23.5C 10.5,23.5 9.5,23.5 8.5,23.5C 7.83333,22.8333 7.16667,22.1667 6.5,21.5C 6.83333,20.8333 7.16667,20.1667 7.5,19.5C 8.60895,19.4431 9.60895,19.1098 10.5,18.5 Z"/></g>
</svg>
