<?xml version="1.0" encoding="UTF-8"?>
<!DOCTYPE svg PUBLIC "-//W3C//DTD SVG 1.1//EN" "http://www.w3.org/Graphics/SVG/1.1/DTD/svg11.dtd">
<svg xmlns="http://www.w3.org/2000/svg" version="1.1" width="24px" height="24px" style="shape-rendering:geometricPrecision; text-rendering:geometricPrecision; image-rendering:optimizeQuality; fill-rule:evenodd; clip-rule:evenodd" xmlns:xlink="http://www.w3.org/1999/xlink">
<g><path style="opacity:0.784" fill="#3966ac" d="M -0.5,-0.5 C 5.16667,-0.5 10.8333,-0.5 16.5,-0.5C 16.5,-0.166667 16.5,0.166667 16.5,0.5C 15.5,0.5 14.5,0.5 13.5,0.5C 12.5,0.5 11.5,0.5 10.5,0.5C 8.5,0.5 6.5,0.5 4.5,0.5C 3.5,0.5 2.5,0.5 1.5,0.5C 0.512827,5.30537 0.179494,10.3054 0.5,15.5C 0.166667,15.5 -0.166667,15.5 -0.5,15.5C -0.5,10.1667 -0.5,4.83333 -0.5,-0.5 Z"/></g>
<g><path style="opacity:1" fill="#dbeaf0" d="M 1.5,0.5 C 2.5,0.5 3.5,0.5 4.5,0.5C 4.18178,5.03225 4.51511,9.36559 5.5,13.5C 5.84171,14.3382 6.50838,14.6716 7.5,14.5C 7.55688,15.609 7.89022,16.609 8.5,17.5C 8.46541,18.4037 7.96541,19.0704 7,19.5C 5.86151,19.0109 4.69484,18.6775 3.5,18.5C 3.82051,13.3054 3.48717,8.30537 2.5,3.5C 1.59603,2.79105 1.26269,1.79105 1.5,0.5 Z"/></g>
<g><path style="opacity:1" fill="#ecf6f8" d="M 4.5,0.5 C 6.5,0.5 8.5,0.5 10.5,0.5C 10.5,1.16667 10.1667,1.5 9.5,1.5C 8.5,1.5 7.5,1.5 6.5,1.5C 6.5,5.16667 6.5,8.83333 6.5,12.5C 6.5,12.8333 6.5,13.1667 6.5,13.5C 6.16667,13.5 5.83333,13.5 5.5,13.5C 4.51511,9.36559 4.18178,5.03225 4.5,0.5 Z"/></g>
<g><path style="opacity:1" fill="#aabad8" d="M 17.5,1.5 C 17.244,5.26928 17.5773,8.93595 18.5,12.5C 18.0582,13.2312 17.8915,14.2312 18,15.5C 17.3292,14.7476 16.4959,14.4142 15.5,14.5C 15.5,14.1667 15.5,13.8333 15.5,13.5C 16.1524,12.5514 16.4857,11.3847 16.5,10C 16.3917,8.31887 15.7251,7.1522 14.5,6.5C 15.6923,4.8869 16.6923,3.22024 17.5,1.5 Z"/></g>
<g><path style="opacity:1" fill="#b6c5e1" d="M 17.5,1.5 C 19.4136,4.68431 20.0803,8.35097 19.5,12.5C 19.1667,12.5 18.8333,12.5 18.5,12.5C 17.5773,8.93595 17.244,5.26928 17.5,1.5 Z"/></g>
<g><path style="opacity:1" fill="#bbcbe4" d="M 13.5,1.5 C 13.5,1.16667 13.5,0.833333 13.5,0.5C 14.5,0.5 15.5,0.5 16.5,0.5C 18.7354,0.205283 20.7354,0.538616 22.5,1.5C 21.2353,2.51448 20.5687,4.01448 20.5,6C 20.5687,7.98552 21.2353,9.48552 22.5,10.5C 22.5,11.5 22.5,12.5 22.5,13.5C 21.209,13.7373 20.209,13.404 19.5,12.5C 20.0803,8.35097 19.4136,4.68431 17.5,1.5C 16.6923,3.22024 15.6923,4.8869 14.5,6.5C 13.8333,6.5 13.1667,6.5 12.5,6.5C 13.355,5.46931 14.0217,4.30264 14.5,3C 14.4301,2.2352 14.0967,1.7352 13.5,1.5 Z"/></g>
<g><path style="opacity:1" fill="#c8d6ed" d="M 22.5,1.5 C 22.5,4.5 22.5,7.5 22.5,10.5C 21.2353,9.48552 20.5687,7.98552 20.5,6C 20.5687,4.01448 21.2353,2.51448 22.5,1.5 Z"/></g>
<g><path style="opacity:1" fill="#ddeff9" d="M 10.5,0.5 C 11.5,0.5 12.5,0.5 13.5,0.5C 13.5,0.833333 13.5,1.16667 13.5,1.5C 12.5806,4.08917 10.914,6.08917 8.5,7.5C 7.90326,7.2648 7.56993,6.7648 7.5,6C 8.41382,4.59362 9.08049,3.09362 9.5,1.5C 10.1667,1.5 10.5,1.16667 10.5,0.5 Z"/></g>
<g><path style="opacity:1" fill="#e9f5f9" d="M 9.5,1.5 C 9.08049,3.09362 8.41382,4.59362 7.5,6C 7.56993,6.7648 7.90326,7.2648 8.5,7.5C 8.5,8.5 8.5,9.5 8.5,10.5C 8.16667,11.5 7.5,12.1667 6.5,12.5C 6.5,8.83333 6.5,5.16667 6.5,1.5C 7.5,1.5 8.5,1.5 9.5,1.5 Z"/></g>
<g><path style="opacity:1" fill="#627da0" d="M 13.5,1.5 C 14.0967,1.7352 14.4301,2.2352 14.5,3C 14.0217,4.30264 13.355,5.46931 12.5,6.5C 11.8333,6.5 11.5,6.83333 11.5,7.5C 10.71,8.60853 10.21,9.94186 10,11.5C 9.61742,10.944 9.11742,10.6107 8.5,10.5C 8.5,9.5 8.5,8.5 8.5,7.5C 10.914,6.08917 12.5806,4.08917 13.5,1.5 Z"/></g>
<g><path style="opacity:0.784" fill="#3360a6" d="M 16.5,0.5 C 16.5,0.166667 16.5,-0.166667 16.5,-0.5C 18.8333,-0.5 21.1667,-0.5 23.5,-0.5C 23.5,4.83333 23.5,10.1667 23.5,15.5C 23.1667,15.5 22.8333,15.5 22.5,15.5C 22.5,14.8333 22.5,14.1667 22.5,13.5C 22.5,12.5 22.5,11.5 22.5,10.5C 22.5,7.5 22.5,4.5 22.5,1.5C 20.7354,0.538616 18.7354,0.205283 16.5,0.5 Z"/></g>
<g><path style="opacity:1" fill="#6c86a9" d="M 12.5,6.5 C 13.1667,6.5 13.8333,6.5 14.5,6.5C 13.8767,8.69448 13.5434,10.8611 13.5,13C 14.0944,13.4643 14.7611,13.631 15.5,13.5C 15.5,13.8333 15.5,14.1667 15.5,14.5C 12.8333,14.5 10.1667,14.5 7.5,14.5C 6.50838,14.6716 5.84171,14.3382 5.5,13.5C 5.83333,13.5 6.16667,13.5 6.5,13.5C 8.5,13.5 10.5,13.5 12.5,13.5C 12.1667,11.5 11.8333,9.5 11.5,7.5C 11.5,6.83333 11.8333,6.5 12.5,6.5 Z"/></g>
<g><path style="opacity:1" fill="#bccee7" d="M 14.5,6.5 C 15.7251,7.1522 16.3917,8.31887 16.5,10C 16.4857,11.3847 16.1524,12.5514 15.5,13.5C 14.7611,13.631 14.0944,13.4643 13.5,13C 13.5434,10.8611 13.8767,8.69448 14.5,6.5 Z"/></g>
<g><path style="opacity:1" fill="#bcd6e3" d="M 1.5,0.5 C 1.26269,1.79105 1.59603,2.79105 2.5,3.5C 2.5,9.83333 2.5,16.1667 2.5,22.5C 0.656493,20.7211 -0.0101734,18.3878 0.5,15.5C 0.179494,10.3054 0.512827,5.30537 1.5,0.5 Z"/></g>
<g><path style="opacity:1" fill="#d5e7ee" d="M 2.5,3.5 C 3.48717,8.30537 3.82051,13.3054 3.5,18.5C 3.82124,20.0481 4.82124,20.7148 6.5,20.5C 6.83333,21.1667 7.16667,21.8333 7.5,22.5C 5.83333,22.5 4.16667,22.5 2.5,22.5C 2.5,16.1667 2.5,9.83333 2.5,3.5 Z"/></g>
<g><path style="opacity:1" fill="#d2e6f2" d="M 11.5,7.5 C 11.8333,9.5 12.1667,11.5 12.5,13.5C 10.5,13.5 8.5,13.5 6.5,13.5C 6.5,13.1667 6.5,12.8333 6.5,12.5C 7.5,12.1667 8.16667,11.5 8.5,10.5C 9.11742,10.6107 9.61742,10.944 10,11.5C 10.21,9.94186 10.71,8.60853 11.5,7.5 Z"/></g>
<g><path style="opacity:1" fill="#9db0cd" d="M 18.5,12.5 C 18.8333,12.5 19.1667,12.5 19.5,12.5C 20.209,13.404 21.209,13.7373 22.5,13.5C 22.5,14.1667 22.5,14.8333 22.5,15.5C 22.5,16.1667 22.5,16.8333 22.5,17.5C 21.1147,18.6138 19.6147,19.6138 18,20.5C 16.6012,19.7734 15.1012,19.2734 13.5,19C 13.8333,18.6667 14.1667,18.3333 14.5,18C 12.5273,17.5045 10.5273,17.3379 8.5,17.5C 7.89022,16.609 7.55688,15.609 7.5,14.5C 10.1667,14.5 12.8333,14.5 15.5,14.5C 16.4959,14.4142 17.3292,14.7476 18,15.5C 17.8915,14.2312 18.0582,13.2312 18.5,12.5 Z"/></g>
<g><path style="opacity:0.784" fill="#1d4f86" d="M -0.5,15.5 C -0.166667,15.5 0.166667,15.5 0.5,15.5C -0.0101734,18.3878 0.656493,20.7211 2.5,22.5C 4.16667,22.5 5.83333,22.5 7.5,22.5C 11.5,22.5 15.5,22.5 19.5,22.5C 20.5,22.5 21.5,22.5 22.5,22.5C 22.5,20.8333 22.5,19.1667 22.5,17.5C 22.5,16.8333 22.5,16.1667 22.5,15.5C 22.8333,15.5 23.1667,15.5 23.5,15.5C 23.5,18.1667 23.5,20.8333 23.5,23.5C 15.5,23.5 7.5,23.5 -0.5,23.5C -0.5,20.8333 -0.5,18.1667 -0.5,15.5 Z"/></g>
<g><path style="opacity:1" fill="#a1b6d0" d="M 6.5,20.5 C 9.8499,20.335 13.1832,20.5017 16.5,21C 17.7375,21.2321 18.7375,21.7321 19.5,22.5C 15.5,22.5 11.5,22.5 7.5,22.5C 7.16667,21.8333 6.83333,21.1667 6.5,20.5 Z"/></g>
<g><path style="opacity:1" fill="#6d86a9" d="M 8.5,17.5 C 10.5273,17.3379 12.5273,17.5045 14.5,18C 14.1667,18.3333 13.8333,18.6667 13.5,19C 15.1012,19.2734 16.6012,19.7734 18,20.5C 19.6147,19.6138 21.1147,18.6138 22.5,17.5C 22.5,19.1667 22.5,20.8333 22.5,22.5C 21.5,22.5 20.5,22.5 19.5,22.5C 18.7375,21.7321 17.7375,21.2321 16.5,21C 13.1832,20.5017 9.8499,20.335 6.5,20.5C 4.82124,20.7148 3.82124,20.0481 3.5,18.5C 4.69484,18.6775 5.86151,19.0109 7,19.5C 7.96541,19.0704 8.46541,18.4037 8.5,17.5 Z"/></g>
</svg>
