<?xml version="1.0" encoding="UTF-8"?>
<!DOCTYPE svg PUBLIC "-//W3C//DTD SVG 1.1//EN" "http://www.w3.org/Graphics/SVG/1.1/DTD/svg11.dtd">
<svg xmlns="http://www.w3.org/2000/svg" version="1.1" width="24px" height="24px" style="shape-rendering:geometricPrecision; text-rendering:geometricPrecision; image-rendering:optimizeQuality; fill-rule:evenodd; clip-rule:evenodd" xmlns:xlink="http://www.w3.org/1999/xlink">
<g><path style="opacity:0.711" fill="#687aba" d="M 5.5,-0.5 C 8.16667,-0.5 10.8333,-0.5 13.5,-0.5C 14.1098,0.391047 14.4431,1.39105 14.5,2.5C 14.1667,2.5 13.8333,2.5 13.5,2.5C 10.7131,1.52333 7.7131,1.19 4.5,1.5C 4.83333,0.833333 5.16667,0.166667 5.5,-0.5 Z"/></g>
<g><path style="opacity:1" fill="#c4d4ec" d="M 4.5,1.5 C 7.7131,1.19 10.7131,1.52333 13.5,2.5C 12.2196,3.93127 10.5529,4.59794 8.5,4.5C 6.4727,4.66212 4.4727,4.49546 2.5,4C 3.75598,3.58309 4.42265,2.74975 4.5,1.5 Z"/></g>
<g><path style="opacity:1" fill="#98b0d7" d="M 13.5,2.5 C 13.8333,2.5 14.1667,2.5 14.5,2.5C 16.7512,3.01489 18.7512,4.01489 20.5,5.5C 16.5,5.5 12.5,5.5 8.5,5.5C 8.5,5.16667 8.5,4.83333 8.5,4.5C 10.5529,4.59794 12.2196,3.93127 13.5,2.5 Z"/></g>
<g><path style="opacity:1" fill="#8195be" d="M 4.5,1.5 C 4.42265,2.74975 3.75598,3.58309 2.5,4C 4.4727,4.49546 6.4727,4.66212 8.5,4.5C 8.5,4.83333 8.5,5.16667 8.5,5.5C 6.5,5.5 4.5,5.5 2.5,5.5C 2.16667,5.5 1.83333,5.5 1.5,5.5C 0.833333,5.5 0.5,5.83333 0.5,6.5C 0.166667,6.5 -0.166667,6.5 -0.5,6.5C -0.5,5.5 -0.5,4.5 -0.5,3.5C 1.2838,3.10746 2.95047,2.4408 4.5,1.5 Z"/></g>
<g><path style="opacity:1" fill="#c2d1e8" d="M 2.5,5.5 C 4.5,5.5 6.5,5.5 8.5,5.5C 12.5,5.5 16.5,5.5 20.5,5.5C 20.5,5.83333 20.5,6.16667 20.5,6.5C 18.1667,6.5 15.8333,6.5 13.5,6.5C 12.2905,6.93205 11.2905,7.59872 10.5,8.5C 9.50838,8.32842 8.84171,8.66175 8.5,9.5C 7.83333,9.5 7.16667,9.5 6.5,9.5C 5.16667,9.5 3.83333,9.5 2.5,9.5C 4.49825,8.85249 6.49825,8.01916 8.5,7C 6.29221,6.80912 4.29221,6.30912 2.5,5.5 Z"/></g>
<g><path style="opacity:0.922" fill="#6178a8" d="M 14.5,2.5 C 17.5448,2.50795 20.5448,2.84128 23.5,3.5C 23.5,4.5 23.5,5.5 23.5,6.5C 23.1667,6.5 22.8333,6.5 22.5,6.5C 21.8333,6.5 21.1667,6.5 20.5,6.5C 20.5,6.16667 20.5,5.83333 20.5,5.5C 18.7512,4.01489 16.7512,3.01489 14.5,2.5 Z"/></g>
<g><path style="opacity:1" fill="#b0c1de" d="M 1.5,5.5 C 1.83333,5.5 2.16667,5.5 2.5,5.5C 4.29221,6.30912 6.29221,6.80912 8.5,7C 6.49825,8.01916 4.49825,8.85249 2.5,9.5C 2.16667,9.5 1.83333,9.5 1.5,9.5C 1.5,8.16667 1.5,6.83333 1.5,5.5 Z"/></g>
<g><path style="opacity:1" fill="#b1c0dd" d="M 13.5,6.5 C 15.8333,6.5 18.1667,6.5 20.5,6.5C 20.5,7.5 20.5,8.5 20.5,9.5C 19.8333,9.5 19.5,9.16667 19.5,8.5C 17.5,7.83333 15.5,7.16667 13.5,6.5 Z"/></g>
<g><path style="opacity:1" fill="#b4c5e1" d="M 13.5,6.5 C 15.5,7.16667 17.5,7.83333 19.5,8.5C 16.5,8.5 13.5,8.5 10.5,8.5C 11.2905,7.59872 12.2905,6.93205 13.5,6.5 Z"/></g>
<g><path style="opacity:1" fill="#b7cbdf" d="M 8.5,9.5 C 8.84171,8.66175 9.50838,8.32842 10.5,8.5C 13.5,8.5 16.5,8.5 19.5,8.5C 19.5,9.16667 19.8333,9.5 20.5,9.5C 20.5,11.5 20.5,13.5 20.5,15.5C 19.8333,15.5 19.1667,15.5 18.5,15.5C 18.8514,12.9588 18.5181,11.2921 17.5,10.5C 14.6085,9.59748 11.6085,9.26414 8.5,9.5 Z"/></g>
<g><path style="opacity:1" fill="#6181af" d="M 6.5,9.5 C 7.16667,9.5 7.83333,9.5 8.5,9.5C 11.6085,9.26414 14.6085,9.59748 17.5,10.5C 17.6716,11.4916 17.3382,12.1583 16.5,12.5C 15.7095,11.5987 14.7095,10.9321 13.5,10.5C 13.1667,10.5 12.8333,10.5 12.5,10.5C 11.8333,10.5 11.1667,10.5 10.5,10.5C 7.20269,10.3287 6.86935,10.9954 9.5,12.5C 8.75731,13.1818 8.09065,13.8485 7.5,14.5C 7.16667,14.5 6.83333,14.5 6.5,14.5C 6.5,13.5 6.5,12.5 6.5,11.5C 6.5,10.8333 6.5,10.1667 6.5,9.5 Z"/></g>
<g><path style="opacity:1" fill="#d8ecf7" d="M 6.5,11.5 C 6.5,12.5 6.5,13.5 6.5,14.5C 5.53261,13.1938 4.19928,12.5271 2.5,12.5C 3.21068,10.1582 4.54402,9.82485 6.5,11.5 Z"/></g>
<g><path style="opacity:1" fill="#45699e" d="M 13.5,10.5 C 14.7095,10.9321 15.7095,11.5987 16.5,12.5C 15.8333,12.5 15.5,12.8333 15.5,13.5C 15.1583,14.3382 14.4916,14.6716 13.5,14.5C 13.5,13.1667 13.5,11.8333 13.5,10.5 Z"/></g>
<g><path style="opacity:0.961" fill="#c2d7ea" d="M 1.5,9.5 C 1.83333,9.5 2.16667,9.5 2.5,9.5C 3.83333,9.5 5.16667,9.5 6.5,9.5C 6.5,10.1667 6.5,10.8333 6.5,11.5C 4.54402,9.82485 3.21068,10.1582 2.5,12.5C 2.5,13.5 2.5,14.5 2.5,15.5C 2.5,15.8333 2.5,16.1667 2.5,16.5C 2.16667,16.5 1.83333,16.5 1.5,16.5C 1.5,14.1667 1.5,11.8333 1.5,9.5 Z"/></g>
<g><path style="opacity:1" fill="#e9f5f8" d="M 2.5,12.5 C 4.19928,12.5271 5.53261,13.1938 6.5,14.5C 5.43236,15.4345 4.09903,15.7678 2.5,15.5C 2.5,14.5 2.5,13.5 2.5,12.5 Z"/></g>
<g><path style="opacity:1" fill="#c2d6e4" d="M 18.5,15.5 C 18.5,15.8333 18.5,16.1667 18.5,16.5C 13.0362,17.7567 7.70288,17.7567 2.5,16.5C 6.84611,16.6657 11.1794,16.499 15.5,16C 18.1125,14.9288 18.1125,14.0955 15.5,13.5C 15.5,12.8333 15.8333,12.5 16.5,12.5C 17.3382,12.1583 17.6716,11.4916 17.5,10.5C 18.5181,11.2921 18.8514,12.9588 18.5,15.5 Z"/></g>
<g><path style="opacity:1" fill="#e5f1f6" d="M 10.5,10.5 C 11.1667,15.8333 11.8333,15.8333 12.5,10.5C 12.8333,10.5 13.1667,10.5 13.5,10.5C 13.5,11.8333 13.5,13.1667 13.5,14.5C 11.5,15.8333 9.5,15.8333 7.5,14.5C 8.09065,13.8485 8.75731,13.1818 9.5,12.5C 6.86935,10.9954 7.20269,10.3287 10.5,10.5 Z"/></g>
<g><path style="opacity:1" fill="#5175a6" d="M 10.5,10.5 C 11.1667,10.5 11.8333,10.5 12.5,10.5C 11.8333,15.8333 11.1667,15.8333 10.5,10.5 Z"/></g>
<g><path style="opacity:1" fill="#d8e7ee" d="M 15.5,13.5 C 18.1125,14.0955 18.1125,14.9288 15.5,16C 11.1794,16.499 6.84611,16.6657 2.5,16.5C 2.5,16.1667 2.5,15.8333 2.5,15.5C 4.09903,15.7678 5.43236,15.4345 6.5,14.5C 6.83333,14.5 7.16667,14.5 7.5,14.5C 9.5,15.8333 11.5,15.8333 13.5,14.5C 14.4916,14.6716 15.1583,14.3382 15.5,13.5 Z"/></g>
<g><path style="opacity:1" fill="#aac8da" d="M 1.5,16.5 C 1.83333,16.5 2.16667,16.5 2.5,16.5C 7.70288,17.7567 13.0362,17.7567 18.5,16.5C 18.3893,17.1174 18.056,17.6174 17.5,18C 12.1771,18.4994 6.84372,18.666 1.5,18.5C 1.5,17.8333 1.5,17.1667 1.5,16.5 Z"/></g>
<g><path style="opacity:0.929" fill="#1c4482" d="M 20.5,6.5 C 21.1667,6.5 21.8333,6.5 22.5,6.5C 22.5,11.1667 22.5,15.8333 22.5,20.5C 19.1667,20.5 15.8333,20.5 12.5,20.5C 12.5,20.1667 12.5,19.8333 12.5,19.5C 15.1667,19.5 17.8333,19.5 20.5,19.5C 20.5,18.1667 20.5,16.8333 20.5,15.5C 20.5,13.5 20.5,11.5 20.5,9.5C 20.5,8.5 20.5,7.5 20.5,6.5 Z"/></g>
<g><path style="opacity:1" fill="#5f80a0" d="M 18.5,15.5 C 19.1667,15.5 19.8333,15.5 20.5,15.5C 20.5,16.8333 20.5,18.1667 20.5,19.5C 17.8333,19.5 15.1667,19.5 12.5,19.5C 11.8333,19.5 11.1667,19.5 10.5,19.5C 7.2869,19.81 4.2869,19.4767 1.5,18.5C 6.84372,18.666 12.1771,18.4994 17.5,18C 18.056,17.6174 18.3893,17.1174 18.5,16.5C 18.5,16.1667 18.5,15.8333 18.5,15.5 Z"/></g>
<g><path style="opacity:0.18" fill="#254888" d="M 1.5,5.5 C 1.5,6.83333 1.5,8.16667 1.5,9.5C 1.5,11.8333 1.5,14.1667 1.5,16.5C 1.5,17.1667 1.5,17.8333 1.5,18.5C 4.2869,19.4767 7.2869,19.81 10.5,19.5C 10.5,19.8333 10.5,20.1667 10.5,20.5C 6.73072,20.756 3.06405,20.4227 -0.5,19.5C -0.5,19.1667 -0.5,18.8333 -0.5,18.5C 0.483418,14.7016 0.816751,10.7016 0.5,6.5C 0.5,5.83333 0.833333,5.5 1.5,5.5 Z"/></g>
<g><path style="opacity:0.63" fill="#bfb45f" d="M 10.5,20.5 C 11.404,21.209 11.7373,22.209 11.5,23.5C 8.5,23.5 5.5,23.5 2.5,23.5C 4.85672,21.9016 7.52339,20.9016 10.5,20.5 Z"/></g>
<g><path style="opacity:0.646" fill="#c0b564" d="M 10.5,20.5 C 10.5,20.1667 10.5,19.8333 10.5,19.5C 11.1667,19.5 11.8333,19.5 12.5,19.5C 12.5,19.8333 12.5,20.1667 12.5,20.5C 15.4766,20.9016 18.1433,21.9016 20.5,23.5C 17.5,23.5 14.5,23.5 11.5,23.5C 11.7373,22.209 11.404,21.209 10.5,20.5 Z"/></g>
</svg>
