<?xml version="1.0" encoding="UTF-8"?>
<!DOCTYPE svg PUBLIC "-//W3C//DTD SVG 1.1//EN" "http://www.w3.org/Graphics/SVG/1.1/DTD/svg11.dtd">
<svg xmlns="http://www.w3.org/2000/svg" version="1.1" width="24px" height="24px" style="shape-rendering:geometricPrecision; text-rendering:geometricPrecision; image-rendering:optimizeQuality; fill-rule:evenodd; clip-rule:evenodd" xmlns:xlink="http://www.w3.org/1999/xlink">
<g><path style="opacity:0.784" fill="#5378b9" d="M -0.5,-0.5 C 2.83333,-0.5 6.16667,-0.5 9.5,-0.5C 9.5,-0.166667 9.5,0.166667 9.5,0.5C 7.83333,0.5 6.16667,0.5 4.5,0.5C 3.04125,0.432553 1.70792,0.765886 0.5,1.5C 0.166667,1.5 -0.166667,1.5 -0.5,1.5C -0.5,0.833333 -0.5,0.166667 -0.5,-0.5 Z"/></g>
<g><path style="opacity:0.784" fill="#466db2" d="M 9.5,0.5 C 9.5,0.166667 9.5,-0.166667 9.5,-0.5C 14.1667,-0.5 18.8333,-0.5 23.5,-0.5C 23.5,4.5 23.5,9.5 23.5,14.5C 23.1667,14.5 22.8333,14.5 22.5,14.5C 22.5,13.5 22.5,12.5 22.5,11.5C 22.8128,7.95815 22.4794,4.62482 21.5,1.5C 18.3752,0.520558 15.0419,0.187225 11.5,0.5C 10.8333,0.5 10.1667,0.5 9.5,0.5 Z"/></g>
<g><path style="opacity:1" fill="#ecf8fa" d="M 4.5,0.5 C 6.16667,0.5 7.83333,0.5 9.5,0.5C 9.5,0.833333 9.5,1.16667 9.5,1.5C 8.25025,1.57735 7.41691,2.24402 7,3.5C 6.66667,2.83333 6.33333,2.16667 6,1.5C 5.50649,3.13414 5.33982,4.80081 5.5,6.5C 4.53862,4.73535 4.20528,2.73535 4.5,0.5 Z"/></g>
<g><path style="opacity:1" fill="#cfdcee" d="M 11.5,0.5 C 15.0419,0.187225 18.3752,0.520558 21.5,1.5C 21.1667,1.5 20.8333,1.5 20.5,1.5C 19.8333,1.5 19.1667,1.5 18.5,1.5C 17.5,1.5 16.5,1.5 15.5,1.5C 14.1779,1.33003 13.0113,1.66337 12,2.5C 11.5357,1.90558 11.369,1.23891 11.5,0.5 Z"/></g>
<g><path style="opacity:1" fill="#dae9ee" d="M 4.5,0.5 C 4.20528,2.73535 4.53862,4.73535 5.5,6.5C 5.16667,7.16667 4.83333,7.83333 4.5,8.5C 3.54885,7.08134 3.21552,5.41467 3.5,3.5C 2.5,3.5 1.5,3.5 0.5,3.5C 0.5,2.83333 0.5,2.16667 0.5,1.5C 1.70792,0.765886 3.04125,0.432553 4.5,0.5 Z"/></g>
<g><path style="opacity:1" fill="#d9e6ed" d="M 9.5,1.5 C 8.92022,3.74876 7.58689,5.41543 5.5,6.5C 5.33982,4.80081 5.50649,3.13414 6,1.5C 6.33333,2.16667 6.66667,2.83333 7,3.5C 7.41691,2.24402 8.25025,1.57735 9.5,1.5 Z"/></g>
<g><path style="opacity:1" fill="#b0bfdd" d="M 15.5,1.5 C 16.5,1.5 17.5,1.5 18.5,1.5C 18.5,3.16667 18.5,4.83333 18.5,6.5C 17.5,5.83333 16.5,5.16667 15.5,4.5C 15.5,4.16667 15.5,3.83333 15.5,3.5C 15.5,2.83333 15.5,2.16667 15.5,1.5 Z"/></g>
<g><path style="opacity:1" fill="#bbcae4" d="M 18.5,1.5 C 19.1667,1.5 19.8333,1.5 20.5,1.5C 20.5,4.83333 20.5,8.16667 20.5,11.5C 20.1667,11.5 19.8333,11.5 19.5,11.5C 19.634,9.70848 19.3007,8.04181 18.5,6.5C 18.5,4.83333 18.5,3.16667 18.5,1.5 Z"/></g>
<g><path style="opacity:1" fill="#c6d5ec" d="M 20.5,1.5 C 20.8333,1.5 21.1667,1.5 21.5,1.5C 22.4794,4.62482 22.8128,7.95815 22.5,11.5C 21.8333,11.5 21.1667,11.5 20.5,11.5C 20.5,8.16667 20.5,4.83333 20.5,1.5 Z"/></g>
<g><path style="opacity:1" fill="#bdd3e9" d="M 9.5,1.5 C 9.5,1.16667 9.5,0.833333 9.5,0.5C 10.1667,0.5 10.8333,0.5 11.5,0.5C 11.369,1.23891 11.5357,1.90558 12,2.5C 13.0113,1.66337 14.1779,1.33003 15.5,1.5C 15.5,2.16667 15.5,2.83333 15.5,3.5C 13.1137,3.74127 11.1137,3.0746 9.5,1.5 Z"/></g>
<g><path style="opacity:1" fill="#486799" d="M 9.5,1.5 C 11.1137,3.0746 13.1137,3.74127 15.5,3.5C 15.5,3.83333 15.5,4.16667 15.5,4.5C 14.8333,4.5 14.5,4.83333 14.5,5.5C 12.4017,4.0857 11.4017,4.75236 11.5,7.5C 11.1667,7.5 10.8333,7.5 10.5,7.5C 9.59086,8.31756 9.09086,9.98423 9,12.5C 8.0053,13.0659 7.17197,13.7326 6.5,14.5C 6.16667,14.5 5.83333,14.5 5.5,14.5C 4.54885,13.0813 4.21552,11.4147 4.5,9.5C 4.5,9.16667 4.5,8.83333 4.5,8.5C 4.83333,7.83333 5.16667,7.16667 5.5,6.5C 7.58689,5.41543 8.92022,3.74876 9.5,1.5 Z"/></g>
<g><path style="opacity:1" fill="#c3dbe6" d="M 0.5,3.5 C 1.5,3.5 2.5,3.5 3.5,3.5C 3.21552,5.41467 3.54885,7.08134 4.5,8.5C 4.5,8.83333 4.5,9.16667 4.5,9.5C 3.53261,10.8062 2.19928,11.4729 0.5,11.5C 0.5,8.83333 0.5,6.16667 0.5,3.5 Z"/></g>
<g><path style="opacity:1" fill="#c5daee" d="M 14.5,5.5 C 14.9227,7.78121 14.256,9.44787 12.5,10.5C 12.7373,9.20895 12.404,8.20895 11.5,7.5C 11.4017,4.75236 12.4017,4.0857 14.5,5.5 Z"/></g>
<g><path style="opacity:1" fill="#e3f0f6" d="M 7.5,6.5 C 8.45115,7.91866 8.78448,9.58533 8.5,11.5C 7.5,11.5 6.5,11.5 5.5,11.5C 5.39151,9.4862 6.05817,7.81953 7.5,6.5 Z"/></g>
<g><path style="opacity:1" fill="#b8cbe5" d="M 14.5,5.5 C 16.9754,6.6874 17.9754,8.6874 17.5,11.5C 16.209,11.2627 15.209,11.596 14.5,12.5C 13.1667,12.5 12.5,11.8333 12.5,10.5C 14.256,9.44787 14.9227,7.78121 14.5,5.5 Z"/></g>
<g><path style="opacity:1" fill="#3d5b8d" d="M 14.5,5.5 C 14.5,4.83333 14.8333,4.5 15.5,4.5C 16.5,5.16667 17.5,5.83333 18.5,6.5C 19.3007,8.04181 19.634,9.70848 19.5,11.5C 19.6716,12.4916 19.3382,13.1583 18.5,13.5C 18.1667,13.5 17.8333,13.5 17.5,13.5C 16.791,12.596 15.791,12.2627 14.5,12.5C 15.209,11.596 16.209,11.2627 17.5,11.5C 17.9754,8.6874 16.9754,6.6874 14.5,5.5 Z"/></g>
<g><path style="opacity:1" fill="#c9deef" d="M 10.5,7.5 C 10.8976,10.3399 11.7309,13.0066 13,15.5C 13.5133,14.4734 14.0133,13.4734 14.5,12.5C 15.791,12.2627 16.791,12.596 17.5,13.5C 15.6855,16.4074 13.0188,17.7407 9.5,17.5C 8.30646,16.7281 7.30646,15.7281 6.5,14.5C 7.17197,13.7326 8.0053,13.0659 9,12.5C 9.09086,9.98423 9.59086,8.31756 10.5,7.5 Z"/></g>
<g><path style="opacity:1" fill="#b7cfdf" d="M 4.5,9.5 C 4.21552,11.4147 4.54885,13.0813 5.5,14.5C 4.58062,17.0892 2.91395,19.0892 0.5,20.5C 0.5,17.5 0.5,14.5 0.5,11.5C 2.19928,11.4729 3.53261,10.8062 4.5,9.5 Z"/></g>
<g><path style="opacity:1" fill="#5a7ebf" d="M 10.5,7.5 C 10.8333,7.5 11.1667,7.5 11.5,7.5C 12.404,8.20895 12.7373,9.20895 12.5,10.5C 12.5,11.8333 13.1667,12.5 14.5,12.5C 14.0133,13.4734 13.5133,14.4734 13,15.5C 11.7309,13.0066 10.8976,10.3399 10.5,7.5 Z"/></g>
<g><path style="opacity:1" fill="#2e4c7a" d="M 17.5,13.5 C 17.8333,13.5 18.1667,13.5 18.5,13.5C 17.925,15.4113 16.925,17.078 15.5,18.5C 13.8333,18.5 12.1667,18.5 10.5,18.5C 10.1667,18.5 9.83333,18.5 9.5,18.5C 9.5,18.1667 9.5,17.8333 9.5,17.5C 13.0188,17.7407 15.6855,16.4074 17.5,13.5 Z"/></g>
<g><path style="opacity:1" fill="#9cadcd" d="M 19.5,11.5 C 19.8333,11.5 20.1667,11.5 20.5,11.5C 21.1667,11.5 21.8333,11.5 22.5,11.5C 22.5,12.5 22.5,13.5 22.5,14.5C 22.5,15.5 22.5,16.5 22.5,17.5C 20.2591,18.2998 19.2591,19.9664 19.5,22.5C 18.1667,22.5 16.8333,22.5 15.5,22.5C 15.5,21.1667 15.5,19.8333 15.5,18.5C 16.925,17.078 17.925,15.4113 18.5,13.5C 19.3382,13.1583 19.6716,12.4916 19.5,11.5 Z"/></g>
<g><path style="opacity:1" fill="#395682" d="M 5.5,14.5 C 5.83333,14.5 6.16667,14.5 6.5,14.5C 7.30646,15.7281 8.30646,16.7281 9.5,17.5C 9.5,17.8333 9.5,18.1667 9.5,18.5C 8.83333,18.1667 8.16667,17.8333 7.5,17.5C 4.91083,18.4194 2.91083,20.086 1.5,22.5C 0.661754,22.1583 0.32842,21.4916 0.5,20.5C 2.91395,19.0892 4.58062,17.0892 5.5,14.5 Z"/></g>
<g><path style="opacity:1" fill="#bbcee5" d="M 10.5,18.5 C 12.1667,18.5 13.8333,18.5 15.5,18.5C 15.5,19.8333 15.5,21.1667 15.5,22.5C 14.8333,22.5 14.1667,22.5 13.5,22.5C 12.853,20.8595 11.853,19.5261 10.5,18.5 Z"/></g>
<g><path style="opacity:1" fill="#768bae" d="M 22.5,17.5 C 22.5,19.1667 22.5,20.8333 22.5,22.5C 21.5,22.5 20.5,22.5 19.5,22.5C 19.2591,19.9664 20.2591,18.2998 22.5,17.5 Z"/></g>
<g><path style="opacity:1" fill="#dbeef8" d="M 7.5,17.5 C 8.16667,17.8333 8.83333,18.1667 9.5,18.5C 9.83333,18.5 10.1667,18.5 10.5,18.5C 11.853,19.5261 12.853,20.8595 13.5,22.5C 12.1667,22.5 10.8333,22.5 9.5,22.5C 8.03201,21.2209 7.36534,19.5542 7.5,17.5 Z"/></g>
<g><path style="opacity:1" fill="#e6f2f5" d="M 7.5,17.5 C 7.36534,19.5542 8.03201,21.2209 9.5,22.5C 6.83333,22.5 4.16667,22.5 1.5,22.5C 2.91083,20.086 4.91083,18.4194 7.5,17.5 Z"/></g>
<g><path style="opacity:0.784" fill="#24558e" d="M -0.5,1.5 C -0.166667,1.5 0.166667,1.5 0.5,1.5C 0.5,2.16667 0.5,2.83333 0.5,3.5C 0.5,6.16667 0.5,8.83333 0.5,11.5C 0.5,14.5 0.5,17.5 0.5,20.5C 0.32842,21.4916 0.661754,22.1583 1.5,22.5C 4.16667,22.5 6.83333,22.5 9.5,22.5C 10.8333,22.5 12.1667,22.5 13.5,22.5C 13.5,22.8333 13.5,23.1667 13.5,23.5C 8.83333,23.5 4.16667,23.5 -0.5,23.5C -0.5,16.1667 -0.5,8.83333 -0.5,1.5 Z"/></g>
<g><path style="opacity:0.784" fill="#164881" d="M 22.5,14.5 C 22.8333,14.5 23.1667,14.5 23.5,14.5C 23.5,17.5 23.5,20.5 23.5,23.5C 20.1667,23.5 16.8333,23.5 13.5,23.5C 13.5,23.1667 13.5,22.8333 13.5,22.5C 14.1667,22.5 14.8333,22.5 15.5,22.5C 16.8333,22.5 18.1667,22.5 19.5,22.5C 20.5,22.5 21.5,22.5 22.5,22.5C 22.5,20.8333 22.5,19.1667 22.5,17.5C 22.5,16.5 22.5,15.5 22.5,14.5 Z"/></g>
</svg>
