<?xml version="1.0" encoding="UTF-8"?>
<!DOCTYPE svg PUBLIC "-//W3C//DTD SVG 1.1//EN" "http://www.w3.org/Graphics/SVG/1.1/DTD/svg11.dtd">
<svg xmlns="http://www.w3.org/2000/svg" version="1.1" width="24px" height="24px" style="shape-rendering:geometricPrecision; text-rendering:geometricPrecision; image-rendering:optimizeQuality; fill-rule:evenodd; clip-rule:evenodd" xmlns:xlink="http://www.w3.org/1999/xlink">
<g><path style="opacity:1" fill="#fdfdf9" d="M -0.5,-0.5 C 1.5,-0.5 3.5,-0.5 5.5,-0.5C 5.5,0.166667 5.5,0.833333 5.5,1.5C 3.24066,2.34399 2.24066,4.01065 2.5,6.5C 1.5,6.5 0.5,6.5 -0.5,6.5C -0.5,4.16667 -0.5,1.83333 -0.5,-0.5 Z"/></g>
<g><path style="opacity:1" fill="#fdfae6" d="M 5.5,-0.5 C 8.16667,-0.5 10.8333,-0.5 13.5,-0.5C 12.1667,0.166667 10.8333,0.833333 9.5,1.5C 9.5,1.83333 9.5,2.16667 9.5,2.5C 8.16667,2.16667 6.83333,1.83333 5.5,1.5C 5.5,0.833333 5.5,0.166667 5.5,-0.5 Z"/></g>
<g><path style="opacity:1" fill="#f6f7ed" d="M 16.5,-0.5 C 18.8333,-0.5 21.1667,-0.5 23.5,-0.5C 23.5,4.83333 23.5,10.1667 23.5,15.5C 22.8333,15.1667 22.1667,14.8333 21.5,14.5C 21.5,13.8333 21.1667,13.5 20.5,13.5C 20.1583,12.6618 19.4916,12.3284 18.5,12.5C 15.3915,12.2641 12.3915,12.5975 9.5,13.5C 10.1834,11.8235 11.5168,11.1568 13.5,11.5C 14.1667,11.5 14.8333,11.5 15.5,11.5C 17.288,11.7852 18.9547,11.4519 20.5,10.5C 18.5281,8.58472 17.5281,6.25139 17.5,3.5C 17.1667,2.16667 16.8333,0.833333 16.5,-0.5 Z"/></g>
<g><path style="opacity:1" fill="#fcfadc" d="M 13.5,-0.5 C 14.5,-0.5 15.5,-0.5 16.5,-0.5C 16.8333,0.833333 17.1667,2.16667 17.5,3.5C 15.9826,3.48944 14.8159,2.82277 14,1.5C 13.3292,2.25244 12.4959,2.58577 11.5,2.5C 11.1583,1.66175 10.4916,1.32842 9.5,1.5C 10.8333,0.833333 12.1667,0.166667 13.5,-0.5 Z"/></g>
<g><path style="opacity:1" fill="#fbfa6e" d="M 9.5,1.5 C 10.4916,1.32842 11.1583,1.66175 11.5,2.5C 12.1667,3.5 12.8333,4.5 13.5,5.5C 12.8333,5.5 12.1667,5.5 11.5,5.5C 10.5,5.5 9.5,5.5 8.5,5.5C 8.06178,5.56544 7.72845,5.39877 7.5,5C 8.38053,4.2917 9.0472,3.45837 9.5,2.5C 9.5,2.16667 9.5,1.83333 9.5,1.5 Z"/></g>
<g><path style="opacity:1" fill="#f7f280" d="M 5.5,1.5 C 6.83333,1.83333 8.16667,2.16667 9.5,2.5C 9.0472,3.45837 8.38053,4.2917 7.5,5C 7.72845,5.39877 8.06178,5.56544 8.5,5.5C 8.67158,6.49162 8.33825,7.15829 7.5,7.5C 7.16667,7.5 6.83333,7.5 6.5,7.5C 5.65225,6.37505 4.65225,6.37505 3.5,7.5C 3.61377,5.28209 4.28043,3.28209 5.5,1.5 Z"/></g>
<g><path style="opacity:1" fill="#f8f478" d="M 17.5,3.5 C 17.5281,6.25139 18.5281,8.58472 20.5,10.5C 18.9547,11.4519 17.288,11.7852 15.5,11.5C 15.7475,9.14166 15.0808,7.14166 13.5,5.5C 12.8333,4.5 12.1667,3.5 11.5,2.5C 12.4959,2.58577 13.3292,2.25244 14,1.5C 14.8159,2.82277 15.9826,3.48944 17.5,3.5 Z"/></g>
<g><path style="opacity:1" fill="#f9ee9c" d="M 8.5,5.5 C 9.5,5.5 10.5,5.5 11.5,5.5C 12.2341,6.70792 12.5674,8.04125 12.5,9.5C 11.5,9.5 10.5,9.5 9.5,9.5C 8.16667,9.5 7.5,8.83333 7.5,7.5C 8.33825,7.15829 8.67158,6.49162 8.5,5.5 Z"/></g>
<g><path style="opacity:1" fill="#fbf9d7" d="M 5.5,1.5 C 4.28043,3.28209 3.61377,5.28209 3.5,7.5C 2.83333,7.5 2.16667,7.5 1.5,7.5C 0.538616,9.26465 0.205283,11.2646 0.5,13.5C 0.166667,13.5 -0.166667,13.5 -0.5,13.5C -0.5,11.1667 -0.5,8.83333 -0.5,6.5C 0.5,6.5 1.5,6.5 2.5,6.5C 2.24066,4.01065 3.24066,2.34399 5.5,1.5 Z"/></g>
<g><path style="opacity:1" fill="#fbf767" d="M 6.5,7.5 C 4.88502,9.32787 4.55169,11.3279 5.5,13.5C 5.5,13.8333 5.5,14.1667 5.5,14.5C 4.5,14.5 3.5,14.5 2.5,14.5C 2.42082,13.0695 2.75415,11.7362 3.5,10.5C 3.04311,9.70245 2.37644,9.36912 1.5,9.5C 1.5,8.83333 1.5,8.16667 1.5,7.5C 2.16667,7.5 2.83333,7.5 3.5,7.5C 4.65225,6.37505 5.65225,6.37505 6.5,7.5 Z"/></g>
<g><path style="opacity:1" fill="#f3d64a" d="M 11.5,5.5 C 12.1667,5.5 12.8333,5.5 13.5,5.5C 15.0808,7.14166 15.7475,9.14166 15.5,11.5C 14.8333,11.5 14.1667,11.5 13.5,11.5C 12.1667,10.8333 10.8333,10.1667 9.5,9.5C 10.5,9.5 11.5,9.5 12.5,9.5C 12.5674,8.04125 12.2341,6.70792 11.5,5.5 Z"/></g>
<g><path style="opacity:1" fill="#f0d559" d="M 6.5,7.5 C 6.83333,7.5 7.16667,7.5 7.5,7.5C 7.5,8.83333 8.16667,9.5 9.5,9.5C 10.8333,10.1667 12.1667,10.8333 13.5,11.5C 11.5168,11.1568 10.1834,11.8235 9.5,13.5C 8.16667,13.5 6.83333,13.5 5.5,13.5C 4.55169,11.3279 4.88502,9.32787 6.5,7.5 Z"/></g>
<g><path style="opacity:1" fill="#c4d5e9" d="M 18.5,12.5 C 14.2419,13.4022 9.9086,14.4022 5.5,15.5C 5.5,15.1667 5.5,14.8333 5.5,14.5C 5.5,14.1667 5.5,13.8333 5.5,13.5C 6.83333,13.5 8.16667,13.5 9.5,13.5C 12.3915,12.5975 15.3915,12.2641 18.5,12.5 Z"/></g>
<g><path style="opacity:1" fill="#f3f4cc" d="M 1.5,7.5 C 1.5,8.16667 1.5,8.83333 1.5,9.5C 1.19244,11.924 1.52577,14.2573 2.5,16.5C 3.18346,16.1373 3.85013,15.8039 4.5,15.5C 4.5,16.8333 4.5,18.1667 4.5,19.5C 3.77765,18.4489 2.77765,17.7822 1.5,17.5C 0.565525,16.4324 0.232191,15.099 0.5,13.5C 0.205283,11.2646 0.538616,9.26465 1.5,7.5 Z"/></g>
<g><path style="opacity:1" fill="#9bbddd" d="M 18.5,12.5 C 19.4916,12.3284 20.1583,12.6618 20.5,13.5C 16.2512,14.5426 11.9178,15.3759 7.5,16C 6.24402,16.4169 5.57735,17.2502 5.5,18.5C 5.5,18.8333 5.5,19.1667 5.5,19.5C 5.16667,19.5 4.83333,19.5 4.5,19.5C 4.5,18.1667 4.5,16.8333 4.5,15.5C 4.83333,15.5 5.16667,15.5 5.5,15.5C 9.9086,14.4022 14.2419,13.4022 18.5,12.5 Z"/></g>
<g><path style="opacity:1" fill="#eef294" d="M 1.5,9.5 C 2.37644,9.36912 3.04311,9.70245 3.5,10.5C 2.75415,11.7362 2.42082,13.0695 2.5,14.5C 3.5,14.5 4.5,14.5 5.5,14.5C 5.5,14.8333 5.5,15.1667 5.5,15.5C 5.16667,15.5 4.83333,15.5 4.5,15.5C 3.85013,15.8039 3.18346,16.1373 2.5,16.5C 1.52577,14.2573 1.19244,11.924 1.5,9.5 Z"/></g>
<g><path style="opacity:1" fill="#6fa3d4" d="M 20.5,13.5 C 21.1667,13.5 21.5,13.8333 21.5,14.5C 18.1888,15.8653 14.8555,16.8653 11.5,17.5C 9.3792,17.3253 7.3792,17.6586 5.5,18.5C 5.57735,17.2502 6.24402,16.4169 7.5,16C 11.9178,15.3759 16.2512,14.5426 20.5,13.5 Z"/></g>
<g><path style="opacity:1" fill="#4381ba" d="M 21.5,14.5 C 22.1667,14.8333 22.8333,15.1667 23.5,15.5C 23.5,16.5 23.5,17.5 23.5,18.5C 23.1667,18.5 22.8333,18.5 22.5,18.5C 22.5,17.8333 22.1667,17.5 21.5,17.5C 18.1667,17.5 14.8333,17.5 11.5,17.5C 14.8555,16.8653 18.1888,15.8653 21.5,14.5 Z"/></g>
<g><path style="opacity:1" fill="#fdfcfa" d="M -0.5,13.5 C -0.166667,13.5 0.166667,13.5 0.5,13.5C 0.232191,15.099 0.565525,16.4324 1.5,17.5C 2.44112,19.7721 3.77445,21.7721 5.5,23.5C 3.5,23.5 1.5,23.5 -0.5,23.5C -0.5,20.1667 -0.5,16.8333 -0.5,13.5 Z"/></g>
<g><path style="opacity:1" fill="#2e6fa4" d="M 11.5,17.5 C 14.8333,17.5 18.1667,17.5 21.5,17.5C 18.0214,18.0181 14.6881,19.0181 11.5,20.5C 10.3478,19.375 9.34775,19.375 8.5,20.5C 7.20895,20.7373 6.20895,20.404 5.5,19.5C 5.5,19.1667 5.5,18.8333 5.5,18.5C 7.3792,17.6586 9.3792,17.3253 11.5,17.5 Z"/></g>
<g><path style="opacity:1" fill="#1b6395" d="M 21.5,17.5 C 22.1667,17.5 22.5,17.8333 22.5,18.5C 22.1583,19.3382 21.4916,19.6716 20.5,19.5C 17.5701,20.299 14.5701,20.6323 11.5,20.5C 14.6881,19.0181 18.0214,18.0181 21.5,17.5 Z"/></g>
<g><path style="opacity:1" fill="#f0f9ed" d="M 1.5,17.5 C 2.77765,17.7822 3.77765,18.4489 4.5,19.5C 4.83333,19.5 5.16667,19.5 5.5,19.5C 6.20895,20.404 7.20895,20.7373 8.5,20.5C 9.16667,20.8333 9.83333,21.1667 10.5,21.5C 10.8333,22.1667 11.1667,22.8333 11.5,23.5C 9.5,23.5 7.5,23.5 5.5,23.5C 3.77445,21.7721 2.44112,19.7721 1.5,17.5 Z"/></g>
<g><path style="opacity:1" fill="#104a71" d="M 8.5,20.5 C 9.34775,19.375 10.3478,19.375 11.5,20.5C 14.5701,20.6323 17.5701,20.299 20.5,19.5C 20.3893,20.1174 20.056,20.6174 19.5,21C 16.5184,21.498 13.5184,21.6646 10.5,21.5C 9.83333,21.1667 9.16667,20.8333 8.5,20.5 Z"/></g>
<g><path style="opacity:1" fill="#dee9ef" d="M 22.5,18.5 C 22.8333,18.5 23.1667,18.5 23.5,18.5C 23.5,20.1667 23.5,21.8333 23.5,23.5C 19.5,23.5 15.5,23.5 11.5,23.5C 11.1667,22.8333 10.8333,22.1667 10.5,21.5C 13.5184,21.6646 16.5184,21.498 19.5,21C 20.056,20.6174 20.3893,20.1174 20.5,19.5C 21.4916,19.6716 22.1583,19.3382 22.5,18.5 Z"/></g>
</svg>
