<?xml version="1.0" encoding="UTF-8"?>
<!DOCTYPE svg PUBLIC "-//W3C//DTD SVG 1.1//EN" "http://www.w3.org/Graphics/SVG/1.1/DTD/svg11.dtd">
<svg xmlns="http://www.w3.org/2000/svg" version="1.1" width="24px" height="24px" style="shape-rendering:geometricPrecision; text-rendering:geometricPrecision; image-rendering:optimizeQuality; fill-rule:evenodd; clip-rule:evenodd" xmlns:xlink="http://www.w3.org/1999/xlink">
<g><path style="opacity:0.929" fill="#514d43" d="M 3.5,-0.5 C 10.1667,-0.5 16.8333,-0.5 23.5,-0.5C 23.5,7.5 23.5,15.5 23.5,23.5C 17.1667,23.5 10.8333,23.5 4.5,23.5C 4.5,22.8333 4.83333,22.5 5.5,22.5C 11.1667,22.5 16.8333,22.5 22.5,22.5C 22.5,21.1667 22.5,19.8333 22.5,18.5C 22.5,15.1667 22.5,11.8333 22.5,8.5C 22.5,7.16667 22.5,5.83333 22.5,4.5C 22.5,3.16667 22.5,1.83333 22.5,0.5C 16.8333,0.5 11.1667,0.5 5.5,0.5C 5.5,1.83333 5.5,3.16667 5.5,4.5C 5.5,5.16667 5.5,5.83333 5.5,6.5C 5.5,8.16667 5.5,9.83333 5.5,11.5C 4.83333,11.1667 4.16667,10.8333 3.5,10.5C 3.5,6.83333 3.5,3.16667 3.5,-0.5 Z"/></g>
<g><path style="opacity:1" fill="#ede4c9" d="M 5.5,4.5 C 5.83333,4.5 6.16667,4.5 6.5,4.5C 9.16667,5.16667 11.8333,5.83333 14.5,6.5C 14.5,6.83333 14.5,7.16667 14.5,7.5C 11.3915,7.73586 8.39147,7.40252 5.5,6.5C 5.5,5.83333 5.5,5.16667 5.5,4.5 Z"/></g>
<g><path style="opacity:1" fill="#f1e9d1" d="M 6.5,4.5 C 11.5,4.5 16.5,4.5 21.5,4.5C 21.8333,4.5 22.1667,4.5 22.5,4.5C 22.5,5.83333 22.5,7.16667 22.5,8.5C 22.1667,8.5 21.8333,8.5 21.5,8.5C 21.3893,7.88258 21.056,7.38258 20.5,7C 18.5273,6.50454 16.5273,6.33788 14.5,6.5C 11.8333,5.83333 9.16667,5.16667 6.5,4.5 Z"/></g>
<g><path style="opacity:1" fill="#e6e2d5" d="M 22.5,4.5 C 22.1667,4.5 21.8333,4.5 21.5,4.5C 19.4294,3.19144 16.9294,2.52477 14,2.5C 11.0706,2.52477 8.57056,3.19144 6.5,4.5C 6.16667,4.5 5.83333,4.5 5.5,4.5C 5.5,3.16667 5.5,1.83333 5.5,0.5C 11.1667,0.5 16.8333,0.5 22.5,0.5C 22.5,1.83333 22.5,3.16667 22.5,4.5 Z"/></g>
<g><path style="opacity:1" fill="#f2ebd8" d="M 21.5,4.5 C 16.5,4.5 11.5,4.5 6.5,4.5C 8.57056,3.19144 11.0706,2.52477 14,2.5C 16.9294,2.52477 19.4294,3.19144 21.5,4.5 Z"/></g>
<g><path style="opacity:1" fill="#e3d6b3" d="M 5.5,6.5 C 8.39147,7.40252 11.3915,7.73586 14.5,7.5C 14.5,9.5 14.5,11.5 14.5,13.5C 13.8333,13.5 13.5,13.1667 13.5,12.5C 12.2409,9.47362 10.9076,9.14029 9.5,11.5C 8.16667,11.5 6.83333,11.5 5.5,11.5C 5.5,9.83333 5.5,8.16667 5.5,6.5 Z"/></g>
<g><path style="opacity:1" fill="#635d4c" d="M 14.5,6.5 C 16.5273,6.33788 18.5273,6.50454 20.5,7C 21.056,7.38258 21.3893,7.88258 21.5,8.5C 21.8064,11.3854 21.4731,14.0521 20.5,16.5C 18.5,16.5 16.5,16.5 14.5,16.5C 14.5,15.5 14.5,14.5 14.5,13.5C 14.5,11.5 14.5,9.5 14.5,7.5C 14.5,7.16667 14.5,6.83333 14.5,6.5 Z"/></g>
<g><path style="opacity:1" fill="#afada4" d="M 15.5,8.5 C 16.9733,9.07145 18.64,9.07145 20.5,8.5C 20.5,10.8333 20.5,13.1667 20.5,15.5C 18.8333,15.5 17.1667,15.5 15.5,15.5C 15.5,13.1667 15.5,10.8333 15.5,8.5 Z"/></g>
<g><path style="opacity:0.653" fill="#74726e" d="M -0.5,10.5 C 0.833333,10.5 2.16667,10.5 3.5,10.5C 4.16667,10.8333 4.83333,11.1667 5.5,11.5C 6.83333,11.5 8.16667,11.5 9.5,11.5C 9.5,11.8333 9.5,12.1667 9.5,12.5C 8.16667,12.5 6.83333,12.5 5.5,12.5C 5.5,13.5 5.5,14.5 5.5,15.5C 5.5,16.8333 5.5,18.1667 5.5,19.5C 5.5,20.5 5.5,21.5 5.5,22.5C 4.83333,22.5 4.5,22.8333 4.5,23.5C 4.16667,23.5 3.83333,23.5 3.5,23.5C 3.5,20.1667 3.5,16.8333 3.5,13.5C 2.16667,13.5 0.833333,13.5 -0.5,13.5C -0.5,12.5 -0.5,11.5 -0.5,10.5 Z"/></g>
<g><path style="opacity:1" fill="#787672" d="M 13.5,12.5 C 12.5178,13.1408 11.5178,13.8075 10.5,14.5C 9.70245,14.0431 9.36912,13.3764 9.5,12.5C 9.5,12.1667 9.5,11.8333 9.5,11.5C 10.9076,9.14029 12.2409,9.47362 13.5,12.5 Z"/></g>
<g><path style="opacity:1" fill="#d1bf8b" d="M 9.5,12.5 C 9.36912,13.3764 9.70245,14.0431 10.5,14.5C 11.5178,13.8075 12.5178,13.1408 13.5,12.5C 13.5,13.1667 13.8333,13.5 14.5,13.5C 14.5,14.5 14.5,15.5 14.5,16.5C 11.9455,15.612 9.27884,15.2786 6.5,15.5C 6.16667,15.5 5.83333,15.5 5.5,15.5C 5.5,14.5 5.5,13.5 5.5,12.5C 6.83333,12.5 8.16667,12.5 9.5,12.5 Z"/></g>
<g><path style="opacity:1" fill="#c5b177" d="M 6.5,15.5 C 9.27884,15.2786 11.9455,15.612 14.5,16.5C 16.5,16.5 18.5,16.5 20.5,16.5C 19.0813,17.4511 17.4147,17.7845 15.5,17.5C 11.9878,18.0545 8.98785,17.3878 6.5,15.5 Z"/></g>
<g><path style="opacity:1" fill="#d9c485" d="M 21.5,8.5 C 21.8333,8.5 22.1667,8.5 22.5,8.5C 22.5,11.8333 22.5,15.1667 22.5,18.5C 22.1667,18.5 21.8333,18.5 21.5,18.5C 19.2646,18.7947 17.2646,18.4614 15.5,17.5C 17.4147,17.7845 19.0813,17.4511 20.5,16.5C 21.4731,14.0521 21.8064,11.3854 21.5,8.5 Z"/></g>
<g><path style="opacity:1" fill="#c6b170" d="M 5.5,15.5 C 5.83333,15.5 6.16667,15.5 6.5,15.5C 8.98785,17.3878 11.9878,18.0545 15.5,17.5C 17.2646,18.4614 19.2646,18.7947 21.5,18.5C 21.5,18.8333 21.5,19.1667 21.5,19.5C 16.5,19.5 11.5,19.5 6.5,19.5C 6.16667,19.5 5.83333,19.5 5.5,19.5C 5.5,18.1667 5.5,16.8333 5.5,15.5 Z"/></g>
<g><path style="opacity:1" fill="#cdb367" d="M 21.5,18.5 C 21.8333,18.5 22.1667,18.5 22.5,18.5C 22.5,19.8333 22.5,21.1667 22.5,22.5C 16.8333,22.5 11.1667,22.5 5.5,22.5C 5.5,21.5 5.5,20.5 5.5,19.5C 5.83333,19.5 6.16667,19.5 6.5,19.5C 8.57056,20.8086 11.0706,21.4752 14,21.5C 16.9294,21.4752 19.4294,20.8086 21.5,19.5C 21.5,19.1667 21.5,18.8333 21.5,18.5 Z"/></g>
<g><path style="opacity:1" fill="#c2aa67" d="M 6.5,19.5 C 11.5,19.5 16.5,19.5 21.5,19.5C 19.4294,20.8086 16.9294,21.4752 14,21.5C 11.0706,21.4752 8.57056,20.8086 6.5,19.5 Z"/></g>
</svg>
