<?xml version="1.0" encoding="UTF-8"?>
<!DOCTYPE svg PUBLIC "-//W3C//DTD SVG 1.1//EN" "http://www.w3.org/Graphics/SVG/1.1/DTD/svg11.dtd">
<svg xmlns="http://www.w3.org/2000/svg" version="1.1" width="24px" height="24px" style="shape-rendering:geometricPrecision; text-rendering:geometricPrecision; image-rendering:optimizeQuality; fill-rule:evenodd; clip-rule:evenodd" xmlns:xlink="http://www.w3.org/1999/xlink">
<g><path style="opacity:1" fill="#3d392a" d="M -0.5,-0.5 C 7.5,-0.5 15.5,-0.5 23.5,-0.5C 23.5,7.5 23.5,15.5 23.5,23.5C 15.5,23.5 7.5,23.5 -0.5,23.5C -0.5,15.5 -0.5,7.5 -0.5,-0.5 Z"/></g>
<g><path style="opacity:1" fill="#cdba79" d="M 22.5,19.5 C 22.5,20.5 22.5,21.5 22.5,22.5C 14.7572,23.1299 7.42384,22.4633 0.5,20.5C 7.74629,19.536 15.0796,19.2027 22.5,19.5 Z"/></g>
<g><path style="opacity:1" fill="#d0bf86" d="M 20.5,8.5 C 21.1667,9.16667 21.8333,9.83333 22.5,10.5C 22.5,13.5 22.5,16.5 22.5,19.5C 15.0796,19.2027 7.74629,19.536 0.5,20.5C 0.5,19.1667 0.5,17.8333 0.5,16.5C 5.59467,16.7787 10.5947,16.4454 15.5,15.5C 16.9187,16.4511 18.5853,16.7845 20.5,16.5C 20.5,13.8333 20.5,11.1667 20.5,8.5 Z"/></g>
<g><path style="opacity:1" fill="#ccc095" d="M 15.5,8.5 C 15.5,10.8333 15.5,13.1667 15.5,15.5C 10.5947,16.4454 5.59467,16.7787 0.5,16.5C 0.5,14.1667 0.5,11.8333 0.5,9.5C 4.64037,9.68928 8.64037,10.3559 12.5,11.5C 13.5,10.5 14.5,9.5 15.5,8.5 Z"/></g>
<g><path style="opacity:1" fill="#3b382c" d="M 12.5,11.5 C 14.337,11.6395 14.6704,12.3061 13.5,13.5C 12.7025,13.0431 12.3691,12.3764 12.5,11.5 Z"/></g>
<g><path style="opacity:1" fill="#a8a59c" d="M 20.5,8.5 C 20.5,11.1667 20.5,13.8333 20.5,16.5C 18.5853,16.7845 16.9187,16.4511 15.5,15.5C 15.5,13.1667 15.5,10.8333 15.5,8.5C 17.1667,7.16667 18.8333,7.16667 20.5,8.5 Z"/></g>
<g><path style="opacity:1" fill="#fafbfb" d="M 16.5,8.5 C 17.5,8.5 18.5,8.5 19.5,8.5C 19.5,10.8333 19.5,13.1667 19.5,15.5C 18.5,15.5 17.5,15.5 16.5,15.5C 16.5,13.1667 16.5,10.8333 16.5,8.5 Z"/></g>
<g><path style="opacity:1" fill="#ece3c8" d="M 22.5,4.5 C 22.5,6.5 22.5,8.5 22.5,10.5C 21.8333,9.83333 21.1667,9.16667 20.5,8.5C 18.8333,7.16667 17.1667,7.16667 15.5,8.5C 14.5,9.5 13.5,10.5 12.5,11.5C 8.64037,10.3559 4.64037,9.68928 0.5,9.5C 0.5,8.16667 0.5,6.83333 0.5,5.5C 7.92038,5.79733 15.2537,5.46399 22.5,4.5 Z"/></g>
<g><path style="opacity:1" fill="#ece7d9" d="M 22.5,4.5 C 15.2537,5.46399 7.92038,5.79733 0.5,5.5C 0.5,3.83333 0.5,2.16667 0.5,0.5C 7.83333,0.5 15.1667,0.5 22.5,0.5C 22.5,1.83333 22.5,3.16667 22.5,4.5 Z"/></g>
</svg>
