<?xml version="1.0" encoding="UTF-8"?>
<!DOCTYPE svg PUBLIC "-//W3C//DTD SVG 1.1//EN" "http://www.w3.org/Graphics/SVG/1.1/DTD/svg11.dtd">
<svg xmlns="http://www.w3.org/2000/svg" version="1.1" width="24px" height="24px" style="shape-rendering:geometricPrecision; text-rendering:geometricPrecision; image-rendering:optimizeQuality; fill-rule:evenodd; clip-rule:evenodd" xmlns:xlink="http://www.w3.org/1999/xlink">
<g><path style="opacity:0.857" fill="#666666" d="M 11.5,8.5 C 11.9492,6.02253 11.2825,4.02253 9.5,2.5C 7.23946,4.48354 6.90612,6.81687 8.5,9.5C 8.5,9.83333 8.5,10.1667 8.5,10.5C 5.02346,7.73433 4.69012,4.56766 7.5,1C 9.36682,0.288847 10.8668,0.788847 12,2.5C 12.7891,4.71159 12.6225,6.71159 11.5,8.5 Z"/></g>
<g><path style="opacity:1" fill="#808080" d="M 11.5,8.5 C 10.609,9.10978 9.60895,9.44312 8.5,9.5C 6.90612,6.81687 7.23946,4.48354 9.5,2.5C 11.2825,4.02253 11.9492,6.02253 11.5,8.5 Z"/></g>
<g><path style="opacity:0.055" fill="#111111" d="M 11.5,8.5 C 11.6716,9.49162 11.3382,10.1583 10.5,10.5C 9.83333,10.5 9.16667,10.5 8.5,10.5C 8.5,10.1667 8.5,9.83333 8.5,9.5C 9.60895,9.44312 10.609,9.10978 11.5,8.5 Z"/></g>
<g><path style="opacity:0.1" fill="#dfdfdf" d="M 10.5,11.5 C 12.8333,12.1667 15.1667,12.8333 17.5,13.5C 17.1667,13.5 16.8333,13.5 16.5,13.5C 14.8333,13.5 13.1667,13.5 11.5,13.5C 11.762,14.9778 11.4287,16.3112 10.5,17.5C 9.20719,15.3635 9.20719,13.3635 10.5,11.5 Z"/></g>
<g><path style="opacity:0.307" fill="#bfbfbf" d="M 16.5,13.5 C 16.8333,13.5 17.1667,13.5 17.5,13.5C 17.5,16.8333 17.5,20.1667 17.5,23.5C 15.1667,23.5 12.8333,23.5 10.5,23.5C 10.6347,21.4458 9.96799,19.7791 8.5,18.5C 9.5,18.5 10.5,18.5 11.5,18.5C 11.5,19.8333 11.5,21.1667 11.5,22.5C 13.1992,22.6602 14.8659,22.4935 16.5,22C 13.9249,19.1742 13.9249,16.3408 16.5,13.5 Z"/></g>
<g><path style="opacity:0.993" fill="#838383" d="M 8.5,10.5 C 9.16667,10.5 9.83333,10.5 10.5,10.5C 10.5,10.8333 10.5,11.1667 10.5,11.5C 9.20719,13.3635 9.20719,15.3635 10.5,17.5C 11.4287,16.3112 11.762,14.9778 11.5,13.5C 13.1667,13.5 14.8333,13.5 16.5,13.5C 13.9249,16.3408 13.9249,19.1742 16.5,22C 14.8659,22.4935 13.1992,22.6602 11.5,22.5C 11.5,21.1667 11.5,19.8333 11.5,18.5C 10.5,18.5 9.5,18.5 8.5,18.5C 8.5,15.8333 8.5,13.1667 8.5,10.5 Z"/></g>
</svg>
