<?xml version="1.0" encoding="UTF-8"?>
<!DOCTYPE svg PUBLIC "-//W3C//DTD SVG 1.1//EN" "http://www.w3.org/Graphics/SVG/1.1/DTD/svg11.dtd">
<svg xmlns="http://www.w3.org/2000/svg" version="1.1" width="24px" height="24px" style="shape-rendering:geometricPrecision; text-rendering:geometricPrecision; image-rendering:optimizeQuality; fill-rule:evenodd; clip-rule:evenodd" xmlns:xlink="http://www.w3.org/1999/xlink">
<g><path style="opacity:1" fill="#f3f360" d="M 4.5,9.5 C 4.5,10.8333 4.5,12.1667 4.5,13.5C 4.5,15.1667 4.5,16.8333 4.5,18.5C 3.16667,18.5 1.83333,18.5 0.5,18.5C 0.5,13.8333 0.5,9.16667 0.5,4.5C 1.83333,4.5 3.16667,4.5 4.5,4.5C 4.5,6.16667 4.5,7.83333 4.5,9.5 Z"/></g>
<g><path style="opacity:0.105" fill="#000000" d="M 8.5,5.5 C 11.3878,4.98983 13.7211,5.65649 15.5,7.5C 13.0479,6.93457 10.7146,6.2679 8.5,5.5 Z"/></g>
<g><path style="opacity:1" fill="#f4f460" d="M 18.5,4.5 C 19.8333,4.5 21.1667,4.5 22.5,4.5C 22.5,9.16667 22.5,13.8333 22.5,18.5C 21.1667,18.5 19.8333,18.5 18.5,18.5C 18.5,13.8333 18.5,9.16667 18.5,4.5 Z"/></g>
<g><path style="opacity:0.306" fill="#bfbfb7" d="M 17.5,4.5 C 19.2646,3.53862 21.2646,3.20528 23.5,3.5C 23.5,8.83333 23.5,14.1667 23.5,19.5C 21.2646,19.7947 19.2646,19.4614 17.5,18.5C 17.8333,18.5 18.1667,18.5 18.5,18.5C 19.8333,18.5 21.1667,18.5 22.5,18.5C 22.5,13.8333 22.5,9.16667 22.5,4.5C 21.1667,4.5 19.8333,4.5 18.5,4.5C 18.1667,4.5 17.8333,4.5 17.5,4.5 Z"/></g>
<g><path style="opacity:0.365" fill="#b9b9ac" d="M -0.5,3.5 C 1.5,3.5 3.5,3.5 5.5,3.5C 5.5,5.5 5.5,7.5 5.5,9.5C 5.16667,9.5 4.83333,9.5 4.5,9.5C 4.5,7.83333 4.5,6.16667 4.5,4.5C 3.16667,4.5 1.83333,4.5 0.5,4.5C 0.5,9.16667 0.5,13.8333 0.5,18.5C 1.83333,18.5 3.16667,18.5 4.5,18.5C 4.5,16.8333 4.5,15.1667 4.5,13.5C 4.83333,13.5 5.16667,13.5 5.5,13.5C 5.5,15.5 5.5,17.5 5.5,19.5C 3.5,19.5 1.5,19.5 -0.5,19.5C -0.5,14.1667 -0.5,8.83333 -0.5,3.5 Z"/></g>
<g><path style="opacity:0.963" fill="#b5b5b5" d="M 8.5,5.5 C 10.7146,6.2679 13.0479,6.93457 15.5,7.5C 15.5,8.16667 15.5,8.83333 15.5,9.5C 14.8333,9.5 14.5,9.83333 14.5,10.5C 14.5,11.1667 14.5,11.8333 14.5,12.5C 14.5,13.1667 14.8333,13.5 15.5,13.5C 13.3826,15.6545 10.716,16.6545 7.5,16.5C 7.5,15.5 7.5,14.5 7.5,13.5C 8.83333,12.1667 8.83333,10.8333 7.5,9.5C 7.23219,7.90097 7.56552,6.56764 8.5,5.5 Z"/></g>
<g><path style="opacity:0.788" fill="#787872" d="M 4.5,9.5 C 4.83333,9.5 5.16667,9.5 5.5,9.5C 5.93767,10.5063 6.60433,10.5063 7.5,9.5C 8.83333,10.8333 8.83333,12.1667 7.5,13.5C 6.60433,12.4937 5.93767,12.4937 5.5,13.5C 5.16667,13.5 4.83333,13.5 4.5,13.5C 4.5,12.1667 4.5,10.8333 4.5,9.5 Z"/></g>
<g><path style="opacity:0.561" fill="#747360" d="M 17.5,4.5 C 17.8333,4.5 18.1667,4.5 18.5,4.5C 18.5,9.16667 18.5,13.8333 18.5,18.5C 18.1667,18.5 17.8333,18.5 17.5,18.5C 17.9227,16.2188 17.256,14.5521 15.5,13.5C 14.8333,13.5 14.5,13.1667 14.5,12.5C 14.5,11.8333 14.5,11.1667 14.5,10.5C 15.1667,10.5 15.5,10.1667 15.5,9.5C 17.256,8.44787 17.9227,6.78121 17.5,4.5 Z"/></g>
</svg>
