<?xml version="1.0" encoding="UTF-8"?>
<!DOCTYPE svg PUBLIC "-//W3C//DTD SVG 1.1//EN" "http://www.w3.org/Graphics/SVG/1.1/DTD/svg11.dtd">
<svg xmlns="http://www.w3.org/2000/svg" version="1.1" width="24px" height="24px" style="shape-rendering:geometricPrecision; text-rendering:geometricPrecision; image-rendering:optimizeQuality; fill-rule:evenodd; clip-rule:evenodd" xmlns:xlink="http://www.w3.org/1999/xlink">
<g><path style="opacity:1" fill="#ebe8dd" d="M 22.5,0.5 C 22.5,2.16667 22.5,3.83333 22.5,5.5C 21.596,4.79105 21.2627,3.79105 21.5,2.5C 19.2646,2.20528 17.2646,2.53862 15.5,3.5C 13.1667,3.5 10.8333,3.5 8.5,3.5C 6.0521,2.52693 3.38544,2.1936 0.5,2.5C 7.42384,0.536724 14.7572,-0.129942 22.5,0.5 Z"/></g>
<g><path style="opacity:1" fill="#f4eedf" d="M 0.5,2.5 C 3.38544,2.1936 6.0521,2.52693 8.5,3.5C 6.35757,5.66177 3.6909,6.66177 0.5,6.5C 0.5,5.16667 0.5,3.83333 0.5,2.5 Z"/></g>
<g><path style="opacity:1" fill="#898782" d="M 8.5,3.5 C 10.8333,3.5 13.1667,3.5 15.5,3.5C 15.5,4.16667 15.5,4.83333 15.5,5.5C 14.5655,6.56764 14.2322,7.90097 14.5,9.5C 13.5655,10.5676 13.2322,11.901 13.5,13.5C 13.1667,13.5 12.8333,13.5 12.5,13.5C 12.75,10.786 12.9167,8.11935 13,5.5C 12.586,5.04265 12.086,4.70931 11.5,4.5C 10.5344,6.39605 10.2011,8.39605 10.5,10.5C 10.1667,10.5 9.83333,10.5 9.5,10.5C 9.73731,9.20895 9.40397,8.20895 8.5,7.5C 8.5,6.16667 8.5,4.83333 8.5,3.5 Z"/></g>
<g><path style="opacity:1" fill="#f3eddb" d="M 22.5,5.5 C 22.5,6.83333 22.5,8.16667 22.5,9.5C 22.1667,9.5 21.8333,9.5 21.5,9.5C 21.5,8.5 21.5,7.5 21.5,6.5C 19.5328,6.26057 17.6995,6.59391 16,7.5C 15.5357,6.90558 15.369,6.23891 15.5,5.5C 15.5,4.83333 15.5,4.16667 15.5,3.5C 17.2646,2.53862 19.2646,2.20528 21.5,2.5C 21.2627,3.79105 21.596,4.79105 22.5,5.5 Z"/></g>
<g><path style="opacity:1" fill="#ebe3cc" d="M 8.5,3.5 C 8.5,4.83333 8.5,6.16667 8.5,7.5C 6.0521,8.47307 3.38544,8.8064 0.5,8.5C 0.5,7.83333 0.5,7.16667 0.5,6.5C 3.6909,6.66177 6.35757,5.66177 8.5,3.5 Z"/></g>
<g><path style="opacity:1" fill="#e7dfc3" d="M 15.5,5.5 C 15.369,6.23891 15.5357,6.90558 16,7.5C 17.6995,6.59391 19.5328,6.26057 21.5,6.5C 21.5,7.5 21.5,8.5 21.5,9.5C 19.0504,9.29803 16.717,9.63137 14.5,10.5C 14.5,10.1667 14.5,9.83333 14.5,9.5C 14.2322,7.90097 14.5655,6.56764 15.5,5.5 Z"/></g>
<g><path style="opacity:1" fill="#e5dbbc" d="M 8.5,7.5 C 9.40397,8.20895 9.73731,9.20895 9.5,10.5C 9.5,10.8333 9.5,11.1667 9.5,11.5C 6.60853,10.5975 3.60853,10.2641 0.5,10.5C 0.5,9.83333 0.5,9.16667 0.5,8.5C 3.38544,8.8064 6.0521,8.47307 8.5,7.5 Z"/></g>
<g><path style="opacity:1" fill="#e6dbb9" d="M 21.5,9.5 C 21.8333,9.5 22.1667,9.5 22.5,9.5C 22.5,10.1667 22.5,10.8333 22.5,11.5C 19.6146,11.8064 16.9479,11.4731 14.5,10.5C 16.717,9.63137 19.0504,9.29803 21.5,9.5 Z"/></g>
<g><path style="opacity:1" fill="#e1d5b0" d="M 0.5,10.5 C 3.60853,10.2641 6.60853,10.5975 9.5,11.5C 9.5,11.8333 9.5,12.1667 9.5,12.5C 6.5,12.5 3.5,12.5 0.5,12.5C 0.5,11.8333 0.5,11.1667 0.5,10.5 Z"/></g>
<g><path style="opacity:1" fill="#c2c2c4" d="M 12.5,13.5 C 12.6602,15.1992 12.4935,16.8659 12,18.5C 11.8171,15.6353 11.3171,12.9686 10.5,10.5C 10.2011,8.39605 10.5344,6.39605 11.5,4.5C 12.086,4.70931 12.586,5.04265 13,5.5C 12.9167,8.11935 12.75,10.786 12.5,13.5 Z"/></g>
<g><path style="opacity:1" fill="#dfd2aa" d="M 14.5,9.5 C 14.5,9.83333 14.5,10.1667 14.5,10.5C 16.9479,11.4731 19.6146,11.8064 22.5,11.5C 22.5,12.1667 22.5,12.8333 22.5,13.5C 19.5,13.5 16.5,13.5 13.5,13.5C 13.2322,11.901 13.5655,10.5676 14.5,9.5 Z"/></g>
<g><path style="opacity:1" fill="#dbcea2" d="M 0.5,12.5 C 3.5,12.5 6.5,12.5 9.5,12.5C 9.5,13.1667 9.5,13.8333 9.5,14.5C 6.5,14.5 3.5,14.5 0.5,14.5C 0.5,13.8333 0.5,13.1667 0.5,12.5 Z"/></g>
<g><path style="opacity:1" fill="#d9cb9c" d="M 13.5,13.5 C 16.5,13.5 19.5,13.5 22.5,13.5C 22.5,14.1667 22.5,14.8333 22.5,15.5C 19.5,15.5 16.5,15.5 13.5,15.5C 13.5,14.8333 13.5,14.1667 13.5,13.5 Z"/></g>
<g><path style="opacity:1" fill="#d7c796" d="M 0.5,14.5 C 3.5,14.5 6.5,14.5 9.5,14.5C 9.5,15.1667 9.5,15.8333 9.5,16.5C 6.5,16.5 3.5,16.5 0.5,16.5C 0.5,15.8333 0.5,15.1667 0.5,14.5 Z"/></g>
<g><path style="opacity:1" fill="#8e8977" d="M 10.5,10.5 C 11.3171,12.9686 11.8171,15.6353 12,18.5C 12.4935,16.8659 12.6602,15.1992 12.5,13.5C 12.8333,13.5 13.1667,13.5 13.5,13.5C 13.5,14.1667 13.5,14.8333 13.5,15.5C 13.5,16.5 13.5,17.5 13.5,18.5C 13.5,19.1667 13.5,19.8333 13.5,20.5C 12.5,20.5 11.5,20.5 10.5,20.5C 10.5,17.1667 10.5,13.8333 10.5,10.5 Z"/></g>
<g><path style="opacity:1" fill="#d4c38d" d="M 13.5,15.5 C 16.5,15.5 19.5,15.5 22.5,15.5C 22.5,16.1667 22.5,16.8333 22.5,17.5C 21.8333,17.5 21.5,17.8333 21.5,18.5C 18.8333,18.5 16.1667,18.5 13.5,18.5C 13.5,17.5 13.5,16.5 13.5,15.5 Z"/></g>
<g><path style="opacity:1" fill="#d1c087" d="M 0.5,16.5 C 3.5,16.5 6.5,16.5 9.5,16.5C 9.5,17.5 9.5,18.5 9.5,19.5C 6.5,19.5 3.5,19.5 0.5,19.5C 0.5,18.5 0.5,17.5 0.5,16.5 Z"/></g>
<g><path style="opacity:1" fill="#302d24" d="M -0.5,-0.5 C 7.5,-0.5 15.5,-0.5 23.5,-0.5C 23.5,-0.166667 23.5,0.166667 23.5,0.5C 23.1667,0.5 22.8333,0.5 22.5,0.5C 14.7572,-0.129942 7.42384,0.536724 0.5,2.5C 0.5,3.83333 0.5,5.16667 0.5,6.5C 0.5,7.16667 0.5,7.83333 0.5,8.5C 0.5,9.16667 0.5,9.83333 0.5,10.5C 0.5,11.1667 0.5,11.8333 0.5,12.5C 0.5,13.1667 0.5,13.8333 0.5,14.5C 0.5,15.1667 0.5,15.8333 0.5,16.5C 0.5,17.5 0.5,18.5 0.5,19.5C 0.5,19.8333 0.5,20.1667 0.5,20.5C 0.5,21.1667 0.5,21.8333 0.5,22.5C 0.166667,22.5 -0.166667,22.5 -0.5,22.5C -0.5,14.8333 -0.5,7.16667 -0.5,-0.5 Z"/></g>
<g><path style="opacity:1" fill="#c6b47d" d="M 9.5,10.5 C 9.83333,10.5 10.1667,10.5 10.5,10.5C 10.5,13.8333 10.5,17.1667 10.5,20.5C 7.16667,20.5 3.83333,20.5 0.5,20.5C 0.5,20.1667 0.5,19.8333 0.5,19.5C 3.5,19.5 6.5,19.5 9.5,19.5C 9.5,18.5 9.5,17.5 9.5,16.5C 9.5,15.8333 9.5,15.1667 9.5,14.5C 9.5,13.8333 9.5,13.1667 9.5,12.5C 9.5,12.1667 9.5,11.8333 9.5,11.5C 9.5,11.1667 9.5,10.8333 9.5,10.5 Z"/></g>
<g><path style="opacity:1" fill="#ccba7d" d="M 13.5,18.5 C 16.1667,18.5 18.8333,18.5 21.5,18.5C 21.5,19.5 21.5,20.5 21.5,21.5C 18.6146,21.8064 15.9479,21.4731 13.5,20.5C 13.5,19.8333 13.5,19.1667 13.5,18.5 Z"/></g>
<g><path style="opacity:1" fill="#d2be7c" d="M 22.5,17.5 C 22.5,19.1667 22.5,20.8333 22.5,22.5C 15.1667,22.5 7.83333,22.5 0.5,22.5C 0.5,21.8333 0.5,21.1667 0.5,20.5C 3.83333,20.5 7.16667,20.5 10.5,20.5C 11.5,20.5 12.5,20.5 13.5,20.5C 15.9479,21.4731 18.6146,21.8064 21.5,21.5C 21.5,20.5 21.5,19.5 21.5,18.5C 21.5,17.8333 21.8333,17.5 22.5,17.5 Z"/></g>
<g><path style="opacity:1" fill="#49422f" d="M 22.5,0.5 C 22.8333,0.5 23.1667,0.5 23.5,0.5C 23.5,8.16667 23.5,15.8333 23.5,23.5C 15.5,23.5 7.5,23.5 -0.5,23.5C -0.5,23.1667 -0.5,22.8333 -0.5,22.5C -0.166667,22.5 0.166667,22.5 0.5,22.5C 7.83333,22.5 15.1667,22.5 22.5,22.5C 22.5,20.8333 22.5,19.1667 22.5,17.5C 22.5,16.8333 22.5,16.1667 22.5,15.5C 22.5,14.8333 22.5,14.1667 22.5,13.5C 22.5,12.8333 22.5,12.1667 22.5,11.5C 22.5,10.8333 22.5,10.1667 22.5,9.5C 22.5,8.16667 22.5,6.83333 22.5,5.5C 22.5,3.83333 22.5,2.16667 22.5,0.5 Z"/></g>
</svg>
