<?xml version="1.0" encoding="UTF-8"?>
<!DOCTYPE svg PUBLIC "-//W3C//DTD SVG 1.1//EN" "http://www.w3.org/Graphics/SVG/1.1/DTD/svg11.dtd">
<svg xmlns="http://www.w3.org/2000/svg" version="1.1" width="24px" height="24px" style="shape-rendering:geometricPrecision; text-rendering:geometricPrecision; image-rendering:optimizeQuality; fill-rule:evenodd; clip-rule:evenodd" xmlns:xlink="http://www.w3.org/1999/xlink">
<g><path style="opacity:1" fill="#b6b6b6" d="M 2.5,3.5 C 7.83333,4.16667 13.1667,4.83333 18.5,5.5C 18.5,6.16667 18.5,6.83333 18.5,7.5C 12.5368,8.04539 6.87012,7.37872 1.5,5.5C 1.32842,4.50838 1.66175,3.84171 2.5,3.5 Z"/></g>
<g><path style="opacity:0.635" fill="#9a9a9a" d="M 2.5,3.5 C 8.86818,3.17033 15.2015,3.50367 21.5,4.5C 22.7537,6.64311 22.7537,8.64311 21.5,10.5C 21.0623,9.49367 20.3957,9.49367 19.5,10.5C 19.7845,8.58533 19.4511,6.91866 18.5,5.5C 13.1667,4.83333 7.83333,4.16667 2.5,3.5 Z"/></g>
<g><path style="opacity:1" fill="#9a9a9a" d="M 1.5,5.5 C 6.87012,7.37872 12.5368,8.04539 18.5,7.5C 13.3491,8.32669 8.01581,8.82669 2.5,9C 3.05596,9.38258 3.38929,9.88258 3.5,10.5C 2.66175,10.8417 2.32842,11.5084 2.5,12.5C 1.53178,10.3926 1.19845,8.0593 1.5,5.5 Z"/></g>
<g><path style="opacity:1" fill="#818181" d="M 18.5,5.5 C 19.4511,6.91866 19.7845,8.58533 19.5,10.5C 19.1667,10.5 18.8333,10.5 18.5,10.5C 13.5,10.5 8.5,10.5 3.5,10.5C 3.38929,9.88258 3.05596,9.38258 2.5,9C 8.01581,8.82669 13.3491,8.32669 18.5,7.5C 18.5,6.83333 18.5,6.16667 18.5,5.5 Z"/></g>
<g><path style="opacity:1" fill="#6a6a6a" d="M 3.5,10.5 C 8.5,10.5 13.5,10.5 18.5,10.5C 13.5,11.1667 8.5,11.8333 3.5,12.5C 3.16667,12.5 2.83333,12.5 2.5,12.5C 2.32842,11.5084 2.66175,10.8417 3.5,10.5 Z"/></g>
<g><path style="opacity:0.781" fill="#969696" d="M 21.5,10.5 C 21.5858,11.4959 21.2524,12.3292 20.5,13C 17.854,13.4974 15.1873,13.6641 12.5,13.5C 11.8333,12.1667 11.1667,12.1667 10.5,13.5C 7.9407,13.8016 5.60737,13.4682 3.5,12.5C 8.5,11.8333 13.5,11.1667 18.5,10.5C 18.8333,10.5 19.1667,10.5 19.5,10.5C 20.3957,9.49367 21.0623,9.49367 21.5,10.5 Z"/></g>
<g><path style="opacity:0.812" fill="#edebc3" d="M 10.5,13.5 C 11.1667,13.5 11.8333,13.5 12.5,13.5C 13.2341,14.7079 13.5674,16.0413 13.5,17.5C 12.7777,16.4489 11.7777,15.7822 10.5,15.5C 10.5,14.8333 10.5,14.1667 10.5,13.5 Z"/></g>
<g><path style="opacity:1" fill="#d2d136" d="M 10.5,15.5 C 11.7777,15.7822 12.7777,16.4489 13.5,17.5C 13.5,17.8333 13.5,18.1667 13.5,18.5C 13.5,19.5 13.5,20.5 13.5,21.5C 11.5168,21.8432 10.1834,21.1765 9.5,19.5C 9.43255,18.0413 9.76589,16.7079 10.5,15.5 Z"/></g>
<g><path style="opacity:0.753" fill="#dfdeb9" d="M 13.5,18.5 C 14.4345,19.5676 14.7678,20.901 14.5,22.5C 12.5,22.5 10.5,22.5 8.5,22.5C 8.26269,21.209 8.59603,20.209 9.5,19.5C 10.1834,21.1765 11.5168,21.8432 13.5,21.5C 13.5,20.5 13.5,19.5 13.5,18.5 Z"/></g>
</svg>
