<?xml version="1.0" encoding="UTF-8"?>
<!DOCTYPE svg PUBLIC "-//W3C//DTD SVG 1.1//EN" "http://www.w3.org/Graphics/SVG/1.1/DTD/svg11.dtd">
<svg xmlns="http://www.w3.org/2000/svg" version="1.1" width="24px" height="24px" style="shape-rendering:geometricPrecision; text-rendering:geometricPrecision; image-rendering:optimizeQuality; fill-rule:evenodd; clip-rule:evenodd" xmlns:xlink="http://www.w3.org/1999/xlink">
<g><path style="opacity:1" fill="#fffcef" d="M 22.5,1.5 C 22.5,2.83333 22.5,4.16667 22.5,5.5C 21.8333,5.5 21.5,5.16667 21.5,4.5C 21.5,4.16667 21.5,3.83333 21.5,3.5C 16.6835,2.67386 11.6835,2.17386 6.5,2C 11.8229,1.50065 17.1563,1.33398 22.5,1.5 Z"/></g>
<g><path style="opacity:0.71" fill="#444442" d="M 4.5,-0.5 C 10.8333,-0.5 17.1667,-0.5 23.5,-0.5C 23.5,-0.166667 23.5,0.166667 23.5,0.5C 23.1667,0.5 22.8333,0.5 22.5,0.5C 16.8333,0.5 11.1667,0.5 5.5,0.5C 5.5,1.5 5.5,2.5 5.5,3.5C 5.5,5.16667 5.5,6.83333 5.5,8.5C 5.67158,9.49162 5.33825,10.1583 4.5,10.5C 4.5,6.83333 4.5,3.16667 4.5,-0.5 Z"/></g>
<g><path style="opacity:1" fill="#e1ddd1" d="M 22.5,0.5 C 22.5,0.833333 22.5,1.16667 22.5,1.5C 17.1563,1.33398 11.8229,1.50065 6.5,2C 11.6835,2.17386 16.6835,2.67386 21.5,3.5C 16.5,3.5 11.5,3.5 6.5,3.5C 6.16667,3.5 5.83333,3.5 5.5,3.5C 5.5,2.5 5.5,1.5 5.5,0.5C 11.1667,0.5 16.8333,0.5 22.5,0.5 Z"/></g>
<g><path style="opacity:1" fill="#f3eddb" d="M 6.5,3.5 C 11.5,3.5 16.5,3.5 21.5,3.5C 21.5,3.83333 21.5,4.16667 21.5,4.5C 19.3792,4.32526 17.3792,4.65859 15.5,5.5C 14.5,5.5 13.5,5.5 12.5,5.5C 10.3736,4.95184 8.37358,4.28518 6.5,3.5 Z"/></g>
<g><path style="opacity:1" fill="#dfdbc8" d="M 5.5,3.5 C 5.83333,3.5 6.16667,3.5 6.5,3.5C 8.37358,4.28518 10.3736,4.95184 12.5,5.5C 12.5,5.83333 12.5,6.16667 12.5,6.5C 12.1583,7.33825 11.4916,7.67158 10.5,7.5C 9.81658,5.82351 8.48324,5.15684 6.5,5.5C 6.5,6.5 6.5,7.5 6.5,8.5C 6.16667,8.5 5.83333,8.5 5.5,8.5C 5.5,6.83333 5.5,5.16667 5.5,3.5 Z"/></g>
<g><path style="opacity:1" fill="#f1ead5" d="M 21.5,4.5 C 21.5,5.16667 21.8333,5.5 22.5,5.5C 22.5,6.16667 22.5,6.83333 22.5,7.5C 20.6208,6.65859 18.6208,6.32526 16.5,6.5C 15.8333,6.5 15.5,6.16667 15.5,5.5C 17.3792,4.65859 19.3792,4.32526 21.5,4.5 Z"/></g>
<g><path style="opacity:1" fill="#e8e0c7" d="M 10.5,7.5 C 10.5,8.5 10.5,9.5 10.5,10.5C 8.80072,10.4729 7.46739,9.80624 6.5,8.5C 6.5,7.5 6.5,6.5 6.5,5.5C 8.48324,5.15684 9.81658,5.82351 10.5,7.5 Z"/></g>
<g><path style="opacity:1" fill="#eae1c5" d="M 16.5,6.5 C 18.6208,6.32526 20.6208,6.65859 22.5,7.5C 22.7373,8.79105 22.404,9.79105 21.5,10.5C 20.336,10.8346 19.0026,10.8346 17.5,10.5C 17.5674,9.04125 17.2341,7.70792 16.5,6.5 Z"/></g>
<g><path style="opacity:1" fill="#847e69" d="M 22.5,0.5 C 22.8333,0.5 23.1667,0.5 23.5,0.5C 23.5,7.83333 23.5,15.1667 23.5,22.5C 23.1667,22.5 22.8333,22.5 22.5,22.5C 22.5,21.5 22.5,20.5 22.5,19.5C 22.5,18.1667 22.5,16.8333 22.5,15.5C 22.7373,14.209 22.404,13.209 21.5,12.5C 21.5,11.8333 21.5,11.1667 21.5,10.5C 22.404,9.79105 22.7373,8.79105 22.5,7.5C 22.5,6.83333 22.5,6.16667 22.5,5.5C 22.5,4.16667 22.5,2.83333 22.5,1.5C 22.5,1.16667 22.5,0.833333 22.5,0.5 Z"/></g>
<g><path style="opacity:1" fill="#afd0d1" d="M 12.5,6.5 C 14.8418,6.7748 14.8418,7.60814 12.5,9C 13.0944,9.46434 13.7611,9.63101 14.5,9.5C 14.5,10.1667 14.1667,10.5 13.5,10.5C 12.5,10.5 11.5,10.5 10.5,10.5C 10.5,9.5 10.5,8.5 10.5,7.5C 11.4916,7.67158 12.1583,7.33825 12.5,6.5 Z"/></g>
<g><path style="opacity:0.933" fill="#6a685f" d="M 5.5,8.5 C 5.83333,8.5 6.16667,8.5 6.5,8.5C 7.46739,9.80624 8.80072,10.4729 10.5,10.5C 10.5,11.1667 10.5,11.8333 10.5,12.5C 8.59565,12.7376 7.26231,13.7376 6.5,15.5C 5.16667,17.8333 5.16667,20.1667 6.5,22.5C 11.8333,22.5 17.1667,22.5 22.5,22.5C 22.8333,22.5 23.1667,22.5 23.5,22.5C 23.5,22.8333 23.5,23.1667 23.5,23.5C 17.1667,23.5 10.8333,23.5 4.5,23.5C 4.5,19.8333 4.5,16.1667 4.5,12.5C 2.83333,12.5 1.16667,12.5 -0.5,12.5C -0.5,11.8333 -0.5,11.1667 -0.5,10.5C 1.16667,10.5 2.83333,10.5 4.5,10.5C 5.33825,10.1583 5.67158,9.49162 5.5,8.5 Z"/></g>
<g><path style="opacity:1" fill="#475556" d="M 15.5,8.5 C 15.3713,10.2161 15.038,11.8828 14.5,13.5C 13.596,12.791 13.2627,11.791 13.5,10.5C 14.1667,10.5 14.5,10.1667 14.5,9.5C 14.5,8.83333 14.8333,8.5 15.5,8.5 Z"/></g>
<g><path style="opacity:1" fill="#96a8a2" d="M 12.5,6.5 C 12.5,6.16667 12.5,5.83333 12.5,5.5C 13.5,5.5 14.5,5.5 15.5,5.5C 15.5,6.16667 15.8333,6.5 16.5,6.5C 17.2341,7.70792 17.5674,9.04125 17.5,10.5C 17.5,11.1667 17.5,11.8333 17.5,12.5C 17.6716,13.4916 17.3382,14.1583 16.5,14.5C 16.7947,12.2646 16.4614,10.2646 15.5,8.5C 14.8333,8.5 14.5,8.83333 14.5,9.5C 13.7611,9.63101 13.0944,9.46434 12.5,9C 14.8418,7.60814 14.8418,6.7748 12.5,6.5 Z"/></g>
<g><path style="opacity:1" fill="#1c1c17" d="M 21.5,10.5 C 21.5,11.1667 21.5,11.8333 21.5,12.5C 21.5,12.8333 21.5,13.1667 21.5,13.5C 20.2921,12.7659 18.9587,12.4326 17.5,12.5C 17.5,11.8333 17.5,11.1667 17.5,10.5C 19.0026,10.8346 20.336,10.8346 21.5,10.5 Z"/></g>
<g><path style="opacity:1" fill="#c4e8ea" d="M 10.5,10.5 C 11.5,10.5 12.5,10.5 13.5,10.5C 13.2627,11.791 13.596,12.791 14.5,13.5C 14.5,13.8333 14.5,14.1667 14.5,14.5C 13.7777,15.5511 12.7777,16.2178 11.5,16.5C 11.1667,15.1667 10.8333,13.8333 10.5,12.5C 10.5,11.8333 10.5,11.1667 10.5,10.5 Z"/></g>
<g><path style="opacity:1" fill="#d2f8fa" d="M 15.5,8.5 C 16.4614,10.2646 16.7947,12.2646 16.5,14.5C 15.4523,16.9327 14.7856,16.9327 14.5,14.5C 14.5,14.1667 14.5,13.8333 14.5,13.5C 15.038,11.8828 15.3713,10.2161 15.5,8.5 Z"/></g>
<g><path style="opacity:1" fill="#c4ba91" d="M 10.5,12.5 C 10.8333,13.8333 11.1667,15.1667 11.5,16.5C 9.95819,15.6993 8.29152,15.366 6.5,15.5C 7.26231,13.7376 8.59565,12.7376 10.5,12.5 Z"/></g>
<g><path style="opacity:1" fill="#bdb792" d="M 17.5,12.5 C 18.9587,12.4326 20.2921,12.7659 21.5,13.5C 20.0158,15.0737 18.3492,16.407 16.5,17.5C 14.7659,18.562 13.0992,18.562 11.5,17.5C 11.5,17.1667 11.5,16.8333 11.5,16.5C 12.7777,16.2178 13.7777,15.5511 14.5,14.5C 14.7856,16.9327 15.4523,16.9327 16.5,14.5C 17.3382,14.1583 17.6716,13.4916 17.5,12.5 Z"/></g>
<g><path style="opacity:1" fill="#d8c994" d="M 21.5,12.5 C 22.404,13.209 22.7373,14.209 22.5,15.5C 20.8863,17.0746 18.8863,17.7413 16.5,17.5C 18.3492,16.407 20.0158,15.0737 21.5,13.5C 21.5,13.1667 21.5,12.8333 21.5,12.5 Z"/></g>
<g><path style="opacity:1" fill="#d2c28b" d="M 6.5,15.5 C 8.29152,15.366 9.95819,15.6993 11.5,16.5C 11.5,16.8333 11.5,17.1667 11.5,17.5C 10.0813,18.4511 8.41467,18.7845 6.5,18.5C 6.5,17.5 6.5,16.5 6.5,15.5 Z"/></g>
<g><path style="opacity:1" fill="#cfbf84" d="M 22.5,15.5 C 22.5,16.8333 22.5,18.1667 22.5,19.5C 22.1667,19.5 21.8333,19.5 21.5,19.5C 16.3054,19.8205 11.3054,19.4872 6.5,18.5C 8.41467,18.7845 10.0813,18.4511 11.5,17.5C 13.0992,18.562 14.7659,18.562 16.5,17.5C 18.8863,17.7413 20.8863,17.0746 22.5,15.5 Z"/></g>
<g><path style="opacity:1" fill="#c9b879" d="M 6.5,15.5 C 6.5,16.5 6.5,17.5 6.5,18.5C 11.3054,19.4872 16.3054,19.8205 21.5,19.5C 16.7486,21.1413 11.7486,22.1413 6.5,22.5C 5.16667,20.1667 5.16667,17.8333 6.5,15.5 Z"/></g>
<g><path style="opacity:1" fill="#d4c17c" d="M 21.5,19.5 C 21.8333,19.5 22.1667,19.5 22.5,19.5C 22.5,20.5 22.5,21.5 22.5,22.5C 17.1667,22.5 11.8333,22.5 6.5,22.5C 11.7486,22.1413 16.7486,21.1413 21.5,19.5 Z"/></g>
</svg>
