<?xml version="1.0" encoding="UTF-8"?>
<!DOCTYPE svg PUBLIC "-//W3C//DTD SVG 1.1//EN" "http://www.w3.org/Graphics/SVG/1.1/DTD/svg11.dtd">
<svg xmlns="http://www.w3.org/2000/svg" version="1.1" width="24px" height="24px" style="shape-rendering:geometricPrecision; text-rendering:geometricPrecision; image-rendering:optimizeQuality; fill-rule:evenodd; clip-rule:evenodd" xmlns:xlink="http://www.w3.org/1999/xlink">
<g><path style="opacity:1" fill="#cebc83" d="M 0.5,2.5 C 5.29399,1.9031 9.62733,2.56977 13.5,4.5C 11.7367,3.04622 10.4033,3.37955 9.5,5.5C 7.80584,6.52743 6.4725,7.86076 5.5,9.5C 3.83333,9.5 2.16667,9.5 0.5,9.5C 0.5,7.16667 0.5,4.83333 0.5,2.5 Z"/></g>
<g><path style="opacity:1" fill="#bbaa77" d="M 23.5,0.5 C 23.5,7.83333 23.5,15.1667 23.5,22.5C 23.1667,22.5 22.8333,22.5 22.5,22.5C 22.5,19.8333 22.5,17.1667 22.5,14.5C 22.6633,12.1432 22.4966,9.80982 22,7.5C 20.6439,8.38017 19.1439,8.71351 17.5,8.5C 16.1667,7.16667 14.8333,5.83333 13.5,4.5C 9.62733,2.56977 5.29399,1.9031 0.5,2.5C 7.76046,0.534855 15.4271,-0.131811 23.5,0.5 Z"/></g>
<g><path style="opacity:1" fill="#7f775f" d="M 13.5,4.5 C 14.8333,5.83333 16.1667,7.16667 17.5,8.5C 18.1667,10.5 18.8333,12.5 19.5,14.5C 16.5787,15.3778 13.9121,15.3778 11.5,14.5C 12.0545,10.9878 11.3878,7.98785 9.5,5.5C 10.4033,3.37955 11.7367,3.04622 13.5,4.5 Z"/></g>
<g><path style="opacity:1" fill="#dfd2ab" d="M 22.5,14.5 C 21.8333,14.5 21.5,14.8333 21.5,15.5C 20.5084,15.6716 19.8417,15.3382 19.5,14.5C 18.8333,12.5 18.1667,10.5 17.5,8.5C 19.1439,8.71351 20.6439,8.38017 22,7.5C 22.4966,9.80982 22.6633,12.1432 22.5,14.5 Z"/></g>
<g><path style="opacity:1" fill="#c0b592" d="M 9.5,5.5 C 11.3878,7.98785 12.0545,10.9878 11.5,14.5C 11.44,15.0431 11.1067,15.3764 10.5,15.5C 9.51298,12.2317 9.17964,8.89838 9.5,5.5 Z"/></g>
<g><path style="opacity:1" fill="#d0c5a7" d="M 0.5,9.5 C 2.16667,9.5 3.83333,9.5 5.5,9.5C 5.46056,10.5832 5.12723,11.5832 4.5,12.5C 5.44145,12.4895 6.10812,12.9895 6.5,14C 4.92687,14.3374 3.59353,15.1708 2.5,16.5C 1.83333,16.1667 1.16667,15.8333 0.5,15.5C 0.5,13.5 0.5,11.5 0.5,9.5 Z"/></g>
<g><path style="opacity:1" fill="#5d594c" d="M 9.5,5.5 C 9.17964,8.89838 9.51298,12.2317 10.5,15.5C 11.1067,15.3764 11.44,15.0431 11.5,14.5C 13.9121,15.3778 16.5787,15.3778 19.5,14.5C 19.8417,15.3382 20.5084,15.6716 21.5,15.5C 21.2079,16.8736 20.8746,18.2069 20.5,19.5C 20.5,18.8333 20.1667,18.5 19.5,18.5C 17.4294,17.1914 14.9294,16.5248 12,16.5C 9.5,16.6667 7,16.8333 4.5,17C 3.94404,17.3826 3.61071,17.8826 3.5,18.5C 2.57982,19.0674 2.24649,18.4008 2.5,16.5C 3.59353,15.1708 4.92687,14.3374 6.5,14C 6.10812,12.9895 5.44145,12.4895 4.5,12.5C 5.12723,11.5832 5.46056,10.5832 5.5,9.5C 6.4725,7.86076 7.80584,6.52743 9.5,5.5 Z"/></g>
<g><path style="opacity:1" fill="#f6f1e1" d="M 22.5,14.5 C 22.5,17.1667 22.5,19.8333 22.5,22.5C 15.1667,22.5 7.83333,22.5 0.5,22.5C 0.5,20.1667 0.5,17.8333 0.5,15.5C 1.16667,15.8333 1.83333,16.1667 2.5,16.5C 2.24649,18.4008 2.57982,19.0674 3.5,18.5C 3.83333,18.5 4.16667,18.5 4.5,18.5C 6.57056,19.8086 9.07056,20.4752 12,20.5C 14.9188,20.4525 17.7521,20.1191 20.5,19.5C 20.8746,18.2069 21.2079,16.8736 21.5,15.5C 21.5,14.8333 21.8333,14.5 22.5,14.5 Z"/></g>
<g><path style="opacity:1" fill="#f2e9d2" d="M 19.5,18.5 C 14.5,18.5 9.5,18.5 4.5,18.5C 4.16667,18.5 3.83333,18.5 3.5,18.5C 3.61071,17.8826 3.94404,17.3826 4.5,17C 7,16.8333 9.5,16.6667 12,16.5C 14.9294,16.5248 17.4294,17.1914 19.5,18.5 Z"/></g>
<g><path style="opacity:1" fill="#f0e9d8" d="M 4.5,18.5 C 9.5,18.5 14.5,18.5 19.5,18.5C 20.1667,18.5 20.5,18.8333 20.5,19.5C 17.7521,20.1191 14.9188,20.4525 12,20.5C 9.07056,20.4752 6.57056,19.8086 4.5,18.5 Z"/></g>
<g><path style="opacity:1" fill="#35342f" d="M -0.5,-0.5 C 7.5,-0.5 15.5,-0.5 23.5,-0.5C 23.5,-0.166667 23.5,0.166667 23.5,0.5C 15.4271,-0.131811 7.76046,0.534855 0.5,2.5C 0.5,4.83333 0.5,7.16667 0.5,9.5C 0.5,11.5 0.5,13.5 0.5,15.5C 0.5,17.8333 0.5,20.1667 0.5,22.5C 7.83333,22.5 15.1667,22.5 22.5,22.5C 22.8333,22.5 23.1667,22.5 23.5,22.5C 23.5,22.8333 23.5,23.1667 23.5,23.5C 15.5,23.5 7.5,23.5 -0.5,23.5C -0.5,15.5 -0.5,7.5 -0.5,-0.5 Z"/></g>
</svg>
