<?xml version="1.0" encoding="UTF-8"?>
<!DOCTYPE svg PUBLIC "-//W3C//DTD SVG 1.1//EN" "http://www.w3.org/Graphics/SVG/1.1/DTD/svg11.dtd">
<svg xmlns="http://www.w3.org/2000/svg" version="1.1" width="24px" height="24px" style="shape-rendering:geometricPrecision; text-rendering:geometricPrecision; image-rendering:optimizeQuality; fill-rule:evenodd; clip-rule:evenodd" xmlns:xlink="http://www.w3.org/1999/xlink">
<g><path style="opacity:0.606" fill="#848484" d="M 14.5,8.5 C 10.7016,9.48342 6.70159,9.81675 2.5,9.5C 5.65915,8.51538 6.65915,6.51538 5.5,3.5C 5.83333,2.5 6.5,1.83333 7.5,1.5C 8.47423,3.74269 8.80756,6.07603 8.5,8.5C 10.5,8.5 12.5,8.5 14.5,8.5 Z"/></g>
<g><path style="opacity:0.378" fill="#6c6c6c" d="M 20.5,9.5 C 15.0247,10.4889 9.358,10.8222 3.5,10.5C 2.83333,10.5 2.5,10.1667 2.5,9.5C 6.70159,9.81675 10.7016,9.48342 14.5,8.5C 14.2454,7.0639 13.9121,5.5639 13.5,4C 14.0465,3.07542 14.7132,2.24208 15.5,1.5C 16.4742,3.74269 16.8076,6.07603 16.5,8.5C 18.099,8.23219 19.4324,8.56552 20.5,9.5 Z"/></g>
<g><path style="opacity:0.084" fill="#fefffe" d="M -0.5,8.5 C 0.833333,9.16667 0.833333,9.83333 -0.5,10.5C -0.5,9.83333 -0.5,9.16667 -0.5,8.5 Z"/></g>
<g><path style="opacity:1" fill="#bababa" d="M 20.5,9.5 C 22.7099,10.4551 23.0432,11.9551 21.5,14C 18.5184,14.498 15.5184,14.6646 12.5,14.5C 14.8333,13.8333 17.1667,13.1667 19.5,12.5C 14.1667,11.8333 8.83333,11.1667 3.5,10.5C 9.358,10.8222 15.0247,10.4889 20.5,9.5 Z"/></g>
<g><path style="opacity:1" fill="#999999" d="M 2.5,9.5 C 2.5,10.1667 2.83333,10.5 3.5,10.5C 8.83333,11.1667 14.1667,11.8333 19.5,12.5C 13.8236,12.3339 8.15688,12.5006 2.5,13C 5.03563,13.1862 7.36896,13.6862 9.5,14.5C 6.83333,14.5 4.16667,14.5 1.5,14.5C 1.21552,12.5853 1.54885,10.9187 2.5,9.5 Z"/></g>
<g><path style="opacity:0.861" fill="#6c6c6c" d="M 19.5,12.5 C 17.1667,13.1667 14.8333,13.8333 12.5,14.5C 11.8333,14.5 11.1667,14.5 10.5,14.5C 10.1667,14.5 9.83333,14.5 9.5,14.5C 7.36896,13.6862 5.03563,13.1862 2.5,13C 8.15688,12.5006 13.8236,12.3339 19.5,12.5 Z"/></g>
<g><path style="opacity:0.184" fill="#8b8b8b" d="M 10.5,14.5 C 11.1667,14.5 11.8333,14.5 12.5,14.5C 12.8134,17.2469 12.48,19.9135 11.5,22.5C 10.5853,21.6721 9.91862,20.6721 9.5,19.5C 9.5786,17.8717 9.91194,16.2051 10.5,14.5 Z"/></g>
</svg>
