<?xml version="1.0" encoding="UTF-8"?>
<!DOCTYPE svg PUBLIC "-//W3C//DTD SVG 1.1//EN" "http://www.w3.org/Graphics/SVG/1.1/DTD/svg11.dtd">
<svg xmlns="http://www.w3.org/2000/svg" version="1.1" width="24px" height="24px" style="shape-rendering:geometricPrecision; text-rendering:geometricPrecision; image-rendering:optimizeQuality; fill-rule:evenodd; clip-rule:evenodd" xmlns:xlink="http://www.w3.org/1999/xlink">
<g><path style="opacity:0.48" fill="#878787" d="M 11.5,5.5 C 10.6618,5.15829 10.3284,4.49162 10.5,3.5C 13.7107,3.98798 16.544,3.32131 19,1.5C 20.298,2.55962 21.4647,3.72629 22.5,5C 22.3699,6.05877 21.8699,6.8921 21,7.5C 18.3952,6.16308 15.2285,5.49642 11.5,5.5 Z"/></g>
<g><path style="opacity:0.482" fill="#8f8f8f" d="M 9.5,10.5 C 10.8333,11.1667 10.8333,11.8333 9.5,12.5C -1.16667,11.8333 -1.16667,11.1667 9.5,10.5 Z"/></g>
<g><path style="opacity:0.508" fill="#898989" d="M 20.5,13.5 C 20.1583,12.6618 19.4916,12.3284 18.5,12.5C 16.1667,12.5 13.8333,12.5 11.5,12.5C 11.5,11.8333 11.5,11.1667 11.5,10.5C 14.3938,10.9577 16.8938,10.291 19,8.5C 20.298,9.55962 21.4647,10.7263 22.5,12C 22.1639,13.0299 21.4972,13.5299 20.5,13.5 Z"/></g>
<g><path style="opacity:0.295" fill="#7d7d7d" d="M 10.5,3.5 C 10.3284,4.49162 10.6618,5.15829 11.5,5.5C 11.5,7.16667 11.5,8.83333 11.5,10.5C 11.5,11.1667 11.5,11.8333 11.5,12.5C 11.5,14.1667 11.5,15.8333 11.5,17.5C 11.1667,18.1667 10.8333,18.8333 10.5,19.5C 9.53178,17.3926 9.19845,15.0593 9.5,12.5C 10.8333,11.8333 10.8333,11.1667 9.5,10.5C 9.19845,7.9407 9.53178,5.60737 10.5,3.5 Z"/></g>
<g><path style="opacity:0.744" fill="#8a8a8a" d="M 18.5,12.5 C 19.4916,12.3284 20.1583,12.6618 20.5,13.5C 19.7472,15.5592 20.4138,17.3926 22.5,19C 20.9003,20.1233 19.9003,21.6233 19.5,23.5C 19.1667,23.5 18.8333,23.5 18.5,23.5C 18.5,22.1667 18.5,20.8333 18.5,19.5C 15.8333,19.5 13.1667,19.5 10.5,19.5C 10.8333,18.8333 11.1667,18.1667 11.5,17.5C 13.8333,17.5 16.1667,17.5 18.5,17.5C 18.5,15.8333 18.5,14.1667 18.5,12.5 Z"/></g>
</svg>
