<?xml version="1.0" encoding="UTF-8"?>
<!DOCTYPE svg PUBLIC "-//W3C//DTD SVG 1.1//EN" "http://www.w3.org/Graphics/SVG/1.1/DTD/svg11.dtd">
<svg xmlns="http://www.w3.org/2000/svg" version="1.1" width="24px" height="24px" style="shape-rendering:geometricPrecision; text-rendering:geometricPrecision; image-rendering:optimizeQuality; fill-rule:evenodd; clip-rule:evenodd" xmlns:xlink="http://www.w3.org/1999/xlink">
<g><path style="opacity:1" fill="#e8e2d0" d="M 22.5,0.5 C 22.5,2.16667 22.5,3.83333 22.5,5.5C 22.1667,5.5 21.8333,5.5 21.5,5.5C 18.9134,4.18363 15.9134,3.51697 12.5,3.5C 9.31377,3.50199 6.31377,3.83533 3.5,4.5C 2.54885,5.91866 2.21552,7.58533 2.5,9.5C 4.17876,9.28519 5.17876,9.95186 5.5,11.5C 3.95819,12.3007 2.29152,12.634 0.5,12.5C 0.5,8.5 0.5,4.5 0.5,0.5C 7.83333,0.5 15.1667,0.5 22.5,0.5 Z"/></g>
<g><path style="opacity:1" fill="#f0e9d6" d="M 3.5,4.5 C 6.31377,3.83533 9.31377,3.50199 12.5,3.5C 15.9134,3.51697 18.9134,4.18363 21.5,5.5C 16.5,5.5 11.5,5.5 6.5,5.5C 5.60895,4.89022 4.60895,4.55688 3.5,4.5 Z"/></g>
<g><path style="opacity:1" fill="#eee5cf" d="M 6.5,5.5 C 11.5,5.5 16.5,5.5 21.5,5.5C 21.8333,5.5 22.1667,5.5 22.5,5.5C 22.5,6.5 22.5,7.5 22.5,8.5C 17.2599,7.55087 11.9265,7.21754 6.5,7.5C 6.5,6.83333 6.5,6.16667 6.5,5.5 Z"/></g>
<g><path style="opacity:1" fill="#e7ddbf" d="M 6.5,7.5 C 11.9265,7.21754 17.2599,7.55087 22.5,8.5C 22.5,9.5 22.5,10.5 22.5,11.5C 21.2921,10.7659 19.9587,10.4326 18.5,10.5C 16.4816,9.06743 14.8149,9.40076 13.5,11.5C 12.5,10.1667 11.5,10.1667 10.5,11.5C 9.83333,11.5 9.16667,11.5 8.5,11.5C 8.26714,9.93819 7.60048,8.60486 6.5,7.5 Z"/></g>
<g><path style="opacity:1" fill="#c7c1b3" d="M 3.5,4.5 C 4.60895,4.55688 5.60895,4.89022 6.5,5.5C 6.5,6.16667 6.5,6.83333 6.5,7.5C 7.60048,8.60486 8.26714,9.93819 8.5,11.5C 7.56239,16.7668 6.56239,16.7668 5.5,11.5C 5.17876,9.95186 4.17876,9.28519 2.5,9.5C 2.21552,7.58533 2.54885,5.91866 3.5,4.5 Z"/></g>
<g><path style="opacity:1" fill="#2e2c24" d="M 13.5,11.5 C 13.6716,12.4916 13.3382,13.1583 12.5,13.5C 11.5,13.1667 10.8333,12.5 10.5,11.5C 11.5,10.1667 12.5,10.1667 13.5,11.5 Z"/></g>
<g><path style="opacity:1" fill="#cbbf97" d="M 5.5,11.5 C 6.56239,16.7668 7.56239,16.7668 8.5,11.5C 9.16667,11.5 9.83333,11.5 10.5,11.5C 10.8333,12.5 11.5,13.1667 12.5,13.5C 11.6935,14.7281 10.6935,15.7281 9.5,16.5C 7.90097,16.2322 6.56764,16.5655 5.5,17.5C 5.17876,19.0481 4.17876,19.7148 2.5,19.5C 2.42082,18.0695 2.75415,16.7362 3.5,15.5C 2.99525,14.0815 1.99525,13.4148 0.5,13.5C 0.5,13.1667 0.5,12.8333 0.5,12.5C 2.29152,12.634 3.95819,12.3007 5.5,11.5 Z"/></g>
<g><path style="opacity:1" fill="#d0c49b" d="M 18.5,10.5 C 18.5,11.8333 18.5,13.1667 18.5,14.5C 19.675,14.281 20.675,14.6143 21.5,15.5C 17.5546,16.4909 13.5546,16.8242 9.5,16.5C 10.6935,15.7281 11.6935,14.7281 12.5,13.5C 13.3382,13.1583 13.6716,12.4916 13.5,11.5C 14.8149,9.40076 16.4816,9.06743 18.5,10.5 Z"/></g>
<g><path style="opacity:1" fill="#d9ca99" d="M 18.5,10.5 C 19.9587,10.4326 21.2921,10.7659 22.5,11.5C 22.6633,13.8568 22.4966,16.1902 22,18.5C 16.5934,17.5268 11.0934,17.1934 5.5,17.5C 6.56764,16.5655 7.90097,16.2322 9.5,16.5C 13.5546,16.8242 17.5546,16.4909 21.5,15.5C 20.675,14.6143 19.675,14.281 18.5,14.5C 18.5,13.1667 18.5,11.8333 18.5,10.5 Z"/></g>
<g><path style="opacity:1" fill="#c6b581" d="M 22.5,0.5 C 22.8333,0.5 23.1667,0.5 23.5,0.5C 23.5,7.83333 23.5,15.1667 23.5,22.5C 15.8333,22.5 8.16667,22.5 0.5,22.5C 0.5,19.5 0.5,16.5 0.5,13.5C 1.99525,13.4148 2.99525,14.0815 3.5,15.5C 2.75415,16.7362 2.42082,18.0695 2.5,19.5C 4.17876,19.7148 5.17876,19.0481 5.5,17.5C 11.0934,17.1934 16.5934,17.5268 22,18.5C 22.4966,16.1902 22.6633,13.8568 22.5,11.5C 22.5,10.5 22.5,9.5 22.5,8.5C 22.5,7.5 22.5,6.5 22.5,5.5C 22.5,3.83333 22.5,2.16667 22.5,0.5 Z"/></g>
<g><path style="opacity:1" fill="#2e2b1f" d="M -0.5,-0.5 C 7.5,-0.5 15.5,-0.5 23.5,-0.5C 23.5,-0.166667 23.5,0.166667 23.5,0.5C 23.1667,0.5 22.8333,0.5 22.5,0.5C 15.1667,0.5 7.83333,0.5 0.5,0.5C 0.5,4.5 0.5,8.5 0.5,12.5C 0.5,12.8333 0.5,13.1667 0.5,13.5C 0.5,16.5 0.5,19.5 0.5,22.5C 8.16667,22.5 15.8333,22.5 23.5,22.5C 23.5,22.8333 23.5,23.1667 23.5,23.5C 15.5,23.5 7.5,23.5 -0.5,23.5C -0.5,15.5 -0.5,7.5 -0.5,-0.5 Z"/></g>
</svg>
