<?xml version="1.0" encoding="UTF-8"?>
<!DOCTYPE svg PUBLIC "-//W3C//DTD SVG 1.1//EN" "http://www.w3.org/Graphics/SVG/1.1/DTD/svg11.dtd">
<svg xmlns="http://www.w3.org/2000/svg" version="1.1" width="24px" height="24px" style="shape-rendering:geometricPrecision; text-rendering:geometricPrecision; image-rendering:optimizeQuality; fill-rule:evenodd; clip-rule:evenodd" xmlns:xlink="http://www.w3.org/1999/xlink">
<g><path style="opacity:0.671" fill="#535251" d="M 2.5,7.5 C 4.9479,6.52693 7.61456,6.1936 10.5,6.5C 10.5,7.16667 10.5,7.83333 10.5,8.5C 10.1667,8.5 9.83333,8.5 9.5,8.5C 7.83333,7.16667 6.16667,7.16667 4.5,8.5C 4.16667,8.5 3.83333,8.5 3.5,8.5C 3.5,7.83333 3.16667,7.5 2.5,7.5 Z"/></g>
<g><path style="opacity:0.593" fill="#5c5a53" d="M 21.5,6.5 C 21.6716,7.49162 21.3382,8.15829 20.5,8.5C 19.9032,7.86137 19.0698,7.52804 18,7.5C 16.6244,7.68423 15.7911,8.35089 15.5,9.5C 15.5,10.1667 15.5,10.8333 15.5,11.5C 15.5,12.8333 15.5,14.1667 15.5,15.5C 14.8333,15.5 14.1667,15.5 13.5,15.5C 13.5,15.1667 13.5,14.8333 13.5,14.5C 14.8333,12.5 14.8333,10.5 13.5,8.5C 15.6353,6.63105 18.3019,5.96438 21.5,6.5 Z"/></g>
<g><path style="opacity:0.237" fill="#232324" d="M 2.5,7.5 C 3.16667,7.5 3.5,7.83333 3.5,8.5C 3.5,10.8333 3.5,13.1667 3.5,15.5C 5.83333,15.5 8.16667,15.5 10.5,15.5C 10.5,15.8333 10.5,16.1667 10.5,16.5C 7.83333,16.5 5.16667,16.5 2.5,16.5C 2.73731,15.209 2.40397,14.209 1.5,13.5C 3.12901,11.8041 2.79568,10.8041 0.5,10.5C 1.55114,9.77765 2.21781,8.77765 2.5,7.5 Z"/></g>
<g><path style="opacity:1" fill="#e4e1d3" d="M 9.5,8.5 C 9.5,8.83333 9.5,9.16667 9.5,9.5C 7.83333,9.5 6.16667,9.5 4.5,9.5C 4.5,9.16667 4.5,8.83333 4.5,8.5C 6.16667,7.16667 7.83333,7.16667 9.5,8.5 Z"/></g>
<g><path style="opacity:1" fill="#e4e1d4" d="M 20.5,8.5 C 20.5,8.83333 20.5,9.16667 20.5,9.5C 18.8333,9.5 17.1667,9.5 15.5,9.5C 15.7911,8.35089 16.6244,7.68423 18,7.5C 19.0698,7.52804 19.9032,7.86137 20.5,8.5 Z"/></g>
<g><path style="opacity:0.963" fill="#797979" d="M -0.5,10.5 C -0.166667,10.5 0.166667,10.5 0.5,10.5C 2.79568,10.8041 3.12901,11.8041 1.5,13.5C 1.56544,13.9382 1.39877,14.2716 1,14.5C 0.721579,13.5842 0.221579,12.9175 -0.5,12.5C -0.5,11.8333 -0.5,11.1667 -0.5,10.5 Z"/></g>
<g><path style="opacity:1" fill="#ece2c5" d="M 15.5,9.5 C 17.1667,9.5 18.8333,9.5 20.5,9.5C 20.5,10.1667 20.5,10.8333 20.5,11.5C 18.8333,11.5 17.1667,11.5 15.5,11.5C 15.5,10.8333 15.5,10.1667 15.5,9.5 Z"/></g>
<g><path style="opacity:0.871" fill="#afa99a" d="M 10.5,6.5 C 11.1577,7.39836 11.8243,8.39836 12.5,9.5C 13.1067,9.37642 13.44,9.04309 13.5,8.5C 14.8333,10.5 14.8333,12.5 13.5,14.5C 13.5654,14.0618 13.3988,13.7284 13,13.5C 12.1482,14.5707 11.3149,15.5707 10.5,16.5C 10.5,16.1667 10.5,15.8333 10.5,15.5C 10.5,14.8333 10.5,14.1667 10.5,13.5C 11.8333,13.1667 11.8333,12.8333 10.5,12.5C 10.5,11.1667 10.5,9.83333 10.5,8.5C 10.5,7.83333 10.5,7.16667 10.5,6.5 Z"/></g>
<g><path style="opacity:1" fill="#cdbe8b" d="M 15.5,11.5 C 17.1667,11.5 18.8333,11.5 20.5,11.5C 20.5,12.5 20.5,13.5 20.5,14.5C 19.0813,15.4511 17.4147,15.7845 15.5,15.5C 15.5,14.1667 15.5,12.8333 15.5,11.5 Z"/></g>
<g><path style="opacity:0.2" fill="#84827e" d="M 21.5,6.5 C 22.1667,7.83333 22.8333,9.16667 23.5,10.5C 23.5,11.1667 23.5,11.8333 23.5,12.5C 22.8333,13.8333 22.1667,15.1667 21.5,16.5C 21.6716,15.5084 21.3382,14.8417 20.5,14.5C 20.5,13.5 20.5,12.5 20.5,11.5C 20.5,10.8333 20.5,10.1667 20.5,9.5C 20.5,9.16667 20.5,8.83333 20.5,8.5C 21.3382,8.15829 21.6716,7.49162 21.5,6.5 Z"/></g>
<g><path style="opacity:1" fill="#867a55" d="M 3.5,8.5 C 3.83333,8.5 4.16667,8.5 4.5,8.5C 4.5,8.83333 4.5,9.16667 4.5,9.5C 4.5,10.1667 4.5,10.8333 4.5,11.5C 4.5,12.5 4.5,13.5 4.5,14.5C 6.16667,14.5 7.83333,14.5 9.5,14.5C 9.5,13.5 9.5,12.5 9.5,11.5C 9.5,10.8333 9.5,10.1667 9.5,9.5C 9.5,9.16667 9.5,8.83333 9.5,8.5C 9.83333,8.5 10.1667,8.5 10.5,8.5C 10.5,9.83333 10.5,11.1667 10.5,12.5C 10.5,12.8333 10.5,13.1667 10.5,13.5C 10.5,14.1667 10.5,14.8333 10.5,15.5C 8.16667,15.5 5.83333,15.5 3.5,15.5C 3.5,13.1667 3.5,10.8333 3.5,8.5 Z"/></g>
<g><path style="opacity:1" fill="#dccc9a" d="M 4.5,11.5 C 6.16667,11.5 7.83333,11.5 9.5,11.5C 9.5,12.5 9.5,13.5 9.5,14.5C 7.83333,14.5 6.16667,14.5 4.5,14.5C 4.5,13.5 4.5,12.5 4.5,11.5 Z"/></g>
<g><path style="opacity:1" fill="#ece2c5" d="M 4.5,9.5 C 6.16667,9.5 7.83333,9.5 9.5,9.5C 9.5,10.1667 9.5,10.8333 9.5,11.5C 7.83333,11.5 6.16667,11.5 4.5,11.5C 4.5,10.8333 4.5,10.1667 4.5,9.5 Z"/></g>
<g><path style="opacity:0.671" fill="#4d4d4d" d="M 20.5,14.5 C 21.3382,14.8417 21.6716,15.5084 21.5,16.5C 18.6146,16.8064 15.9479,16.4731 13.5,15.5C 14.1667,15.5 14.8333,15.5 15.5,15.5C 17.4147,15.7845 19.0813,15.4511 20.5,14.5 Z"/></g>
</svg>
