<?xml version="1.0" encoding="UTF-8"?>
<!DOCTYPE svg PUBLIC "-//W3C//DTD SVG 1.1//EN" "http://www.w3.org/Graphics/SVG/1.1/DTD/svg11.dtd">
<svg xmlns="http://www.w3.org/2000/svg" version="1.1" width="24px" height="24px" style="shape-rendering:geometricPrecision; text-rendering:geometricPrecision; image-rendering:optimizeQuality; fill-rule:evenodd; clip-rule:evenodd" xmlns:xlink="http://www.w3.org/1999/xlink">
<g><path style="opacity:1" fill="#eae4d4" d="M 22.5,0.5 C 22.7845,2.41467 22.4511,4.08134 21.5,5.5C 19.1667,5.5 16.8333,5.5 14.5,5.5C 9.73704,5.22562 5.07037,5.55896 0.5,6.5C 0.5,4.5 0.5,2.5 0.5,0.5C 7.83333,0.5 15.1667,0.5 22.5,0.5 Z"/></g>
<g><path style="opacity:1" fill="#e9dfc6" d="M 14.5,5.5 C 14.5,7.5 14.5,9.5 14.5,11.5C 13.8333,11.5 13.1667,11.5 12.5,11.5C 10.477,11.2847 8.14366,11.2847 5.5,11.5C 5.38002,10.4138 4.71335,9.74716 3.5,9.5C 2.58362,9.54272 1.91695,9.87605 1.5,10.5C 1.16667,10.5 0.833333,10.5 0.5,10.5C 0.5,9.16667 0.5,7.83333 0.5,6.5C 5.07037,5.55896 9.73704,5.22562 14.5,5.5 Z"/></g>
<g><path style="opacity:1" fill="#f5f5f6" d="M 21.5,6.5 C 21.5,10.1667 21.5,13.8333 21.5,17.5C 19.5,17.5 17.5,17.5 15.5,17.5C 15.5,13.8333 15.5,10.1667 15.5,6.5C 17.5,6.5 19.5,6.5 21.5,6.5 Z"/></g>
<g><path style="opacity:1" fill="#b3ac99" d="M 5.5,11.5 C 7.5,12.1667 9.5,12.8333 11.5,13.5C 8.14006,13.6159 4.80673,13.9492 1.5,14.5C 1.5,13.1667 1.5,11.8333 1.5,10.5C 1.91695,9.87605 2.58362,9.54272 3.5,9.5C 4.71335,9.74716 5.38002,10.4138 5.5,11.5 Z"/></g>
<g><path style="opacity:1" fill="#2a2822" d="M 12.5,11.5 C 12.6716,12.4916 12.3382,13.1583 11.5,13.5C 9.5,12.8333 7.5,12.1667 5.5,11.5C 8.14366,11.2847 10.477,11.2847 12.5,11.5 Z"/></g>
<g><path style="opacity:1" fill="#a19d91" d="M 14.5,5.5 C 16.8333,5.5 19.1667,5.5 21.5,5.5C 21.5,5.83333 21.5,6.16667 21.5,6.5C 19.5,6.5 17.5,6.5 15.5,6.5C 15.5,10.1667 15.5,13.8333 15.5,17.5C 17.5,17.5 19.5,17.5 21.5,17.5C 19.1667,18.8333 16.8333,18.8333 14.5,17.5C 14.5,15.5 14.5,13.5 14.5,11.5C 14.5,9.5 14.5,7.5 14.5,5.5 Z"/></g>
<g><path style="opacity:1" fill="#d3c595" d="M 0.5,10.5 C 0.833333,10.5 1.16667,10.5 1.5,10.5C 1.5,11.8333 1.5,13.1667 1.5,14.5C 4.80673,13.9492 8.14006,13.6159 11.5,13.5C 12.3382,13.1583 12.6716,12.4916 12.5,11.5C 13.1667,11.5 13.8333,11.5 14.5,11.5C 14.5,13.5 14.5,15.5 14.5,17.5C 9.83333,17.5 5.16667,17.5 0.5,17.5C 0.5,15.1667 0.5,12.8333 0.5,10.5 Z"/></g>
<g><path style="opacity:1" fill="#c6b681" d="M 22.5,0.5 C 22.8333,0.5 23.1667,0.5 23.5,0.5C 23.5,7.83333 23.5,15.1667 23.5,22.5C 15.8333,22.5 8.16667,22.5 0.5,22.5C 0.5,20.8333 0.5,19.1667 0.5,17.5C 5.16667,17.5 9.83333,17.5 14.5,17.5C 16.8333,18.8333 19.1667,18.8333 21.5,17.5C 21.5,13.8333 21.5,10.1667 21.5,6.5C 21.5,6.16667 21.5,5.83333 21.5,5.5C 22.4511,4.08134 22.7845,2.41467 22.5,0.5 Z"/></g>
<g><path style="opacity:1" fill="#2e2b20" d="M -0.5,-0.5 C 7.5,-0.5 15.5,-0.5 23.5,-0.5C 23.5,-0.166667 23.5,0.166667 23.5,0.5C 23.1667,0.5 22.8333,0.5 22.5,0.5C 15.1667,0.5 7.83333,0.5 0.5,0.5C 0.5,2.5 0.5,4.5 0.5,6.5C 0.5,7.83333 0.5,9.16667 0.5,10.5C 0.5,12.8333 0.5,15.1667 0.5,17.5C 0.5,19.1667 0.5,20.8333 0.5,22.5C 8.16667,22.5 15.8333,22.5 23.5,22.5C 23.5,22.8333 23.5,23.1667 23.5,23.5C 15.5,23.5 7.5,23.5 -0.5,23.5C -0.5,15.5 -0.5,7.5 -0.5,-0.5 Z"/></g>
</svg>
