<?xml version="1.0" encoding="UTF-8"?>
<!DOCTYPE svg PUBLIC "-//W3C//DTD SVG 1.1//EN" "http://www.w3.org/Graphics/SVG/1.1/DTD/svg11.dtd">
<svg xmlns="http://www.w3.org/2000/svg" version="1.1" width="24px" height="24px" style="shape-rendering:geometricPrecision; text-rendering:geometricPrecision; image-rendering:optimizeQuality; fill-rule:evenodd; clip-rule:evenodd" xmlns:xlink="http://www.w3.org/1999/xlink">
<g><path style="opacity:0.988" fill="#e9e3d5" d="M 22.5,0.5 C 22.5,1.83333 22.5,3.16667 22.5,4.5C 17.5,3.16667 12.5,3.16667 7.5,4.5C 6.5,4.5 5.5,4.5 4.5,4.5C 3.2946,3.31434 1.96126,3.31434 0.5,4.5C 0.5,3.16667 0.5,1.83333 0.5,0.5C 7.83333,0.5 15.1667,0.5 22.5,0.5 Z"/></g>
<g><path style="opacity:0.988" fill="#e8e0cb" d="M 4.5,4.5 C 4.65668,5.87344 4.49001,7.20677 4,8.5C 3.10723,7.28882 2.2739,7.28882 1.5,8.5C 4.07081,9.90453 4.07081,11.2379 1.5,12.5C 1.16667,12.5 0.833333,12.5 0.5,12.5C 0.5,9.83333 0.5,7.16667 0.5,4.5C 1.96126,3.31434 3.2946,3.31434 4.5,4.5 Z"/></g>
<g><path style="opacity:0.988" fill="#f1ead6" d="M 22.5,4.5 C 22.5,5.16667 22.5,5.83333 22.5,6.5C 17.8333,5.16667 13.1667,5.16667 8.5,6.5C 8.16667,5.83333 7.83333,5.16667 7.5,4.5C 12.5,3.16667 17.5,3.16667 22.5,4.5 Z"/></g>
<g><path style="opacity:0.988" fill="#e6dec7" d="M 22.5,6.5 C 22.5,9.16667 22.5,11.8333 22.5,14.5C 22.1667,14.5 21.8333,14.5 21.5,14.5C 18.8333,12.8333 18.8333,11.1667 21.5,9.5C 17.6273,7.56977 13.294,6.9031 8.5,7.5C 8.5,7.16667 8.5,6.83333 8.5,6.5C 13.1667,5.16667 17.8333,5.16667 22.5,6.5 Z"/></g>
<g><path style="opacity:0.988" fill="#e9dfc2" d="M 8.5,7.5 C 13.294,6.9031 17.6273,7.56977 21.5,9.5C 17.8083,9.69308 14.4749,10.0264 11.5,10.5C 10.8333,10.5 10.1667,10.5 9.5,10.5C 8.89022,9.60895 8.55688,8.60895 8.5,7.5 Z"/></g>
<g><path style="opacity:0.988" fill="#c2bcaa" d="M 4.5,4.5 C 5.5,4.5 6.5,4.5 7.5,4.5C 7.83333,5.16667 8.16667,5.83333 8.5,6.5C 8.5,6.83333 8.5,7.16667 8.5,7.5C 8.55688,8.60895 8.89022,9.60895 9.5,10.5C 8.83333,10.8333 8.16667,11.1667 7.5,11.5C 6.82803,10.7326 5.9947,10.0659 5,9.5C 4.69055,10.7659 4.19055,11.9326 3.5,13C 2.56323,13.6917 1.89657,13.525 1.5,12.5C 4.07081,11.2379 4.07081,9.90453 1.5,8.5C 2.2739,7.28882 3.10723,7.28882 4,8.5C 4.49001,7.20677 4.65668,5.87344 4.5,4.5 Z"/></g>
<g><path style="opacity:0.988" fill="#d8cba1" d="M 7.5,11.5 C 7.06178,11.4346 6.72845,11.6012 6.5,12C 8.87472,14.4067 9.87472,13.9067 9.5,10.5C 10.1667,10.5 10.8333,10.5 11.5,10.5C 11.5,11.8333 11.5,13.1667 11.5,14.5C 9.83333,14.5 8.16667,14.5 6.5,14.5C 5.20895,14.2627 4.20895,14.596 3.5,15.5C 2.5,15.5 1.5,15.5 0.5,15.5C 0.5,14.5 0.5,13.5 0.5,12.5C 0.833333,12.5 1.16667,12.5 1.5,12.5C 1.89657,13.525 2.56323,13.6917 3.5,13C 4.19055,11.9326 4.69055,10.7659 5,9.5C 5.9947,10.0659 6.82803,10.7326 7.5,11.5 Z"/></g>
<g><path style="opacity:1" fill="#25231e" d="M 9.5,10.5 C 9.87472,13.9067 8.87472,14.4067 6.5,12C 6.72845,11.6012 7.06178,11.4346 7.5,11.5C 8.16667,11.1667 8.83333,10.8333 9.5,10.5 Z"/></g>
<g><path style="opacity:0.988" fill="#b6af9b" d="M 21.5,9.5 C 18.8333,11.1667 18.8333,12.8333 21.5,14.5C 18.0075,14.9975 14.6741,14.9975 11.5,14.5C 11.5,13.1667 11.5,11.8333 11.5,10.5C 14.4749,10.0264 17.8083,9.69308 21.5,9.5 Z"/></g>
<g><path style="opacity:0.996" fill="#a49e8e" d="M 6.5,14.5 C 6.5,14.8333 6.5,15.1667 6.5,15.5C 6.5,16.8333 6.5,18.1667 6.5,19.5C 5.5,19.5 4.5,19.5 3.5,19.5C 3.5,18.1667 3.5,16.8333 3.5,15.5C 4.20895,14.596 5.20895,14.2627 6.5,14.5 Z"/></g>
<g><path style="opacity:0.988" fill="#d9ca99" d="M 6.5,15.5 C 6.5,15.1667 6.5,14.8333 6.5,14.5C 8.16667,14.5 9.83333,14.5 11.5,14.5C 14.6741,14.9975 18.0075,14.9975 21.5,14.5C 21.8333,14.5 22.1667,14.5 22.5,14.5C 17.9443,16.4417 12.9443,17.1083 7.5,16.5C 7.5,15.8333 7.16667,15.5 6.5,15.5 Z"/></g>
<g><path style="opacity:0.988" fill="#bcad82" d="M 22.5,0.5 C 22.8333,0.5 23.1667,0.5 23.5,0.5C 23.5,7.83333 23.5,15.1667 23.5,22.5C 23.1667,22.5 22.8333,22.5 22.5,22.5C 22.7373,21.209 22.404,20.209 21.5,19.5C 16.5792,19.1384 11.9126,18.1384 7.5,16.5C 12.9443,17.1083 17.9443,16.4417 22.5,14.5C 22.5,11.8333 22.5,9.16667 22.5,6.5C 22.5,5.83333 22.5,5.16667 22.5,4.5C 22.5,3.16667 22.5,1.83333 22.5,0.5 Z"/></g>
<g><path style="opacity:0.988" fill="#cebc83" d="M 6.5,15.5 C 7.16667,15.5 7.5,15.8333 7.5,16.5C 11.9126,18.1384 16.5792,19.1384 21.5,19.5C 16.5,20.8333 11.5,20.8333 6.5,19.5C 6.5,18.1667 6.5,16.8333 6.5,15.5 Z"/></g>
<g><path style="opacity:0.988" fill="#d0bd80" d="M 0.5,15.5 C 1.5,15.5 2.5,15.5 3.5,15.5C 3.5,16.8333 3.5,18.1667 3.5,19.5C 4.5,19.5 5.5,19.5 6.5,19.5C 11.5,20.8333 16.5,20.8333 21.5,19.5C 22.404,20.209 22.7373,21.209 22.5,22.5C 15.1667,22.5 7.83333,22.5 0.5,22.5C 0.5,20.1667 0.5,17.8333 0.5,15.5 Z"/></g>
<g><path style="opacity:0.996" fill="#2e2a1f" d="M -0.5,-0.5 C 7.5,-0.5 15.5,-0.5 23.5,-0.5C 23.5,-0.166667 23.5,0.166667 23.5,0.5C 23.1667,0.5 22.8333,0.5 22.5,0.5C 15.1667,0.5 7.83333,0.5 0.5,0.5C 0.5,1.83333 0.5,3.16667 0.5,4.5C 0.5,7.16667 0.5,9.83333 0.5,12.5C 0.5,13.5 0.5,14.5 0.5,15.5C 0.5,17.8333 0.5,20.1667 0.5,22.5C 7.83333,22.5 15.1667,22.5 22.5,22.5C 22.8333,22.5 23.1667,22.5 23.5,22.5C 23.5,22.8333 23.5,23.1667 23.5,23.5C 15.5,23.5 7.5,23.5 -0.5,23.5C -0.5,15.5 -0.5,7.5 -0.5,-0.5 Z"/></g>
</svg>
