<?xml version="1.0" encoding="UTF-8"?>
<!DOCTYPE svg PUBLIC "-//W3C//DTD SVG 1.1//EN" "http://www.w3.org/Graphics/SVG/1.1/DTD/svg11.dtd">
<svg xmlns="http://www.w3.org/2000/svg" version="1.1" width="24px" height="24px" style="shape-rendering:geometricPrecision; text-rendering:geometricPrecision; image-rendering:optimizeQuality; fill-rule:evenodd; clip-rule:evenodd" xmlns:xlink="http://www.w3.org/1999/xlink">
<g><path style="opacity:0.988" fill="#e8e2d5" d="M 22.5,0.5 C 22.5,1.83333 22.5,3.16667 22.5,4.5C 22.1667,4.5 21.8333,4.5 21.5,4.5C 14.5988,3.19014 7.59878,3.19014 0.5,4.5C 0.5,3.16667 0.5,1.83333 0.5,0.5C 7.83333,0.5 15.1667,0.5 22.5,0.5 Z"/></g>
<g><path style="opacity:0.988" fill="#f1e9d6" d="M 21.5,4.5 C 14.6866,5.49119 7.68663,5.82453 0.5,5.5C 0.5,5.16667 0.5,4.83333 0.5,4.5C 7.59878,3.19014 14.5988,3.19014 21.5,4.5 Z"/></g>
<g><path style="opacity:0.988" fill="#ece4cc" d="M 21.5,4.5 C 21.8333,4.5 22.1667,4.5 22.5,4.5C 22.5,5.83333 22.5,7.16667 22.5,8.5C 15.2537,7.53601 7.92038,7.20267 0.5,7.5C 0.5,6.83333 0.5,6.16667 0.5,5.5C 7.68663,5.82453 14.6866,5.49119 21.5,4.5 Z"/></g>
<g><path style="opacity:0.988" fill="#e2d9bf" d="M 0.5,7.5 C 7.92038,7.20267 15.2537,7.53601 22.5,8.5C 22.5,9.83333 22.5,11.1667 22.5,12.5C 21.7777,11.4489 20.7777,10.7822 19.5,10.5C 18.7494,9.42654 17.7494,9.25988 16.5,10C 19.1247,11.3757 19.1247,12.5423 16.5,13.5C 16.5,13.1667 16.5,12.8333 16.5,12.5C 15.9484,10.2971 14.6151,9.46377 12.5,10C 15.1247,11.3757 15.1247,12.5423 12.5,13.5C 12.5,13.1667 12.5,12.8333 12.5,12.5C 11.7743,9.98733 10.4409,9.32066 8.5,10.5C 4.82592,8.95093 4.15926,9.45093 6.5,12C 5.94442,13.0111 5.27775,13.8444 4.5,14.5C 3.53261,13.1938 2.19928,12.5271 0.5,12.5C 0.5,10.8333 0.5,9.16667 0.5,7.5 Z"/></g>
<g><path style="opacity:0.992" fill="#958e7a" d="M 8.5,10.5 C 8.47538,13.179 7.14205,14.5123 4.5,14.5C 5.27775,13.8444 5.94442,13.0111 6.5,12C 4.15926,9.45093 4.82592,8.95093 8.5,10.5 Z"/></g>
<g><path style="opacity:0.996" fill="#938e7f" d="M 19.5,10.5 C 19.5,11.8333 19.5,13.1667 19.5,14.5C 18.209,14.7373 17.209,14.404 16.5,13.5C 19.1247,12.5423 19.1247,11.3757 16.5,10C 17.7494,9.25988 18.7494,9.42654 19.5,10.5 Z"/></g>
<g><path style="opacity:1" fill="#898577" d="M 16.5,12.5 C 15.8444,13.2778 15.0111,13.9444 14,14.5C 13.2352,14.4301 12.7352,14.0967 12.5,13.5C 15.1247,12.5423 15.1247,11.3757 12.5,10C 14.6151,9.46377 15.9484,10.2971 16.5,12.5 Z"/></g>
<g><path style="opacity:0.992" fill="#948d77" d="M 8.5,10.5 C 10.4409,9.32066 11.7743,9.98733 12.5,12.5C 11.5267,13.984 10.1933,14.484 8.5,14C 11.1247,12.6243 11.1247,11.4577 8.5,10.5 Z"/></g>
<g><path style="opacity:0.988" fill="#dacc9e" d="M 8.5,10.5 C 11.1247,11.4577 11.1247,12.6243 8.5,14C 10.1933,14.484 11.5267,13.984 12.5,12.5C 12.5,12.8333 12.5,13.1667 12.5,13.5C 12.7352,14.0967 13.2352,14.4301 14,14.5C 15.0111,13.9444 15.8444,13.2778 16.5,12.5C 16.5,12.8333 16.5,13.1667 16.5,13.5C 17.209,14.404 18.209,14.7373 19.5,14.5C 19.5,13.1667 19.5,11.8333 19.5,10.5C 20.7777,10.7822 21.7777,11.4489 22.5,12.5C 22.67,13.8221 22.3366,14.9887 21.5,16C 14.5079,16.4996 7.50793,16.6663 0.5,16.5C 0.5,15.1667 0.5,13.8333 0.5,12.5C 2.19928,12.5271 3.53261,13.1938 4.5,14.5C 7.14205,14.5123 8.47538,13.179 8.5,10.5 Z"/></g>
<g><path style="opacity:0.988" fill="#beaf82" d="M 22.5,0.5 C 22.8333,0.5 23.1667,0.5 23.5,0.5C 23.5,7.83333 23.5,15.1667 23.5,22.5C 23.1667,22.5 22.8333,22.5 22.5,22.5C 22.67,21.1779 22.3366,20.0113 21.5,19C 14.5079,18.5004 7.50793,18.3337 0.5,18.5C 0.5,17.8333 0.5,17.1667 0.5,16.5C 7.50793,16.6663 14.5079,16.4996 21.5,16C 22.3366,14.9887 22.67,13.8221 22.5,12.5C 22.5,11.1667 22.5,9.83333 22.5,8.5C 22.5,7.16667 22.5,5.83333 22.5,4.5C 22.5,3.16667 22.5,1.83333 22.5,0.5 Z"/></g>
<g><path style="opacity:0.988" fill="#d0bd82" d="M 0.5,18.5 C 7.50793,18.3337 14.5079,18.5004 21.5,19C 22.3366,20.0113 22.67,21.1779 22.5,22.5C 15.1667,22.5 7.83333,22.5 0.5,22.5C 0.5,21.1667 0.5,19.8333 0.5,18.5 Z"/></g>
<g><path style="opacity:0.996" fill="#2e2a1f" d="M -0.5,-0.5 C 7.5,-0.5 15.5,-0.5 23.5,-0.5C 23.5,-0.166667 23.5,0.166667 23.5,0.5C 23.1667,0.5 22.8333,0.5 22.5,0.5C 15.1667,0.5 7.83333,0.5 0.5,0.5C 0.5,1.83333 0.5,3.16667 0.5,4.5C 0.5,4.83333 0.5,5.16667 0.5,5.5C 0.5,6.16667 0.5,6.83333 0.5,7.5C 0.5,9.16667 0.5,10.8333 0.5,12.5C 0.5,13.8333 0.5,15.1667 0.5,16.5C 0.5,17.1667 0.5,17.8333 0.5,18.5C 0.5,19.8333 0.5,21.1667 0.5,22.5C 7.83333,22.5 15.1667,22.5 22.5,22.5C 22.8333,22.5 23.1667,22.5 23.5,22.5C 23.5,22.8333 23.5,23.1667 23.5,23.5C 15.5,23.5 7.5,23.5 -0.5,23.5C -0.5,15.5 -0.5,7.5 -0.5,-0.5 Z"/></g>
</svg>
