<?xml version="1.0" encoding="UTF-8"?>
<!DOCTYPE svg PUBLIC "-//W3C//DTD SVG 1.1//EN" "http://www.w3.org/Graphics/SVG/1.1/DTD/svg11.dtd">
<svg xmlns="http://www.w3.org/2000/svg" version="1.1" width="24px" height="24px" style="shape-rendering:geometricPrecision; text-rendering:geometricPrecision; image-rendering:optimizeQuality; fill-rule:evenodd; clip-rule:evenodd" xmlns:xlink="http://www.w3.org/1999/xlink">
<g><path style="opacity:1" fill="#dfdacc" d="M -0.5,-0.5 C -0.166667,-0.5 0.166667,-0.5 0.5,-0.5C 2.84386,-0.0602941 4.84386,0.939706 6.5,2.5C 3.91791,2.02539 1.91791,2.69206 0.5,4.5C 0.5,5.16667 0.5,5.83333 0.5,6.5C 0.5,6.83333 0.5,7.16667 0.5,7.5C 0.166667,7.5 -0.166667,7.5 -0.5,7.5C -0.5,4.83333 -0.5,2.16667 -0.5,-0.5 Z"/></g>
<g><path style="opacity:1" fill="#f0e9d6" d="M 14.5,0.5 C 14.5,1.16667 14.5,1.83333 14.5,2.5C 12.5,2.5 10.5,2.5 8.5,2.5C 9.91791,0.692056 11.9179,0.0253893 14.5,0.5 Z"/></g>
<g><path style="opacity:1" fill="#e3ddcc" d="M 22.5,-0.5 C 22.8333,-0.5 23.1667,-0.5 23.5,-0.5C 23.5,2.16667 23.5,4.83333 23.5,7.5C 23.1667,7.5 22.8333,7.5 22.5,7.5C 22.5,7.16667 22.5,6.83333 22.5,6.5C 22.6567,5.12656 22.49,3.79323 22,2.5C 20.3005,3.40609 18.4672,3.73943 16.5,3.5C 16.5,2.5 16.5,1.5 16.5,0.5C 18.7354,0.794717 20.7354,0.461384 22.5,-0.5 Z"/></g>
<g><path style="opacity:1" fill="#ded1ac" d="M 6.5,2.5 C 6.5,3.16667 6.5,3.83333 6.5,4.5C 4.5,4.5 2.5,4.5 0.5,4.5C 1.91791,2.69206 3.91791,2.02539 6.5,2.5 Z"/></g>
<g><path style="opacity:0.435" fill="#8b8573" d="M 0.5,-0.5 C 5.16667,-0.5 9.83333,-0.5 14.5,-0.5C 14.5,-0.166667 14.5,0.166667 14.5,0.5C 11.9179,0.0253893 9.91791,0.692056 8.5,2.5C 8.5,3.16667 8.5,3.83333 8.5,4.5C 9.91791,6.30794 11.9179,6.97461 14.5,6.5C 14.5,6.83333 14.5,7.16667 14.5,7.5C 13.8333,7.5 13.1667,7.5 12.5,7.5C 11.8333,7.5 11.1667,7.5 10.5,7.5C 8.5,7.5 6.5,7.5 4.5,7.5C 3.83333,7.5 3.16667,7.5 2.5,7.5C 1.83333,7.5 1.16667,7.5 0.5,7.5C 0.5,7.16667 0.5,6.83333 0.5,6.5C 3.08209,6.97461 5.08209,6.30794 6.5,4.5C 6.5,3.83333 6.5,3.16667 6.5,2.5C 4.84386,0.939706 2.84386,-0.0602941 0.5,-0.5 Z"/></g>
<g><path style="opacity:1" fill="#dfd2ad" d="M 8.5,2.5 C 10.5,2.5 12.5,2.5 14.5,2.5C 14.5,3.16667 14.5,3.83333 14.5,4.5C 12.5,4.5 10.5,4.5 8.5,4.5C 8.5,3.83333 8.5,3.16667 8.5,2.5 Z"/></g>
<g><path style="opacity:0.608" fill="#938c77" d="M 14.5,-0.5 C 17.1667,-0.5 19.8333,-0.5 22.5,-0.5C 20.7354,0.461384 18.7354,0.794717 16.5,0.5C 16.5,1.5 16.5,2.5 16.5,3.5C 16.5,4.5 16.5,5.5 16.5,6.5C 18.5,6.5 20.5,6.5 22.5,6.5C 22.5,6.83333 22.5,7.16667 22.5,7.5C 21.8333,7.5 21.1667,7.5 20.5,7.5C 19.8333,7.5 19.1667,7.5 18.5,7.5C 17.1667,7.5 15.8333,7.5 14.5,7.5C 14.5,7.16667 14.5,6.83333 14.5,6.5C 14.5,5.83333 14.5,5.16667 14.5,4.5C 14.5,3.83333 14.5,3.16667 14.5,2.5C 14.5,1.83333 14.5,1.16667 14.5,0.5C 14.5,0.166667 14.5,-0.166667 14.5,-0.5 Z"/></g>
<g><path style="opacity:1" fill="#d5c695" d="M 22.5,6.5 C 20.5,6.5 18.5,6.5 16.5,6.5C 16.5,5.5 16.5,4.5 16.5,3.5C 18.4672,3.73943 20.3005,3.40609 22,2.5C 22.49,3.79323 22.6567,5.12656 22.5,6.5 Z"/></g>
<g><path style="opacity:1" fill="#cfbc82" d="M 0.5,4.5 C 2.5,4.5 4.5,4.5 6.5,4.5C 5.08209,6.30794 3.08209,6.97461 0.5,6.5C 0.5,5.83333 0.5,5.16667 0.5,4.5 Z"/></g>
<g><path style="opacity:1" fill="#d0bd82" d="M 8.5,4.5 C 10.5,4.5 12.5,4.5 14.5,4.5C 14.5,5.16667 14.5,5.83333 14.5,6.5C 11.9179,6.97461 9.91791,6.30794 8.5,4.5 Z"/></g>
<g><path style="opacity:0.094" fill="#e7e7e8" d="M 2.5,7.5 C 3.16667,7.5 3.83333,7.5 4.5,7.5C 6.5,8.83333 8.5,8.83333 10.5,7.5C 11.1667,7.5 11.8333,7.5 12.5,7.5C 12.5,7.83333 12.5,8.16667 12.5,8.5C 12.5,8.83333 12.5,9.16667 12.5,9.5C 9.16667,9.5 5.83333,9.5 2.5,9.5C 2.5,8.83333 2.5,8.16667 2.5,7.5 Z"/></g>
<g><path style="opacity:0.094" fill="#f1f1f1" d="M 18.5,7.5 C 19.1667,7.5 19.8333,7.5 20.5,7.5C 20.7373,8.79105 20.404,9.79105 19.5,10.5C 17.3926,9.53178 15.0593,9.19845 12.5,9.5C 12.5,9.16667 12.5,8.83333 12.5,8.5C 14.7354,8.79472 16.7354,8.46138 18.5,7.5 Z"/></g>
<g><path style="opacity:0.8" fill="#8d8d8d" d="M 2.5,9.5 C 5.83333,9.5 9.16667,9.5 12.5,9.5C 15.0593,9.19845 17.3926,9.53178 19.5,10.5C 15.6286,10.185 11.9619,10.5184 8.5,11.5C 5.98989,11.9465 3.98989,11.2798 2.5,9.5 Z"/></g>
<g><path style="opacity:0.024" fill="#5a5a5a" d="M 8.5,11.5 C 11.9619,10.5184 15.6286,10.185 19.5,10.5C 17.369,11.3138 15.0356,11.8138 12.5,12C 13.4158,12.2784 14.0825,12.7784 14.5,13.5C 14.1667,13.5 13.8333,13.5 13.5,13.5C 12.1667,13.5 10.8333,13.5 9.5,13.5C 8.83333,13.5 8.16667,13.5 7.5,13.5C 8.26253,12.7321 9.26253,12.2321 10.5,12C 9.90558,11.5357 9.23891,11.369 8.5,11.5 Z"/></g>
<g><path style="opacity:0.886" fill="#a2a2a1" d="M 7.5,13.5 C 8.16667,13.5 8.83333,13.5 9.5,13.5C 9.48779,16.5516 9.82113,19.5516 10.5,22.5C 10.5,22.8333 10.5,23.1667 10.5,23.5C 9.5,23.5 8.5,23.5 7.5,23.5C 7.5,20.1667 7.5,16.8333 7.5,13.5 Z"/></g>
<g><path style="opacity:0.654" fill="#919190" d="M 13.5,13.5 C 13.8333,13.5 14.1667,13.5 14.5,13.5C 14.5,16.8333 14.5,20.1667 14.5,23.5C 13.1667,23.5 11.8333,23.5 10.5,23.5C 10.5,23.1667 10.5,22.8333 10.5,22.5C 12.2306,19.9292 13.2306,16.9292 13.5,13.5 Z"/></g>
<g><path style="opacity:1" fill="#cbcbcb" d="M 9.5,13.5 C 10.8333,13.5 12.1667,13.5 13.5,13.5C 13.2306,16.9292 12.2306,19.9292 10.5,22.5C 9.82113,19.5516 9.48779,16.5516 9.5,13.5 Z"/></g>
</svg>
