<?xml version="1.0" encoding="UTF-8"?>
<!DOCTYPE svg PUBLIC "-//W3C//DTD SVG 1.1//EN" "http://www.w3.org/Graphics/SVG/1.1/DTD/svg11.dtd">
<svg xmlns="http://www.w3.org/2000/svg" version="1.1" width="24px" height="24px" style="shape-rendering:geometricPrecision; text-rendering:geometricPrecision; image-rendering:optimizeQuality; fill-rule:evenodd; clip-rule:evenodd" xmlns:xlink="http://www.w3.org/1999/xlink">
<g><path style="opacity:0.988" fill="#e9e3d4" d="M 22.5,0.5 C 22.5,3.16667 22.5,5.83333 22.5,8.5C 21.2921,7.76589 19.9587,7.43255 18.5,7.5C 18.5,6.16667 18.5,4.83333 18.5,3.5C 16.901,3.23219 15.5676,3.56552 14.5,4.5C 9.83333,3.16667 5.16667,3.16667 0.5,4.5C 0.5,3.16667 0.5,1.83333 0.5,0.5C 7.83333,0.5 15.1667,0.5 22.5,0.5 Z"/></g>
<g><path style="opacity:0.988" fill="#f1ead6" d="M 14.5,4.5 C 14.5,4.83333 14.5,5.16667 14.5,5.5C 9.83333,5.5 5.16667,5.5 0.5,5.5C 0.5,5.16667 0.5,4.83333 0.5,4.5C 5.16667,3.16667 9.83333,3.16667 14.5,4.5 Z"/></g>
<g><path style="opacity:0.988" fill="#ece4cc" d="M 0.5,5.5 C 5.16667,5.5 9.83333,5.5 14.5,5.5C 10.2853,7.43644 5.6186,8.1031 0.5,7.5C 0.5,6.83333 0.5,6.16667 0.5,5.5 Z"/></g>
<g><path style="opacity:0.988" fill="#d4cdb6" d="M 18.5,7.5 C 14.3528,8.32474 10.0195,8.82474 5.5,9C 7.11934,9.23555 8.11934,10.0689 8.5,11.5C 8.5,12.5 8.5,13.5 8.5,14.5C 7.16667,14.5 5.83333,14.5 4.5,14.5C 4.5,13.1667 4.5,11.8333 4.5,10.5C 3.16667,10.5 1.83333,10.5 0.5,10.5C 0.5,9.5 0.5,8.5 0.5,7.5C 5.6186,8.1031 10.2853,7.43644 14.5,5.5C 14.5,5.16667 14.5,4.83333 14.5,4.5C 15.5676,3.56552 16.901,3.23219 18.5,3.5C 18.5,4.83333 18.5,6.16667 18.5,7.5 Z"/></g>
<g><path style="opacity:0.988" fill="#e9debe" d="M 18.5,7.5 C 19.9587,7.43255 21.2921,7.76589 22.5,8.5C 22.38,9.58617 21.7133,10.2528 20.5,10.5C 18.5466,9.84442 16.5466,9.51109 14.5,9.5C 14.6567,10.8734 14.49,12.2068 14,13.5C 13.7216,12.5842 13.2216,11.9175 12.5,11.5C 11.7978,10.8843 10.7978,10.8843 9.5,11.5C 9.16667,11.5 8.83333,11.5 8.5,11.5C 8.11934,10.0689 7.11934,9.23555 5.5,9C 10.0195,8.82474 14.3528,8.32474 18.5,7.5 Z"/></g>
<g><path style="opacity:1" fill="#2c2a23" d="M 12.5,11.5 C 12.5,12.8333 11.8333,13.5 10.5,13.5C 10.1667,12.8333 9.83333,12.1667 9.5,11.5C 10.7978,10.8843 11.7978,10.8843 12.5,11.5 Z"/></g>
<g><path style="opacity:0.988" fill="#dbcd9f" d="M 0.5,10.5 C 1.83333,10.5 3.16667,10.5 4.5,10.5C 4.5,11.8333 4.5,13.1667 4.5,14.5C 5.83333,14.5 7.16667,14.5 8.5,14.5C 8.5,13.5 8.5,12.5 8.5,11.5C 8.83333,11.5 9.16667,11.5 9.5,11.5C 9.83333,12.1667 10.1667,12.8333 10.5,13.5C 10.9175,14.2216 11.5842,14.7216 12.5,15C 11.5842,15.2784 10.9175,15.7784 10.5,16.5C 7.16667,16.5 3.83333,16.5 0.5,16.5C 0.5,14.5 0.5,12.5 0.5,10.5 Z"/></g>
<g><path style="opacity:0.988" fill="#bdb190" d="M 22.5,0.5 C 22.8333,0.5 23.1667,0.5 23.5,0.5C 23.5,7.83333 23.5,15.1667 23.5,22.5C 23.1667,22.5 22.8333,22.5 22.5,22.5C 23.4015,18.7593 22.0681,16.7593 18.5,16.5C 18.5,17.8333 18.5,19.1667 18.5,20.5C 17.5,20.5 16.5,20.5 15.5,20.5C 15.7678,18.901 15.4345,17.5676 14.5,16.5C 13.1667,16.5 11.8333,16.5 10.5,16.5C 10.9175,15.7784 11.5842,15.2784 12.5,15C 11.5842,14.7216 10.9175,14.2216 10.5,13.5C 11.8333,13.5 12.5,12.8333 12.5,11.5C 13.2216,11.9175 13.7216,12.5842 14,13.5C 14.49,12.2068 14.6567,10.8734 14.5,9.5C 16.5466,9.51109 18.5466,9.84442 20.5,10.5C 21.7133,10.2528 22.38,9.58617 22.5,8.5C 22.5,5.83333 22.5,3.16667 22.5,0.5 Z"/></g>
<g><path style="opacity:0.988" fill="#d3c28d" d="M 0.5,16.5 C 3.83333,16.5 7.16667,16.5 10.5,16.5C 11.8333,16.5 13.1667,16.5 14.5,16.5C 14.5,17.1667 14.5,17.8333 14.5,18.5C 9.83333,18.5 5.16667,18.5 0.5,18.5C 0.5,17.8333 0.5,17.1667 0.5,16.5 Z"/></g>
<g><path style="opacity:0.988" fill="#cfbd83" d="M 0.5,18.5 C 5.16667,18.5 9.83333,18.5 14.5,18.5C 10.2853,20.4364 5.6186,21.1031 0.5,20.5C 0.5,19.8333 0.5,19.1667 0.5,18.5 Z"/></g>
<g><path style="opacity:0.988" fill="#cebc7f" d="M 14.5,16.5 C 15.4345,17.5676 15.7678,18.901 15.5,20.5C 16.5,20.5 17.5,20.5 18.5,20.5C 18.5,19.1667 18.5,17.8333 18.5,16.5C 22.0681,16.7593 23.4015,18.7593 22.5,22.5C 14.7572,23.1299 7.42384,22.4633 0.5,20.5C 5.6186,21.1031 10.2853,20.4364 14.5,18.5C 14.5,17.8333 14.5,17.1667 14.5,16.5 Z"/></g>
<g><path style="opacity:0.996" fill="#2e2a1f" d="M -0.5,-0.5 C 7.5,-0.5 15.5,-0.5 23.5,-0.5C 23.5,-0.166667 23.5,0.166667 23.5,0.5C 23.1667,0.5 22.8333,0.5 22.5,0.5C 15.1667,0.5 7.83333,0.5 0.5,0.5C 0.5,1.83333 0.5,3.16667 0.5,4.5C 0.5,4.83333 0.5,5.16667 0.5,5.5C 0.5,6.16667 0.5,6.83333 0.5,7.5C 0.5,8.5 0.5,9.5 0.5,10.5C 0.5,12.5 0.5,14.5 0.5,16.5C 0.5,17.1667 0.5,17.8333 0.5,18.5C 0.5,19.1667 0.5,19.8333 0.5,20.5C 7.42384,22.4633 14.7572,23.1299 22.5,22.5C 22.8333,22.5 23.1667,22.5 23.5,22.5C 23.5,22.8333 23.5,23.1667 23.5,23.5C 15.5,23.5 7.5,23.5 -0.5,23.5C -0.5,15.5 -0.5,7.5 -0.5,-0.5 Z"/></g>
</svg>
