<?xml version="1.0" encoding="UTF-8"?>
<!DOCTYPE svg PUBLIC "-//W3C//DTD SVG 1.1//EN" "http://www.w3.org/Graphics/SVG/1.1/DTD/svg11.dtd">
<svg xmlns="http://www.w3.org/2000/svg" version="1.1" width="24px" height="24px" style="shape-rendering:geometricPrecision; text-rendering:geometricPrecision; image-rendering:optimizeQuality; fill-rule:evenodd; clip-rule:evenodd" xmlns:xlink="http://www.w3.org/1999/xlink">
<g><path style="opacity:1" fill="#ebe5d3" d="M 22.5,0.5 C 22.5,3.16667 22.5,5.83333 22.5,8.5C 21.8333,8.5 21.1667,8.5 20.5,8.5C 16.3656,7.51511 12.0323,7.18178 7.5,7.5C 5.26465,7.20528 3.26465,7.53862 1.5,8.5C 1.16667,8.5 0.833333,8.5 0.5,8.5C 0.5,5.83333 0.5,3.16667 0.5,0.5C 7.83333,0.5 15.1667,0.5 22.5,0.5 Z"/></g>
<g><path style="opacity:1" fill="#ded4b9" d="M 7.5,7.5 C 12.0323,7.18178 16.3656,7.51511 20.5,8.5C 20.67,9.82207 20.3366,10.9887 19.5,12C 16.8456,12.203 14.5123,12.0363 12.5,11.5C 11.4721,11.0742 10.1388,11.0742 8.5,11.5C 7.56552,10.4324 7.23219,9.09903 7.5,7.5 Z"/></g>
<g><path style="opacity:1" fill="#a19c8c" d="M 7.5,7.5 C 7.23219,9.09903 7.56552,10.4324 8.5,11.5C 9.5,12.1667 10.5,12.8333 11.5,13.5C 9.51676,13.1568 8.18342,13.8235 7.5,15.5C 5.73535,16.4614 3.73535,16.7947 1.5,16.5C 1.5,13.8333 1.5,11.1667 1.5,8.5C 3.26465,7.53862 5.26465,7.20528 7.5,7.5 Z"/></g>
<g><path style="opacity:1" fill="#fcfcfd" d="M 2.5,8.5 C 3.83333,8.5 5.16667,8.5 6.5,8.5C 6.5,10.8333 6.5,13.1667 6.5,15.5C 5.16667,15.5 3.83333,15.5 2.5,15.5C 2.5,13.1667 2.5,10.8333 2.5,8.5 Z"/></g>
<g><path style="opacity:1" fill="#282620" d="M 12.5,11.5 C 12.6716,12.4916 12.3382,13.1583 11.5,13.5C 10.5,12.8333 9.5,12.1667 8.5,11.5C 10.1388,11.0742 11.4721,11.0742 12.5,11.5 Z"/></g>
<g><path style="opacity:1" fill="#dacda3" d="M 20.5,8.5 C 21.1667,8.5 21.8333,8.5 22.5,8.5C 22.9321,11.8774 22.2655,14.8774 20.5,17.5C 19.5144,15.5923 17.8477,14.5923 15.5,14.5C 12.7644,15.1114 10.0978,15.4448 7.5,15.5C 8.18342,13.8235 9.51676,13.1568 11.5,13.5C 12.3382,13.1583 12.6716,12.4916 12.5,11.5C 14.5123,12.0363 16.8456,12.203 19.5,12C 20.3366,10.9887 20.67,9.82207 20.5,8.5 Z"/></g>
<g><path style="opacity:1" fill="#a4a098" d="M 15.5,14.5 C 17.8477,14.5923 19.5144,15.5923 20.5,17.5C 19.5084,17.3284 18.8417,17.6618 18.5,18.5C 17.5,18.5 16.5,18.5 15.5,18.5C 15.5,17.1667 15.5,15.8333 15.5,14.5 Z"/></g>
<g><path style="opacity:1" fill="#d1c18c" d="M 0.5,8.5 C 0.833333,8.5 1.16667,8.5 1.5,8.5C 1.5,11.1667 1.5,13.8333 1.5,16.5C 3.73535,16.7947 5.73535,16.4614 7.5,15.5C 10.0978,15.4448 12.7644,15.1114 15.5,14.5C 15.5,15.8333 15.5,17.1667 15.5,18.5C 16.5,18.5 17.5,18.5 18.5,18.5C 16.1073,19.21 13.6073,19.8767 11,20.5C 7.75712,20.0602 4.25712,19.7268 0.5,19.5C 0.5,15.8333 0.5,12.1667 0.5,8.5 Z"/></g>
<g><path style="opacity:1" fill="#c2b17c" d="M 22.5,0.5 C 22.8333,0.5 23.1667,0.5 23.5,0.5C 23.5,7.83333 23.5,15.1667 23.5,22.5C 15.8333,22.5 8.16667,22.5 0.5,22.5C 0.5,21.5 0.5,20.5 0.5,19.5C 4.25712,19.7268 7.75712,20.0602 11,20.5C 13.6073,19.8767 16.1073,19.21 18.5,18.5C 18.8417,17.6618 19.5084,17.3284 20.5,17.5C 22.2655,14.8774 22.9321,11.8774 22.5,8.5C 22.5,5.83333 22.5,3.16667 22.5,0.5 Z"/></g>
<g><path style="opacity:1" fill="#2e2b20" d="M -0.5,-0.5 C 7.5,-0.5 15.5,-0.5 23.5,-0.5C 23.5,-0.166667 23.5,0.166667 23.5,0.5C 23.1667,0.5 22.8333,0.5 22.5,0.5C 15.1667,0.5 7.83333,0.5 0.5,0.5C 0.5,3.16667 0.5,5.83333 0.5,8.5C 0.5,12.1667 0.5,15.8333 0.5,19.5C 0.5,20.5 0.5,21.5 0.5,22.5C 8.16667,22.5 15.8333,22.5 23.5,22.5C 23.5,22.8333 23.5,23.1667 23.5,23.5C 15.5,23.5 7.5,23.5 -0.5,23.5C -0.5,15.5 -0.5,7.5 -0.5,-0.5 Z"/></g>
</svg>
