<?xml version="1.0" encoding="UTF-8"?>
<!DOCTYPE svg PUBLIC "-//W3C//DTD SVG 1.1//EN" "http://www.w3.org/Graphics/SVG/1.1/DTD/svg11.dtd">
<svg xmlns="http://www.w3.org/2000/svg" version="1.1" width="24px" height="24px" style="shape-rendering:geometricPrecision; text-rendering:geometricPrecision; image-rendering:optimizeQuality; fill-rule:evenodd; clip-rule:evenodd" xmlns:xlink="http://www.w3.org/1999/xlink">
<g><path style="opacity:1" fill="#a7aaa4" d="M 5.5,1.5 C 5.5,1.16667 5.5,0.833333 5.5,0.5C 11.358,0.177803 17.0247,0.511136 22.5,1.5C 20.8008,1.33982 19.1341,1.50649 17.5,2C 18.056,2.38258 18.3893,2.88258 18.5,3.5C 16.2181,2.61027 13.8848,2.4436 11.5,3C 9.96252,4.70733 8.29585,6.20733 6.5,7.5C 7.20261,5.28428 8.53594,3.45095 10.5,2C 8.86586,1.50649 7.19919,1.33982 5.5,1.5 Z"/></g>
<g><path style="opacity:1" fill="#f4eedd" d="M 5.5,1.5 C 7.19919,1.33982 8.86586,1.50649 10.5,2C 8.53594,3.45095 7.20261,5.28428 6.5,7.5C 5.53862,5.73535 5.20528,3.73535 5.5,1.5 Z"/></g>
<g><path style="opacity:1" fill="#b8dcdf" d="M 18.5,3.5 C 19.8333,3.5 20.5,4.16667 20.5,5.5C 20.7373,6.79105 20.404,7.79105 19.5,8.5C 19.0296,7.30652 18.0296,6.63985 16.5,6.5C 15.2739,6.51954 14.2739,6.85287 13.5,7.5C 12.8333,8.5 12.1667,9.5 11.5,10.5C 10.5416,10.0472 9.7083,9.38053 9,8.5C 8.51722,9.44802 8.35055,10.448 8.5,11.5C 6.82351,10.8166 6.15684,9.48324 6.5,7.5C 8.29585,6.20733 9.96252,4.70733 11.5,3C 13.8848,2.4436 16.2181,2.61027 18.5,3.5 Z"/></g>
<g><path style="opacity:1" fill="#f7f1e0" d="M 22.5,1.5 C 22.5,3.5 22.5,5.5 22.5,7.5C 21.8333,6.83333 21.1667,6.16667 20.5,5.5C 20.5,4.16667 19.8333,3.5 18.5,3.5C 18.3893,2.88258 18.056,2.38258 17.5,2C 19.1341,1.50649 20.8008,1.33982 22.5,1.5 Z"/></g>
<g><path style="opacity:1" fill="#fafafa" d="M 14.5,7.5 C 15.8333,7.5 17.1667,7.5 18.5,7.5C 18.5,10.5 18.5,13.5 18.5,16.5C 17.1667,16.5 15.8333,16.5 14.5,16.5C 14.5,13.5 14.5,10.5 14.5,7.5 Z"/></g>
<g><path style="opacity:1" fill="#889899" d="M 13.5,7.5 C 14.2739,6.85287 15.2739,6.51954 16.5,6.5C 18.0296,6.63985 19.0296,7.30652 19.5,8.5C 19.5,11.5 19.5,14.5 19.5,17.5C 17.2646,17.7947 15.2646,17.4614 13.5,16.5C 13.8333,16.5 14.1667,16.5 14.5,16.5C 15.8333,16.5 17.1667,16.5 18.5,16.5C 18.5,13.5 18.5,10.5 18.5,7.5C 17.1667,7.5 15.8333,7.5 14.5,7.5C 14.1667,7.5 13.8333,7.5 13.5,7.5 Z"/></g>
<g><path style="opacity:1" fill="#b1d2d3" d="M 20.5,5.5 C 21.1667,6.16667 21.8333,6.83333 22.5,7.5C 22.6323,10.5701 22.299,13.5701 21.5,16.5C 20.8333,17.1667 20.1667,17.8333 19.5,18.5C 19.5,18.1667 19.5,17.8333 19.5,17.5C 19.5,14.5 19.5,11.5 19.5,8.5C 20.404,7.79105 20.7373,6.79105 20.5,5.5 Z"/></g>
<g><path style="opacity:1" fill="#828484" d="M 11.5,10.5 C 11.8333,11.1667 12.1667,11.8333 12.5,12.5C 11.2058,13.2899 10.0391,14.2899 9,15.5C 8.51722,14.552 8.35055,13.552 8.5,12.5C 8.5,12.1667 8.5,11.8333 8.5,11.5C 8.35055,10.448 8.51722,9.44802 9,8.5C 9.7083,9.38053 10.5416,10.0472 11.5,10.5 Z"/></g>
<g><path style="opacity:1" fill="#aec5c7" d="M 13.5,7.5 C 13.8333,7.5 14.1667,7.5 14.5,7.5C 14.5,10.5 14.5,13.5 14.5,16.5C 14.1667,16.5 13.8333,16.5 13.5,16.5C 12.5655,15.4324 12.2322,14.099 12.5,12.5C 12.1667,11.8333 11.8333,11.1667 11.5,10.5C 12.1667,9.5 12.8333,8.5 13.5,7.5 Z"/></g>
<g><path style="opacity:1" fill="#8e8c86" d="M 4.5,-0.5 C 4.83333,-0.5 5.16667,-0.5 5.5,-0.5C 5.5,-0.166667 5.5,0.166667 5.5,0.5C 5.5,0.833333 5.5,1.16667 5.5,1.5C 5.20528,3.73535 5.53862,5.73535 6.5,7.5C 6.15684,9.48324 6.82351,10.8166 8.5,11.5C 8.5,11.8333 8.5,12.1667 8.5,12.5C 6.95186,12.8212 6.28519,13.8212 6.5,15.5C 5.53178,17.6074 5.19845,19.9407 5.5,22.5C 5.16667,22.5 4.83333,22.5 4.5,22.5C 4.5,19.5 4.5,16.5 4.5,13.5C 2.83333,13.5 1.16667,13.5 -0.5,13.5C -0.5,12.5 -0.5,11.5 -0.5,10.5C 1.16667,10.5 2.83333,10.5 4.5,10.5C 4.5,6.83333 4.5,3.16667 4.5,-0.5 Z"/></g>
<g><path style="opacity:1" fill="#b2d4d6" d="M 8.5,12.5 C 8.35055,13.552 8.51722,14.552 9,15.5C 10.0391,14.2899 11.2058,13.2899 12.5,12.5C 12.2322,14.099 12.5655,15.4324 13.5,16.5C 15.2646,17.4614 17.2646,17.7947 19.5,17.5C 19.5,17.8333 19.5,18.1667 19.5,18.5C 19.1436,20.1898 18.1436,21.1898 16.5,21.5C 11.7122,21.9247 8.37888,19.9247 6.5,15.5C 6.28519,13.8212 6.95186,12.8212 8.5,12.5 Z"/></g>
<g><path style="opacity:1" fill="#524c3b" d="M 5.5,0.5 C 5.5,0.166667 5.5,-0.166667 5.5,-0.5C 11.5,-0.5 17.5,-0.5 23.5,-0.5C 23.5,7.5 23.5,15.5 23.5,23.5C 17.1667,23.5 10.8333,23.5 4.5,23.5C 4.5,23.1667 4.5,22.8333 4.5,22.5C 4.83333,22.5 5.16667,22.5 5.5,22.5C 9.16667,22.5 12.8333,22.5 16.5,22.5C 18.5,22.5 20.5,22.5 22.5,22.5C 22.7947,20.2646 22.4614,18.2646 21.5,16.5C 22.299,13.5701 22.6323,10.5701 22.5,7.5C 22.5,5.5 22.5,3.5 22.5,1.5C 17.0247,0.511136 11.358,0.177803 5.5,0.5 Z"/></g>
<g><path style="opacity:1" fill="#c1b076" d="M 6.5,15.5 C 8.37888,19.9247 11.7122,21.9247 16.5,21.5C 16.5,21.8333 16.5,22.1667 16.5,22.5C 12.8333,22.5 9.16667,22.5 5.5,22.5C 5.19845,19.9407 5.53178,17.6074 6.5,15.5 Z"/></g>
<g><path style="opacity:1" fill="#ccba7c" d="M 21.5,16.5 C 22.4614,18.2646 22.7947,20.2646 22.5,22.5C 20.5,22.5 18.5,22.5 16.5,22.5C 16.5,22.1667 16.5,21.8333 16.5,21.5C 18.1436,21.1898 19.1436,20.1898 19.5,18.5C 20.1667,17.8333 20.8333,17.1667 21.5,16.5 Z"/></g>
</svg>
