<?xml version="1.0" encoding="UTF-8"?>
<!DOCTYPE svg PUBLIC "-//W3C//DTD SVG 1.1//EN" "http://www.w3.org/Graphics/SVG/1.1/DTD/svg11.dtd">
<svg xmlns="http://www.w3.org/2000/svg" version="1.1" width="24px" height="24px" style="shape-rendering:geometricPrecision; text-rendering:geometricPrecision; image-rendering:optimizeQuality; fill-rule:evenodd; clip-rule:evenodd" xmlns:xlink="http://www.w3.org/1999/xlink">
<g><path style="opacity:1" fill="#e6e0d0" d="M 22.5,0.5 C 22.5,1.83333 22.5,3.16667 22.5,4.5C 18.1373,2.48857 13.4706,1.98857 8.5,3C 9.75598,3.41691 10.4226,4.25025 10.5,5.5C 7.5,6.16667 4.5,6.83333 1.5,7.5C 1.16667,7.5 0.833333,7.5 0.5,7.5C 0.5,5.16667 0.5,2.83333 0.5,0.5C 7.83333,0.5 15.1667,0.5 22.5,0.5 Z"/></g>
<g><path style="opacity:1" fill="#ebe4d1" d="M 22.5,4.5 C 22.5,6.16667 22.5,7.83333 22.5,9.5C 21.6618,9.15829 21.3284,8.49162 21.5,7.5C 17.9787,6.6931 14.312,6.02643 10.5,5.5C 10.4226,4.25025 9.75598,3.41691 8.5,3C 13.4706,1.98857 18.1373,2.48857 22.5,4.5 Z"/></g>
<g><path style="opacity:1" fill="#211f1c" d="M 10.5,5.5 C 14.312,6.02643 17.9787,6.6931 21.5,7.5C 17.9878,6.9455 14.9878,7.61216 12.5,9.5C 11.8333,9.5 11.1667,9.5 10.5,9.5C 8.01215,7.61216 5.01215,6.9455 1.5,7.5C 4.5,6.83333 7.5,6.16667 10.5,5.5 Z"/></g>
<g><path style="opacity:1" fill="#e5dbbe" d="M 0.5,7.5 C 0.833333,7.5 1.16667,7.5 1.5,7.5C 5.01215,6.9455 8.01215,7.61216 10.5,9.5C 10.631,10.2389 10.4643,10.9056 10,11.5C 6.94325,10.5495 3.77659,10.2161 0.5,10.5C 0.5,9.5 0.5,8.5 0.5,7.5 Z"/></g>
<g><path style="opacity:1" fill="#e6dcbf" d="M 21.5,7.5 C 21.3284,8.49162 21.6618,9.15829 22.5,9.5C 22.5,10.1667 22.5,10.8333 22.5,11.5C 19.332,10.208 16.1653,10.208 13,11.5C 12.5357,10.9056 12.369,10.2389 12.5,9.5C 14.9878,7.61216 17.9878,6.9455 21.5,7.5 Z"/></g>
<g><path style="opacity:1" fill="#dbcfaa" d="M 10.5,9.5 C 11.1667,9.5 11.8333,9.5 12.5,9.5C 12.369,10.2389 12.5357,10.9056 13,11.5C 16.1653,10.208 19.332,10.208 22.5,11.5C 19.6627,13.4023 16.3293,14.069 12.5,13.5C 11.8333,12.1667 11.1667,12.1667 10.5,13.5C 7.11945,13.5405 3.78611,13.2071 0.5,12.5C 0.5,11.8333 0.5,11.1667 0.5,10.5C 3.77659,10.2161 6.94325,10.5495 10,11.5C 10.4643,10.9056 10.631,10.2389 10.5,9.5 Z"/></g>
<g><path style="opacity:1" fill="#c5b88e" d="M 22.5,0.5 C 22.8333,0.5 23.1667,0.5 23.5,0.5C 23.5,7.83333 23.5,15.1667 23.5,22.5C 23.1667,22.5 22.8333,22.5 22.5,22.5C 22.5,21.5 22.5,20.5 22.5,19.5C 22.6567,18.1266 22.49,16.7932 22,15.5C 14.9213,16.4799 7.75461,16.8132 0.5,16.5C 0.5,15.1667 0.5,13.8333 0.5,12.5C 3.78611,13.2071 7.11945,13.5405 10.5,13.5C 11.1667,14.8333 11.8333,14.8333 12.5,13.5C 16.3293,14.069 19.6627,13.4023 22.5,11.5C 22.5,10.8333 22.5,10.1667 22.5,9.5C 22.5,7.83333 22.5,6.16667 22.5,4.5C 22.5,3.16667 22.5,1.83333 22.5,0.5 Z"/></g>
<g><path style="opacity:1" fill="#3d392d" d="M 12.5,13.5 C 11.8333,14.8333 11.1667,14.8333 10.5,13.5C 11.1667,12.1667 11.8333,12.1667 12.5,13.5 Z"/></g>
<g><path style="opacity:1" fill="#d6c692" d="M 22.5,19.5 C 22.1667,19.5 21.8333,19.5 21.5,19.5C 14.9131,17.5388 7.91309,16.8721 0.5,17.5C 0.5,17.1667 0.5,16.8333 0.5,16.5C 7.75461,16.8132 14.9213,16.4799 22,15.5C 22.49,16.7932 22.6567,18.1266 22.5,19.5 Z"/></g>
<g><path style="opacity:1" fill="#d1c089" d="M 0.5,17.5 C 7.91309,16.8721 14.9131,17.5388 21.5,19.5C 14.4905,20.8146 7.49055,20.8146 0.5,19.5C 0.5,18.8333 0.5,18.1667 0.5,17.5 Z"/></g>
<g><path style="opacity:1" fill="#d0be81" d="M 0.5,19.5 C 7.49055,20.8146 14.4905,20.8146 21.5,19.5C 21.8333,19.5 22.1667,19.5 22.5,19.5C 22.5,20.5 22.5,21.5 22.5,22.5C 15.1667,22.5 7.83333,22.5 0.5,22.5C 0.5,21.5 0.5,20.5 0.5,19.5 Z"/></g>
<g><path style="opacity:1" fill="#2e2b20" d="M -0.5,-0.5 C 7.5,-0.5 15.5,-0.5 23.5,-0.5C 23.5,-0.166667 23.5,0.166667 23.5,0.5C 23.1667,0.5 22.8333,0.5 22.5,0.5C 15.1667,0.5 7.83333,0.5 0.5,0.5C 0.5,2.83333 0.5,5.16667 0.5,7.5C 0.5,8.5 0.5,9.5 0.5,10.5C 0.5,11.1667 0.5,11.8333 0.5,12.5C 0.5,13.8333 0.5,15.1667 0.5,16.5C 0.5,16.8333 0.5,17.1667 0.5,17.5C 0.5,18.1667 0.5,18.8333 0.5,19.5C 0.5,20.5 0.5,21.5 0.5,22.5C 7.83333,22.5 15.1667,22.5 22.5,22.5C 22.8333,22.5 23.1667,22.5 23.5,22.5C 23.5,22.8333 23.5,23.1667 23.5,23.5C 15.5,23.5 7.5,23.5 -0.5,23.5C -0.5,15.5 -0.5,7.5 -0.5,-0.5 Z"/></g>
</svg>
