<?xml version="1.0" encoding="UTF-8"?>
<!DOCTYPE svg PUBLIC "-//W3C//DTD SVG 1.1//EN" "http://www.w3.org/Graphics/SVG/1.1/DTD/svg11.dtd">
<svg xmlns="http://www.w3.org/2000/svg" version="1.1" width="24px" height="24px" style="shape-rendering:geometricPrecision; text-rendering:geometricPrecision; image-rendering:optimizeQuality; fill-rule:evenodd; clip-rule:evenodd" xmlns:xlink="http://www.w3.org/1999/xlink">
<g><path style="opacity:1" fill="#e9e6db" d="M 22.5,0.5 C 22.5,1.5 22.5,2.5 22.5,3.5C 15.2537,2.53601 7.92038,2.20267 0.5,2.5C 7.42384,0.536724 14.7572,-0.129942 22.5,0.5 Z"/></g>
<g><path style="opacity:1" fill="#f5efdd" d="M 0.5,2.5 C 7.92038,2.20267 15.2537,2.53601 22.5,3.5C 22.5,4.83333 22.5,6.16667 22.5,7.5C 20.9582,6.69929 19.2915,6.36596 17.5,6.5C 15.866,5.83891 14.0326,5.50558 12,5.5C 9.70469,5.5465 7.87135,6.21317 6.5,7.5C 4.6208,6.65859 2.6208,6.32526 0.5,6.5C 0.5,5.16667 0.5,3.83333 0.5,2.5 Z"/></g>
<g><path style="opacity:1" fill="#e7e75b" d="M 15.5,6.5 C 14.8902,7.39105 14.5569,8.39105 14.5,9.5C 13.9278,11.2554 13.0945,12.9221 12,14.5C 10.2359,12.6107 8.73586,10.6107 7.5,8.5C 7.5,8.16667 7.5,7.83333 7.5,7.5C 9.9479,6.52693 12.6146,6.1936 15.5,6.5 Z"/></g>
<g><path style="opacity:1" fill="#eae1c6" d="M 0.5,6.5 C 2.6208,6.32526 4.6208,6.65859 6.5,7.5C 6.5,8.16667 6.5,8.83333 6.5,9.5C 4.5,9.5 2.5,9.5 0.5,9.5C 0.5,8.5 0.5,7.5 0.5,6.5 Z"/></g>
<g><path style="opacity:1" fill="#ece3c7" d="M 17.5,6.5 C 19.2915,6.36596 20.9582,6.69929 22.5,7.5C 22.5,8.5 22.5,9.5 22.5,10.5C 20.8333,9.16667 19.1667,9.16667 17.5,10.5C 17.5,9.16667 17.5,7.83333 17.5,6.5 Z"/></g>
<g><path style="opacity:1" fill="#fcfc65" d="M 7.5,8.5 C 8.73586,10.6107 10.2359,12.6107 12,14.5C 13.0945,12.9221 13.9278,11.2554 14.5,9.5C 15.4682,11.6074 15.8016,13.9407 15.5,16.5C 12.8333,16.5 10.1667,16.5 7.5,16.5C 7.5,13.8333 7.5,11.1667 7.5,8.5 Z"/></g>
<g><path style="opacity:1" fill="#e0d5ae" d="M 0.5,9.5 C 2.5,9.5 4.5,9.5 6.5,9.5C 6.5,10.8333 6.5,12.1667 6.5,13.5C 4.5,13.5 2.5,13.5 0.5,13.5C 0.5,12.1667 0.5,10.8333 0.5,9.5 Z"/></g>
<g><path style="opacity:1" fill="#e2d6ae" d="M 22.5,10.5 C 22.5,11.8333 22.5,13.1667 22.5,14.5C 20.8333,13.1667 19.1667,13.1667 17.5,14.5C 17.5,13.1667 17.5,11.8333 17.5,10.5C 19.1667,9.16667 20.8333,9.16667 22.5,10.5 Z"/></g>
<g><path style="opacity:1" fill="#aba385" d="M 17.5,6.5 C 17.5,7.83333 17.5,9.16667 17.5,10.5C 17.5,11.8333 17.5,13.1667 17.5,14.5C 17.5,15.5 17.5,16.5 17.5,17.5C 17.1667,17.5 16.8333,17.5 16.5,17.5C 16.815,13.6286 16.4816,9.96192 15.5,6.5C 12.6146,6.1936 9.9479,6.52693 7.5,7.5C 7.16667,7.5 6.83333,7.5 6.5,7.5C 7.87135,6.21317 9.70469,5.5465 12,5.5C 14.0326,5.50558 15.866,5.83891 17.5,6.5 Z"/></g>
<g><path style="opacity:1" fill="#322e25" d="M -0.5,-0.5 C 7.5,-0.5 15.5,-0.5 23.5,-0.5C 23.5,-0.166667 23.5,0.166667 23.5,0.5C 23.1667,0.5 22.8333,0.5 22.5,0.5C 14.7572,-0.129942 7.42384,0.536724 0.5,2.5C 0.5,3.83333 0.5,5.16667 0.5,6.5C 0.5,7.5 0.5,8.5 0.5,9.5C 0.5,10.8333 0.5,12.1667 0.5,13.5C 0.5,14.8333 0.5,16.1667 0.5,17.5C 0.5,18.1667 0.5,18.8333 0.5,19.5C 0.5,20.1667 0.5,20.8333 0.5,21.5C 0.5,21.8333 0.5,22.1667 0.5,22.5C 0.166667,22.5 -0.166667,22.5 -0.5,22.5C -0.5,14.8333 -0.5,7.16667 -0.5,-0.5 Z"/></g>
<g><path style="opacity:1" fill="#d6c794" d="M 0.5,13.5 C 2.5,13.5 4.5,13.5 6.5,13.5C 6.5,14.8333 6.5,16.1667 6.5,17.5C 4.5,17.5 2.5,17.5 0.5,17.5C 0.5,16.1667 0.5,14.8333 0.5,13.5 Z"/></g>
<g><path style="opacity:1" fill="#d8d954" d="M 15.5,6.5 C 16.4816,9.96192 16.815,13.6286 16.5,17.5C 13.2869,17.81 10.2869,17.4767 7.5,16.5C 10.1667,16.5 12.8333,16.5 15.5,16.5C 15.8016,13.9407 15.4682,11.6074 14.5,9.5C 14.5569,8.39105 14.8902,7.39105 15.5,6.5 Z"/></g>
<g><path style="opacity:1" fill="#d8c994" d="M 22.5,14.5 C 22.5,15.8333 22.5,17.1667 22.5,18.5C 22.1667,18.5 21.8333,18.5 21.5,18.5C 20.4324,17.5655 19.099,17.2322 17.5,17.5C 17.5,16.5 17.5,15.5 17.5,14.5C 19.1667,13.1667 20.8333,13.1667 22.5,14.5 Z"/></g>
<g><path style="opacity:1" fill="#b2a670" d="M 6.5,7.5 C 6.83333,7.5 7.16667,7.5 7.5,7.5C 7.5,7.83333 7.5,8.16667 7.5,8.5C 7.5,11.1667 7.5,13.8333 7.5,16.5C 10.2869,17.4767 13.2869,17.81 16.5,17.5C 13.1667,18.1667 9.83333,18.8333 6.5,19.5C 4.5,19.5 2.5,19.5 0.5,19.5C 0.5,18.8333 0.5,18.1667 0.5,17.5C 2.5,17.5 4.5,17.5 6.5,17.5C 6.5,16.1667 6.5,14.8333 6.5,13.5C 6.5,12.1667 6.5,10.8333 6.5,9.5C 6.5,8.83333 6.5,8.16667 6.5,7.5 Z"/></g>
<g><path style="opacity:1" fill="#d1c085" d="M 16.5,17.5 C 16.8333,17.5 17.1667,17.5 17.5,17.5C 19.099,17.2322 20.4324,17.5655 21.5,18.5C 21.5,18.8333 21.5,19.1667 21.5,19.5C 16.5,19.5 11.5,19.5 6.5,19.5C 9.83333,18.8333 13.1667,18.1667 16.5,17.5 Z"/></g>
<g><path style="opacity:1" fill="#cbb97a" d="M 0.5,19.5 C 2.5,19.5 4.5,19.5 6.5,19.5C 11.5,19.5 16.5,19.5 21.5,19.5C 14.9131,21.4612 7.91309,22.1279 0.5,21.5C 0.5,20.8333 0.5,20.1667 0.5,19.5 Z"/></g>
<g><path style="opacity:1" fill="#d4c17c" d="M 21.5,18.5 C 21.8333,18.5 22.1667,18.5 22.5,18.5C 22.5,19.8333 22.5,21.1667 22.5,22.5C 15.1667,22.5 7.83333,22.5 0.5,22.5C 0.5,22.1667 0.5,21.8333 0.5,21.5C 7.91309,22.1279 14.9131,21.4612 21.5,19.5C 21.5,19.1667 21.5,18.8333 21.5,18.5 Z"/></g>
<g><path style="opacity:1" fill="#4c4631" d="M 22.5,0.5 C 22.8333,0.5 23.1667,0.5 23.5,0.5C 23.5,8.16667 23.5,15.8333 23.5,23.5C 15.5,23.5 7.5,23.5 -0.5,23.5C -0.5,23.1667 -0.5,22.8333 -0.5,22.5C -0.166667,22.5 0.166667,22.5 0.5,22.5C 7.83333,22.5 15.1667,22.5 22.5,22.5C 22.5,21.1667 22.5,19.8333 22.5,18.5C 22.5,17.1667 22.5,15.8333 22.5,14.5C 22.5,13.1667 22.5,11.8333 22.5,10.5C 22.5,9.5 22.5,8.5 22.5,7.5C 22.5,6.16667 22.5,4.83333 22.5,3.5C 22.5,2.5 22.5,1.5 22.5,0.5 Z"/></g>
</svg>
