<?xml version="1.0" encoding="UTF-8"?>
<!DOCTYPE svg PUBLIC "-//W3C//DTD SVG 1.1//EN" "http://www.w3.org/Graphics/SVG/1.1/DTD/svg11.dtd">
<svg xmlns="http://www.w3.org/2000/svg" version="1.1" width="24px" height="24px" style="shape-rendering:geometricPrecision; text-rendering:geometricPrecision; image-rendering:optimizeQuality; fill-rule:evenodd; clip-rule:evenodd" xmlns:xlink="http://www.w3.org/1999/xlink">
<g><path style="opacity:1" fill="#fffcef" d="M 22.5,1.5 C 22.5,2.83333 22.5,4.16667 22.5,5.5C 22.1667,5.5 21.8333,5.5 21.5,5.5C 21.5,4.83333 21.5,4.16667 21.5,3.5C 16.6835,2.67386 11.6835,2.17386 6.5,2C 11.8229,1.50065 17.1563,1.33398 22.5,1.5 Z"/></g>
<g><path style="opacity:0.71" fill="#454442" d="M 4.5,-0.5 C 10.8333,-0.5 17.1667,-0.5 23.5,-0.5C 23.5,-0.166667 23.5,0.166667 23.5,0.5C 23.1667,0.5 22.8333,0.5 22.5,0.5C 16.8333,0.5 11.1667,0.5 5.5,0.5C 5.5,1.5 5.5,2.5 5.5,3.5C 5.5,4.16667 5.5,4.83333 5.5,5.5C 5.5,6.5 5.5,7.5 5.5,8.5C 5.5,9.5 5.5,10.5 5.5,11.5C 4.83333,11.5 4.5,11.1667 4.5,10.5C 4.5,6.83333 4.5,3.16667 4.5,-0.5 Z"/></g>
<g><path style="opacity:1" fill="#e1ddd0" d="M 22.5,0.5 C 22.5,0.833333 22.5,1.16667 22.5,1.5C 17.1563,1.33398 11.8229,1.50065 6.5,2C 11.6835,2.17386 16.6835,2.67386 21.5,3.5C 16.1667,3.5 10.8333,3.5 5.5,3.5C 5.5,2.5 5.5,1.5 5.5,0.5C 11.1667,0.5 16.8333,0.5 22.5,0.5 Z"/></g>
<g><path style="opacity:1" fill="#f1ebd9" d="M 5.5,3.5 C 10.8333,3.5 16.1667,3.5 21.5,3.5C 21.5,4.16667 21.5,4.83333 21.5,5.5C 16.5,5.5 11.5,5.5 6.5,5.5C 6.16667,5.5 5.83333,5.5 5.5,5.5C 5.5,4.83333 5.5,4.16667 5.5,3.5 Z"/></g>
<g><path style="opacity:1" fill="#f1e9d4" d="M 6.5,5.5 C 11.5,5.5 16.5,5.5 21.5,5.5C 21.8333,5.5 22.1667,5.5 22.5,5.5C 22.5,6.16667 22.5,6.83333 22.5,7.5C 17.0651,6.87653 11.7317,6.20987 6.5,5.5 Z"/></g>
<g><path style="opacity:1" fill="#ebe3c9" d="M 5.5,5.5 C 5.83333,5.5 6.16667,5.5 6.5,5.5C 11.7317,6.20987 17.0651,6.87653 22.5,7.5C 22.7373,8.79105 22.404,9.79105 21.5,10.5C 21.5,10.1667 21.5,9.83333 21.5,9.5C 21.2648,8.90326 20.7648,8.56993 20,8.5C 17.3309,9.01606 14.8309,9.68273 12.5,10.5C 11.8333,10.5 11.5,10.1667 11.5,9.5C 11.5299,8.50278 11.0299,7.83611 10,7.5C 8.56025,8.14758 7.06025,8.48091 5.5,8.5C 5.5,7.5 5.5,6.5 5.5,5.5 Z"/></g>
<g><path style="opacity:1" fill="#ddd4b8" d="M 11.5,9.5 C 10.6618,9.84171 10.3284,10.5084 10.5,11.5C 8.83333,11.5 7.16667,11.5 5.5,11.5C 5.5,10.5 5.5,9.5 5.5,8.5C 7.06025,8.48091 8.56025,8.14758 10,7.5C 11.0299,7.83611 11.5299,8.50278 11.5,9.5 Z"/></g>
<g><path style="opacity:1" fill="#e2d8b8" d="M 21.5,9.5 C 20.2954,11.1376 18.9621,11.4709 17.5,10.5C 15.8333,10.5 14.1667,10.5 12.5,10.5C 14.8309,9.68273 17.3309,9.01606 20,8.5C 20.7648,8.56993 21.2648,8.90326 21.5,9.5 Z"/></g>
<g><path style="opacity:1" fill="#8f8a79" d="M 11.5,9.5 C 11.5,10.1667 11.8333,10.5 12.5,10.5C 14.1667,10.5 15.8333,10.5 17.5,10.5C 15.3926,11.4682 13.0593,11.8016 10.5,11.5C 10.3284,10.5084 10.6618,9.84171 11.5,9.5 Z"/></g>
<g><path style="opacity:1" fill="#69624e" d="M 22.5,0.5 C 22.8333,0.5 23.1667,0.5 23.5,0.5C 23.5,8.16667 23.5,15.8333 23.5,23.5C 17.5,23.5 11.5,23.5 5.5,23.5C 5.5,23.1667 5.5,22.8333 5.5,22.5C 5.83333,22.5 6.16667,22.5 6.5,22.5C 11.8333,22.5 17.1667,22.5 22.5,22.5C 22.5,20.8333 22.5,19.1667 22.5,17.5C 22.7845,15.5853 22.4511,13.9187 21.5,12.5C 21.5,11.8333 21.5,11.1667 21.5,10.5C 22.404,9.79105 22.7373,8.79105 22.5,7.5C 22.5,6.83333 22.5,6.16667 22.5,5.5C 22.5,4.16667 22.5,2.83333 22.5,1.5C 22.5,1.16667 22.5,0.833333 22.5,0.5 Z"/></g>
<g><path style="opacity:1" fill="#91918f" d="M -0.5,10.5 C 1.16667,10.5 2.83333,10.5 4.5,10.5C 4.5,11.1667 4.83333,11.5 5.5,11.5C 7.16667,11.5 8.83333,11.5 10.5,11.5C 10.5,11.8333 10.5,12.1667 10.5,12.5C 8.58533,12.2155 6.91866,12.5489 5.5,13.5C 5.5,14.8333 5.5,16.1667 5.5,17.5C 5.5,19.1667 5.5,20.8333 5.5,22.5C 5.5,22.8333 5.5,23.1667 5.5,23.5C 5.16667,23.5 4.83333,23.5 4.5,23.5C 4.5,20.1667 4.5,16.8333 4.5,13.5C 2.83333,13.5 1.16667,13.5 -0.5,13.5C -0.5,12.5 -0.5,11.5 -0.5,10.5 Z"/></g>
<g><path style="opacity:1" fill="#272620" d="M 21.5,9.5 C 21.5,9.83333 21.5,10.1667 21.5,10.5C 21.5,11.1667 21.5,11.8333 21.5,12.5C 21.5,12.8333 21.5,13.1667 21.5,13.5C 20.8333,13.5 20.1667,13.5 19.5,13.5C 17.3926,12.5318 15.0593,12.1984 12.5,12.5C 11.8333,12.5 11.1667,12.5 10.5,12.5C 10.5,12.1667 10.5,11.8333 10.5,11.5C 13.0593,11.8016 15.3926,11.4682 17.5,10.5C 18.9621,11.4709 20.2954,11.1376 21.5,9.5 Z"/></g>
<g><path style="opacity:1" fill="#dacd9f" d="M 12.5,12.5 C 15.0593,12.1984 17.3926,12.5318 19.5,13.5C 18.6661,14.7479 17.3328,15.4146 15.5,15.5C 14.1667,15.1667 12.8333,14.8333 11.5,14.5C 11.8627,13.8165 12.1961,13.1499 12.5,12.5 Z"/></g>
<g><path style="opacity:1" fill="#cabd92" d="M 5.5,13.5 C 6.91866,12.5489 8.58533,12.2155 10.5,12.5C 11.1667,12.5 11.8333,12.5 12.5,12.5C 12.1961,13.1499 11.8627,13.8165 11.5,14.5C 12.8333,14.8333 14.1667,15.1667 15.5,15.5C 17.3328,15.4146 18.6661,14.7479 19.5,13.5C 20.1667,13.5 20.8333,13.5 21.5,13.5C 20.4019,14.397 20.4019,15.2303 21.5,16C 16.5,16.6667 11.5,16.6667 6.5,16C 10.3041,14.5057 9.97074,13.6724 5.5,13.5 Z"/></g>
<g><path style="opacity:1" fill="#d5c792" d="M 21.5,12.5 C 22.4511,13.9187 22.7845,15.5853 22.5,17.5C 22.1667,17.5 21.8333,17.5 21.5,17.5C 16.5,17.5 11.5,17.5 6.5,17.5C 6.16667,17.5 5.83333,17.5 5.5,17.5C 5.5,16.1667 5.5,14.8333 5.5,13.5C 9.97074,13.6724 10.3041,14.5057 6.5,16C 11.5,16.6667 16.5,16.6667 21.5,16C 20.4019,15.2303 20.4019,14.397 21.5,13.5C 21.5,13.1667 21.5,12.8333 21.5,12.5 Z"/></g>
<g><path style="opacity:1" fill="#cebe83" d="M 6.5,17.5 C 11.5,17.5 16.5,17.5 21.5,17.5C 21.5,18.1667 21.5,18.8333 21.5,19.5C 16.0557,20.1083 11.0557,19.4417 6.5,17.5 Z"/></g>
<g><path style="opacity:1" fill="#cab879" d="M 5.5,17.5 C 5.83333,17.5 6.16667,17.5 6.5,17.5C 11.0557,19.4417 16.0557,20.1083 21.5,19.5C 16.7486,21.1413 11.7486,22.1413 6.5,22.5C 6.16667,22.5 5.83333,22.5 5.5,22.5C 5.5,20.8333 5.5,19.1667 5.5,17.5 Z"/></g>
<g><path style="opacity:1" fill="#d5c17d" d="M 21.5,17.5 C 21.8333,17.5 22.1667,17.5 22.5,17.5C 22.5,19.1667 22.5,20.8333 22.5,22.5C 17.1667,22.5 11.8333,22.5 6.5,22.5C 11.7486,22.1413 16.7486,21.1413 21.5,19.5C 21.5,18.8333 21.5,18.1667 21.5,17.5 Z"/></g>
</svg>
