<?xml version="1.0" encoding="UTF-8"?>
<!DOCTYPE svg PUBLIC "-//W3C//DTD SVG 1.1//EN" "http://www.w3.org/Graphics/SVG/1.1/DTD/svg11.dtd">
<svg xmlns="http://www.w3.org/2000/svg" version="1.1" width="24px" height="24px" style="shape-rendering:geometricPrecision; text-rendering:geometricPrecision; image-rendering:optimizeQuality; fill-rule:evenodd; clip-rule:evenodd" xmlns:xlink="http://www.w3.org/1999/xlink">
<g><path style="opacity:0.492" fill="#000000" d="M 18.5,-0.5 C 20.1667,-0.5 21.8333,-0.5 23.5,-0.5C 23.5,0.833333 23.5,2.16667 23.5,3.5C 22.494,6.48866 21.3273,9.48866 20,12.5C 19.0705,10.4547 17.5705,9.62132 15.5,10C 11.0447,14.4367 6.71133,18.9367 2.5,23.5C 1.5,23.5 0.5,23.5 -0.5,23.5C -0.5,22.1667 -0.5,20.8333 -0.5,19.5C 4.29151,15.5829 8.95817,11.4162 13.5,7C 12.0753,5.63809 11.242,4.13809 11,2.5C 13.6719,1.71798 16.1719,0.717978 18.5,-0.5 Z"/></g>
</svg>
