<?xml version="1.0" encoding="UTF-8"?>
<!DOCTYPE svg PUBLIC "-//W3C//DTD SVG 1.1//EN" "http://www.w3.org/Graphics/SVG/1.1/DTD/svg11.dtd">
<svg xmlns="http://www.w3.org/2000/svg" version="1.1" width="24px" height="24px" style="shape-rendering:geometricPrecision; text-rendering:geometricPrecision; image-rendering:optimizeQuality; fill-rule:evenodd; clip-rule:evenodd" xmlns:xlink="http://www.w3.org/1999/xlink">
<g><path style="opacity:0.494" fill="#62615e" d="M 19.5,6.5 C 19.5,6.83333 19.5,7.16667 19.5,7.5C 18.8333,7.5 18.5,7.83333 18.5,8.5C 15.8333,8.5 13.1667,8.5 10.5,8.5C 10.5,9.5 10.5,10.5 10.5,11.5C 10.1667,11.5 9.83333,11.5 9.5,11.5C 9.73731,10.209 9.40397,9.20895 8.5,8.5C 11.6843,6.58635 15.351,5.91969 19.5,6.5 Z"/></g>
<g><path style="opacity:0.463" fill="#030303" d="M 8.5,8.5 C 9.40397,9.20895 9.73731,10.209 9.5,11.5C 9.5,13.1667 9.5,14.8333 9.5,16.5C 9.16667,16.5 8.83333,16.5 8.5,16.5C 8.5,15.5 8.5,14.5 8.5,13.5C -0.833333,12.8333 -0.833333,12.1667 8.5,11.5C 8.5,10.5 8.5,9.5 8.5,8.5 Z"/></g>
<g><path style="opacity:1" fill="#f2e9cf" d="M 18.5,8.5 C 18.5,10.1667 18.5,11.8333 18.5,13.5C 17.2223,13.2178 16.2223,12.5511 15.5,11.5C 14.5416,11.0472 13.7083,10.3805 13,9.5C 12.5357,10.0944 12.369,10.7611 12.5,11.5C 11.8333,11.5 11.1667,11.5 10.5,11.5C 10.5,10.5 10.5,9.5 10.5,8.5C 13.1667,8.5 15.8333,8.5 18.5,8.5 Z"/></g>
<g><path style="opacity:1" fill="#26241e" d="M 15.5,11.5 C 15.3318,14.0514 14.3318,14.7181 12.5,13.5C 12.5,12.8333 12.5,12.1667 12.5,11.5C 12.369,10.7611 12.5357,10.0944 13,9.5C 13.7083,10.3805 14.5416,11.0472 15.5,11.5 Z"/></g>
<g><path style="opacity:1" fill="#544d35" d="M 19.5,7.5 C 19.5,10.8333 19.5,14.1667 19.5,17.5C 15.9581,17.8128 12.6248,17.4794 9.5,16.5C 9.5,14.8333 9.5,13.1667 9.5,11.5C 9.83333,11.5 10.1667,11.5 10.5,11.5C 11.1667,11.5 11.8333,11.5 12.5,11.5C 12.5,12.1667 12.5,12.8333 12.5,13.5C 10.9519,13.8212 10.2852,14.8212 10.5,16.5C 13.1667,16.5 15.8333,16.5 18.5,16.5C 18.5,15.5 18.5,14.5 18.5,13.5C 18.5,11.8333 18.5,10.1667 18.5,8.5C 18.5,7.83333 18.8333,7.5 19.5,7.5 Z"/></g>
<g><path style="opacity:1" fill="#d8c78f" d="M 15.5,11.5 C 16.2223,12.5511 17.2223,13.2178 18.5,13.5C 18.5,14.5 18.5,15.5 18.5,16.5C 15.8333,16.5 13.1667,16.5 10.5,16.5C 10.2852,14.8212 10.9519,13.8212 12.5,13.5C 14.3318,14.7181 15.3318,14.0514 15.5,11.5 Z"/></g>
<g><path style="opacity:0.443" fill="#999a9d" d="M 19.5,6.5 C 20.4834,10.2984 20.8168,14.2984 20.5,18.5C 16.0293,19.0894 12.0293,18.4228 8.5,16.5C 8.83333,16.5 9.16667,16.5 9.5,16.5C 12.6248,17.4794 15.9581,17.8128 19.5,17.5C 19.5,14.1667 19.5,10.8333 19.5,7.5C 19.5,7.16667 19.5,6.83333 19.5,6.5 Z"/></g>
</svg>
