<?xml version="1.0" encoding="UTF-8"?>
<!DOCTYPE svg PUBLIC "-//W3C//DTD SVG 1.1//EN" "http://www.w3.org/Graphics/SVG/1.1/DTD/svg11.dtd">
<svg xmlns="http://www.w3.org/2000/svg" version="1.1" width="24px" height="24px" style="shape-rendering:geometricPrecision; text-rendering:geometricPrecision; image-rendering:optimizeQuality; fill-rule:evenodd; clip-rule:evenodd" xmlns:xlink="http://www.w3.org/1999/xlink">
<g><path style="opacity:0.475" fill="#c8c8c8" d="M 18.5,2.5 C 17.596,3.20895 17.2627,4.20895 17.5,5.5C 12.3054,5.17949 7.30537,5.51283 2.5,6.5C 2.16667,6.5 1.83333,6.5 1.5,6.5C 6.05572,4.55833 11.0557,3.89166 16.5,4.5C 16.281,3.32496 16.6143,2.32496 17.5,1.5C 18.1067,1.62358 18.44,1.95691 18.5,2.5 Z"/></g>
<g><path style="opacity:0.931" fill="#8e8e8e" d="M 18.5,2.5 C 22.5,4.5 22.5,6.5 18.5,8.5C 13.4682,6.63007 8.13483,5.9634 2.5,6.5C 7.30537,5.51283 12.3054,5.17949 17.5,5.5C 17.2627,4.20895 17.596,3.20895 18.5,2.5 Z"/></g>
<g><path style="opacity:0.004" fill="#fafafa" d="M 1.5,6.5 C 1.83333,6.5 2.16667,6.5 2.5,6.5C 8.13483,5.9634 13.4682,6.63007 18.5,8.5C 18.44,9.04309 18.1067,9.37642 17.5,9.5C 12.2038,7.93078 6.8705,6.93078 1.5,6.5 Z"/></g>
<g><path style="opacity:1" fill="#b1b1b1" d="M 9.5,10.5 C 10.8845,9.19914 12.3845,9.19914 14,10.5C 14.8007,13.367 14.6341,16.0336 13.5,18.5C 13.6633,16.1432 13.4966,13.8098 13,11.5C 12.8078,13.5767 12.3078,15.5767 11.5,17.5C 10.8319,15.0312 10.1653,12.6979 9.5,10.5 Z"/></g>
<g><path style="opacity:0.78" fill="#696969" d="M 9.5,10.5 C 10.1653,12.6979 10.8319,15.0312 11.5,17.5C 12.3078,15.5767 12.8078,13.5767 13,11.5C 13.4966,13.8098 13.6633,16.1432 13.5,18.5C 12.1155,19.8009 10.6155,19.8009 9,18.5C 8.19927,15.633 8.36594,12.9664 9.5,10.5 Z"/></g>
</svg>
