<?xml version="1.0" encoding="UTF-8"?>
<!DOCTYPE svg PUBLIC "-//W3C//DTD SVG 1.1//EN" "http://www.w3.org/Graphics/SVG/1.1/DTD/svg11.dtd">
<svg xmlns="http://www.w3.org/2000/svg" version="1.1" width="24px" height="24px" style="shape-rendering:geometricPrecision; text-rendering:geometricPrecision; image-rendering:optimizeQuality; fill-rule:evenodd; clip-rule:evenodd" xmlns:xlink="http://www.w3.org/1999/xlink">
<g><path style="opacity:1" fill="#eae6da" d="M 22.5,0.5 C 22.5,2.16667 22.5,3.83333 22.5,5.5C 21.596,4.79105 21.2627,3.79105 21.5,2.5C 20.209,2.26269 19.209,2.59603 18.5,3.5C 14.3989,2.20916 10.3989,2.20916 6.5,3.5C 6.16667,3.5 5.83333,3.5 5.5,3.5C 5.5,2.5 5.5,1.5 5.5,0.5C 11.1667,0.5 16.8333,0.5 22.5,0.5 Z"/></g>
<g><path style="opacity:1" fill="#f3eddd" d="M 6.5,3.5 C 10.3989,2.20916 14.3989,2.20916 18.5,3.5C 18.5,4.16667 18.1667,4.5 17.5,4.5C 13.9359,3.57734 10.2693,3.24401 6.5,3.5 Z"/></g>
<g><path style="opacity:0.929" fill="#47443a" d="M 4.5,-0.5 C 10.8333,-0.5 17.1667,-0.5 23.5,-0.5C 23.5,-0.166667 23.5,0.166667 23.5,0.5C 23.1667,0.5 22.8333,0.5 22.5,0.5C 16.8333,0.5 11.1667,0.5 5.5,0.5C 5.5,1.5 5.5,2.5 5.5,3.5C 5.5,4.16667 5.5,4.83333 5.5,5.5C 5.5,7.16667 5.5,8.83333 5.5,10.5C 5.5,11.1667 5.5,11.8333 5.5,12.5C 5.5,13.8333 5.5,15.1667 5.5,16.5C 5.5,17.1667 5.5,17.8333 5.5,18.5C 5.5,19.8333 5.5,21.1667 5.5,22.5C 9.5,22.5 13.5,22.5 17.5,22.5C 19.1667,22.5 20.8333,22.5 22.5,22.5C 22.8333,22.5 23.1667,22.5 23.5,22.5C 23.5,22.8333 23.5,23.1667 23.5,23.5C 17.1667,23.5 10.8333,23.5 4.5,23.5C 4.5,15.5 4.5,7.5 4.5,-0.5 Z"/></g>
<g><path style="opacity:1" fill="#f3ecda" d="M 5.5,3.5 C 5.83333,3.5 6.16667,3.5 6.5,3.5C 10.2693,3.24401 13.9359,3.57734 17.5,4.5C 17.5,5.16667 17.1667,5.5 16.5,5.5C 16.1667,5.5 15.8333,5.5 15.5,5.5C 12.1667,5.5 8.83333,5.5 5.5,5.5C 5.5,4.83333 5.5,4.16667 5.5,3.5 Z"/></g>
<g><path style="opacity:1" fill="#f1e9d1" d="M 5.5,5.5 C 8.83333,5.5 12.1667,5.5 15.5,5.5C 15.5,6.16667 15.5,6.83333 15.5,7.5C 15.1667,7.5 14.8333,7.5 14.5,7.5C 12.0521,6.52693 9.38544,6.1936 6.5,6.5C 6.5,7.83333 6.5,9.16667 6.5,10.5C 6.16667,10.5 5.83333,10.5 5.5,10.5C 5.5,8.83333 5.5,7.16667 5.5,5.5 Z"/></g>
<g><path style="opacity:1" fill="#ebe2c9" d="M 14.5,7.5 C 12.3792,7.32526 10.3792,7.65859 8.5,8.5C 7.83333,9.16667 7.16667,9.83333 6.5,10.5C 6.5,9.16667 6.5,7.83333 6.5,6.5C 9.38544,6.1936 12.0521,6.52693 14.5,7.5 Z"/></g>
<g><path style="opacity:1" fill="#292825" d="M 18.5,3.5 C 19.9063,3.97306 20.573,4.97306 20.5,6.5C 19.1779,6.33003 18.0113,6.66337 17,7.5C 16.5357,6.90558 16.369,6.23891 16.5,5.5C 17.1667,5.5 17.5,5.16667 17.5,4.5C 18.1667,4.5 18.5,4.16667 18.5,3.5 Z"/></g>
<g><path style="opacity:1" fill="#e6ddc1" d="M 14.5,7.5 C 14.8333,7.5 15.1667,7.5 15.5,7.5C 15.5,7.83333 15.5,8.16667 15.5,8.5C 14.1984,9.80686 12.865,9.80686 11.5,8.5C 10.7025,8.95689 10.3691,9.62356 10.5,10.5C 9.5,10.1667 8.83333,9.5 8.5,8.5C 10.3792,7.65859 12.3792,7.32526 14.5,7.5 Z"/></g>
<g><path style="opacity:1" fill="#c4baa0" d="M 15.5,8.5 C 15.4431,9.60895 15.1098,10.609 14.5,11.5C 13.1054,10.1854 12.1054,10.5188 11.5,12.5C 11.1667,12.5 10.8333,12.5 10.5,12.5C 10.5,11.8333 10.5,11.1667 10.5,10.5C 10.3691,9.62356 10.7025,8.95689 11.5,8.5C 12.865,9.80686 14.1984,9.80686 15.5,8.5 Z"/></g>
<g><path style="opacity:1" fill="#d2caaf" d="M 15.5,5.5 C 15.8333,5.5 16.1667,5.5 16.5,5.5C 16.369,6.23891 16.5357,6.90558 17,7.5C 18.0113,6.66337 19.1779,6.33003 20.5,6.5C 21.2341,7.70792 21.5674,9.04125 21.5,10.5C 19.9251,11.3284 18.5918,11.6618 17.5,11.5C 16.5,11.5 15.5,11.5 14.5,11.5C 15.1098,10.609 15.4431,9.60895 15.5,8.5C 15.5,8.16667 15.5,7.83333 15.5,7.5C 15.5,6.83333 15.5,6.16667 15.5,5.5 Z"/></g>
<g><path style="opacity:1" fill="#eae2c9" d="M 18.5,3.5 C 19.209,2.59603 20.209,2.26269 21.5,2.5C 21.2627,3.79105 21.596,4.79105 22.5,5.5C 22.7947,7.73535 22.4614,9.73535 21.5,11.5C 21.5,11.1667 21.5,10.8333 21.5,10.5C 21.5674,9.04125 21.2341,7.70792 20.5,6.5C 20.573,4.97306 19.9063,3.97306 18.5,3.5 Z"/></g>
<g><path style="opacity:1" fill="#100f0b" d="M 14.5,11.5 C 14.5,11.8333 14.5,12.1667 14.5,12.5C 13.8333,12.8333 13.1667,13.1667 12.5,13.5C 12.5,12.8333 12.1667,12.5 11.5,12.5C 12.1054,10.5188 13.1054,10.1854 14.5,11.5 Z"/></g>
<g><path style="opacity:1" fill="#827b66" d="M 22.5,0.5 C 22.8333,0.5 23.1667,0.5 23.5,0.5C 23.5,7.83333 23.5,15.1667 23.5,22.5C 23.1667,22.5 22.8333,22.5 22.5,22.5C 22.5,21.8333 22.5,21.1667 22.5,20.5C 22.8064,17.6146 22.4731,14.9479 21.5,12.5C 21.5,12.1667 21.5,11.8333 21.5,11.5C 22.4614,9.73535 22.7947,7.73535 22.5,5.5C 22.5,3.83333 22.5,2.16667 22.5,0.5 Z"/></g>
<g><path style="opacity:0.604" fill="#9d9e9f" d="M 3.5,-0.5 C 3.83333,-0.5 4.16667,-0.5 4.5,-0.5C 4.5,7.5 4.5,15.5 4.5,23.5C 4.16667,23.5 3.83333,23.5 3.5,23.5C 3.5,19.8333 3.5,16.1667 3.5,12.5C 2.16667,12.5 0.833333,12.5 -0.5,12.5C -0.5,11.8333 -0.5,11.1667 -0.5,10.5C 0.833333,10.5 2.16667,10.5 3.5,10.5C 3.5,6.83333 3.5,3.16667 3.5,-0.5 Z"/></g>
<g><path style="opacity:1" fill="#929089" d="M 8.5,8.5 C 8.83333,9.5 9.5,10.1667 10.5,10.5C 10.5,11.1667 10.5,11.8333 10.5,12.5C 9.54163,12.9528 8.7083,13.6195 8,14.5C 7.58309,13.244 6.74975,12.5774 5.5,12.5C 5.5,11.8333 5.5,11.1667 5.5,10.5C 5.83333,10.5 6.16667,10.5 6.5,10.5C 7.16667,9.83333 7.83333,9.16667 8.5,8.5 Z"/></g>
<g><path style="opacity:1" fill="#23211c" d="M 21.5,10.5 C 21.5,10.8333 21.5,11.1667 21.5,11.5C 21.5,11.8333 21.5,12.1667 21.5,12.5C 21.5,12.8333 21.5,13.1667 21.5,13.5C 20.8333,13.5 20.1667,13.5 19.5,13.5C 18.8333,12.8333 18.1667,12.1667 17.5,11.5C 18.5918,11.6618 19.9251,11.3284 21.5,10.5 Z"/></g>
<g><path style="opacity:1" fill="#ccc098" d="M 14.5,11.5 C 15.5,11.5 16.5,11.5 17.5,11.5C 18.1667,12.1667 18.8333,12.8333 19.5,13.5C 17.5434,16.0591 15.8767,15.7258 14.5,12.5C 14.5,12.1667 14.5,11.8333 14.5,11.5 Z"/></g>
<g><path style="opacity:1" fill="#dacb9e" d="M 5.5,12.5 C 6.74975,12.5774 7.58309,13.244 8,14.5C 8.7083,13.6195 9.54163,12.9528 10.5,12.5C 10.8333,12.5 11.1667,12.5 11.5,12.5C 12.1667,12.5 12.5,12.8333 12.5,13.5C 13.1667,14.1667 13.8333,14.8333 14.5,15.5C 11.6146,15.1936 8.9479,15.5269 6.5,16.5C 6.16667,16.5 5.83333,16.5 5.5,16.5C 5.5,15.1667 5.5,13.8333 5.5,12.5 Z"/></g>
<g><path style="opacity:1" fill="#a89c78" d="M 14.5,12.5 C 15.8767,15.7258 17.5434,16.0591 19.5,13.5C 20.1667,13.5 20.8333,13.5 21.5,13.5C 21.4226,14.7498 20.756,15.5831 19.5,16C 20.056,16.3826 20.3893,16.8826 20.5,17.5C 19.0413,17.5674 17.7079,17.2341 16.5,16.5C 16.1667,16.5 15.8333,16.5 15.5,16.5C 15.5,15.8333 15.1667,15.5 14.5,15.5C 13.8333,14.8333 13.1667,14.1667 12.5,13.5C 13.1667,13.1667 13.8333,12.8333 14.5,12.5 Z"/></g>
<g><path style="opacity:1" fill="#d4c592" d="M 14.5,15.5 C 15.1667,15.5 15.5,15.8333 15.5,16.5C 15.5,16.8333 15.5,17.1667 15.5,17.5C 12.2869,17.81 9.2869,17.4767 6.5,16.5C 8.9479,15.5269 11.6146,15.1936 14.5,15.5 Z"/></g>
<g><path style="opacity:1" fill="#d3c28b" d="M 5.5,16.5 C 5.83333,16.5 6.16667,16.5 6.5,16.5C 9.2869,17.4767 12.2869,17.81 15.5,17.5C 12.7131,18.4767 9.7131,18.81 6.5,18.5C 6.16667,18.5 5.83333,18.5 5.5,18.5C 5.5,17.8333 5.5,17.1667 5.5,16.5 Z"/></g>
<g><path style="opacity:1" fill="#ccbb82" d="M 15.5,16.5 C 15.8333,16.5 16.1667,16.5 16.5,16.5C 16.5,17.1667 16.5,17.8333 16.5,18.5C 13.6627,20.4023 10.3293,21.069 6.5,20.5C 6.5,19.8333 6.5,19.1667 6.5,18.5C 9.7131,18.81 12.7131,18.4767 15.5,17.5C 15.5,17.1667 15.5,16.8333 15.5,16.5 Z"/></g>
<g><path style="opacity:1" fill="#3f3a2b" d="M 16.5,16.5 C 17.7079,17.2341 19.0413,17.5674 20.5,17.5C 20.573,19.0269 19.9063,20.0269 18.5,20.5C 18.1667,19.5 17.5,18.8333 16.5,18.5C 16.5,17.8333 16.5,17.1667 16.5,16.5 Z"/></g>
<g><path style="opacity:1" fill="#cbbb85" d="M 21.5,12.5 C 22.4731,14.9479 22.8064,17.6146 22.5,20.5C 20.965,21.3543 19.6316,21.3543 18.5,20.5C 19.9063,20.0269 20.573,19.0269 20.5,17.5C 20.3893,16.8826 20.056,16.3826 19.5,16C 20.756,15.5831 21.4226,14.7498 21.5,13.5C 21.5,13.1667 21.5,12.8333 21.5,12.5 Z"/></g>
<g><path style="opacity:1" fill="#cfbc7d" d="M 16.5,18.5 C 17.5,18.8333 18.1667,19.5 18.5,20.5C 19.6316,21.3543 20.965,21.3543 22.5,20.5C 22.5,21.1667 22.5,21.8333 22.5,22.5C 20.8333,22.5 19.1667,22.5 17.5,22.5C 13.8333,21.8333 10.1667,21.1667 6.5,20.5C 10.3293,21.069 13.6627,20.4023 16.5,18.5 Z"/></g>
<g><path style="opacity:1" fill="#d5c07f" d="M 5.5,18.5 C 5.83333,18.5 6.16667,18.5 6.5,18.5C 6.5,19.1667 6.5,19.8333 6.5,20.5C 10.1667,21.1667 13.8333,21.8333 17.5,22.5C 13.5,22.5 9.5,22.5 5.5,22.5C 5.5,21.1667 5.5,19.8333 5.5,18.5 Z"/></g>
</svg>
