<?xml version="1.0" encoding="UTF-8"?>
<!DOCTYPE svg PUBLIC "-//W3C//DTD SVG 1.1//EN" "http://www.w3.org/Graphics/SVG/1.1/DTD/svg11.dtd">
<svg xmlns="http://www.w3.org/2000/svg" version="1.1" width="24px" height="24px" style="shape-rendering:geometricPrecision; text-rendering:geometricPrecision; image-rendering:optimizeQuality; fill-rule:evenodd; clip-rule:evenodd" xmlns:xlink="http://www.w3.org/1999/xlink">
<g><path style="opacity:0.929" fill="#514e43" d="M 3.5,-0.5 C 10.1667,-0.5 16.8333,-0.5 23.5,-0.5C 23.5,7.5 23.5,15.5 23.5,23.5C 17.1667,23.5 10.8333,23.5 4.5,23.5C 4.5,22.8333 4.83333,22.5 5.5,22.5C 11.1667,22.5 16.8333,22.5 22.5,22.5C 22.5,21.1667 22.5,19.8333 22.5,18.5C 22.5,15.1667 22.5,11.8333 22.5,8.5C 22.5,7.16667 22.5,5.83333 22.5,4.5C 22.5,3.16667 22.5,1.83333 22.5,0.5C 16.8333,0.5 11.1667,0.5 5.5,0.5C 5.5,1.83333 5.5,3.16667 5.5,4.5C 5.5,5.16667 5.5,5.83333 5.5,6.5C 5.5,7.16667 5.5,7.83333 5.5,8.5C 5.5,9.5 5.5,10.5 5.5,11.5C 4.83333,11.1667 4.16667,10.8333 3.5,10.5C 3.5,6.83333 3.5,3.16667 3.5,-0.5 Z"/></g>
<g><path style="opacity:1" fill="#ebe2c5" d="M 14.5,6.5 C 14.5,6.83333 14.5,7.16667 14.5,7.5C 11.3915,7.26414 8.39147,7.59748 5.5,8.5C 5.5,7.83333 5.5,7.16667 5.5,6.5C 8.60375,5.22482 11.6038,5.22482 14.5,6.5 Z"/></g>
<g><path style="opacity:1" fill="#f2ead1" d="M 5.5,4.5 C 5.83333,4.5 6.16667,4.5 6.5,4.5C 11.5,4.5 16.5,4.5 21.5,4.5C 21.8333,4.5 22.1667,4.5 22.5,4.5C 22.5,5.83333 22.5,7.16667 22.5,8.5C 22.1667,8.5 21.8333,8.5 21.5,8.5C 21.3893,7.88258 21.056,7.38258 20.5,7C 18.5273,6.50454 16.5273,6.33788 14.5,6.5C 11.6038,5.22482 8.60375,5.22482 5.5,6.5C 5.5,5.83333 5.5,5.16667 5.5,4.5 Z"/></g>
<g><path style="opacity:1" fill="#e6e2d4" d="M 22.5,4.5 C 22.1667,4.5 21.8333,4.5 21.5,4.5C 19.4294,3.19144 16.9294,2.52477 14,2.5C 11.0706,2.52477 8.57056,3.19144 6.5,4.5C 6.16667,4.5 5.83333,4.5 5.5,4.5C 5.5,3.16667 5.5,1.83333 5.5,0.5C 11.1667,0.5 16.8333,0.5 22.5,0.5C 22.5,1.83333 22.5,3.16667 22.5,4.5 Z"/></g>
<g><path style="opacity:1" fill="#f2ead7" d="M 21.5,4.5 C 16.5,4.5 11.5,4.5 6.5,4.5C 8.57056,3.19144 11.0706,2.52477 14,2.5C 16.9294,2.52477 19.4294,3.19144 21.5,4.5 Z"/></g>
<g><path style="opacity:1" fill="#e1d5b0" d="M 14.5,7.5 C 14.5,8.83333 14.5,10.1667 14.5,11.5C 14.1667,11.5 13.8333,11.5 13.5,11.5C 12.5178,10.8592 11.5178,10.1925 10.5,9.5C 9.70245,9.95689 9.36912,10.6236 9.5,11.5C 8.16667,11.5 6.83333,11.5 5.5,11.5C 5.5,10.5 5.5,9.5 5.5,8.5C 8.39147,7.59748 11.3915,7.26414 14.5,7.5 Z"/></g>
<g><path style="opacity:0.653" fill="#69696a" d="M -0.5,10.5 C 0.833333,10.5 2.16667,10.5 3.5,10.5C 4.16667,10.8333 4.83333,11.1667 5.5,11.5C 6.83333,11.5 8.16667,11.5 9.5,11.5C 9.5,11.8333 9.5,12.1667 9.5,12.5C 8.16667,12.5 6.83333,12.5 5.5,12.5C 4.83333,12.8333 4.16667,13.1667 3.5,13.5C 2.16667,13.5 0.833333,13.5 -0.5,13.5C -0.5,12.5 -0.5,11.5 -0.5,10.5 Z"/></g>
<g><path style="opacity:1" fill="#787671" d="M 13.5,11.5 C 12.8333,12.8333 11.8333,13.8333 10.5,14.5C 9.66175,14.1583 9.32842,13.4916 9.5,12.5C 9.5,12.1667 9.5,11.8333 9.5,11.5C 9.36912,10.6236 9.70245,9.95689 10.5,9.5C 11.5178,10.1925 12.5178,10.8592 13.5,11.5 Z"/></g>
<g><path style="opacity:1" fill="#c7b784" d="M 5.5,13.5 C 5.5,13.1667 5.5,12.8333 5.5,12.5C 6.83333,12.5 8.16667,12.5 9.5,12.5C 9.32842,13.4916 9.66175,14.1583 10.5,14.5C 10.5,14.8333 10.5,15.1667 10.5,15.5C 9.29208,16.2341 7.95875,16.5674 6.5,16.5C 6.57735,15.2502 7.24402,14.4169 8.5,14C 7.55198,13.5172 6.55198,13.3505 5.5,13.5 Z"/></g>
<g><path style="opacity:1" fill="#d7c48b" d="M 13.5,11.5 C 13.8333,11.5 14.1667,11.5 14.5,11.5C 14.5,13.1667 14.5,14.8333 14.5,16.5C 13.2921,15.7659 11.9587,15.4326 10.5,15.5C 10.5,15.1667 10.5,14.8333 10.5,14.5C 11.8333,13.8333 12.8333,12.8333 13.5,11.5 Z"/></g>
<g><path style="opacity:1" fill="#5f5947" d="M 14.5,6.5 C 16.5273,6.33788 18.5273,6.50454 20.5,7C 21.056,7.38258 21.3893,7.88258 21.5,8.5C 21.8064,11.3854 21.4731,14.0521 20.5,16.5C 18.5,16.5 16.5,16.5 14.5,16.5C 14.5,14.8333 14.5,13.1667 14.5,11.5C 14.5,10.1667 14.5,8.83333 14.5,7.5C 14.5,7.16667 14.5,6.83333 14.5,6.5 Z"/></g>
<g><path style="opacity:1" fill="#d8dfea" d="M 19.5,8.5 C 18.6016,9.15767 17.6016,9.82434 16.5,10.5C 17.2739,11.7112 18.1072,11.7112 19,10.5C 19.4935,12.1341 19.6602,13.8008 19.5,15.5C 18.1667,15.5 16.8333,15.5 15.5,15.5C 15.5,13.1667 15.5,10.8333 15.5,8.5C 16.8333,8.5 18.1667,8.5 19.5,8.5 Z"/></g>
<g><path style="opacity:1" fill="#9d9ca0" d="M 19.5,8.5 C 20.8333,10.8333 20.8333,13.1667 19.5,15.5C 19.6602,13.8008 19.4935,12.1341 19,10.5C 18.1072,11.7112 17.2739,11.7112 16.5,10.5C 17.6016,9.82434 18.6016,9.15767 19.5,8.5 Z"/></g>
<g><path style="opacity:1" fill="#c4b173" d="M 10.5,15.5 C 11.9587,15.4326 13.2921,15.7659 14.5,16.5C 16.5,16.5 18.5,16.5 20.5,16.5C 19.0813,17.4511 17.4147,17.7845 15.5,17.5C 12.2869,17.81 9.2869,17.4767 6.5,16.5C 7.95875,16.5674 9.29208,16.2341 10.5,15.5 Z"/></g>
<g><path style="opacity:1" fill="#d8c482" d="M 21.5,8.5 C 21.8333,8.5 22.1667,8.5 22.5,8.5C 22.5,11.8333 22.5,15.1667 22.5,18.5C 22.1667,18.5 21.8333,18.5 21.5,18.5C 19.2646,18.7947 17.2646,18.4614 15.5,17.5C 17.4147,17.7845 19.0813,17.4511 20.5,16.5C 21.4731,14.0521 21.8064,11.3854 21.5,8.5 Z"/></g>
<g><path style="opacity:0.929" fill="#767262" d="M 5.5,12.5 C 5.5,12.8333 5.5,13.1667 5.5,13.5C 5.5,15.5 5.5,17.5 5.5,19.5C 5.5,20.5 5.5,21.5 5.5,22.5C 4.83333,22.5 4.5,22.8333 4.5,23.5C 4.16667,23.5 3.83333,23.5 3.5,23.5C 3.5,20.1667 3.5,16.8333 3.5,13.5C 4.16667,13.1667 4.83333,12.8333 5.5,12.5 Z"/></g>
<g><path style="opacity:1" fill="#c8b46f" d="M 5.5,13.5 C 6.55198,13.3505 7.55198,13.5172 8.5,14C 7.24402,14.4169 6.57735,15.2502 6.5,16.5C 9.2869,17.4767 12.2869,17.81 15.5,17.5C 17.2646,18.4614 19.2646,18.7947 21.5,18.5C 21.5,18.8333 21.5,19.1667 21.5,19.5C 16.5,19.5 11.5,19.5 6.5,19.5C 6.16667,19.5 5.83333,19.5 5.5,19.5C 5.5,17.5 5.5,15.5 5.5,13.5 Z"/></g>
<g><path style="opacity:1" fill="#cdb363" d="M 21.5,18.5 C 21.8333,18.5 22.1667,18.5 22.5,18.5C 22.5,19.8333 22.5,21.1667 22.5,22.5C 16.8333,22.5 11.1667,22.5 5.5,22.5C 5.5,21.5 5.5,20.5 5.5,19.5C 5.83333,19.5 6.16667,19.5 6.5,19.5C 8.57056,20.8086 11.0706,21.4752 14,21.5C 16.9294,21.4752 19.4294,20.8086 21.5,19.5C 21.5,19.1667 21.5,18.8333 21.5,18.5 Z"/></g>
<g><path style="opacity:1" fill="#c1aa62" d="M 6.5,19.5 C 11.5,19.5 16.5,19.5 21.5,19.5C 19.4294,20.8086 16.9294,21.4752 14,21.5C 11.0706,21.4752 8.57056,20.8086 6.5,19.5 Z"/></g>
</svg>
