<?xml version="1.0" encoding="UTF-8"?>
<!DOCTYPE svg PUBLIC "-//W3C//DTD SVG 1.1//EN" "http://www.w3.org/Graphics/SVG/1.1/DTD/svg11.dtd">
<svg xmlns="http://www.w3.org/2000/svg" version="1.1" width="24px" height="24px" style="shape-rendering:geometricPrecision; text-rendering:geometricPrecision; image-rendering:optimizeQuality; fill-rule:evenodd; clip-rule:evenodd" xmlns:xlink="http://www.w3.org/1999/xlink">
<g><path style="opacity:1" fill="#3a3527" d="M -0.5,-0.5 C 7.5,-0.5 15.5,-0.5 23.5,-0.5C 23.5,7.5 23.5,15.5 23.5,23.5C 15.5,23.5 7.5,23.5 -0.5,23.5C -0.5,15.5 -0.5,7.5 -0.5,-0.5 Z"/></g>
<g><path style="opacity:1" fill="#ccba7b" d="M 12.5,12.5 C 13.388,15.0545 13.7214,17.7212 13.5,20.5C 16.1667,20.5 18.8333,20.5 21.5,20.5C 21.5,17.8333 21.5,15.1667 21.5,12.5C 21.8333,12.5 22.1667,12.5 22.5,12.5C 22.5,15.8333 22.5,19.1667 22.5,22.5C 15.1667,22.5 7.83333,22.5 0.5,22.5C 0.5,19.8333 0.5,17.1667 0.5,14.5C 0.833333,14.5 1.16667,14.5 1.5,14.5C 1.21552,16.4147 1.54885,18.0813 2.5,19.5C 4.83333,19.5 7.16667,19.5 9.5,19.5C 9.5,18.1667 9.5,16.8333 9.5,15.5C 10.1667,14.1667 11.1667,13.1667 12.5,12.5 Z"/></g>
<g><path style="opacity:1" fill="#b2ac97" d="M 10.5,9.5 C 9.34775,8.37505 8.34775,8.37505 7.5,9.5C 6.95691,9.44001 6.62358,9.10667 6.5,8.5C 7.85318,7.4763 8.51985,6.14297 8.5,4.5C 6.5328,4.26057 4.69946,4.59391 3,5.5C 2.50085,10.1548 2.33418,14.8215 2.5,19.5C 1.54885,18.0813 1.21552,16.4147 1.5,14.5C 1.21083,10.8936 1.54416,7.39364 2.5,4C 8.18696,1.96289 10.8536,3.79623 10.5,9.5 Z"/></g>
<g><path style="opacity:1" fill="#3d3b34" d="M 7.5,9.5 C 8.34775,8.37505 9.34775,8.37505 10.5,9.5C 10.8333,10.5 11.5,11.1667 12.5,11.5C 12.5,11.8333 12.5,12.1667 12.5,12.5C 11.1667,13.1667 10.1667,14.1667 9.5,15.5C 8.76109,15.631 8.09442,15.4643 7.5,15C 11.4033,12.9861 11.4033,11.1528 7.5,9.5 Z"/></g>
<g><path style="opacity:1" fill="#f6f6f6" d="M 12.5,12.5 C 12.5,12.1667 12.5,11.8333 12.5,11.5C 14.3841,11.2882 15.7174,10.2882 16.5,8.5C 16.1543,7.30441 15.6543,7.30441 15,8.5C 14.51,7.20677 14.3433,5.87344 14.5,4.5C 16.5,4.5 18.5,4.5 20.5,4.5C 20.5,9.5 20.5,14.5 20.5,19.5C 18.5,19.5 16.5,19.5 14.5,19.5C 14.3433,18.1266 14.51,16.7932 15,15.5C 15.6543,16.6956 16.1543,16.6956 16.5,15.5C 15.7174,13.7118 14.3841,12.7118 12.5,12.5 Z"/></g>
<g><path style="opacity:1" fill="#efefef" d="M 7.5,9.5 C 11.4033,11.1528 11.4033,12.9861 7.5,15C 8.09442,15.4643 8.76109,15.631 9.5,15.5C 9.5,16.8333 9.5,18.1667 9.5,19.5C 7.16667,19.5 4.83333,19.5 2.5,19.5C 2.33418,14.8215 2.50085,10.1548 3,5.5C 4.69946,4.59391 6.5328,4.26057 8.5,4.5C 8.51985,6.14297 7.85318,7.4763 6.5,8.5C 6.62358,9.10667 6.95691,9.44001 7.5,9.5 Z"/></g>
<g><path style="opacity:1" fill="#908c80" d="M 21.5,12.5 C 21.5,15.1667 21.5,17.8333 21.5,20.5C 18.8333,20.5 16.1667,20.5 13.5,20.5C 13.7214,17.7212 13.388,15.0545 12.5,12.5C 14.3841,12.7118 15.7174,13.7118 16.5,15.5C 16.1543,16.6956 15.6543,16.6956 15,15.5C 14.51,16.7932 14.3433,18.1266 14.5,19.5C 16.5,19.5 18.5,19.5 20.5,19.5C 20.5,14.5 20.5,9.5 20.5,4.5C 18.5,4.5 16.5,4.5 14.5,4.5C 14.3433,5.87344 14.51,7.20677 15,8.5C 15.6543,7.30441 16.1543,7.30441 16.5,8.5C 15.7174,10.2882 14.3841,11.2882 12.5,11.5C 13.388,8.94551 13.7214,6.27884 13.5,3.5C 16.1667,3.5 18.8333,3.5 21.5,3.5C 21.5,6.5 21.5,9.5 21.5,12.5 Z"/></g>
<g><path style="opacity:1" fill="#ece7d5" d="M 22.5,12.5 C 22.1667,12.5 21.8333,12.5 21.5,12.5C 21.5,9.5 21.5,6.5 21.5,3.5C 18.8333,3.5 16.1667,3.5 13.5,3.5C 13.7214,6.27884 13.388,8.94551 12.5,11.5C 11.5,11.1667 10.8333,10.5 10.5,9.5C 10.8536,3.79623 8.18696,1.96289 2.5,4C 1.54416,7.39364 1.21083,10.8936 1.5,14.5C 1.16667,14.5 0.833333,14.5 0.5,14.5C 0.5,9.83333 0.5,5.16667 0.5,0.5C 7.83333,0.5 15.1667,0.5 22.5,0.5C 22.5,4.5 22.5,8.5 22.5,12.5 Z"/></g>
</svg>
