<?xml version="1.0" encoding="UTF-8"?>
<!DOCTYPE svg PUBLIC "-//W3C//DTD SVG 1.1//EN" "http://www.w3.org/Graphics/SVG/1.1/DTD/svg11.dtd">
<svg xmlns="http://www.w3.org/2000/svg" version="1.1" width="24px" height="24px" style="shape-rendering:geometricPrecision; text-rendering:geometricPrecision; image-rendering:optimizeQuality; fill-rule:evenodd; clip-rule:evenodd" xmlns:xlink="http://www.w3.org/1999/xlink">
<g><path style="opacity:0.435" fill="#969696" d="M 10.5,5.5 C 10.5,6.5 10.5,7.5 10.5,8.5C 9.66175,8.15829 9.32842,7.49162 9.5,6.5C 8.45227,4.06732 7.7856,4.06732 7.5,6.5C 5.79734,7.66015 5.13068,6.99349 5.5,4.5C 7.79041,1.70785 9.45707,2.04118 10.5,5.5 Z"/></g>
<g><path style="opacity:0.267" fill="#a7a7a7" d="M 21.5,6.5 C 21.5,7.16667 21.5,7.83333 21.5,8.5C 19.8333,8.5 18.1667,8.5 16.5,8.5C 16.5,7.83333 16.5,7.16667 16.5,6.5C 16.6309,5.62356 16.2975,4.95689 15.5,4.5C 14.5713,5.68884 14.238,7.02218 14.5,8.5C 12.955,9.22967 12.1216,10.563 12,12.5C 10.7716,11.0028 10.2716,9.66942 10.5,8.5C 10.5,7.5 10.5,6.5 10.5,5.5C 12.3046,4.76294 13.9713,3.76294 15.5,2.5C 17.1331,4.50298 19.1331,5.83631 21.5,6.5 Z"/></g>
<g><path style="opacity:0.23" fill="#d2d2d2" d="M 9.5,6.5 C 9.32842,7.49162 9.66175,8.15829 10.5,8.5C 10.2716,9.66942 10.7716,11.0028 12,12.5C 12.1216,10.563 12.955,9.22967 14.5,8.5C 14.5,11.5 14.5,14.5 14.5,17.5C 12.5,17.5 10.5,17.5 8.5,17.5C 8.18503,13.6286 8.51836,9.96192 9.5,6.5 Z"/></g>
<g><path style="opacity:0.099" fill="#e2e2e2" d="M 16.5,6.5 C 16.5,7.16667 16.5,7.83333 16.5,8.5C 16.5,10.8333 16.5,13.1667 16.5,15.5C 17.9464,16.6129 19.6131,16.7796 21.5,16C 19.6412,15.3992 19.3079,14.5659 20.5,13.5C 21.4511,12.0813 21.7845,10.4147 21.5,8.5C 21.5,7.83333 21.5,7.16667 21.5,6.5C 22.4816,9.96192 22.815,13.6286 22.5,17.5C 20.1667,17.5 17.8333,17.5 15.5,17.5C 15.185,13.6286 15.5184,9.96192 16.5,6.5 Z"/></g>
<g><path style="opacity:0.518" fill="#c0c0c0" d="M 5.5,4.5 C 5.13068,6.99349 5.79734,7.66015 7.5,6.5C 7.5,10.1667 7.5,13.8333 7.5,17.5C 5.5,17.5 3.5,17.5 1.5,17.5C 1.5,13.8333 1.5,10.1667 1.5,6.5C 3.19928,6.47291 4.53261,5.80624 5.5,4.5 Z"/></g>
<g><path style="opacity:1" fill="#f7f7f7" d="M 5.5,14.5 C 5.78522,12.712 5.45189,11.0453 4.5,9.5C 3.94784,11.0026 3.94784,12.6693 4.5,14.5C 4.44001,15.0431 4.10667,15.3764 3.5,15.5C 2.52577,13.2573 2.19244,10.924 2.5,8.5C 3.83333,8.5 5.16667,8.5 6.5,8.5C 6.8468,11.3409 6.51347,13.3409 5.5,14.5 Z"/></g>
<g><path style="opacity:0.949" fill="#dadada" d="M 16.5,8.5 C 18.1667,8.5 19.8333,8.5 21.5,8.5C 21.7845,10.4147 21.4511,12.0813 20.5,13.5C 19.9101,12.234 19.4101,10.9007 19,9.5C 18.9977,12.0512 18.1644,14.0512 16.5,15.5C 16.5,13.1667 16.5,10.8333 16.5,8.5 Z"/></g>
<g><path style="opacity:1" fill="#5e5e5e" d="M 5.5,14.5 C 5.16667,14.5 4.83333,14.5 4.5,14.5C 3.94784,12.6693 3.94784,11.0026 4.5,9.5C 5.45189,11.0453 5.78522,12.712 5.5,14.5 Z"/></g>
<g><path style="opacity:0.98" fill="#9f9f9f" d="M 20.5,13.5 C 19.3079,14.5659 19.6412,15.3992 21.5,16C 19.6131,16.7796 17.9464,16.6129 16.5,15.5C 18.1644,14.0512 18.9977,12.0512 19,9.5C 19.4101,10.9007 19.9101,12.234 20.5,13.5 Z"/></g>
</svg>
