<?xml version="1.0" encoding="UTF-8"?>
<!DOCTYPE svg PUBLIC "-//W3C//DTD SVG 1.1//EN" "http://www.w3.org/Graphics/SVG/1.1/DTD/svg11.dtd">
<svg xmlns="http://www.w3.org/2000/svg" version="1.1" width="24px" height="24px" style="shape-rendering:geometricPrecision; text-rendering:geometricPrecision; image-rendering:optimizeQuality; fill-rule:evenodd; clip-rule:evenodd" xmlns:xlink="http://www.w3.org/1999/xlink">
<g><path style="opacity:0.671" fill="#a0a080" d="M -0.5,2.5 C 4.5,2.5 9.5,2.5 14.5,2.5C 14.5,2.83333 14.5,3.16667 14.5,3.5C 12.5,3.5 10.5,3.5 8.5,3.5C 7.83333,5.5 7.16667,7.5 6.5,9.5C 6.5,7.5 6.5,5.5 6.5,3.5C 4.5,3.5 2.5,3.5 0.5,3.5C 0.5,5.5 0.5,7.5 0.5,9.5C 0.5,9.83333 0.5,10.1667 0.5,10.5C 0.166667,10.5 -0.166667,10.5 -0.5,10.5C -0.5,7.83333 -0.5,5.16667 -0.5,2.5 Z"/></g>
<g><path style="opacity:1" fill="#fafa62" d="M 6.5,9.5 C 4.5,9.5 2.5,9.5 0.5,9.5C 0.5,7.5 0.5,5.5 0.5,3.5C 2.5,3.5 4.5,3.5 6.5,3.5C 6.5,5.5 6.5,7.5 6.5,9.5 Z"/></g>
<g><path style="opacity:0.435" fill="#807f54" d="M 8.5,3.5 C 8.20528,5.73535 8.53862,7.73535 9.5,9.5C 10.8333,9.5 12.1667,9.5 13.5,9.5C 13.8333,9.5 14.1667,9.5 14.5,9.5C 14.1583,10.3382 13.4916,10.6716 12.5,10.5C 11.8333,10.5 11.1667,10.5 10.5,10.5C 7.16667,10.5 3.83333,10.5 0.5,10.5C 0.5,10.1667 0.5,9.83333 0.5,9.5C 2.5,9.5 4.5,9.5 6.5,9.5C 7.16667,7.5 7.83333,5.5 8.5,3.5 Z"/></g>
<g><path style="opacity:1" fill="#f9f95b" d="M 8.5,3.5 C 10.5,3.5 12.5,3.5 14.5,3.5C 14.5,5.5 14.5,7.5 14.5,9.5C 14.1667,9.5 13.8333,9.5 13.5,9.5C 13.5,7.83333 13.5,6.16667 13.5,4.5C 12.1667,4.5 10.8333,4.5 9.5,4.5C 9.5,6.16667 9.5,7.83333 9.5,9.5C 8.53862,7.73535 8.20528,5.73535 8.5,3.5 Z"/></g>
<g><path style="opacity:1" fill="#fffe66" d="M 13.5,9.5 C 12.1667,9.5 10.8333,9.5 9.5,9.5C 9.5,7.83333 9.5,6.16667 9.5,4.5C 10.8333,4.5 12.1667,4.5 13.5,4.5C 13.5,6.16667 13.5,7.83333 13.5,9.5 Z"/></g>
<g><path style="opacity:0.438" fill="#b0b09e" d="M 14.5,2.5 C 17.5,2.5 20.5,2.5 23.5,2.5C 23.5,5.16667 23.5,7.83333 23.5,10.5C 23.1667,10.5 22.8333,10.5 22.5,10.5C 22.5,10.1667 22.5,9.83333 22.5,9.5C 22.5,7.5 22.5,5.5 22.5,3.5C 20.5,3.5 18.5,3.5 16.5,3.5C 15.8476,4.4486 15.5143,5.61527 15.5,7C 15.6083,8.68113 16.2749,9.8478 17.5,10.5C 17.5,10.8333 17.5,11.1667 17.5,11.5C 15.8333,11.5 14.1667,11.5 12.5,11.5C 12.5,11.1667 12.5,10.8333 12.5,10.5C 13.4916,10.6716 14.1583,10.3382 14.5,9.5C 14.5,7.5 14.5,5.5 14.5,3.5C 14.5,3.16667 14.5,2.83333 14.5,2.5 Z"/></g>
<g><path style="opacity:0.608" fill="#908f5e" d="M 16.5,3.5 C 18.5,3.5 20.5,3.5 22.5,3.5C 22.5,5.5 22.5,7.5 22.5,9.5C 22.5,9.83333 22.5,10.1667 22.5,10.5C 22.1583,11.3382 21.4916,11.6716 20.5,11.5C 20.5,10.8333 20.1667,10.5 19.5,10.5C 18.8333,10.5 18.1667,10.5 17.5,10.5C 16.2749,9.8478 15.6083,8.68113 15.5,7C 15.5143,5.61527 15.8476,4.4486 16.5,3.5 Z"/></g>
<g><path style="opacity:1" fill="#fafa62" d="M 16.5,3.5 C 18.5,3.5 20.5,3.5 22.5,3.5C 22.5,5.5 22.5,7.5 22.5,9.5C 20.5,9.5 18.5,9.5 16.5,9.5C 16.5,7.5 16.5,5.5 16.5,3.5 Z"/></g>
<g><path style="opacity:0.729" fill="#939394" d="M 0.5,10.5 C 3.83333,10.5 7.16667,10.5 10.5,10.5C 10.5,12.1667 10.5,13.8333 10.5,15.5C 9.56552,14.4324 9.23219,13.099 9.5,11.5C 8.16667,11.5 6.83333,11.5 5.5,11.5C 5.17784,13.4752 5.17784,15.1418 5.5,16.5C 4.83333,17.1667 4.16667,17.8333 3.5,18.5C 7.73221,19.5003 12.7322,19.8337 18.5,19.5C 12.8333,20.1667 7.16667,20.8333 1.5,21.5C 0.876052,21.0831 0.542718,20.4164 0.5,19.5C 1.39984,17.7613 2.0665,15.928 2.5,14C 2.13821,12.5657 1.47154,11.3991 0.5,10.5 Z"/></g>
<g><path style="opacity:0.544" fill="#727273" d="M 10.5,10.5 C 11.1667,10.5 11.8333,10.5 12.5,10.5C 12.5,10.8333 12.5,11.1667 12.5,11.5C 12.5,13.1667 12.5,14.8333 12.5,16.5C 12.5,16.8333 12.5,17.1667 12.5,17.5C 11.5084,17.6716 10.8417,17.3382 10.5,16.5C 10.5,16.1667 10.5,15.8333 10.5,15.5C 10.5,13.8333 10.5,12.1667 10.5,10.5 Z"/></g>
<g><path style="opacity:0.537" fill="#7d7d7e" d="M 17.5,10.5 C 18.1667,10.5 18.8333,10.5 19.5,10.5C 20.1667,10.5 20.5,10.8333 20.5,11.5C 20.1778,13.4752 20.1778,15.1418 20.5,16.5C 21.463,17.3635 21.463,18.0302 20.5,18.5C 19.2613,18.0576 18.2613,17.3909 17.5,16.5C 17.5,14.8333 17.5,13.1667 17.5,11.5C 17.5,11.1667 17.5,10.8333 17.5,10.5 Z"/></g>
<g><path style="opacity:1" fill="#979797" d="M 5.5,16.5 C 7.16667,16.5 8.83333,16.5 10.5,16.5C 10.8417,17.3382 11.5084,17.6716 12.5,17.5C 9.7131,18.4767 6.7131,18.81 3.5,18.5C 4.16667,17.8333 4.83333,17.1667 5.5,16.5 Z"/></g>
<g><path style="opacity:1" fill="#b9b9b9" d="M 12.5,16.5 C 14.1667,16.5 15.8333,16.5 17.5,16.5C 18.2613,17.3909 19.2613,18.0576 20.5,18.5C 21.463,18.0302 21.463,17.3635 20.5,16.5C 22.7446,17.8278 23.0779,19.6612 21.5,22C 14.6536,22.8206 7.98697,22.654 1.5,21.5C 7.84209,21.6662 14.1754,21.4995 20.5,21C 19.9558,20.2828 19.2891,19.7828 18.5,19.5C 12.7322,19.8337 7.73221,19.5003 3.5,18.5C 6.7131,18.81 9.7131,18.4767 12.5,17.5C 12.5,17.1667 12.5,16.8333 12.5,16.5 Z"/></g>
<g><path style="opacity:0.937" fill="#646464" d="M 18.5,19.5 C 19.2891,19.7828 19.9558,20.2828 20.5,21C 14.1754,21.4995 7.84209,21.6662 1.5,21.5C 7.16667,20.8333 12.8333,20.1667 18.5,19.5 Z"/></g>
</svg>
