<?xml version="1.0" encoding="UTF-8"?>
<!DOCTYPE svg PUBLIC "-//W3C//DTD SVG 1.1//EN" "http://www.w3.org/Graphics/SVG/1.1/DTD/svg11.dtd">
<svg xmlns="http://www.w3.org/2000/svg" version="1.1" width="24px" height="24px" style="shape-rendering:geometricPrecision; text-rendering:geometricPrecision; image-rendering:optimizeQuality; fill-rule:evenodd; clip-rule:evenodd" xmlns:xlink="http://www.w3.org/1999/xlink">
<g><path style="opacity:0.384" fill="#1e1e1e" d="M 11.5,-0.5 C 11.8333,-0.5 12.1667,-0.5 12.5,-0.5C 14.1392,0.472504 15.4726,1.80584 16.5,3.5C 16.5,4.16667 16.1667,4.5 15.5,4.5C 13.2709,0.945145 10.6042,0.611812 7.5,3.5C 7.5,3.16667 7.5,2.83333 7.5,2.5C 8.59026,1.14294 9.92359,0.142944 11.5,-0.5 Z"/></g>
<g><path style="opacity:1" fill="#f6f6f6" d="M 15.5,4.5 C 18.0901,9.47132 18.0901,14.4713 15.5,19.5C 14.8333,20.5 14.1667,21.5 13.5,22.5C 9.53699,21.8705 7.20366,19.5371 6.5,15.5C 6.30698,11.4338 6.64032,7.43378 7.5,3.5C 10.6042,0.611812 13.2709,0.945145 15.5,4.5 Z"/></g>
<g><path style="opacity:1" fill="#7c7c7c" d="M 11.5,3.5 C 12.4731,5.9479 12.8064,8.61456 12.5,11.5C 16.1716,12.0447 15.8383,12.3781 11.5,12.5C 11.5,9.5 11.5,6.5 11.5,3.5 Z"/></g>
<g><path style="opacity:1" fill="#9a9a9a" d="M 7.5,2.5 C 7.5,2.83333 7.5,3.16667 7.5,3.5C 6.64032,7.43378 6.30698,11.4338 6.5,15.5C 5.83333,15.5 5.5,15.8333 5.5,16.5C 4.35916,13.3601 4.1925,10.0267 5,6.5C 5.6082,4.93356 6.44153,3.60023 7.5,2.5 Z"/></g>
<g><path style="opacity:0.778" fill="#777777" d="M 16.5,3.5 C 18.0468,5.80661 18.7135,8.47327 18.5,11.5C 18.7135,14.5267 18.0468,17.1934 16.5,19.5C 16.1667,19.5 15.8333,19.5 15.5,19.5C 18.0901,14.4713 18.0901,9.47132 15.5,4.5C 16.1667,4.5 16.5,4.16667 16.5,3.5 Z"/></g>
<g><path style="opacity:0.622" fill="#4c4c4c" d="M 6.5,15.5 C 7.20366,19.5371 9.53699,21.8705 13.5,22.5C 13.5,22.8333 13.5,23.1667 13.5,23.5C 12.1667,23.5 10.8333,23.5 9.5,23.5C 7.33105,21.6597 5.99772,19.3263 5.5,16.5C 5.5,15.8333 5.83333,15.5 6.5,15.5 Z"/></g>
<g><path style="opacity:0.422" fill="#080808" d="M 15.5,19.5 C 15.8333,19.5 16.1667,19.5 16.5,19.5C 16.5,21.5 15.5,22.5 13.5,22.5C 14.1667,21.5 14.8333,20.5 15.5,19.5 Z"/></g>
</svg>
