<?xml version="1.0" encoding="UTF-8"?>
<!DOCTYPE svg PUBLIC "-//W3C//DTD SVG 1.1//EN" "http://www.w3.org/Graphics/SVG/1.1/DTD/svg11.dtd">
<svg xmlns="http://www.w3.org/2000/svg" version="1.1" width="24px" height="24px" style="shape-rendering:geometricPrecision; text-rendering:geometricPrecision; image-rendering:optimizeQuality; fill-rule:evenodd; clip-rule:evenodd" xmlns:xlink="http://www.w3.org/1999/xlink">
<g><path style="opacity:1" fill="#b0aa9a" d="M 5.5,1.5 C 11.31,0.510446 17.31,0.177113 23.5,0.5C 23.5,7.83333 23.5,15.1667 23.5,22.5C 23.1667,22.5 22.8333,22.5 22.5,22.5C 22.8168,18.2984 22.4834,14.2984 21.5,10.5C 21.5,7.83333 21.5,5.16667 21.5,2.5C 20.1667,2.5 18.8333,2.5 17.5,2.5C 13.7016,1.51658 9.70159,1.18325 5.5,1.5 Z"/></g>
<g><path style="opacity:0.765" fill="#444340" d="M 4.5,-0.5 C 10.8333,-0.5 17.1667,-0.5 23.5,-0.5C 23.5,-0.166667 23.5,0.166667 23.5,0.5C 17.31,0.177113 11.31,0.510446 5.5,1.5C 5.5,2.5 5.5,3.5 5.5,4.5C 5.5,4.83333 5.5,5.16667 5.5,5.5C 5.5,6.5 5.5,7.5 5.5,8.5C 5.75351,10.4008 5.42018,11.0674 4.5,10.5C 4.5,6.83333 4.5,3.16667 4.5,-0.5 Z"/></g>
<g><path style="opacity:1" fill="#f5efdf" d="M 5.5,1.5 C 9.70159,1.18325 13.7016,1.51658 17.5,2.5C 15.4862,2.39151 13.8195,3.05817 12.5,4.5C 10.1667,4.5 7.83333,4.5 5.5,4.5C 5.5,3.5 5.5,2.5 5.5,1.5 Z"/></g>
<g><path style="opacity:1" fill="#f1ead5" d="M 5.5,5.5 C 5.5,5.16667 5.5,4.83333 5.5,4.5C 7.83333,4.5 10.1667,4.5 12.5,4.5C 12.1667,5.16667 11.8333,5.83333 11.5,6.5C 11.1667,6.5 10.8333,6.5 10.5,6.5C 8.70848,6.63404 7.04181,6.30071 5.5,5.5 Z"/></g>
<g><path style="opacity:1" fill="#bae0e5" d="M 17.5,3.5 C 18.5,3.5 19.5,3.5 20.5,3.5C 20.5,9.16667 20.5,14.8333 20.5,20.5C 19.5,20.5 18.5,20.5 17.5,20.5C 17.5,19.5 17.5,18.5 17.5,17.5C 17.5,14.5 17.5,11.5 17.5,8.5C 17.5,6.83333 17.5,5.16667 17.5,3.5 Z"/></g>
<g><path style="opacity:1" fill="#94aeae" d="M 17.5,3.5 C 17.5,3.16667 17.5,2.83333 17.5,2.5C 18.8333,2.5 20.1667,2.5 21.5,2.5C 21.5,5.16667 21.5,7.83333 21.5,10.5C 21.5,13.8333 21.5,17.1667 21.5,20.5C 21.1667,20.5 20.8333,20.5 20.5,20.5C 20.5,14.8333 20.5,9.16667 20.5,3.5C 19.5,3.5 18.5,3.5 17.5,3.5 Z"/></g>
<g><path style="opacity:1" fill="#a8b2aa" d="M 17.5,2.5 C 17.5,2.83333 17.5,3.16667 17.5,3.5C 17.5,5.16667 17.5,6.83333 17.5,8.5C 16.8333,8.5 16.1667,8.5 15.5,8.5C 15.8404,6.45238 15.5071,5.45238 14.5,5.5C 13.8826,5.61071 13.3826,5.94404 13,6.5C 12.5017,9.81677 12.335,13.1501 12.5,16.5C 11.5206,13.3752 11.1872,10.0419 11.5,6.5C 11.8333,5.83333 12.1667,5.16667 12.5,4.5C 13.8195,3.05817 15.4862,2.39151 17.5,2.5 Z"/></g>
<g><path style="opacity:1" fill="#e7dec3" d="M 5.5,5.5 C 7.04181,6.30071 8.70848,6.63404 10.5,6.5C 10.5,8.16667 10.5,9.83333 10.5,11.5C 10.1667,11.5 9.83333,11.5 9.5,11.5C 8.36339,10.2112 7.03005,9.21119 5.5,8.5C 5.5,7.5 5.5,6.5 5.5,5.5 Z"/></g>
<g><path style="opacity:1" fill="#bee4e8" d="M 14.5,5.5 C 14.8168,9.70159 14.4834,13.7016 13.5,17.5C 13.5,16.8333 13.1667,16.5 12.5,16.5C 12.335,13.1501 12.5017,9.81677 13,6.5C 13.3826,5.94404 13.8826,5.61071 14.5,5.5 Z"/></g>
<g><path style="opacity:1" fill="#7b7971" d="M 5.5,8.5 C 7.03005,9.21119 8.36339,10.2112 9.5,11.5C 8.48837,12.8717 7.48837,14.205 6.5,15.5C 5.66175,15.8417 5.32842,16.5084 5.5,17.5C 5.5,18.1667 5.5,18.8333 5.5,19.5C 5.5,20.1667 5.5,20.8333 5.5,21.5C 10.9753,22.4889 16.642,22.8222 22.5,22.5C 22.8333,22.5 23.1667,22.5 23.5,22.5C 23.5,22.8333 23.5,23.1667 23.5,23.5C 17.1667,23.5 10.8333,23.5 4.5,23.5C 4.5,20.1667 4.5,16.8333 4.5,13.5C 2.83333,13.5 1.16667,13.5 -0.5,13.5C -0.5,12.5 -0.5,11.5 -0.5,10.5C 1.16667,10.5 2.83333,10.5 4.5,10.5C 5.42018,11.0674 5.75351,10.4008 5.5,8.5 Z"/></g>
<g><path style="opacity:1" fill="#a7cacf" d="M 15.5,8.5 C 15.5,11.1667 15.5,13.8333 15.5,16.5C 15.7373,17.791 15.404,18.791 14.5,19.5C 14.5,18.8333 14.1667,18.5 13.5,18.5C 13.5,18.1667 13.5,17.8333 13.5,17.5C 14.4834,13.7016 14.8168,9.70159 14.5,5.5C 15.5071,5.45238 15.8404,6.45238 15.5,8.5 Z"/></g>
<g><path style="opacity:1" fill="#a8a486" d="M 15.5,8.5 C 16.1667,8.5 16.8333,8.5 17.5,8.5C 17.5,11.5 17.5,14.5 17.5,17.5C 16.8333,17.1667 16.1667,16.8333 15.5,16.5C 15.5,13.8333 15.5,11.1667 15.5,8.5 Z"/></g>
<g><path style="opacity:1" fill="#d7c99a" d="M 9.5,11.5 C 9.83333,11.5 10.1667,11.5 10.5,11.5C 10.5,13.1667 10.5,14.8333 10.5,16.5C 8.90097,16.7678 7.56764,16.4345 6.5,15.5C 7.48837,14.205 8.48837,12.8717 9.5,11.5 Z"/></g>
<g><path style="opacity:1" fill="#bdb288" d="M 10.5,6.5 C 10.8333,6.5 11.1667,6.5 11.5,6.5C 11.1872,10.0419 11.5206,13.3752 12.5,16.5C 13.1667,16.5 13.5,16.8333 13.5,17.5C 13.5,17.8333 13.5,18.1667 13.5,18.5C 13.1667,18.5 12.8333,18.5 12.5,18.5C 10.3926,17.5318 8.0593,17.1984 5.5,17.5C 5.32842,16.5084 5.66175,15.8417 6.5,15.5C 7.56764,16.4345 8.90097,16.7678 10.5,16.5C 10.5,14.8333 10.5,13.1667 10.5,11.5C 10.5,9.83333 10.5,8.16667 10.5,6.5 Z"/></g>
<g><path style="opacity:1" fill="#d0bf85" d="M 5.5,17.5 C 8.0593,17.1984 10.3926,17.5318 12.5,18.5C 10.3926,19.4682 8.0593,19.8016 5.5,19.5C 5.5,18.8333 5.5,18.1667 5.5,17.5 Z"/></g>
<g><path style="opacity:1" fill="#928d6c" d="M 15.5,16.5 C 16.1667,16.8333 16.8333,17.1667 17.5,17.5C 17.5,18.5 17.5,19.5 17.5,20.5C 18.5,20.5 19.5,20.5 20.5,20.5C 20.8333,20.5 21.1667,20.5 21.5,20.5C 19.1667,21.8333 16.8333,21.8333 14.5,20.5C 14.5,20.1667 14.5,19.8333 14.5,19.5C 15.404,18.791 15.7373,17.791 15.5,16.5 Z"/></g>
<g><path style="opacity:1" fill="#cab87a" d="M 12.5,18.5 C 12.8333,18.5 13.1667,18.5 13.5,18.5C 14.1667,18.5 14.5,18.8333 14.5,19.5C 14.5,19.8333 14.5,20.1667 14.5,20.5C 11.6085,21.4025 8.60853,21.7359 5.5,21.5C 5.5,20.8333 5.5,20.1667 5.5,19.5C 8.0593,19.8016 10.3926,19.4682 12.5,18.5 Z"/></g>
<g><path style="opacity:1" fill="#d1bd7e" d="M 21.5,10.5 C 22.4834,14.2984 22.8168,18.2984 22.5,22.5C 16.642,22.8222 10.9753,22.4889 5.5,21.5C 8.60853,21.7359 11.6085,21.4025 14.5,20.5C 16.8333,21.8333 19.1667,21.8333 21.5,20.5C 21.5,17.1667 21.5,13.8333 21.5,10.5 Z"/></g>
</svg>
