<?xml version="1.0" encoding="UTF-8"?>
<!DOCTYPE svg PUBLIC "-//W3C//DTD SVG 1.1//EN" "http://www.w3.org/Graphics/SVG/1.1/DTD/svg11.dtd">
<svg xmlns="http://www.w3.org/2000/svg" version="1.1" width="24px" height="24px" style="shape-rendering:geometricPrecision; text-rendering:geometricPrecision; image-rendering:optimizeQuality; fill-rule:evenodd; clip-rule:evenodd" xmlns:xlink="http://www.w3.org/1999/xlink">
<g><path style="opacity:0.569" fill="#b2b2a4" d="M 8.5,-0.5 C 10.1667,-0.5 11.8333,-0.5 13.5,-0.5C 13.7845,1.41467 13.4511,3.08134 12.5,4.5C 12.5,4.16667 12.5,3.83333 12.5,3.5C 12.5,2.5 12.5,1.5 12.5,0.5C 11.5,0.5 10.5,0.5 9.5,0.5C 9.5,1.5 9.5,2.5 9.5,3.5C 9.5,3.83333 9.5,4.16667 9.5,4.5C 8.54885,3.08134 8.21552,1.41467 8.5,-0.5 Z"/></g>
<g><path style="opacity:1" fill="#ecec89" d="M 12.5,3.5 C 11.5,3.5 10.5,3.5 9.5,3.5C 9.5,2.5 9.5,1.5 9.5,0.5C 10.5,0.5 11.5,0.5 12.5,0.5C 12.5,1.5 12.5,2.5 12.5,3.5 Z"/></g>
<g><path style="opacity:0.251" fill="#8c8b85" d="M 9.5,4.5 C 9.5,4.16667 9.5,3.83333 9.5,3.5C 10.5,3.5 11.5,3.5 12.5,3.5C 12.5,3.83333 12.5,4.16667 12.5,4.5C 11.8333,5.83333 11.1667,7.16667 10.5,8.5C 10.7678,6.90097 10.4345,5.56764 9.5,4.5 Z"/></g>
<g><path style="opacity:0.533" fill="#a6a593" d="M 15.5,10.5 C 15.5,10.1667 15.5,9.83333 15.5,9.5C 14.6618,9.15829 14.3284,8.49162 14.5,7.5C 15.5521,5.74395 17.2188,5.07729 19.5,5.5C 19.5,7.16667 19.5,8.83333 19.5,10.5C 18.1667,10.5 16.8333,10.5 15.5,10.5 Z"/></g>
<g><path style="opacity:0.761" fill="#767564" d="M 7.5,7.5 C 7.5,8.5 7.5,9.5 7.5,10.5C 5.83333,10.5 4.16667,10.5 2.5,10.5C 2.5,8.83333 2.5,7.16667 2.5,5.5C 4.78121,5.07729 6.44787,5.74395 7.5,7.5 Z"/></g>
<g><path style="opacity:1" fill="#efef90" d="M 3.5,6.5 C 4.5,6.5 5.5,6.5 6.5,6.5C 6.5,7.5 6.5,8.5 6.5,9.5C 5.5,9.5 4.5,9.5 3.5,9.5C 3.5,8.5 3.5,7.5 3.5,6.5 Z"/></g>
<g><path style="opacity:1" fill="#f1f18c" d="M 15.5,9.5 C 15.5,8.5 15.5,7.5 15.5,6.5C 16.5,6.5 17.5,6.5 18.5,6.5C 18.5,7.5 18.5,8.5 18.5,9.5C 17.5,9.5 16.5,9.5 15.5,9.5 Z"/></g>
<g><path style="opacity:0.271" fill="#c6c6c9" d="M 7.5,7.5 C 8.39105,8.10978 9.39105,8.44312 10.5,8.5C 9.83333,9.16667 9.16667,9.83333 8.5,10.5C 8.16667,10.5 7.83333,10.5 7.5,10.5C 7.5,9.5 7.5,8.5 7.5,7.5 Z"/></g>
<g><path style="opacity:0.224" fill="#d6d6d7" d="M 14.5,7.5 C 14.3284,8.49162 14.6618,9.15829 15.5,9.5C 15.5,9.83333 15.5,10.1667 15.5,10.5C 14.8333,10.5 14.1667,10.5 13.5,10.5C 13.1667,9.83333 12.8333,9.16667 12.5,8.5C 13.1667,8.16667 13.8333,7.83333 14.5,7.5 Z"/></g>
<g><path style="opacity:0.945" fill="#928f87" d="M 12.5,4.5 C 12.5,5.83333 12.5,7.16667 12.5,8.5C 12.8333,9.16667 13.1667,9.83333 13.5,10.5C 13.5,11.1667 13.5,11.8333 13.5,12.5C 13.1667,12.5 12.8333,12.5 12.5,12.5C 11.4324,13.4345 10.099,13.7678 8.5,13.5C 8.5,12.5 8.5,11.5 8.5,10.5C 9.16667,9.83333 9.83333,9.16667 10.5,8.5C 11.1667,7.16667 11.8333,5.83333 12.5,4.5 Z"/></g>
<g><path style="opacity:1" fill="#eaddb4" d="M 12.5,12.5 C 11.325,12.719 10.325,12.3857 9.5,11.5C 11.0517,10.2021 12.0517,10.5354 12.5,12.5 Z"/></g>
<g><path style="opacity:1" fill="#f8f899" d="M 3.5,12.5 C 5.17876,12.2852 6.17876,12.9519 6.5,14.5C 4.82124,14.7148 3.82124,14.0481 3.5,12.5 Z"/></g>
<g><path style="opacity:0.678" fill="#535340" d="M 3.5,12.5 C 3.5,12.1667 3.5,11.8333 3.5,11.5C 5.5542,11.3653 7.22086,12.032 8.5,13.5C 8.5,13.8333 8.5,14.1667 8.5,14.5C 7.36465,16.2132 5.69798,16.8799 3.5,16.5C 4.5,15.8333 5.5,15.1667 6.5,14.5C 6.17876,12.9519 5.17876,12.2852 3.5,12.5 Z"/></g>
<g><path style="opacity:0.263" fill="#262625" d="M 12.5,12.5 C 12.8333,12.5 13.1667,12.5 13.5,12.5C 13.5,13.1667 13.8333,13.5 14.5,13.5C 14.5,14.1667 14.8333,14.5 15.5,14.5C 15.5,15.1667 15.1667,15.5 14.5,15.5C 13.8333,15.1667 13.1667,14.8333 12.5,14.5C 11.8333,14.5 11.1667,14.5 10.5,14.5C 9.83333,14.5 9.16667,14.5 8.5,14.5C 8.5,14.1667 8.5,13.8333 8.5,13.5C 10.099,13.7678 11.4324,13.4345 12.5,12.5 Z"/></g>
<g><path style="opacity:0.675" fill="#b0af8f" d="M 14.5,15.5 C 15.1667,15.5 15.5,15.1667 15.5,14.5C 14.8333,14.5 14.5,14.1667 14.5,13.5C 15.5521,11.744 17.2188,11.0773 19.5,11.5C 19.5,13.1667 19.5,14.8333 19.5,16.5C 17.5853,16.7845 15.9187,16.4511 14.5,15.5 Z"/></g>
<g><path style="opacity:1" fill="#fefe96" d="M 15.5,14.5 C 15.9483,12.5354 16.9483,12.2021 18.5,13.5C 17.675,14.3857 16.675,14.719 15.5,14.5 Z"/></g>
<g><path style="opacity:1" fill="#c3c193" d="M 3.5,11.5 C 3.5,11.8333 3.5,12.1667 3.5,12.5C 3.82124,14.0481 4.82124,14.7148 6.5,14.5C 5.5,15.1667 4.5,15.8333 3.5,16.5C 2.16667,14.8333 2.16667,13.1667 3.5,11.5 Z"/></g>
<g><path style="opacity:0.225" fill="#979793" d="M 10.5,14.5 C 11.1667,14.5 11.8333,14.5 12.5,14.5C 11.8843,15.7978 11.8843,16.7978 12.5,17.5C 12.5,17.8333 12.5,18.1667 12.5,18.5C 11.5,18.5 10.5,18.5 9.5,18.5C 9.5,18.1667 9.5,17.8333 9.5,17.5C 10.404,16.791 10.7373,15.791 10.5,14.5 Z"/></g>
<g><path style="opacity:0.443" fill="#afafa4" d="M 9.5,17.5 C 9.5,17.8333 9.5,18.1667 9.5,18.5C 9.5,19.5 9.5,20.5 9.5,21.5C 10.5,21.5 11.5,21.5 12.5,21.5C 12.5,20.5 12.5,19.5 12.5,18.5C 12.5,18.1667 12.5,17.8333 12.5,17.5C 13.4511,18.9187 13.7845,20.5853 13.5,22.5C 11.8333,22.5 10.1667,22.5 8.5,22.5C 8.21552,20.5853 8.54885,18.9187 9.5,17.5 Z"/></g>
<g><path style="opacity:1" fill="#e9e985" d="M 9.5,18.5 C 10.5,18.5 11.5,18.5 12.5,18.5C 12.5,19.5 12.5,20.5 12.5,21.5C 11.5,21.5 10.5,21.5 9.5,21.5C 9.5,20.5 9.5,19.5 9.5,18.5 Z"/></g>
</svg>
