<?xml version="1.0" encoding="UTF-8"?>
<!DOCTYPE svg PUBLIC "-//W3C//DTD SVG 1.1//EN" "http://www.w3.org/Graphics/SVG/1.1/DTD/svg11.dtd">
<svg xmlns="http://www.w3.org/2000/svg" version="1.1" width="24px" height="24px" style="shape-rendering:geometricPrecision; text-rendering:geometricPrecision; image-rendering:optimizeQuality; fill-rule:evenodd; clip-rule:evenodd" xmlns:xlink="http://www.w3.org/1999/xlink">
<g><path style="opacity:1" fill="#fefaec" d="M 5.5,2.5 C 5.5,2.16667 5.5,1.83333 5.5,1.5C 11.1667,1.5 16.8333,1.5 22.5,1.5C 22.5,2.83333 22.5,4.16667 22.5,5.5C 21.8333,5.5 21.5,5.16667 21.5,4.5C 16.6042,2.55387 11.2709,1.8872 5.5,2.5 Z"/></g>
<g><path style="opacity:1" fill="#f3ecdc" d="M 5.5,2.5 C 11.2709,1.8872 16.6042,2.55387 21.5,4.5C 16.1667,4.5 10.8333,4.5 5.5,4.5C 5.5,3.83333 5.5,3.16667 5.5,2.5 Z"/></g>
<g><path style="opacity:1" fill="#f0e8d3" d="M 5.5,5.5 C 5.5,5.16667 5.5,4.83333 5.5,4.5C 10.8333,4.5 16.1667,4.5 21.5,4.5C 21.5,5.16667 21.8333,5.5 22.5,5.5C 22.5,6.16667 22.5,6.83333 22.5,7.5C 16.8333,6.83333 11.1667,6.16667 5.5,5.5 Z"/></g>
<g><path style="opacity:1" fill="#ece3ca" d="M 5.5,5.5 C 11.1667,6.16667 16.8333,6.83333 22.5,7.5C 22.7535,9.40078 22.4202,10.0674 21.5,9.5C 20.0539,8.05984 18.2206,7.39317 16,7.5C 13.1834,8.03052 10.35,8.36386 7.5,8.5C 5.95186,8.17876 5.28519,7.17876 5.5,5.5 Z"/></g>
<g><path style="opacity:1" fill="#ddd3b7" d="M 21.5,9.5 C 20.391,9.55688 19.391,9.89022 18.5,10.5C 15.5506,11.3482 12.884,11.3482 10.5,10.5C 8.82124,10.7148 7.82124,10.0481 7.5,8.5C 10.35,8.36386 13.1834,8.03052 16,7.5C 18.2206,7.39317 20.0539,8.05984 21.5,9.5 Z"/></g>
<g><path style="opacity:1" fill="#56544d" d="M 4.5,-0.5 C 10.8333,-0.5 17.1667,-0.5 23.5,-0.5C 23.5,-0.166667 23.5,0.166667 23.5,0.5C 17.31,0.177113 11.31,0.510446 5.5,1.5C 5.5,1.83333 5.5,2.16667 5.5,2.5C 5.5,3.16667 5.5,3.83333 5.5,4.5C 5.5,4.83333 5.5,5.16667 5.5,5.5C 5.28519,7.17876 5.95186,8.17876 7.5,8.5C 7.82124,10.0481 8.82124,10.7148 10.5,10.5C 10.5,11.1667 10.5,11.8333 10.5,12.5C 8.5,12.5 7.5,13.5 7.5,15.5C 7.16667,15.5 6.83333,15.5 6.5,15.5C 5.66175,15.8417 5.32842,16.5084 5.5,17.5C 5.5,18.1667 5.5,18.8333 5.5,19.5C 5.5,20.1667 5.5,20.8333 5.5,21.5C 10.9753,22.4889 16.642,22.8222 22.5,22.5C 22.8333,22.5 23.1667,22.5 23.5,22.5C 23.5,22.8333 23.5,23.1667 23.5,23.5C 17.1667,23.5 10.8333,23.5 4.5,23.5C 4.5,20.1667 4.5,16.8333 4.5,13.5C 4.5,12.5 4.5,11.5 4.5,10.5C 4.5,6.83333 4.5,3.16667 4.5,-0.5 Z"/></g>
<g><path style="opacity:1" fill="#958e7b" d="M 5.5,1.5 C 11.31,0.510446 17.31,0.177113 23.5,0.5C 23.5,7.83333 23.5,15.1667 23.5,22.5C 23.1667,22.5 22.8333,22.5 22.5,22.5C 22.5,20.8333 22.5,19.1667 22.5,17.5C 22.8404,15.4524 22.5071,14.4524 21.5,14.5C 20.5,14.1667 19.8333,13.5 19.5,12.5C 19.1667,11.8333 18.8333,11.1667 18.5,10.5C 19.391,9.89022 20.391,9.55688 21.5,9.5C 22.4202,10.0674 22.7535,9.40078 22.5,7.5C 22.5,6.83333 22.5,6.16667 22.5,5.5C 22.5,4.16667 22.5,2.83333 22.5,1.5C 16.8333,1.5 11.1667,1.5 5.5,1.5 Z"/></g>
<g><path style="opacity:0.868" fill="#929293" d="M -0.5,10.5 C 1.16667,10.5 2.83333,10.5 4.5,10.5C 4.5,11.5 4.5,12.5 4.5,13.5C 2.83333,13.5 1.16667,13.5 -0.5,13.5C -0.5,12.5 -0.5,11.5 -0.5,10.5 Z"/></g>
<g><path style="opacity:1" fill="#26241e" d="M 18.5,10.5 C 18.8333,11.1667 19.1667,11.8333 19.5,12.5C 16.2516,12.7618 13.2516,12.7618 10.5,12.5C 10.5,11.8333 10.5,11.1667 10.5,10.5C 12.884,11.3482 15.5506,11.3482 18.5,10.5 Z"/></g>
<g><path style="opacity:1" fill="#d6c99c" d="M 10.5,12.5 C 13.2516,12.7618 16.2516,12.7618 19.5,12.5C 19.8333,13.5 20.5,14.1667 21.5,14.5C 16.9156,15.1496 12.2489,15.4829 7.5,15.5C 7.5,13.5 8.5,12.5 10.5,12.5 Z"/></g>
<g><path style="opacity:1" fill="#d8c996" d="M 22.5,17.5 C 22.1667,17.5 21.8333,17.5 21.5,17.5C 16.5,16.8333 11.5,16.1667 6.5,15.5C 6.83333,15.5 7.16667,15.5 7.5,15.5C 12.2489,15.4829 16.9156,15.1496 21.5,14.5C 22.5071,14.4524 22.8404,15.4524 22.5,17.5 Z"/></g>
<g><path style="opacity:1" fill="#d3c38d" d="M 6.5,15.5 C 11.5,16.1667 16.5,16.8333 21.5,17.5C 16.1667,17.5 10.8333,17.5 5.5,17.5C 5.32842,16.5084 5.66175,15.8417 6.5,15.5 Z"/></g>
<g><path style="opacity:1" fill="#d0bf85" d="M 5.5,17.5 C 10.8333,17.5 16.1667,17.5 21.5,17.5C 21.5,18.1667 21.5,18.8333 21.5,19.5C 16.1667,19.5 10.8333,19.5 5.5,19.5C 5.5,18.8333 5.5,18.1667 5.5,17.5 Z"/></g>
<g><path style="opacity:1" fill="#cbb97b" d="M 5.5,19.5 C 10.8333,19.5 16.1667,19.5 21.5,19.5C 16.6042,21.4461 11.2709,22.1128 5.5,21.5C 5.5,20.8333 5.5,20.1667 5.5,19.5 Z"/></g>
<g><path style="opacity:1" fill="#d5c17e" d="M 21.5,17.5 C 21.8333,17.5 22.1667,17.5 22.5,17.5C 22.5,19.1667 22.5,20.8333 22.5,22.5C 16.642,22.8222 10.9753,22.4889 5.5,21.5C 11.2709,22.1128 16.6042,21.4461 21.5,19.5C 21.5,18.8333 21.5,18.1667 21.5,17.5 Z"/></g>
</svg>
