<?xml version="1.0" encoding="UTF-8"?>
<!DOCTYPE svg PUBLIC "-//W3C//DTD SVG 1.1//EN" "http://www.w3.org/Graphics/SVG/1.1/DTD/svg11.dtd">
<svg xmlns="http://www.w3.org/2000/svg" version="1.1" width="24px" height="24px" style="shape-rendering:geometricPrecision; text-rendering:geometricPrecision; image-rendering:optimizeQuality; fill-rule:evenodd; clip-rule:evenodd" xmlns:xlink="http://www.w3.org/1999/xlink">
<g><path style="opacity:0.973" fill="#565656" d="M 6.5,-0.5 C 7.5,-0.5 8.5,-0.5 9.5,-0.5C 8.83333,0.166667 8.16667,0.833333 7.5,1.5C 6.83333,2.83333 6.16667,4.16667 5.5,5.5C 4.13526,3.24917 4.4686,1.24917 6.5,-0.5 Z"/></g>
<g><path style="opacity:1" fill="#848484" d="M 7.5,1.5 C 8.5,1.5 9.5,1.5 10.5,1.5C 10.69,3.95888 9.69005,5.62554 7.5,6.5C 6.50838,6.67158 5.84171,6.33825 5.5,5.5C 6.16667,4.16667 6.83333,2.83333 7.5,1.5 Z"/></g>
<g><path style="opacity:0.612" fill="#6c6c6c" d="M 9.5,-0.5 C 10.1667,-0.5 10.8333,-0.5 11.5,-0.5C 12.5109,1.40239 12.6776,3.40239 12,5.5C 11.3292,6.25244 10.4959,6.58577 9.5,6.5C 9.16667,6.5 8.83333,6.5 8.5,6.5C 8.16667,6.5 7.83333,6.5 7.5,6.5C 9.69005,5.62554 10.69,3.95888 10.5,1.5C 9.5,1.5 8.5,1.5 7.5,1.5C 8.16667,0.833333 8.83333,0.166667 9.5,-0.5 Z"/></g>
<g><path style="opacity:0.863" fill="#8fa47a" d="M 17.5,8.5 C 17.5,8.83333 17.5,9.16667 17.5,9.5C 15.8333,9.5 14.1667,9.5 12.5,9.5C 12.1667,9.5 11.8333,9.5 11.5,9.5C 11.5,9.16667 11.5,8.83333 11.5,8.5C 13.5,7.16667 15.5,7.16667 17.5,8.5 Z"/></g>
<g><path style="opacity:1" fill="#91e449" d="M 12.5,9.5 C 14.1667,9.5 15.8333,9.5 17.5,9.5C 17.5,10.8333 17.5,12.1667 17.5,13.5C 15.8333,13.5 14.1667,13.5 12.5,13.5C 12.5,12.1667 12.5,10.8333 12.5,9.5 Z"/></g>
<g><path style="opacity:0.392" fill="#99989a" d="M 8.5,6.5 C 8.83333,6.5 9.16667,6.5 9.5,6.5C 9.33982,8.19919 9.50649,9.86586 10,11.5C 10.2321,10.2625 10.7321,9.26253 11.5,8.5C 11.5,8.83333 11.5,9.16667 11.5,9.5C 11.5,10.5 11.5,11.5 11.5,12.5C 11.1667,12.5 10.8333,12.5 10.5,12.5C 9.53178,14.6074 9.19845,16.9407 9.5,19.5C 8.49884,15.9403 8.1655,11.607 8.5,6.5 Z"/></g>
<g><path style="opacity:0.208" fill="#cccccc" d="M 7.5,6.5 C 7.83333,6.5 8.16667,6.5 8.5,6.5C 8.1655,11.607 8.49884,15.9403 9.5,19.5C 9.83333,19.5 10.1667,19.5 10.5,19.5C 10.5,20.1667 10.5,20.8333 10.5,21.5C 9.5,21.5 8.5,21.5 7.5,21.5C 7.5,16.5 7.5,11.5 7.5,6.5 Z"/></g>
<g><path style="opacity:1" fill="#64a62d" d="M 11.5,9.5 C 11.8333,9.5 12.1667,9.5 12.5,9.5C 12.5,10.8333 12.5,12.1667 12.5,13.5C 14.1667,13.5 15.8333,13.5 17.5,13.5C 16.7261,14.1471 15.7261,14.4805 14.5,14.5C 12.9704,14.3601 11.9704,13.6935 11.5,12.5C 11.5,11.5 11.5,10.5 11.5,9.5 Z"/></g>
<g><path style="opacity:0.329" fill="#aaaba9" d="M 17.5,8.5 C 18.4682,10.6074 18.8016,12.9407 18.5,15.5C 15.8333,15.5 13.1667,15.5 10.5,15.5C 10.5,14.5 10.5,13.5 10.5,12.5C 10.8333,12.5 11.1667,12.5 11.5,12.5C 11.9704,13.6935 12.9704,14.3601 14.5,14.5C 15.7261,14.4805 16.7261,14.1471 17.5,13.5C 17.5,12.1667 17.5,10.8333 17.5,9.5C 17.5,9.16667 17.5,8.83333 17.5,8.5 Z"/></g>
<g><path style="opacity:0.443" fill="#a09890" d="M 18.5,23.5 C 15.8333,23.5 13.1667,23.5 10.5,23.5C 10.5,22.8333 10.5,22.1667 10.5,21.5C 10.5,20.8333 10.5,20.1667 10.5,19.5C 10.5,18.5 10.5,17.5 10.5,16.5C 13.1667,16.5 15.8333,16.5 18.5,16.5C 18.5,18.8333 18.5,21.1667 18.5,23.5 Z"/></g>
<g><path style="opacity:1" fill="#cb741f" d="M 16.5,22.5 C 16.5,21.1667 16.5,19.8333 16.5,18.5C 15.1667,18.5 13.8333,18.5 12.5,18.5C 12.5,19.8333 12.5,21.1667 12.5,22.5C 11.5489,21.0813 11.2155,19.4147 11.5,17.5C 13.5,17.5 15.5,17.5 17.5,17.5C 17.7845,19.4147 17.4511,21.0813 16.5,22.5 Z"/></g>
<g><path style="opacity:1" fill="#ff9535" d="M 16.5,22.5 C 15.1667,22.5 13.8333,22.5 12.5,22.5C 12.5,21.1667 12.5,19.8333 12.5,18.5C 13.8333,18.5 15.1667,18.5 16.5,18.5C 16.5,19.8333 16.5,21.1667 16.5,22.5 Z"/></g>
</svg>
