<?xml version="1.0" encoding="UTF-8"?>
<!DOCTYPE svg PUBLIC "-//W3C//DTD SVG 1.1//EN" "http://www.w3.org/Graphics/SVG/1.1/DTD/svg11.dtd">
<svg xmlns="http://www.w3.org/2000/svg" version="1.1" width="24px" height="24px" style="shape-rendering:geometricPrecision; text-rendering:geometricPrecision; image-rendering:optimizeQuality; fill-rule:evenodd; clip-rule:evenodd" xmlns:xlink="http://www.w3.org/1999/xlink">
<g><path style="opacity:1" fill="#a8a496" d="M 0.5,1.5 C 7.98178,0.50797 15.6484,0.174637 23.5,0.5C 23.5,7.83333 23.5,15.1667 23.5,22.5C 23.1667,22.5 22.8333,22.5 22.5,22.5C 22.5,20.5 22.5,18.5 22.5,16.5C 22.5,13.8333 22.5,11.1667 22.5,8.5C 22.5,6.16667 22.5,3.83333 22.5,1.5C 19.6146,1.1936 16.9479,1.52693 14.5,2.5C 12.5,2.5 10.5,2.5 8.5,2.5C 6.0521,1.52693 3.38544,1.1936 0.5,1.5 Z"/></g>
<g><path style="opacity:1" fill="#f3eedd" d="M 0.5,1.5 C 3.38544,1.1936 6.0521,1.52693 8.5,2.5C 7.5,2.83333 6.83333,3.5 6.5,4.5C 5.56552,5.56764 5.23219,6.90097 5.5,8.5C 3.83333,8.5 2.16667,8.5 0.5,8.5C 0.5,6.16667 0.5,3.83333 0.5,1.5 Z"/></g>
<g><path style="opacity:1" fill="#adaba4" d="M 8.5,2.5 C 10.5,2.5 12.5,2.5 14.5,2.5C 16.9689,3.6067 17.9689,5.6067 17.5,8.5C 17.5,10.5 17.5,12.5 17.5,14.5C 17.7845,16.4147 17.4511,18.0813 16.5,19.5C 16.8266,14.7863 16.4933,10.1196 15.5,5.5C 12.2313,7.00797 9.23131,6.67463 6.5,4.5C 6.83333,3.5 7.5,2.83333 8.5,2.5 Z"/></g>
<g><path style="opacity:1" fill="#f4eeda" d="M 14.5,2.5 C 16.9479,1.52693 19.6146,1.1936 22.5,1.5C 22.5,3.83333 22.5,6.16667 22.5,8.5C 20.7659,7.43795 19.0992,7.43795 17.5,8.5C 17.9689,5.6067 16.9689,3.6067 14.5,2.5 Z"/></g>
<g><path style="opacity:1" fill="#5d5d5c" d="M 6.5,4.5 C 9.23131,6.67463 12.2313,7.00797 15.5,5.5C 16.4933,10.1196 16.8266,14.7863 16.5,19.5C 16.5,20.1667 16.1667,20.5 15.5,20.5C 16.0969,15.706 15.4302,11.3727 13.5,7.5C 12.1667,7.5 10.8333,7.5 9.5,7.5C 8.51511,11.6344 8.18178,15.9677 8.5,20.5C 6.74395,19.4479 6.07729,17.7812 6.5,15.5C 6.5,11.8333 6.5,8.16667 6.5,4.5 Z"/></g>
<g><path style="opacity:1" fill="#838382" d="M 9.5,7.5 C 9.5,11.8333 9.5,16.1667 9.5,20.5C 10.8333,20.5 12.1667,20.5 13.5,20.5C 13.5,16.1667 13.5,11.8333 13.5,7.5C 15.4302,11.3727 16.0969,15.706 15.5,20.5C 13.3926,21.4682 11.0593,21.8016 8.5,21.5C 8.5,21.1667 8.5,20.8333 8.5,20.5C 8.18178,15.9677 8.51511,11.6344 9.5,7.5 Z"/></g>
<g><path style="opacity:1" fill="#aaaaaa" d="M 9.5,7.5 C 10.8333,7.5 12.1667,7.5 13.5,7.5C 13.5,11.8333 13.5,16.1667 13.5,20.5C 12.1667,20.5 10.8333,20.5 9.5,20.5C 9.5,16.1667 9.5,11.8333 9.5,7.5 Z"/></g>
<g><path style="opacity:1" fill="#e2d6ad" d="M 22.5,8.5 C 22.5,11.1667 22.5,13.8333 22.5,16.5C 21.2209,15.032 19.5542,14.3653 17.5,14.5C 17.5,12.5 17.5,10.5 17.5,8.5C 19.0992,7.43795 20.7659,7.43795 22.5,8.5 Z"/></g>
<g><path style="opacity:1" fill="#dbd0a7" d="M 6.5,4.5 C 6.5,8.16667 6.5,11.8333 6.5,15.5C 4.5,15.5 2.5,15.5 0.5,15.5C 0.5,13.1667 0.5,10.8333 0.5,8.5C 2.16667,8.5 3.83333,8.5 5.5,8.5C 5.23219,6.90097 5.56552,5.56764 6.5,4.5 Z"/></g>
<g><path style="opacity:1" fill="#cdbd82" d="M 0.5,15.5 C 2.5,15.5 4.5,15.5 6.5,15.5C 6.07729,17.7812 6.74395,19.4479 8.5,20.5C 8.5,20.8333 8.5,21.1667 8.5,21.5C 5.83333,21.5 3.16667,21.5 0.5,21.5C 0.5,19.5 0.5,17.5 0.5,15.5 Z"/></g>
<g><path style="opacity:1" fill="#d1bf7f" d="M 17.5,14.5 C 19.5542,14.3653 21.2209,15.032 22.5,16.5C 22.5,18.5 22.5,20.5 22.5,22.5C 14.9809,22.825 7.64761,22.4916 0.5,21.5C 3.16667,21.5 5.83333,21.5 8.5,21.5C 11.0593,21.8016 13.3926,21.4682 15.5,20.5C 16.1667,20.5 16.5,20.1667 16.5,19.5C 17.4511,18.0813 17.7845,16.4147 17.5,14.5 Z"/></g>
<g><path style="opacity:1" fill="#2c291d" d="M -0.5,-0.5 C 7.5,-0.5 15.5,-0.5 23.5,-0.5C 23.5,-0.166667 23.5,0.166667 23.5,0.5C 15.6484,0.174637 7.98178,0.50797 0.5,1.5C 0.5,3.83333 0.5,6.16667 0.5,8.5C 0.5,10.8333 0.5,13.1667 0.5,15.5C 0.5,17.5 0.5,19.5 0.5,21.5C 7.64761,22.4916 14.9809,22.825 22.5,22.5C 22.8333,22.5 23.1667,22.5 23.5,22.5C 23.5,22.8333 23.5,23.1667 23.5,23.5C 15.5,23.5 7.5,23.5 -0.5,23.5C -0.5,15.5 -0.5,7.5 -0.5,-0.5 Z"/></g>
</svg>
