<?xml version="1.0" encoding="UTF-8"?>
<!DOCTYPE svg PUBLIC "-//W3C//DTD SVG 1.1//EN" "http://www.w3.org/Graphics/SVG/1.1/DTD/svg11.dtd">
<svg xmlns="http://www.w3.org/2000/svg" version="1.1" width="24px" height="24px" style="shape-rendering:geometricPrecision; text-rendering:geometricPrecision; image-rendering:optimizeQuality; fill-rule:evenodd; clip-rule:evenodd" xmlns:xlink="http://www.w3.org/1999/xlink">
<g><path style="opacity:1" fill="#fdf7e7" d="M 11.5,7.5 C 11.5,7.16667 11.5,6.83333 11.5,6.5C 14.3878,5.98983 16.7211,6.65649 18.5,8.5C 17.609,7.89022 16.609,7.55688 15.5,7.5C 14.1667,7.5 12.8333,7.5 11.5,7.5 Z"/></g>
<g><path style="opacity:0.694" fill="#40403e" d="M 19.5,4.5 C 16.8333,5.16667 14.1667,5.83333 11.5,6.5C 11.5,6.83333 11.5,7.16667 11.5,7.5C 11.5,8.83333 11.5,10.1667 11.5,11.5C 10.8333,11.5 10.1667,11.5 9.5,11.5C 9.5,11.1667 9.5,10.8333 9.5,10.5C 10.4614,8.73535 10.7947,6.73535 10.5,4.5C 13.5,4.5 16.5,4.5 19.5,4.5 Z"/></g>
<g><path style="opacity:1" fill="#e1d9c3" d="M 11.5,7.5 C 12.8333,7.5 14.1667,7.5 15.5,7.5C 15.5,8.16667 15.5,8.83333 15.5,9.5C 14.6618,9.84171 14.3284,10.5084 14.5,11.5C 13.5,11.5 12.5,11.5 11.5,11.5C 11.5,10.1667 11.5,8.83333 11.5,7.5 Z"/></g>
<g><path style="opacity:1" fill="#ede4ca" d="M 15.5,7.5 C 16.609,7.55688 17.609,7.89022 18.5,8.5C 18.5,9.5 18.5,10.5 18.5,11.5C 18.1667,11.5 17.8333,11.5 17.5,11.5C 16.5,11.1667 15.8333,10.5 15.5,9.5C 15.5,8.83333 15.5,8.16667 15.5,7.5 Z"/></g>
<g><path style="opacity:1" fill="#9e998e" d="M 19.5,4.5 C 20.8333,9.5 20.8333,14.5 19.5,19.5C 19.6716,18.5084 19.3382,17.8417 18.5,17.5C 18.5,16.8333 18.5,16.1667 18.5,15.5C 18.5,14.1667 18.5,12.8333 18.5,11.5C 18.5,10.5 18.5,9.5 18.5,8.5C 16.7211,6.65649 14.3878,5.98983 11.5,6.5C 14.1667,5.83333 16.8333,5.16667 19.5,4.5 Z"/></g>
<g><path style="opacity:1" fill="#818180" d="M 15.5,9.5 C 15.8333,10.5 16.5,11.1667 17.5,11.5C 17.1667,12.5 16.5,13.1667 15.5,13.5C 15.6716,12.5084 15.3382,11.8417 14.5,11.5C 14.3284,10.5084 14.6618,9.84171 15.5,9.5 Z"/></g>
<g><path style="opacity:1" fill="#6c6c6c" d="M -0.5,10.5 C 0.5,10.5 1.5,10.5 2.5,10.5C 3.90018,11.1001 4.90018,12.1001 5.5,13.5C 3.5,13.5 1.5,13.5 -0.5,13.5C -0.5,12.5 -0.5,11.5 -0.5,10.5 Z"/></g>
<g><path style="opacity:1" fill="#aeaeae" d="M 2.5,10.5 C 4.83333,10.5 7.16667,10.5 9.5,10.5C 9.5,10.8333 9.5,11.1667 9.5,11.5C 9.83333,12.1667 10.1667,12.8333 10.5,13.5C 8.83333,13.5 7.16667,13.5 5.5,13.5C 4.90018,12.1001 3.90018,11.1001 2.5,10.5 Z"/></g>
<g><path style="opacity:1" fill="#7f7a6e" d="M 9.5,11.5 C 10.1667,11.5 10.8333,11.5 11.5,11.5C 12.5,11.5 13.5,11.5 14.5,11.5C 15.3382,11.8417 15.6716,12.5084 15.5,13.5C 15.5,13.8333 15.5,14.1667 15.5,14.5C 14.5326,13.1938 13.1993,12.5271 11.5,12.5C 11.5,13.5 11.5,14.5 11.5,15.5C 13.2789,17.3435 15.6122,18.0102 18.5,17.5C 16.1667,18.1667 13.8333,18.8333 11.5,19.5C 10.5386,17.7354 10.2053,15.7354 10.5,13.5C 10.1667,12.8333 9.83333,12.1667 9.5,11.5 Z"/></g>
<g><path style="opacity:1" fill="#c7b98e" d="M 15.5,14.5 C 14.4341,15.6921 13.6008,15.3588 13,13.5C 12.7216,14.4158 12.2216,15.0825 11.5,15.5C 11.5,14.5 11.5,13.5 11.5,12.5C 13.1993,12.5271 14.5326,13.1938 15.5,14.5 Z"/></g>
<g><path style="opacity:1" fill="#dfcfa0" d="M 17.5,11.5 C 17.8333,11.5 18.1667,11.5 18.5,11.5C 18.5,12.8333 18.5,14.1667 18.5,15.5C 17.609,14.8902 16.609,14.5569 15.5,14.5C 15.5,14.1667 15.5,13.8333 15.5,13.5C 16.5,13.1667 17.1667,12.5 17.5,11.5 Z"/></g>
<g><path style="opacity:1" fill="#d4c188" d="M 15.5,14.5 C 16.609,14.5569 17.609,14.8902 18.5,15.5C 18.5,16.1667 18.5,16.8333 18.5,17.5C 15.6122,18.0102 13.2789,17.3435 11.5,15.5C 12.2216,15.0825 12.7216,14.4158 13,13.5C 13.6008,15.3588 14.4341,15.6921 15.5,14.5 Z"/></g>
<g><path style="opacity:0.596" fill="#181816" d="M 18.5,17.5 C 19.3382,17.8417 19.6716,18.5084 19.5,19.5C 16.8333,19.5 14.1667,19.5 11.5,19.5C 13.8333,18.8333 16.1667,18.1667 18.5,17.5 Z"/></g>
</svg>
