<?xml version="1.0" encoding="UTF-8"?>
<!DOCTYPE svg PUBLIC "-//W3C//DTD SVG 1.1//EN" "http://www.w3.org/Graphics/SVG/1.1/DTD/svg11.dtd">
<svg xmlns="http://www.w3.org/2000/svg" version="1.1" width="24px" height="24px" style="shape-rendering:geometricPrecision; text-rendering:geometricPrecision; image-rendering:optimizeQuality; fill-rule:evenodd; clip-rule:evenodd" xmlns:xlink="http://www.w3.org/1999/xlink">
<g><path style="opacity:1" fill="#fefaec" d="M 5.5,2.5 C 5.5,2.16667 5.5,1.83333 5.5,1.5C 11.1667,1.5 16.8333,1.5 22.5,1.5C 22.5,2.83333 22.5,4.16667 22.5,5.5C 21.6618,5.15829 21.3284,4.49162 21.5,3.5C 16.3595,2.51192 11.0262,2.17859 5.5,2.5 Z"/></g>
<g><path style="opacity:0.765" fill="#444340" d="M 4.5,-0.5 C 10.8333,-0.5 17.1667,-0.5 23.5,-0.5C 23.5,-0.166667 23.5,0.166667 23.5,0.5C 17.31,0.177113 11.31,0.510446 5.5,1.5C 5.5,1.83333 5.5,2.16667 5.5,2.5C 5.5,3.16667 5.5,3.83333 5.5,4.5C 5.5,5.83333 5.5,7.16667 5.5,8.5C 5.73731,9.79105 5.40397,10.791 4.5,11.5C 4.5,11.1667 4.5,10.8333 4.5,10.5C 4.5,6.83333 4.5,3.16667 4.5,-0.5 Z"/></g>
<g><path style="opacity:1" fill="#f3ecdc" d="M 5.5,2.5 C 11.0262,2.17859 16.3595,2.51192 21.5,3.5C 19.901,3.23219 18.5676,3.56552 17.5,4.5C 16.8333,4.5 16.1667,4.5 15.5,4.5C 12.3368,4.82741 9.00347,4.82741 5.5,4.5C 5.5,3.83333 5.5,3.16667 5.5,2.5 Z"/></g>
<g><path style="opacity:1" fill="#efe7d0" d="M 21.5,3.5 C 21.3284,4.49162 21.6618,5.15829 22.5,5.5C 22.5,7.16667 22.5,8.83333 22.5,10.5C 22.1667,10.5 21.8333,10.5 21.5,10.5C 20.8333,10.1667 20.1667,9.83333 19.5,9.5C 18.4625,8.06967 17.7959,6.40301 17.5,4.5C 18.5676,3.56552 19.901,3.23219 21.5,3.5 Z"/></g>
<g><path style="opacity:1" fill="#948e7f" d="M 5.5,1.5 C 11.31,0.510446 17.31,0.177113 23.5,0.5C 23.5,7.83333 23.5,15.1667 23.5,22.5C 23.1667,22.5 22.8333,22.5 22.5,22.5C 22.5,22.1667 22.5,21.8333 22.5,21.5C 22.5,17.8333 22.5,14.1667 22.5,10.5C 22.5,8.83333 22.5,7.16667 22.5,5.5C 22.5,4.16667 22.5,2.83333 22.5,1.5C 16.8333,1.5 11.1667,1.5 5.5,1.5 Z"/></g>
<g><path style="opacity:1" fill="#dad3be" d="M 15.5,4.5 C 13.4862,4.39151 11.8195,5.05817 10.5,6.5C 9.16667,6.5 8.5,7.16667 8.5,8.5C 8.5,9.16667 8.16667,9.5 7.5,9.5C 7.15829,8.66175 6.49162,8.32842 5.5,8.5C 5.5,7.16667 5.5,5.83333 5.5,4.5C 9.00347,4.82741 12.3368,4.82741 15.5,4.5 Z"/></g>
<g><path style="opacity:1" fill="#45433c" d="M 10.5,6.5 C 10.5,6.83333 10.5,7.16667 10.5,7.5C 10.5,7.83333 10.5,8.16667 10.5,8.5C 9.83333,8.5 9.16667,8.5 8.5,8.5C 8.5,7.16667 9.16667,6.5 10.5,6.5 Z"/></g>
<g><path style="opacity:1" fill="#efe7d0" d="M 15.5,4.5 C 16.1098,5.39105 16.4431,6.39105 16.5,7.5C 14.5,7.5 12.5,7.5 10.5,7.5C 10.5,7.16667 10.5,6.83333 10.5,6.5C 11.8195,5.05817 13.4862,4.39151 15.5,4.5 Z"/></g>
<g><path style="opacity:1" fill="#e7dec2" d="M 10.5,7.5 C 12.5,7.5 14.5,7.5 16.5,7.5C 17.3382,7.84171 17.6716,8.50838 17.5,9.5C 15.1667,9.5 12.8333,9.5 10.5,9.5C 10.5,9.16667 10.5,8.83333 10.5,8.5C 10.5,8.16667 10.5,7.83333 10.5,7.5 Z"/></g>
<g><path style="opacity:1" fill="#e5dab9" d="M 10.5,9.5 C 12.8333,9.5 15.1667,9.5 17.5,9.5C 17.5,10.1667 17.5,10.8333 17.5,11.5C 17.1667,11.5 16.8333,11.5 16.5,11.5C 13.5227,11.6417 11.5227,10.9751 10.5,9.5 Z"/></g>
<g><path style="opacity:1" fill="#b3a98c" d="M 15.5,4.5 C 16.1667,4.5 16.8333,4.5 17.5,4.5C 17.7959,6.40301 18.4625,8.06967 19.5,9.5C 18.1667,10.8333 18.1667,12.1667 19.5,13.5C 18.6908,15.0276 18.0241,16.6943 17.5,18.5C 17.1667,18.5 16.8333,18.5 16.5,18.5C 16.5,17.8333 16.5,17.1667 16.5,16.5C 17.3382,16.1583 17.6716,15.4916 17.5,14.5C 17.5,13.5 17.5,12.5 17.5,11.5C 17.5,10.8333 17.5,10.1667 17.5,9.5C 17.6716,8.50838 17.3382,7.84171 16.5,7.5C 16.4431,6.39105 16.1098,5.39105 15.5,4.5 Z"/></g>
<g><path style="opacity:1" fill="#1a1916" d="M 19.5,9.5 C 20.1667,9.83333 20.8333,10.1667 21.5,10.5C 21.573,12.0269 20.9063,13.0269 19.5,13.5C 18.1667,12.1667 18.1667,10.8333 19.5,9.5 Z"/></g>
<g><path style="opacity:1" fill="#ababab" d="M -0.5,10.5 C 1.16667,10.5 2.83333,10.5 4.5,10.5C 4.5,10.8333 4.5,11.1667 4.5,11.5C 4.5,12.1667 4.5,12.8333 4.5,13.5C 2.83333,13.5 1.16667,13.5 -0.5,13.5C -0.5,12.5 -0.5,11.5 -0.5,10.5 Z"/></g>
<g><path style="opacity:1" fill="#6a675d" d="M 5.5,8.5 C 6.49162,8.32842 7.15829,8.66175 7.5,9.5C 8.16667,10.5 8.83333,11.5 9.5,12.5C 8.5,12.8333 7.83333,13.5 7.5,14.5C 6.03201,15.7791 5.36534,17.4458 5.5,19.5C 5.5,20.1667 5.5,20.8333 5.5,21.5C 10.9753,22.4889 16.642,22.8222 22.5,22.5C 22.8333,22.5 23.1667,22.5 23.5,22.5C 23.5,22.8333 23.5,23.1667 23.5,23.5C 17.1667,23.5 10.8333,23.5 4.5,23.5C 4.5,20.1667 4.5,16.8333 4.5,13.5C 4.5,12.8333 4.5,12.1667 4.5,11.5C 5.40397,10.791 5.73731,9.79105 5.5,8.5 Z"/></g>
<g><path style="opacity:1" fill="#d9ceab" d="M 8.5,8.5 C 9.16667,8.5 9.83333,8.5 10.5,8.5C 10.5,8.83333 10.5,9.16667 10.5,9.5C 11.5227,10.9751 13.5227,11.6417 16.5,11.5C 14.3926,12.4682 12.0593,12.8016 9.5,12.5C 8.83333,11.5 8.16667,10.5 7.5,9.5C 8.16667,9.5 8.5,9.16667 8.5,8.5 Z"/></g>
<g><path style="opacity:1" fill="#dbcea4" d="M 16.5,11.5 C 16.8333,11.5 17.1667,11.5 17.5,11.5C 17.5,12.5 17.5,13.5 17.5,14.5C 14.8333,14.5 12.1667,14.5 9.5,14.5C 9.16667,14.5 8.83333,14.5 8.5,14.5C 8.16667,14.5 7.83333,14.5 7.5,14.5C 7.83333,13.5 8.5,12.8333 9.5,12.5C 12.0593,12.8016 14.3926,12.4682 16.5,11.5 Z"/></g>
<g><path style="opacity:1" fill="#d6c897" d="M 9.5,14.5 C 12.1667,14.5 14.8333,14.5 17.5,14.5C 17.6716,15.4916 17.3382,16.1583 16.5,16.5C 14.5,16.5 12.5,16.5 10.5,16.5C 10.1667,15.8333 9.83333,15.1667 9.5,14.5 Z"/></g>
<g><path style="opacity:1" fill="#d0c087" d="M 7.5,14.5 C 7.83333,14.5 8.16667,14.5 8.5,14.5C 8.89254,16.2838 9.5592,17.9505 10.5,19.5C 8.83333,19.5 7.16667,19.5 5.5,19.5C 5.36534,17.4458 6.03201,15.7791 7.5,14.5 Z"/></g>
<g><path style="opacity:1" fill="#958961" d="M 8.5,14.5 C 8.83333,14.5 9.16667,14.5 9.5,14.5C 9.83333,15.1667 10.1667,15.8333 10.5,16.5C 11.8026,19.3787 13.8026,20.0454 16.5,18.5C 16.5,19.8333 15.8333,20.5 14.5,20.5C 13.0413,20.5674 11.7079,20.2341 10.5,19.5C 9.5592,17.9505 8.89254,16.2838 8.5,14.5 Z"/></g>
<g><path style="opacity:1" fill="#d1c088" d="M 10.5,16.5 C 12.5,16.5 14.5,16.5 16.5,16.5C 16.5,17.1667 16.5,17.8333 16.5,18.5C 13.8026,20.0454 11.8026,19.3787 10.5,16.5 Z"/></g>
<g><path style="opacity:1" fill="#d4c48e" d="M 21.5,10.5 C 21.8333,10.5 22.1667,10.5 22.5,10.5C 22.5,14.1667 22.5,17.8333 22.5,21.5C 20.9611,20.2329 19.2944,19.2329 17.5,18.5C 18.0241,16.6943 18.6908,15.0276 19.5,13.5C 20.9063,13.0269 21.573,12.0269 21.5,10.5 Z"/></g>
<g><path style="opacity:1" fill="#cab87a" d="M 5.5,19.5 C 7.16667,19.5 8.83333,19.5 10.5,19.5C 11.7079,20.2341 13.0413,20.5674 14.5,20.5C 11.7131,21.4767 8.7131,21.81 5.5,21.5C 5.5,20.8333 5.5,20.1667 5.5,19.5 Z"/></g>
<g><path style="opacity:1" fill="#cfbd7c" d="M 16.5,18.5 C 16.8333,18.5 17.1667,18.5 17.5,18.5C 19.2944,19.2329 20.9611,20.2329 22.5,21.5C 22.5,21.8333 22.5,22.1667 22.5,22.5C 16.642,22.8222 10.9753,22.4889 5.5,21.5C 8.7131,21.81 11.7131,21.4767 14.5,20.5C 15.8333,20.5 16.5,19.8333 16.5,18.5 Z"/></g>
</svg>
