<?xml version="1.0" encoding="UTF-8"?>
<!DOCTYPE svg PUBLIC "-//W3C//DTD SVG 1.1//EN" "http://www.w3.org/Graphics/SVG/1.1/DTD/svg11.dtd">
<svg xmlns="http://www.w3.org/2000/svg" version="1.1" width="24px" height="24px" style="shape-rendering:geometricPrecision; text-rendering:geometricPrecision; image-rendering:optimizeQuality; fill-rule:evenodd; clip-rule:evenodd" xmlns:xlink="http://www.w3.org/1999/xlink">
<g><path style="opacity:1" fill="#000000" d="M -0.5,-0.5 C 7.5,-0.5 15.5,-0.5 23.5,-0.5C 23.5,7.5 23.5,15.5 23.5,23.5C 15.5,23.5 7.5,23.5 -0.5,23.5C -0.5,15.5 -0.5,7.5 -0.5,-0.5 Z"/></g>
<g><path style="opacity:1" fill="#efe9d5" d="M 22.5,8.5 C 21.1667,8.5 19.8333,8.5 18.5,8.5C 18.5,7.5 18.5,6.5 18.5,5.5C 17.448,5.35055 16.448,5.51722 15.5,6C 17.25,7.75417 17.9167,9.92083 17.5,12.5C 16.8333,12.5 16.1667,12.5 15.5,12.5C 15.5,10.8333 15.5,9.16667 15.5,7.5C 12.3019,6.96438 9.63528,7.63105 7.5,9.5C 6.83333,9.5 6.16667,9.5 5.5,9.5C 5.36007,7.87623 6.02674,6.70956 7.5,6C 6.55198,5.51722 5.55198,5.35055 4.5,5.5C 4.5,7.5 4.5,9.5 4.5,11.5C 3.16667,11.5 1.83333,11.5 0.5,11.5C 0.5,7.83333 0.5,4.16667 0.5,0.5C 7.83333,0.5 15.1667,0.5 22.5,0.5C 22.5,3.16667 22.5,5.83333 22.5,8.5 Z"/></g>
<g><path style="opacity:1" fill="#000000" d="M 5.5,9.5 C 5.04229,12.3938 5.70896,14.8938 7.5,17C 6.55198,17.4828 5.55198,17.6495 4.5,17.5C 4.5,15.5 4.5,13.5 4.5,11.5C 4.5,9.5 4.5,7.5 4.5,5.5C 5.55198,5.35055 6.55198,5.51722 7.5,6C 6.02674,6.70956 5.36007,7.87623 5.5,9.5 Z"/></g>
<g><path style="opacity:1" fill="#000000" d="M 18.5,8.5 C 18.5,11.5 18.5,14.5 18.5,17.5C 17.448,17.6495 16.448,17.4828 15.5,17C 17.1066,15.951 17.7733,14.451 17.5,12.5C 17.9167,9.92083 17.25,7.75417 15.5,6C 16.448,5.51722 17.448,5.35055 18.5,5.5C 18.5,6.5 18.5,7.5 18.5,8.5 Z"/></g>
<g><path style="opacity:1" fill="#000000" d="M 15.5,12.5 C 15.5,13.5 15.5,14.5 15.5,15.5C 12.8333,15.5 10.1667,15.5 7.5,15.5C 7.5,13.5 7.5,11.5 7.5,9.5C 9.63528,7.63105 12.3019,6.96438 15.5,7.5C 15.5,9.16667 15.5,10.8333 15.5,12.5 Z"/></g>
<g><path style="opacity:1" fill="#fefffe" d="M 8.5,8.5 C 10.5,8.5 12.5,8.5 14.5,8.5C 14.5,10.5 14.5,12.5 14.5,14.5C 12.5,14.5 10.5,14.5 8.5,14.5C 8.5,12.5 8.5,10.5 8.5,8.5 Z"/></g>
<g><path style="opacity:1" fill="#d3c38e" d="M 18.5,8.5 C 19.8333,8.5 21.1667,8.5 22.5,8.5C 22.5,13.1667 22.5,17.8333 22.5,22.5C 15.1667,22.5 7.83333,22.5 0.5,22.5C 0.5,18.8333 0.5,15.1667 0.5,11.5C 1.83333,11.5 3.16667,11.5 4.5,11.5C 4.5,13.5 4.5,15.5 4.5,17.5C 5.55198,17.6495 6.55198,17.4828 7.5,17C 5.70896,14.8938 5.04229,12.3938 5.5,9.5C 6.16667,9.5 6.83333,9.5 7.5,9.5C 7.5,11.5 7.5,13.5 7.5,15.5C 10.1667,15.5 12.8333,15.5 15.5,15.5C 15.5,14.5 15.5,13.5 15.5,12.5C 16.1667,12.5 16.8333,12.5 17.5,12.5C 17.7733,14.451 17.1066,15.951 15.5,17C 16.448,17.4828 17.448,17.6495 18.5,17.5C 18.5,14.5 18.5,11.5 18.5,8.5 Z"/></g>
</svg>
