<?xml version="1.0" encoding="UTF-8"?>
<!DOCTYPE svg PUBLIC "-//W3C//DTD SVG 1.1//EN" "http://www.w3.org/Graphics/SVG/1.1/DTD/svg11.dtd">
<svg xmlns="http://www.w3.org/2000/svg" version="1.1" width="24px" height="24px" style="shape-rendering:geometricPrecision; text-rendering:geometricPrecision; image-rendering:optimizeQuality; fill-rule:evenodd; clip-rule:evenodd" xmlns:xlink="http://www.w3.org/1999/xlink">
<g><path style="opacity:1" fill="#12160b" d="M -0.5,0.5 C -0.5,0.166667 -0.5,-0.166667 -0.5,-0.5C 7.16667,-0.5 14.8333,-0.5 22.5,-0.5C 22.5,6.83333 22.5,14.1667 22.5,21.5C 21.8333,21.5 21.5,21.1667 21.5,20.5C 21.5,20.1667 21.5,19.8333 21.5,19.5C 21.5,13.5 21.5,7.5 21.5,1.5C 14.6866,0.508806 7.68663,0.175473 0.5,0.5C 0.166667,0.5 -0.166667,0.5 -0.5,0.5 Z"/></g>
<g><path style="opacity:1" fill="#cefc9a" d="M 0.5,0.5 C 7.68663,0.175473 14.6866,0.508806 21.5,1.5C 17.9878,0.945498 14.9878,1.61216 12.5,3.5C 11.325,3.28099 10.325,3.61432 9.5,4.5C 10.819,6.53163 10.819,8.53163 9.5,10.5C 5.75934,9.59853 3.75934,10.9319 3.5,14.5C 1.74395,15.5521 1.07729,17.2188 1.5,19.5C 1.16667,19.5 0.833333,19.5 0.5,19.5C 0.5,13.1667 0.5,6.83333 0.5,0.5 Z"/></g>
<g><path style="opacity:1" fill="#ccfe98" d="M 21.5,1.5 C 21.5,7.5 21.5,13.5 21.5,19.5C 20.8333,19.5 20.5,19.1667 20.5,18.5C 20.8432,16.5168 20.1765,15.1834 18.5,14.5C 18.6162,11.0897 16.9496,9.75635 13.5,10.5C 12.3054,10.1344 11.6387,9.30105 11.5,8C 12.1476,6.56025 12.4809,5.06025 12.5,3.5C 14.9878,1.61216 17.9878,0.945498 21.5,1.5 Z"/></g>
<g><path style="opacity:1" fill="#b3b8ae" d="M 12.5,3.5 C 12.4809,5.06025 12.1476,6.56025 11.5,8C 11.6387,9.30105 12.3054,10.1344 13.5,10.5C 13.4894,12.0174 12.8228,13.1841 11.5,14C 13.1066,15.049 13.7733,16.549 13.5,18.5C 11.8333,18.5 10.1667,18.5 8.5,18.5C 8.22672,16.549 8.89339,15.049 10.5,14C 9.66337,12.9887 9.33003,11.8221 9.5,10.5C 10.819,8.53163 10.819,6.53163 9.5,4.5C 10.325,3.61432 11.325,3.28099 12.5,3.5 Z"/></g>
<g><path style="opacity:1" fill="#71726f" d="M 15.5,15.5 C 16.209,14.596 17.209,14.2627 18.5,14.5C 20.1765,15.1834 20.8432,16.5168 20.5,18.5C 20.1667,18.5 19.8333,18.5 19.5,18.5C 19.5,17.5 19.5,16.5 19.5,15.5C 18.1667,15.5 16.8333,15.5 15.5,15.5 Z"/></g>
<g><path style="opacity:1" fill="#6e7e5b" d="M 3.5,14.5 C 4.79105,14.2627 5.79105,14.596 6.5,15.5C 5.16667,15.5 3.83333,15.5 2.5,15.5C 2.5,16.5 2.5,17.5 2.5,18.5C 3.83333,18.5 5.16667,18.5 6.5,18.5C 5.08134,19.4511 3.41467,19.7845 1.5,19.5C 1.07729,17.2188 1.74395,15.5521 3.5,14.5 Z"/></g>
<g><path style="opacity:1" fill="#f2f1f2" d="M 6.5,15.5 C 6.5,16.5 6.5,17.5 6.5,18.5C 5.16667,18.5 3.83333,18.5 2.5,18.5C 2.5,17.5 2.5,16.5 2.5,15.5C 3.83333,15.5 5.16667,15.5 6.5,15.5 Z"/></g>
<g><path style="opacity:1" fill="#f2f4f1" d="M 15.5,15.5 C 16.8333,15.5 18.1667,15.5 19.5,15.5C 19.5,16.5 19.5,17.5 19.5,18.5C 18.1667,18.5 16.8333,18.5 15.5,18.5C 15.5,17.5 15.5,16.5 15.5,15.5 Z"/></g>
<g><path style="opacity:1" fill="#ccee99" d="M 9.5,10.5 C 9.33003,11.8221 9.66337,12.9887 10.5,14C 8.89339,15.049 8.22672,16.549 8.5,18.5C 10.1667,18.5 11.8333,18.5 13.5,18.5C 13.7733,16.549 13.1066,15.049 11.5,14C 12.8228,13.1841 13.4894,12.0174 13.5,10.5C 16.9496,9.75635 18.6162,11.0897 18.5,14.5C 17.209,14.2627 16.209,14.596 15.5,15.5C 15.5,16.5 15.5,17.5 15.5,18.5C 16.8333,18.5 18.1667,18.5 19.5,18.5C 19.8333,18.5 20.1667,18.5 20.5,18.5C 20.5,19.1667 20.8333,19.5 21.5,19.5C 21.5,19.8333 21.5,20.1667 21.5,20.5C 14.3134,20.8245 7.31337,20.4912 0.5,19.5C 0.833333,19.5 1.16667,19.5 1.5,19.5C 3.41467,19.7845 5.08134,19.4511 6.5,18.5C 6.5,17.5 6.5,16.5 6.5,15.5C 5.79105,14.596 4.79105,14.2627 3.5,14.5C 3.75934,10.9319 5.75934,9.59853 9.5,10.5 Z"/></g>
<g><path style="opacity:1" fill="#474f3b" d="M -0.5,0.5 C -0.166667,0.5 0.166667,0.5 0.5,0.5C 0.5,6.83333 0.5,13.1667 0.5,19.5C 7.31337,20.4912 14.3134,20.8245 21.5,20.5C 21.5,21.1667 21.8333,21.5 22.5,21.5C 14.9319,22.812 7.26525,22.812 -0.5,21.5C -0.5,14.5 -0.5,7.5 -0.5,0.5 Z"/></g>
<g><path style="opacity:1" fill="#bcbcbc" d="M 22.5,-0.5 C 22.8333,-0.5 23.1667,-0.5 23.5,-0.5C 23.5,7.5 23.5,15.5 23.5,23.5C 15.5,23.5 7.5,23.5 -0.5,23.5C -0.5,22.8333 -0.5,22.1667 -0.5,21.5C 7.26525,22.812 14.9319,22.812 22.5,21.5C 22.5,14.1667 22.5,6.83333 22.5,-0.5 Z"/></g>
</svg>
