<?xml version="1.0" encoding="UTF-8"?>
<!DOCTYPE svg PUBLIC "-//W3C//DTD SVG 1.1//EN" "http://www.w3.org/Graphics/SVG/1.1/DTD/svg11.dtd">
<svg xmlns="http://www.w3.org/2000/svg" version="1.1" width="24px" height="24px" style="shape-rendering:geometricPrecision; text-rendering:geometricPrecision; image-rendering:optimizeQuality; fill-rule:evenodd; clip-rule:evenodd" xmlns:xlink="http://www.w3.org/1999/xlink">
<g><path style="opacity:1" fill="#eae5d8" d="M 22.5,0.5 C 22.5,1.83333 22.5,3.16667 22.5,4.5C 20.8333,4.5 19.1667,4.5 17.5,4.5C 17.5,4.16667 17.5,3.83333 17.5,3.5C 12.0247,2.51114 6.358,2.1778 0.5,2.5C 7.42384,0.536724 14.7572,-0.129942 22.5,0.5 Z"/></g>
<g><path style="opacity:1" fill="#f1ead8" d="M 0.5,2.5 C 6.358,2.1778 12.0247,2.51114 17.5,3.5C 16.5084,3.32842 15.8417,3.66175 15.5,4.5C 14.8333,5.16667 14.1667,5.83333 13.5,6.5C 9.16667,5.16667 4.83333,5.16667 0.5,6.5C 0.5,5.16667 0.5,3.83333 0.5,2.5 Z"/></g>
<g><path style="opacity:1" fill="#1d1d1b" d="M 17.5,3.5 C 17.5,3.83333 17.5,4.16667 17.5,4.5C 17.5,5.5 17.5,6.5 17.5,7.5C 15.9519,7.17876 15.2852,6.17876 15.5,4.5C 15.8417,3.66175 16.5084,3.32842 17.5,3.5 Z"/></g>
<g><path style="opacity:1" fill="#eae1c9" d="M 13.5,6.5 C 12.3065,7.27187 11.3065,8.27187 10.5,9.5C 9.83333,9.5 9.16667,9.5 8.5,9.5C 5.83333,9.5 3.16667,9.5 0.5,9.5C 0.5,8.5 0.5,7.5 0.5,6.5C 4.83333,5.16667 9.16667,5.16667 13.5,6.5 Z"/></g>
<g><path style="opacity:1" fill="#cdc4a9" d="M 15.5,4.5 C 15.2852,6.17876 15.9519,7.17876 17.5,7.5C 17.0825,8.22158 16.4158,8.72158 15.5,9C 16.4158,9.27842 17.0825,9.77842 17.5,10.5C 16.5084,10.3284 15.8417,10.6618 15.5,11.5C 13.4727,11.6621 11.4727,11.4955 9.5,11C 10.056,10.6174 10.3893,10.1174 10.5,9.5C 11.3065,8.27187 12.3065,7.27187 13.5,6.5C 14.1667,5.83333 14.8333,5.16667 15.5,4.5 Z"/></g>
<g><path style="opacity:1" fill="#e2d8be" d="M 17.5,4.5 C 19.1667,4.5 20.8333,4.5 22.5,4.5C 22.5,6.83333 22.5,9.16667 22.5,11.5C 20.8333,11.5 19.1667,11.5 17.5,11.5C 17.5,11.1667 17.5,10.8333 17.5,10.5C 17.0825,9.77842 16.4158,9.27842 15.5,9C 16.4158,8.72158 17.0825,8.22158 17.5,7.5C 17.5,6.5 17.5,5.5 17.5,4.5 Z"/></g>
<g><path style="opacity:1" fill="#1f1d19" d="M 8.5,10.5 C 8.56745,11.9587 8.23411,13.2921 7.5,14.5C 6.83333,14.1667 6.16667,13.8333 5.5,13.5C 5.5,11.5 6.5,10.5 8.5,10.5 Z"/></g>
<g><path style="opacity:1" fill="#d0c4a1" d="M 0.5,9.5 C 3.16667,9.5 5.83333,9.5 8.5,9.5C 8.5,9.83333 8.5,10.1667 8.5,10.5C 6.5,10.5 5.5,11.5 5.5,13.5C 4.08134,14.4511 2.41467,14.7845 0.5,14.5C 0.5,12.8333 0.5,11.1667 0.5,9.5 Z"/></g>
<g><path style="opacity:1" fill="#b0a47e" d="M 22.5,0.5 C 22.8333,0.5 23.1667,0.5 23.5,0.5C 23.5,7.83333 23.5,15.1667 23.5,22.5C 23.1667,22.5 22.8333,22.5 22.5,22.5C 21.4479,20.744 19.7812,20.0773 17.5,20.5C 17.719,19.325 17.3857,18.325 16.5,17.5C 15.7025,17.9569 15.3691,18.6236 15.5,19.5C 15.1667,19.5 14.8333,19.5 14.5,19.5C 13.1669,16.6472 10.8335,14.9805 7.5,14.5C 8.23411,13.2921 8.56745,11.9587 8.5,10.5C 8.5,10.1667 8.5,9.83333 8.5,9.5C 9.16667,9.5 9.83333,9.5 10.5,9.5C 10.3893,10.1174 10.056,10.6174 9.5,11C 11.4727,11.4955 13.4727,11.6621 15.5,11.5C 16.1667,14.1667 16.8333,14.1667 17.5,11.5C 19.1667,11.5 20.8333,11.5 22.5,11.5C 22.5,9.16667 22.5,6.83333 22.5,4.5C 22.5,3.16667 22.5,1.83333 22.5,0.5 Z"/></g>
<g><path style="opacity:1" fill="#0c0b09" d="M 17.5,10.5 C 17.5,10.8333 17.5,11.1667 17.5,11.5C 16.8333,14.1667 16.1667,14.1667 15.5,11.5C 15.8417,10.6618 16.5084,10.3284 17.5,10.5 Z"/></g>
<g><path style="opacity:1" fill="#d5c591" d="M 5.5,13.5 C 6.16667,13.8333 6.83333,14.1667 7.5,14.5C 10.8335,14.9805 13.1669,16.6472 14.5,19.5C 9.92963,18.559 5.26296,18.2256 0.5,18.5C 0.5,17.1667 0.5,15.8333 0.5,14.5C 2.41467,14.7845 4.08134,14.4511 5.5,13.5 Z"/></g>
<g><path style="opacity:1" fill="#090704" d="M 17.5,20.5 C 16.8333,20.5 16.1667,20.5 15.5,20.5C 15.5,20.1667 15.5,19.8333 15.5,19.5C 15.3691,18.6236 15.7025,17.9569 16.5,17.5C 17.3857,18.325 17.719,19.325 17.5,20.5 Z"/></g>
<g><path style="opacity:1" fill="#cfbc82" d="M 0.5,18.5 C 5.26296,18.2256 9.92963,18.559 14.5,19.5C 14.8333,19.5 15.1667,19.5 15.5,19.5C 15.5,19.8333 15.5,20.1667 15.5,20.5C 10.5947,21.4454 5.59467,21.7787 0.5,21.5C 0.5,20.5 0.5,19.5 0.5,18.5 Z"/></g>
<g><path style="opacity:1" fill="#d0be7e" d="M 15.5,20.5 C 16.1667,20.5 16.8333,20.5 17.5,20.5C 19.7812,20.0773 21.4479,20.744 22.5,22.5C 14.9809,22.825 7.64761,22.4916 0.5,21.5C 5.59467,21.7787 10.5947,21.4454 15.5,20.5 Z"/></g>
<g><path style="opacity:1" fill="#2e2b1f" d="M -0.5,-0.5 C 7.5,-0.5 15.5,-0.5 23.5,-0.5C 23.5,-0.166667 23.5,0.166667 23.5,0.5C 23.1667,0.5 22.8333,0.5 22.5,0.5C 14.7572,-0.129942 7.42384,0.536724 0.5,2.5C 0.5,3.83333 0.5,5.16667 0.5,6.5C 0.5,7.5 0.5,8.5 0.5,9.5C 0.5,11.1667 0.5,12.8333 0.5,14.5C 0.5,15.8333 0.5,17.1667 0.5,18.5C 0.5,19.5 0.5,20.5 0.5,21.5C 7.64761,22.4916 14.9809,22.825 22.5,22.5C 22.8333,22.5 23.1667,22.5 23.5,22.5C 23.5,22.8333 23.5,23.1667 23.5,23.5C 15.5,23.5 7.5,23.5 -0.5,23.5C -0.5,15.5 -0.5,7.5 -0.5,-0.5 Z"/></g>
</svg>
