<?xml version="1.0" encoding="UTF-8"?>
<!DOCTYPE svg PUBLIC "-//W3C//DTD SVG 1.1//EN" "http://www.w3.org/Graphics/SVG/1.1/DTD/svg11.dtd">
<svg xmlns="http://www.w3.org/2000/svg" version="1.1" width="24px" height="24px" style="shape-rendering:geometricPrecision; text-rendering:geometricPrecision; image-rendering:optimizeQuality; fill-rule:evenodd; clip-rule:evenodd" xmlns:xlink="http://www.w3.org/1999/xlink">
<g><path style="opacity:0.009" fill="#fcfcfc" d="M 19.5,2.5 C 16.1691,4.29764 12.5025,4.96431 8.5,4.5C 8.16667,4.5 7.83333,4.5 7.5,4.5C 11.2235,4.01639 14.8902,3.01639 18.5,1.5C 19.1067,1.62358 19.44,1.95691 19.5,2.5 Z"/></g>
<g><path style="opacity:1" fill="#fbfbfb" d="M 1.5,2.5 C 2.83333,2.5 4.16667,2.5 5.5,2.5C 5.5,4.83333 5.5,7.16667 5.5,9.5C 4.16667,9.5 2.83333,9.5 1.5,9.5C 1.5,7.16667 1.5,4.83333 1.5,2.5 Z"/></g>
<g><path style="opacity:0.465" fill="#b5b5b5" d="M 0.5,0.5 C 2.5,0.5 4.5,0.5 6.5,0.5C 6.5,4.16667 6.5,7.83333 6.5,11.5C 4.26465,11.7947 2.26465,11.4614 0.5,10.5C 0.5,9.83333 0.833333,9.5 1.5,9.5C 2.83333,9.5 4.16667,9.5 5.5,9.5C 5.5,7.16667 5.5,4.83333 5.5,2.5C 4.16667,2.5 2.83333,2.5 1.5,2.5C 0.661754,2.15829 0.32842,1.49162 0.5,0.5 Z"/></g>
<g><path style="opacity:0.946" fill="#c9c9c9" d="M -0.5,0.5 C -0.166667,0.5 0.166667,0.5 0.5,0.5C 0.32842,1.49162 0.661754,2.15829 1.5,2.5C 1.5,4.83333 1.5,7.16667 1.5,9.5C 0.833333,9.5 0.5,9.83333 0.5,10.5C 0.166667,10.5 -0.166667,10.5 -0.5,10.5C -0.5,7.16667 -0.5,3.83333 -0.5,0.5 Z"/></g>
<g><path style="opacity:1" fill="#9c9c9c" d="M 19.5,2.5 C 20.6049,3.60048 21.9382,4.26714 23.5,4.5C 23.5,5.16667 23.5,5.83333 23.5,6.5C 21.9382,6.73286 20.6049,7.39952 19.5,8.5C 18.8333,8.5 18.5,8.16667 18.5,7.5C 18.5,7.16667 18.5,6.83333 18.5,6.5C 15.1667,5.83333 11.8333,5.16667 8.5,4.5C 12.5025,4.96431 16.1691,4.29764 19.5,2.5 Z"/></g>
<g><path style="opacity:0.475" fill="#cbcbcb" d="M 7.5,4.5 C 7.83333,4.5 8.16667,4.5 8.5,4.5C 11.8333,5.16667 15.1667,5.83333 18.5,6.5C 14.351,7.08031 10.6843,6.41365 7.5,4.5 Z"/></g>
<g><path style="opacity:0.033" fill="#f4f4f4" d="M 18.5,7.5 C 18.5,8.16667 18.8333,8.5 19.5,8.5C 19.44,9.04309 19.1067,9.37642 18.5,9.5C 17.2267,8.7435 17.2267,8.07683 18.5,7.5 Z"/></g>
<g><path style="opacity:0.343" fill="#c8c8c8" d="M 22.5,13.5 C 22.8333,13.5 23.1667,13.5 23.5,13.5C 23.5,16.8333 23.5,20.1667 23.5,23.5C 21.5,23.5 19.5,23.5 17.5,23.5C 17.5,23.1667 17.5,22.8333 17.5,22.5C 19.7674,22.8545 21.1007,22.5211 21.5,21.5C 21.5,19.1667 21.5,16.8333 21.5,14.5C 22.1667,14.5 22.5,14.1667 22.5,13.5 Z"/></g>
<g><path style="opacity:0.035" fill="#ececec" d="M 23.5,12.5 C 23.5,12.8333 23.5,13.1667 23.5,13.5C 23.1667,13.5 22.8333,13.5 22.5,13.5C 20.8333,13.5 19.1667,13.5 17.5,13.5C 17.5,16.5 17.5,19.5 17.5,22.5C 17.5,22.8333 17.5,23.1667 17.5,23.5C 17.1667,23.5 16.8333,23.5 16.5,23.5C 16.5,19.8333 16.5,16.1667 16.5,12.5C 18.8333,12.5 21.1667,12.5 23.5,12.5 Z"/></g>
<g><path style="opacity:1" fill="#fefffe" d="M 21.5,14.5 C 21.5,16.8333 21.5,19.1667 21.5,21.5C 20.5,21.5 19.5,21.5 18.5,21.5C 18.5,19.1667 18.5,16.8333 18.5,14.5C 19.5,14.5 20.5,14.5 21.5,14.5 Z"/></g>
<g><path style="opacity:0.886" fill="#a3a3a3" d="M 22.5,13.5 C 22.5,14.1667 22.1667,14.5 21.5,14.5C 20.5,14.5 19.5,14.5 18.5,14.5C 18.5,16.8333 18.5,19.1667 18.5,21.5C 19.5,21.5 20.5,21.5 21.5,21.5C 21.1007,22.5211 19.7674,22.8545 17.5,22.5C 17.5,19.5 17.5,16.5 17.5,13.5C 19.1667,13.5 20.8333,13.5 22.5,13.5 Z"/></g>
<g><path style="opacity:0.958" fill="#949494" d="M 3.5,15.5 C 7.17262,17.3177 11.1726,17.9843 15.5,17.5C 15.5,17.8333 15.5,18.1667 15.5,18.5C 11.1726,18.0157 7.17262,18.6823 3.5,20.5C -0.290154,18.6416 -0.290154,16.975 3.5,15.5 Z"/></g>
<g><path style="opacity:0.063" fill="#f3f3f3" d="M 3.5,15.5 C 3.55999,14.9569 3.89333,14.6236 4.5,14.5C 8.1098,16.0164 11.7765,17.0164 15.5,17.5C 11.1726,17.9843 7.17262,17.3177 3.5,15.5 Z"/></g>
<g><path style="opacity:0.349" fill="#e5e5e5" d="M 15.5,18.5 C 11.7765,18.9836 8.1098,19.9836 4.5,21.5C 3.89333,21.3764 3.55999,21.0431 3.5,20.5C 7.17262,18.6823 11.1726,18.0157 15.5,18.5 Z"/></g>
</svg>
