<?xml version="1.0" encoding="UTF-8"?>
<!DOCTYPE svg PUBLIC "-//W3C//DTD SVG 1.1//EN" "http://www.w3.org/Graphics/SVG/1.1/DTD/svg11.dtd">
<svg xmlns="http://www.w3.org/2000/svg" version="1.1" width="24px" height="24px" style="shape-rendering:geometricPrecision; text-rendering:geometricPrecision; image-rendering:optimizeQuality; fill-rule:evenodd; clip-rule:evenodd" xmlns:xlink="http://www.w3.org/1999/xlink">
<g><path style="opacity:0.118" fill="#e5e5ed" d="M -0.5,0.5 C 7.5,0.5 15.5,0.5 23.5,0.5C 23.5,0.833333 23.5,1.16667 23.5,1.5C 15.6484,1.17464 7.98178,1.50797 0.5,2.5C 0.5,8.83333 0.5,15.1667 0.5,21.5C 0.5,21.8333 0.5,22.1667 0.5,22.5C 0.166667,22.5 -0.166667,22.5 -0.5,22.5C -0.5,15.1667 -0.5,7.83333 -0.5,0.5 Z"/></g>
<g><path style="opacity:0.925" fill="#949441" d="M 0.5,2.5 C 3.5,2.5 6.5,2.5 9.5,2.5C 9.5,4.5 9.5,6.5 9.5,8.5C 6.83333,8.5 4.16667,8.5 1.5,8.5C 1.5,12.8333 1.5,17.1667 1.5,21.5C 1.16667,21.5 0.833333,21.5 0.5,21.5C 0.5,15.1667 0.5,8.83333 0.5,2.5 Z"/></g>
<g><path style="opacity:1" fill="#f0f05f" d="M 9.5,2.5 C 13.8333,2.5 18.1667,2.5 22.5,2.5C 22.5,8.83333 22.5,15.1667 22.5,21.5C 15.5,21.5 8.5,21.5 1.5,21.5C 1.5,17.1667 1.5,12.8333 1.5,8.5C 4.16667,8.5 6.83333,8.5 9.5,8.5C 9.5,6.5 9.5,4.5 9.5,2.5 Z"/></g>
<g><path style="opacity:1" fill="#8e8d72" d="M 18.5,3.5 C 19.5,3.5 20.5,3.5 21.5,3.5C 21.5,5.16667 21.5,6.83333 21.5,8.5C 20.5,8.5 19.5,8.5 18.5,8.5C 18.5,6.83333 18.5,5.16667 18.5,3.5 Z"/></g>
<g><path style="opacity:0.592" fill="#aaaa8e" d="M 0.5,2.5 C 7.98178,1.50797 15.6484,1.17464 23.5,1.5C 23.5,8.83333 23.5,16.1667 23.5,23.5C 15.8333,23.5 8.16667,23.5 0.5,23.5C 0.5,23.1667 0.5,22.8333 0.5,22.5C 0.5,22.1667 0.5,21.8333 0.5,21.5C 0.833333,21.5 1.16667,21.5 1.5,21.5C 8.5,21.5 15.5,21.5 22.5,21.5C 22.5,15.1667 22.5,8.83333 22.5,2.5C 18.1667,2.5 13.8333,2.5 9.5,2.5C 6.5,2.5 3.5,2.5 0.5,2.5 Z"/></g>
</svg>
