<?xml version="1.0" encoding="UTF-8"?>
<!DOCTYPE svg PUBLIC "-//W3C//DTD SVG 1.1//EN" "http://www.w3.org/Graphics/SVG/1.1/DTD/svg11.dtd">
<svg xmlns="http://www.w3.org/2000/svg" version="1.1" width="24px" height="24px" style="shape-rendering:geometricPrecision; text-rendering:geometricPrecision; image-rendering:optimizeQuality; fill-rule:evenodd; clip-rule:evenodd" xmlns:xlink="http://www.w3.org/1999/xlink">
<g><path style="opacity:1" fill="#e1dbcd" d="M 22.5,0.5 C 22.5,0.833333 22.5,1.16667 22.5,1.5C 18.9581,1.18723 15.6248,1.52056 12.5,2.5C 12.2178,3.77765 11.5511,4.77765 10.5,5.5C 7.06131,5.25293 3.72797,5.58627 0.5,6.5C 0.5,4.5 0.5,2.5 0.5,0.5C 7.83333,0.5 15.1667,0.5 22.5,0.5 Z"/></g>
<g><path style="opacity:1" fill="#f3ecd9" d="M 12.5,2.5 C 15.6248,1.52056 18.9581,1.18723 22.5,1.5C 22.5,3.83333 22.5,6.16667 22.5,8.5C 19.1667,5.83333 15.8333,5.83333 12.5,8.5C 13.2907,6.30926 13.2907,4.30926 12.5,2.5 Z"/></g>
<g><path style="opacity:1" fill="#e9e0c7" d="M 10.5,5.5 C 11.9538,7.26332 11.6204,8.59665 9.5,9.5C 6.7131,8.52333 3.7131,8.19 0.5,8.5C 0.5,7.83333 0.5,7.16667 0.5,6.5C 3.72797,5.58627 7.06131,5.25293 10.5,5.5 Z"/></g>
<g><path style="opacity:1" fill="#e5dab9" d="M 0.5,8.5 C 3.7131,8.19 6.7131,8.52333 9.5,9.5C 7.73535,10.4614 5.73535,10.7947 3.5,10.5C 3.5,11.8333 3.5,13.1667 3.5,14.5C 2.5,14.5 1.5,14.5 0.5,14.5C 0.5,12.5 0.5,10.5 0.5,8.5 Z"/></g>
<g><path style="opacity:1" fill="#e7dcbd" d="M 22.5,8.5 C 22.5,10.5 22.5,12.5 22.5,14.5C 21.5,14.5 20.5,14.5 19.5,14.5C 19.5,13.1667 19.5,11.8333 19.5,10.5C 17.5,10.5 15.5,10.5 13.5,10.5C 13.1667,9.83333 12.8333,9.16667 12.5,8.5C 15.8333,5.83333 19.1667,5.83333 22.5,8.5 Z"/></g>
<g><path style="opacity:1" fill="#a19c8b" d="M 12.5,2.5 C 13.2907,4.30926 13.2907,6.30926 12.5,8.5C 12.8333,9.16667 13.1667,9.83333 13.5,10.5C 13.0269,11.9063 12.0269,12.573 10.5,12.5C 8.39605,12.2011 6.39605,12.5344 4.5,13.5C 5.32496,14.3857 6.32496,14.719 7.5,14.5C 7.5,16.1667 7.5,17.8333 7.5,19.5C 5.16667,19.5 2.83333,19.5 0.5,19.5C 0.5,17.8333 0.5,16.1667 0.5,14.5C 1.5,14.5 2.5,14.5 3.5,14.5C 3.5,13.1667 3.5,11.8333 3.5,10.5C 5.73535,10.7947 7.73535,10.4614 9.5,9.5C 11.6204,8.59665 11.9538,7.26332 10.5,5.5C 11.5511,4.77765 12.2178,3.77765 12.5,2.5 Z"/></g>
<g><path style="opacity:1" fill="#8f8874" d="M 22.5,0.5 C 22.8333,0.5 23.1667,0.5 23.5,0.5C 23.5,7.83333 23.5,15.1667 23.5,22.5C 23.1667,22.5 22.8333,22.5 22.5,22.5C 22.5,21.5 22.5,20.5 22.5,19.5C 22.5,19.1667 22.5,18.8333 22.5,18.5C 22.5,17.5 22.5,16.5 22.5,15.5C 20.5,15.5 18.5,15.5 16.5,15.5C 19.1741,13.9988 19.0075,12.9988 16,12.5C 12.465,12.7855 11.965,13.7855 14.5,15.5C 12.5,15.5 10.5,15.5 8.5,15.5C 9.55114,14.7777 10.2178,13.7777 10.5,12.5C 12.0269,12.573 13.0269,11.9063 13.5,10.5C 15.5,10.5 17.5,10.5 19.5,10.5C 19.5,11.8333 19.5,13.1667 19.5,14.5C 20.5,14.5 21.5,14.5 22.5,14.5C 22.5,12.5 22.5,10.5 22.5,8.5C 22.5,6.16667 22.5,3.83333 22.5,1.5C 22.5,1.16667 22.5,0.833333 22.5,0.5 Z"/></g>
<g><path style="opacity:1" fill="#fefffe" d="M 1.5,15.5 C 3.16667,15.5 4.83333,15.5 6.5,15.5C 6.5,16.5 6.5,17.5 6.5,18.5C 4.83333,18.5 3.16667,18.5 1.5,18.5C 1.5,17.5 1.5,16.5 1.5,15.5 Z"/></g>
<g><path style="opacity:1" fill="#f7f7f8" d="M 8.5,15.5 C 10.5,15.5 12.5,15.5 14.5,15.5C 14.5,16.5 14.5,17.5 14.5,18.5C 12.5,18.5 10.5,18.5 8.5,18.5C 8.5,17.5 8.5,16.5 8.5,15.5 Z"/></g>
<g><path style="opacity:1" fill="#a89f85" d="M 16.5,15.5 C 16.5,16.5 16.5,17.5 16.5,18.5C 18.5,18.5 20.5,18.5 22.5,18.5C 22.5,18.8333 22.5,19.1667 22.5,19.5C 17.6367,19.8195 12.97,19.4861 8.5,18.5C 10.5,18.5 12.5,18.5 14.5,18.5C 14.5,17.5 14.5,16.5 14.5,15.5C 11.965,13.7855 12.465,12.7855 16,12.5C 19.0075,12.9988 19.1741,13.9988 16.5,15.5 Z"/></g>
<g><path style="opacity:1" fill="#f8f8f7" d="M 16.5,15.5 C 18.5,15.5 20.5,15.5 22.5,15.5C 22.5,16.5 22.5,17.5 22.5,18.5C 20.5,18.5 18.5,18.5 16.5,18.5C 16.5,17.5 16.5,16.5 16.5,15.5 Z"/></g>
<g><path style="opacity:1" fill="#ccba81" d="M 10.5,12.5 C 10.2178,13.7777 9.55114,14.7777 8.5,15.5C 8.5,16.5 8.5,17.5 8.5,18.5C 12.97,19.4861 17.6367,19.8195 22.5,19.5C 22.5,20.5 22.5,21.5 22.5,22.5C 15.1667,22.5 7.83333,22.5 0.5,22.5C 0.5,21.5 0.5,20.5 0.5,19.5C 2.83333,19.5 5.16667,19.5 7.5,19.5C 7.5,17.8333 7.5,16.1667 7.5,14.5C 6.32496,14.719 5.32496,14.3857 4.5,13.5C 6.39605,12.5344 8.39605,12.2011 10.5,12.5 Z"/></g>
<g><path style="opacity:1" fill="#302c21" d="M -0.5,-0.5 C 7.5,-0.5 15.5,-0.5 23.5,-0.5C 23.5,-0.166667 23.5,0.166667 23.5,0.5C 23.1667,0.5 22.8333,0.5 22.5,0.5C 15.1667,0.5 7.83333,0.5 0.5,0.5C 0.5,2.5 0.5,4.5 0.5,6.5C 0.5,7.16667 0.5,7.83333 0.5,8.5C 0.5,10.5 0.5,12.5 0.5,14.5C 0.5,16.1667 0.5,17.8333 0.5,19.5C 0.5,20.5 0.5,21.5 0.5,22.5C 7.83333,22.5 15.1667,22.5 22.5,22.5C 22.8333,22.5 23.1667,22.5 23.5,22.5C 23.5,22.8333 23.5,23.1667 23.5,23.5C 15.5,23.5 7.5,23.5 -0.5,23.5C -0.5,15.5 -0.5,7.5 -0.5,-0.5 Z"/></g>
</svg>
