<?xml version="1.0" encoding="UTF-8"?>
<!DOCTYPE svg PUBLIC "-//W3C//DTD SVG 1.1//EN" "http://www.w3.org/Graphics/SVG/1.1/DTD/svg11.dtd">
<svg xmlns="http://www.w3.org/2000/svg" version="1.1" width="24px" height="24px" style="shape-rendering:geometricPrecision; text-rendering:geometricPrecision; image-rendering:optimizeQuality; fill-rule:evenodd; clip-rule:evenodd" xmlns:xlink="http://www.w3.org/1999/xlink">
<g><path style="opacity:0.482" fill="#656565" d="M 2.5,-0.5 C 6.5,-0.5 10.5,-0.5 14.5,-0.5C 14.3398,1.19919 14.5065,2.86586 15,4.5C 15.3826,3.94404 15.8826,3.61071 16.5,3.5C 17.562,5.23411 17.562,6.90078 16.5,8.5C 15.8826,8.38929 15.3826,8.05596 15,7.5C 14.2042,10.0385 14.3709,12.3718 15.5,14.5C 15.7214,15.7348 16.3881,16.7348 17.5,17.5C 17.3764,18.1067 17.0431,18.44 16.5,18.5C 15.0221,19.4475 14.0221,20.7809 13.5,22.5C 13.5,22.1667 13.5,21.8333 13.5,21.5C 13.824,14.6457 13.4907,7.97904 12.5,1.5C 9.5,1.5 6.5,1.5 3.5,1.5C 3.5,3.16667 3.5,4.83333 3.5,6.5C 2.60895,7.10978 1.60895,7.44312 0.5,7.5C 0.166667,7.5 -0.166667,7.5 -0.5,7.5C -0.5,6.5 -0.5,5.5 -0.5,4.5C 0.396953,3.40191 1.23029,3.40191 2,4.5C 2.49351,2.86586 2.66018,1.19919 2.5,-0.5 Z"/></g>
<g><path style="opacity:1" fill="#f2f261" d="M 23.5,1.5 C 23.5,5.5 23.5,9.5 23.5,13.5C 22.5269,15.9479 22.1936,18.6146 22.5,21.5C 21.1667,21.5 19.8333,21.5 18.5,21.5C 18.5,14.8333 18.5,8.16667 18.5,1.5C 20.1667,1.5 21.8333,1.5 23.5,1.5 Z"/></g>
<g><path style="opacity:0.928" fill="#525241" d="M 17.5,-0.5 C 19.5,-0.5 21.5,-0.5 23.5,-0.5C 23.5,0.166667 23.5,0.833333 23.5,1.5C 21.8333,1.5 20.1667,1.5 18.5,1.5C 18.5,8.16667 18.5,14.8333 18.5,21.5C 19.8333,21.5 21.1667,21.5 22.5,21.5C 22.1936,18.6146 22.5269,15.9479 23.5,13.5C 23.5,16.5 23.5,19.5 23.5,22.5C 22.8333,22.5 22.5,22.8333 22.5,23.5C 20.8333,23.5 19.1667,23.5 17.5,23.5C 16.6993,21.9582 16.366,20.2915 16.5,18.5C 17.0431,18.44 17.3764,18.1067 17.5,17.5C 16.3881,16.7348 15.7214,15.7348 15.5,14.5C 16.4614,12.7354 16.7947,10.7354 16.5,8.5C 17.562,6.90078 17.562,5.23411 16.5,3.5C 16.4326,2.04125 16.7659,0.707917 17.5,-0.5 Z"/></g>
<g><path style="opacity:0.514" fill="#121211" d="M 3.5,6.5 C 3.5,8.83333 3.5,11.1667 3.5,13.5C 3.5,14.5 3.5,15.5 3.5,16.5C 2.50838,16.6716 1.84171,16.3382 1.5,15.5C 2.93707,12.6697 2.60374,10.003 0.5,7.5C 1.60895,7.44312 2.60895,7.10978 3.5,6.5 Z"/></g>
<g><path style="opacity:1" fill="#e1d7ba" d="M 12.5,1.5 C 12.8205,6.69463 12.4872,11.6946 11.5,16.5C 10.828,15.7326 9.9947,15.0659 9,14.5C 8.67525,10.3299 8.50858,6.32985 8.5,2.5C 7.83292,6.31255 7.16626,9.97921 6.5,13.5C 5.5,13.5 4.5,13.5 3.5,13.5C 3.5,11.1667 3.5,8.83333 3.5,6.5C 3.5,4.83333 3.5,3.16667 3.5,1.5C 6.5,1.5 9.5,1.5 12.5,1.5 Z"/></g>
<g><path style="opacity:1" fill="#544e3c" d="M 11.5,16.5 C 10.9045,19.1125 10.0712,19.1125 9,16.5C 8.78107,17.938 8.28107,19.2713 7.5,20.5C 6.52577,18.2573 6.19244,15.924 6.5,13.5C 7.16626,9.97921 7.83292,6.31255 8.5,2.5C 8.50858,6.32985 8.67525,10.3299 9,14.5C 9.9947,15.0659 10.828,15.7326 11.5,16.5 Z"/></g>
<g><path style="opacity:1" fill="#b2a271" d="M 12.5,1.5 C 13.4907,7.97904 13.824,14.6457 13.5,21.5C 10.1667,21.5 6.83333,21.5 3.5,21.5C 3.5,19.8333 3.5,18.1667 3.5,16.5C 3.5,15.5 3.5,14.5 3.5,13.5C 4.5,13.5 5.5,13.5 6.5,13.5C 6.19244,15.924 6.52577,18.2573 7.5,20.5C 8.28107,19.2713 8.78107,17.938 9,16.5C 10.0712,19.1125 10.9045,19.1125 11.5,16.5C 12.4872,11.6946 12.8205,6.69463 12.5,1.5 Z"/></g>
<g><path style="opacity:0.859" fill="#656563" d="M -0.5,14.5 C 0.491622,14.3284 1.15829,14.6618 1.5,15.5C 1.84171,16.3382 2.50838,16.6716 3.5,16.5C 3.5,18.1667 3.5,19.8333 3.5,21.5C 6.83333,21.5 10.1667,21.5 13.5,21.5C 13.5,21.8333 13.5,22.1667 13.5,22.5C 13.5,22.8333 13.5,23.1667 13.5,23.5C 9.83333,23.5 6.16667,23.5 2.5,23.5C 2.66018,21.8008 2.49351,20.1341 2,18.5C 1.23029,19.5981 0.396953,19.5981 -0.5,18.5C -0.5,17.1667 -0.5,15.8333 -0.5,14.5 Z"/></g>
</svg>
