<?xml version="1.0" encoding="UTF-8"?>
<!DOCTYPE svg PUBLIC "-//W3C//DTD SVG 1.1//EN" "http://www.w3.org/Graphics/SVG/1.1/DTD/svg11.dtd">
<svg xmlns="http://www.w3.org/2000/svg" version="1.1" width="24px" height="24px" style="shape-rendering:geometricPrecision; text-rendering:geometricPrecision; image-rendering:optimizeQuality; fill-rule:evenodd; clip-rule:evenodd" xmlns:xlink="http://www.w3.org/1999/xlink">
<g><path style="opacity:0.988" fill="#e8e2d5" d="M 22.5,0.5 C 22.5,1.83333 22.5,3.16667 22.5,4.5C 15.1667,3.16667 7.83333,3.16667 0.5,4.5C 0.5,3.16667 0.5,1.83333 0.5,0.5C 7.83333,0.5 15.1667,0.5 22.5,0.5 Z"/></g>
<g><path style="opacity:0.988" fill="#f1ead7" d="M 22.5,4.5 C 22.5,5.16667 22.5,5.83333 22.5,6.5C 15.2537,5.53601 7.92038,5.20267 0.5,5.5C 0.5,5.16667 0.5,4.83333 0.5,4.5C 7.83333,3.16667 15.1667,3.16667 22.5,4.5 Z"/></g>
<g><path style="opacity:0.988" fill="#ece4cc" d="M 0.5,5.5 C 7.92038,5.20267 15.2537,5.53601 22.5,6.5C 22.7373,7.79105 22.404,8.79105 21.5,9.5C 19.0849,8.18578 16.2515,7.51911 13,7.5C 8.6702,8.00951 4.50353,8.00951 0.5,7.5C 0.5,6.83333 0.5,6.16667 0.5,5.5 Z"/></g>
<g><path style="opacity:0.988" fill="#e6dcbf" d="M 0.5,7.5 C 4.50353,8.00951 8.6702,8.00951 13,7.5C 16.2515,7.51911 19.0849,8.18578 21.5,9.5C 17.8083,9.69308 14.4749,10.0264 11.5,10.5C 10.8333,10.5 10.1667,10.5 9.5,10.5C 7.23778,12.0473 5.23778,11.7139 3.5,9.5C 1.88882,10.3202 1.22216,11.6536 1.5,13.5C 1.16667,13.5 0.833333,13.5 0.5,13.5C 0.5,11.5 0.5,9.5 0.5,7.5 Z"/></g>
<g><path style="opacity:1" fill="#191815" d="M 9.5,10.5 C 9.64945,11.552 9.48278,12.552 9,13.5C 6.33342,13.1655 3.83342,13.1655 1.5,13.5C 1.22216,11.6536 1.88882,10.3202 3.5,9.5C 5.23778,11.7139 7.23778,12.0473 9.5,10.5 Z"/></g>
<g><path style="opacity:0.988" fill="#aea792" d="M 22.5,0.5 C 22.8333,0.5 23.1667,0.5 23.5,0.5C 23.5,7.83333 23.5,15.1667 23.5,22.5C 23.1667,22.5 22.8333,22.5 22.5,22.5C 22.5,21.5 22.5,20.5 22.5,19.5C 22.5,17.8333 22.5,16.1667 22.5,14.5C 19.7212,14.2786 17.0545,14.612 14.5,15.5C 13.791,14.596 12.791,14.2627 11.5,14.5C 11.5,13.1667 11.5,11.8333 11.5,10.5C 14.4749,10.0264 17.8083,9.69308 21.5,9.5C 22.404,8.79105 22.7373,7.79105 22.5,6.5C 22.5,5.83333 22.5,5.16667 22.5,4.5C 22.5,3.16667 22.5,1.83333 22.5,0.5 Z"/></g>
<g><path style="opacity:0.988" fill="#d3c597" d="M 9.5,10.5 C 10.1667,10.5 10.8333,10.5 11.5,10.5C 11.5,11.8333 11.5,13.1667 11.5,14.5C 12.791,14.2627 13.791,14.596 14.5,15.5C 9.92963,16.441 5.26296,16.7744 0.5,16.5C 0.5,15.5 0.5,14.5 0.5,13.5C 0.833333,13.5 1.16667,13.5 1.5,13.5C 3.83342,13.1655 6.33342,13.1655 9,13.5C 9.48278,12.552 9.64945,11.552 9.5,10.5 Z"/></g>
<g><path style="opacity:0.988" fill="#d7c693" d="M 22.5,19.5 C 22.1667,19.5 21.8333,19.5 21.5,19.5C 14.9131,17.5388 7.91309,16.8721 0.5,17.5C 0.5,17.1667 0.5,16.8333 0.5,16.5C 5.26296,16.7744 9.92963,16.441 14.5,15.5C 17.0545,14.612 19.7212,14.2786 22.5,14.5C 22.5,16.1667 22.5,17.8333 22.5,19.5 Z"/></g>
<g><path style="opacity:0.988" fill="#d1bf88" d="M 0.5,17.5 C 7.91309,16.8721 14.9131,17.5388 21.5,19.5C 14.4122,19.2045 7.41215,19.5379 0.5,20.5C 0.5,19.5 0.5,18.5 0.5,17.5 Z"/></g>
<g><path style="opacity:0.988" fill="#d0bd7f" d="M 21.5,19.5 C 21.8333,19.5 22.1667,19.5 22.5,19.5C 22.5,20.5 22.5,21.5 22.5,22.5C 14.7572,23.1299 7.42384,22.4633 0.5,20.5C 7.41215,19.5379 14.4122,19.2045 21.5,19.5 Z"/></g>
<g><path style="opacity:0.996" fill="#2e2b1f" d="M -0.5,-0.5 C 7.5,-0.5 15.5,-0.5 23.5,-0.5C 23.5,-0.166667 23.5,0.166667 23.5,0.5C 23.1667,0.5 22.8333,0.5 22.5,0.5C 15.1667,0.5 7.83333,0.5 0.5,0.5C 0.5,1.83333 0.5,3.16667 0.5,4.5C 0.5,4.83333 0.5,5.16667 0.5,5.5C 0.5,6.16667 0.5,6.83333 0.5,7.5C 0.5,9.5 0.5,11.5 0.5,13.5C 0.5,14.5 0.5,15.5 0.5,16.5C 0.5,16.8333 0.5,17.1667 0.5,17.5C 0.5,18.5 0.5,19.5 0.5,20.5C 7.42384,22.4633 14.7572,23.1299 22.5,22.5C 22.8333,22.5 23.1667,22.5 23.5,22.5C 23.5,22.8333 23.5,23.1667 23.5,23.5C 15.5,23.5 7.5,23.5 -0.5,23.5C -0.5,15.5 -0.5,7.5 -0.5,-0.5 Z"/></g>
</svg>
