<?xml version="1.0" encoding="UTF-8"?>
<!DOCTYPE svg PUBLIC "-//W3C//DTD SVG 1.1//EN" "http://www.w3.org/Graphics/SVG/1.1/DTD/svg11.dtd">
<svg xmlns="http://www.w3.org/2000/svg" version="1.1" width="24px" height="24px" style="shape-rendering:geometricPrecision; text-rendering:geometricPrecision; image-rendering:optimizeQuality; fill-rule:evenodd; clip-rule:evenodd" xmlns:xlink="http://www.w3.org/1999/xlink">
<g><path style="opacity:1" fill="#eae6d7" d="M 22.5,0.5 C 22.6641,3.1873 22.4974,5.85397 22,8.5C 21.8019,6.61828 21.3019,4.95161 20.5,3.5C 14.5,2.16667 8.5,2.16667 2.5,3.5C 2.5,3.83333 2.5,4.16667 2.5,4.5C 1.83333,5.5 1.16667,6.5 0.5,7.5C 0.5,5.16667 0.5,2.83333 0.5,0.5C 7.83333,0.5 15.1667,0.5 22.5,0.5 Z"/></g>
<g><path style="opacity:1" fill="#e6decb" d="M 2.5,3.5 C 8.5,2.16667 14.5,2.16667 20.5,3.5C 18.1667,3.5 15.8333,3.5 13.5,3.5C 13.5,5.83333 13.5,8.16667 13.5,10.5C 12.5,10.5 11.5,10.5 10.5,10.5C 10.5,8.16667 10.5,5.83333 10.5,3.5C 7.83333,3.5 5.16667,3.5 2.5,3.5 Z"/></g>
<g><path style="opacity:1" fill="#fcfcfc" d="M 14.5,13.5 C 14.5,13.1667 14.5,12.8333 14.5,12.5C 14.7118,10.6159 15.7118,9.28255 17.5,8.5C 17.0623,7.49367 16.3957,7.49367 15.5,8.5C 14.5713,7.31116 14.238,5.97782 14.5,4.5C 16.1667,4.5 17.8333,4.5 19.5,4.5C 19.5,9.16667 19.5,13.8333 19.5,18.5C 17.8333,18.5 16.1667,18.5 14.5,18.5C 14.3433,17.1266 14.51,15.7932 15,14.5C 15.7175,15.4506 16.5509,15.6172 17.5,15C 16.7562,13.9614 15.7562,13.4614 14.5,13.5 Z"/></g>
<g><path style="opacity:1" fill="#bfbfbe" d="M 20.5,3.5 C 20.5,8.83333 20.5,14.1667 20.5,19.5C 18.1667,19.5 15.8333,19.5 13.5,19.5C 13.5,17.5 13.5,15.5 13.5,13.5C 13.8333,13.5 14.1667,13.5 14.5,13.5C 15.7562,13.4614 16.7562,13.9614 17.5,15C 16.5509,15.6172 15.7175,15.4506 15,14.5C 14.51,15.7932 14.3433,17.1266 14.5,18.5C 16.1667,18.5 17.8333,18.5 19.5,18.5C 19.5,13.8333 19.5,9.16667 19.5,4.5C 17.8333,4.5 16.1667,4.5 14.5,4.5C 14.238,5.97782 14.5713,7.31116 15.5,8.5C 16.3957,7.49367 17.0623,7.49367 17.5,8.5C 15.7118,9.28255 14.7118,10.6159 14.5,12.5C 13.6618,12.1583 13.3284,11.4916 13.5,10.5C 13.5,8.16667 13.5,5.83333 13.5,3.5C 15.8333,3.5 18.1667,3.5 20.5,3.5 Z"/></g>
<g><path style="opacity:1" fill="#999484" d="M 2.5,3.5 C 5.16667,3.5 7.83333,3.5 10.5,3.5C 10.5,5.83333 10.5,8.16667 10.5,10.5C 11.5,10.5 12.5,10.5 13.5,10.5C 13.3284,11.4916 13.6618,12.1583 14.5,12.5C 14.5,12.8333 14.5,13.1667 14.5,13.5C 14.1667,13.5 13.8333,13.5 13.5,13.5C 12.8501,13.1961 12.1835,12.8627 11.5,12.5C 10.8324,15.3056 10.1657,17.9723 9.5,20.5C 7.16667,20.5 4.83333,20.5 2.5,20.5C 2.5,15.1667 2.5,9.83333 2.5,4.5C 2.5,4.16667 2.5,3.83333 2.5,3.5 Z"/></g>
<g><path style="opacity:1" fill="#f7f7f8" d="M 3.5,4.5 C 5.5,4.5 7.5,4.5 9.5,4.5C 9.66018,6.19919 9.49351,7.86586 9,9.5C 8.03467,7.73966 6.868,7.40632 5.5,8.5C 6.83333,9.5 8.16667,10.5 9.5,11.5C 8.39469,12.8924 7.06136,14.059 5.5,15C 6.54896,15.4922 7.54896,15.3256 8.5,14.5C 9.45189,16.0453 9.78522,17.712 9.5,19.5C 7.5,19.5 5.5,19.5 3.5,19.5C 3.5,14.5 3.5,9.5 3.5,4.5 Z"/></g>
<g><path style="opacity:1" fill="#c2b380" d="M 13.5,13.5 C 13.5,15.5 13.5,17.5 13.5,19.5C 15.8333,19.5 18.1667,19.5 20.5,19.5C 18.1667,20.1667 15.8333,20.8333 13.5,21.5C 11.901,21.7678 10.5676,21.4345 9.5,20.5C 10.1657,17.9723 10.8324,15.3056 11.5,12.5C 12.1835,12.8627 12.8501,13.1961 13.5,13.5 Z"/></g>
<g><path style="opacity:1" fill="#beb083" d="M 22.5,0.5 C 22.8333,0.5 23.1667,0.5 23.5,0.5C 23.5,7.83333 23.5,15.1667 23.5,22.5C 22.8333,22.5 22.1667,22.5 21.5,22.5C 19.0521,21.5269 16.3854,21.1936 13.5,21.5C 15.8333,20.8333 18.1667,20.1667 20.5,19.5C 20.5,14.1667 20.5,8.83333 20.5,3.5C 21.3019,4.95161 21.8019,6.61828 22,8.5C 22.4974,5.85397 22.6641,3.1873 22.5,0.5 Z"/></g>
<g><path style="opacity:1" fill="#d7c68d" d="M 2.5,4.5 C 2.5,9.83333 2.5,15.1667 2.5,20.5C 4.83333,20.5 7.16667,20.5 9.5,20.5C 10.5676,21.4345 11.901,21.7678 13.5,21.5C 16.3854,21.1936 19.0521,21.5269 21.5,22.5C 14.5,22.5 7.5,22.5 0.5,22.5C 0.5,17.5 0.5,12.5 0.5,7.5C 1.16667,6.5 1.83333,5.5 2.5,4.5 Z"/></g>
<g><path style="opacity:1" fill="#2e2b1f" d="M -0.5,-0.5 C 7.5,-0.5 15.5,-0.5 23.5,-0.5C 23.5,-0.166667 23.5,0.166667 23.5,0.5C 23.1667,0.5 22.8333,0.5 22.5,0.5C 15.1667,0.5 7.83333,0.5 0.5,0.5C 0.5,2.83333 0.5,5.16667 0.5,7.5C 0.5,12.5 0.5,17.5 0.5,22.5C 7.5,22.5 14.5,22.5 21.5,22.5C 22.1667,22.5 22.8333,22.5 23.5,22.5C 23.5,22.8333 23.5,23.1667 23.5,23.5C 15.5,23.5 7.5,23.5 -0.5,23.5C -0.5,15.5 -0.5,7.5 -0.5,-0.5 Z"/></g>
</svg>
