<?xml version="1.0" encoding="UTF-8"?>
<!DOCTYPE svg PUBLIC "-//W3C//DTD SVG 1.1//EN" "http://www.w3.org/Graphics/SVG/1.1/DTD/svg11.dtd">
<svg xmlns="http://www.w3.org/2000/svg" version="1.1" width="24px" height="24px" style="shape-rendering:geometricPrecision; text-rendering:geometricPrecision; image-rendering:optimizeQuality; fill-rule:evenodd; clip-rule:evenodd" xmlns:xlink="http://www.w3.org/1999/xlink">
<g><path style="opacity:0.769" fill="#3a60a2" d="M 23.5,2.5 C 23.5,4.83333 23.5,7.16667 23.5,9.5C 23.1667,9.5 22.8333,9.5 22.5,9.5C 22.7678,7.90097 22.4345,6.56764 21.5,5.5C 21.6107,4.88258 21.944,4.38258 22.5,4C 17.5,3.33333 12.5,3.33333 7.5,4C 8.05596,4.38258 8.38929,4.88258 8.5,5.5C 8.16667,5.5 7.83333,5.5 7.5,5.5C 5.81018,5.85637 4.81018,6.85637 4.5,8.5C 3.29208,9.23411 1.95875,9.56745 0.5,9.5C 0.5,10.5 0.5,11.5 0.5,12.5C 0.5,15.1667 0.5,17.8333 0.5,20.5C 0.5,20.8333 0.5,21.1667 0.5,21.5C 0.166667,21.5 -0.166667,21.5 -0.5,21.5C -0.5,17.1667 -0.5,12.8333 -0.5,8.5C 0.5,8.5 1.5,8.5 2.5,8.5C 2.5,7.5 2.5,6.5 2.5,5.5C 4.3588,5.53909 5.69213,4.70576 6.5,3C 12.1569,2.50058 17.8236,2.33391 23.5,2.5 Z"/></g>
<g><path style="opacity:1" fill="#dbe3f0" d="M 21.5,5.5 C 21.1667,5.5 20.8333,5.5 20.5,5.5C 16.8333,4.16667 13.1667,4.16667 9.5,5.5C 9.16667,5.5 8.83333,5.5 8.5,5.5C 8.38929,4.88258 8.05596,4.38258 7.5,4C 12.5,3.33333 17.5,3.33333 22.5,4C 21.944,4.38258 21.6107,4.88258 21.5,5.5 Z"/></g>
<g><path style="opacity:1" fill="#f2f5f9" d="M 9.5,5.5 C 13.1667,4.16667 16.8333,4.16667 20.5,5.5C 19.0384,6.45773 17.7051,7.62439 16.5,9C 15.0715,9.57906 13.7382,9.41239 12.5,8.5C 11.8333,7.16667 10.8333,6.16667 9.5,5.5 Z"/></g>
<g><path style="opacity:1" fill="#cfe3f2" d="M 21.5,5.5 C 22.4345,6.56764 22.7678,7.90097 22.5,9.5C 20.9317,10.4731 19.265,10.6397 17.5,10C 19.0414,8.62879 20.3747,7.12879 21.5,5.5 Z"/></g>
<g><path style="opacity:1" fill="#b7cbe1" d="M 7.5,5.5 C 7.83333,5.5 8.16667,5.5 8.5,5.5C 8.83333,5.5 9.16667,5.5 9.5,5.5C 10.8333,6.16667 11.8333,7.16667 12.5,8.5C 12.5,9.16667 12.5,9.83333 12.5,10.5C 10.8333,10.5 9.16667,10.5 7.5,10.5C 7.5,8.83333 7.5,7.16667 7.5,5.5 Z"/></g>
<g><path style="opacity:1" fill="#93aacb" d="M 4.5,8.5 C 4.5,8.83333 4.5,9.16667 4.5,9.5C 4.5,10.8333 4.5,12.1667 4.5,13.5C 4.16667,13.5 3.83333,13.5 3.5,13.5C 2.39105,13.4431 1.39105,13.1098 0.5,12.5C 0.5,11.5 0.5,10.5 0.5,9.5C 1.95875,9.56745 3.29208,9.23411 4.5,8.5 Z"/></g>
<g><path style="opacity:1" fill="#bac9e4" d="M 7.5,10.5 C 9.16667,10.5 10.8333,10.5 12.5,10.5C 15.1003,11.4676 17.4336,12.8009 19.5,14.5C 15.5,14.5 11.5,14.5 7.5,14.5C 7.5,13.1667 7.5,11.8333 7.5,10.5 Z"/></g>
<g><path style="opacity:1" fill="#97a9c8" d="M 20.5,5.5 C 20.8333,5.5 21.1667,5.5 21.5,5.5C 20.3747,7.12879 19.0414,8.62879 17.5,10C 19.265,10.6397 20.9317,10.4731 22.5,9.5C 22.5,11.1667 22.5,12.8333 22.5,14.5C 21.5,14.5 20.5,14.5 19.5,14.5C 17.4336,12.8009 15.1003,11.4676 12.5,10.5C 12.5,9.83333 12.5,9.16667 12.5,8.5C 13.7382,9.41239 15.0715,9.57906 16.5,9C 17.7051,7.62439 19.0384,6.45773 20.5,5.5 Z"/></g>
<g><path style="opacity:1" fill="#7a93b8" d="M 7.5,5.5 C 7.5,7.16667 7.5,8.83333 7.5,10.5C 7.5,11.8333 7.5,13.1667 7.5,14.5C 7.5,14.8333 7.5,15.1667 7.5,15.5C 6.98511,13.2488 5.98511,11.2488 4.5,9.5C 4.5,9.16667 4.5,8.83333 4.5,8.5C 4.81018,6.85637 5.81018,5.85637 7.5,5.5 Z"/></g>
<g><path style="opacity:1" fill="#bdcde6" d="M 4.5,9.5 C 5.98511,11.2488 6.98511,13.2488 7.5,15.5C 10.5,15.5 13.5,15.5 16.5,15.5C 12.9707,17.4228 8.9707,18.0894 4.5,17.5C 4.5,16.1667 4.5,14.8333 4.5,13.5C 4.5,12.1667 4.5,10.8333 4.5,9.5 Z"/></g>
<g><path style="opacity:1" fill="#405d8a" d="M 22.5,9.5 C 22.8333,9.5 23.1667,9.5 23.5,9.5C 23.5,11.5 23.5,13.5 23.5,15.5C 22.5,15.5 21.5,15.5 20.5,15.5C 19.8333,16.5 19.1667,17.5 18.5,18.5C 18.7148,16.8212 18.0481,15.8212 16.5,15.5C 13.5,15.5 10.5,15.5 7.5,15.5C 7.5,15.1667 7.5,14.8333 7.5,14.5C 11.5,14.5 15.5,14.5 19.5,14.5C 20.5,14.5 21.5,14.5 22.5,14.5C 22.5,12.8333 22.5,11.1667 22.5,9.5 Z"/></g>
<g><path style="opacity:1" fill="#b8c9e2" d="M 0.5,12.5 C 1.39105,13.1098 2.39105,13.4431 3.5,13.5C 3.5,15.5 3.5,17.5 3.5,19.5C 6.16667,19.5 8.83333,19.5 11.5,19.5C 8.03808,20.4816 4.37141,20.815 0.5,20.5C 0.5,17.8333 0.5,15.1667 0.5,12.5 Z"/></g>
<g><path style="opacity:1" fill="#8398bb" d="M 3.5,13.5 C 3.83333,13.5 4.16667,13.5 4.5,13.5C 4.5,14.8333 4.5,16.1667 4.5,17.5C 8.9707,18.0894 12.9707,17.4228 16.5,15.5C 18.0481,15.8212 18.7148,16.8212 18.5,18.5C 17.5,18.5 16.5,18.5 15.5,18.5C 15.7148,20.1788 15.0481,21.1788 13.5,21.5C 13.5,20.1667 12.8333,19.5 11.5,19.5C 8.83333,19.5 6.16667,19.5 3.5,19.5C 3.5,17.5 3.5,15.5 3.5,13.5 Z"/></g>
<g><path style="opacity:1" fill="#b3c4de" d="M 11.5,19.5 C 12.8333,19.5 13.5,20.1667 13.5,21.5C 9.16667,21.5 4.83333,21.5 0.5,21.5C 0.5,21.1667 0.5,20.8333 0.5,20.5C 4.37141,20.815 8.03808,20.4816 11.5,19.5 Z"/></g>
<g><path style="opacity:0.5" fill="#1c3e6f" d="M 20.5,15.5 C 20.5,16.8333 20.5,18.1667 20.5,19.5C 18.6412,19.4609 17.3079,20.2942 16.5,22C 10.8431,22.4994 5.17645,22.6661 -0.5,22.5C -0.5,22.1667 -0.5,21.8333 -0.5,21.5C -0.166667,21.5 0.166667,21.5 0.5,21.5C 4.83333,21.5 9.16667,21.5 13.5,21.5C 15.0481,21.1788 15.7148,20.1788 15.5,18.5C 16.5,18.5 17.5,18.5 18.5,18.5C 19.1667,17.5 19.8333,16.5 20.5,15.5 Z"/></g>
</svg>
