<?xml version="1.0" encoding="UTF-8"?>
<!DOCTYPE svg PUBLIC "-//W3C//DTD SVG 1.1//EN" "http://www.w3.org/Graphics/SVG/1.1/DTD/svg11.dtd">
<svg xmlns="http://www.w3.org/2000/svg" version="1.1" width="24px" height="24px" style="shape-rendering:geometricPrecision; text-rendering:geometricPrecision; image-rendering:optimizeQuality; fill-rule:evenodd; clip-rule:evenodd" xmlns:xlink="http://www.w3.org/1999/xlink">
<g><path style="opacity:1" fill="#b8c8e2" d="M 16.5,0.5 C 18.4672,0.260572 20.3005,0.593906 22,1.5C 22.4992,6.1548 22.6658,10.8215 22.5,15.5C 21.5,15.5 20.5,15.5 19.5,15.5C 17.9379,11.6082 15.6046,8.27488 12.5,5.5C 13.4345,4.43236 13.7678,3.09903 13.5,1.5C 14.791,1.73731 15.791,1.40397 16.5,0.5 Z"/></g>
<g><path style="opacity:1" fill="#c5d8e6" d="M -0.5,-0.5 C 0.166667,-0.5 0.833333,-0.5 1.5,-0.5C 6.30537,0.487173 11.3054,0.820506 16.5,0.5C 15.791,1.40397 14.791,1.73731 13.5,1.5C 13.7678,3.09903 13.4345,4.43236 12.5,5.5C 9.08344,3.62755 5.41677,2.62755 1.5,2.5C 1.5,3.83333 1.5,5.16667 1.5,6.5C 7.40602,6.08229 11.906,8.41563 15,13.5C 16.2525,16.0135 16.7525,18.6802 16.5,21.5C 16.5,21.8333 16.5,22.1667 16.5,22.5C 11.1667,22.5 5.83333,22.5 0.5,22.5C 0.824527,15.3134 0.491194,8.31337 -0.5,1.5C -0.5,0.833333 -0.5,0.166667 -0.5,-0.5 Z"/></g>
<g><path style="opacity:0.784" fill="#275692" d="M 1.5,-0.5 C 8.83333,-0.5 16.1667,-0.5 23.5,-0.5C 23.5,7.5 23.5,15.5 23.5,23.5C 15.5,23.5 7.5,23.5 -0.5,23.5C -0.5,16.1667 -0.5,8.83333 -0.5,1.5C 0.491194,8.31337 0.824527,15.3134 0.5,22.5C 5.83333,22.5 11.1667,22.5 16.5,22.5C 18.5,22.5 20.5,22.5 22.5,22.5C 22.5,20.1667 22.5,17.8333 22.5,15.5C 22.6658,10.8215 22.4992,6.1548 22,1.5C 20.3005,0.593906 18.4672,0.260572 16.5,0.5C 11.3054,0.820506 6.30537,0.487173 1.5,-0.5 Z"/></g>
<g><path style="opacity:1" fill="#7b8fb2" d="M 19.5,15.5 C 20.5,15.5 21.5,15.5 22.5,15.5C 22.5,17.8333 22.5,20.1667 22.5,22.5C 20.5,22.5 18.5,22.5 16.5,22.5C 16.5,22.1667 16.5,21.8333 16.5,21.5C 17.8333,21.5 19.1667,21.5 20.5,21.5C 20.6747,19.3792 20.3414,17.3792 19.5,15.5 Z"/></g>
<g><path style="opacity:1" fill="#244272" d="M 2.5,16.5 C 6.16124,16.3501 7.16124,17.8501 5.5,21C 1.70713,21.4866 0.707131,19.9866 2.5,16.5 Z"/></g>
<g><path style="opacity:1" fill="#224070" d="M 1.5,9.5 C 9.16667,9.83333 13.1667,13.8333 13.5,21.5C 12.5,21.5 11.5,21.5 10.5,21.5C 9.83333,16.1667 6.83333,13.1667 1.5,12.5C 1.5,11.5 1.5,10.5 1.5,9.5 Z"/></g>
<g><path style="opacity:1" fill="#254272" d="M 12.5,5.5 C 15.6046,8.27488 17.9379,11.6082 19.5,15.5C 20.3414,17.3792 20.6747,19.3792 20.5,21.5C 19.1667,21.5 17.8333,21.5 16.5,21.5C 16.7525,18.6802 16.2525,16.0135 15,13.5C 11.906,8.41563 7.40602,6.08229 1.5,6.5C 1.5,5.16667 1.5,3.83333 1.5,2.5C 5.41677,2.62755 9.08344,3.62755 12.5,5.5 Z"/></g>
</svg>
