<?xml version="1.0" encoding="UTF-8"?>
<!DOCTYPE svg PUBLIC "-//W3C//DTD SVG 1.1//EN" "http://www.w3.org/Graphics/SVG/1.1/DTD/svg11.dtd">
<svg xmlns="http://www.w3.org/2000/svg" version="1.1" width="24px" height="24px" style="shape-rendering:geometricPrecision; text-rendering:geometricPrecision; image-rendering:optimizeQuality; fill-rule:evenodd; clip-rule:evenodd" xmlns:xlink="http://www.w3.org/1999/xlink">
<g><path style="opacity:0.824" fill="#386eaa" d="M 6.5,0.5 C 6.5,0.166667 6.5,-0.166667 6.5,-0.5C 9.83333,-0.5 13.1667,-0.5 16.5,-0.5C 17.6935,0.271873 18.6935,1.27187 19.5,2.5C 15.3263,0.936021 10.993,0.269354 6.5,0.5 Z"/></g>
<g><path style="opacity:1" fill="#f5f9fb" d="M 21.5,4.5 C 21.2865,6.14387 21.6198,7.64387 22.5,9C 19.0992,10.6243 18.0992,13.1243 19.5,16.5C 18.1196,15.2935 16.9529,15.6269 16,17.5C 15.6667,15.8333 15.3333,14.1667 15,12.5C 13.6976,11.9152 12.531,11.2485 11.5,10.5C 12.0147,8.10551 12.6814,5.77218 13.5,3.5C 14.1499,3.19607 14.8165,2.86273 15.5,2.5C 17.4496,3.37209 19.4496,4.03876 21.5,4.5 Z"/></g>
<g><path style="opacity:1" fill="#d9eaf3" d="M 13.5,3.5 C 12.6814,5.77218 12.0147,8.10551 11.5,10.5C 10.1266,10.3433 8.79323,10.51 7.5,11C 8.57425,11.7387 9.24092,12.7387 9.5,14C 7.98718,15.8792 7.32051,18.0459 7.5,20.5C 6.59872,19.7095 5.93205,18.7095 5.5,17.5C 4.33503,14.8529 3.16836,12.1862 2,9.5C 1.84034,4.4891 4.34034,1.82243 9.5,1.5C 11.3328,1.58544 12.6661,2.2521 13.5,3.5 Z"/></g>
<g><path style="opacity:1" fill="#749ec5" d="M 6.5,0.5 C 10.993,0.269354 15.3263,0.936021 19.5,2.5C 20.5,2.83333 21.1667,3.5 21.5,4.5C 19.4496,4.03876 17.4496,3.37209 15.5,2.5C 14.8165,2.86273 14.1499,3.19607 13.5,3.5C 12.6661,2.2521 11.3328,1.58544 9.5,1.5C 4.34034,1.82243 1.84034,4.4891 2,9.5C 3.16836,12.1862 4.33503,14.8529 5.5,17.5C 1.57067,14.9513 -0.095995,11.2846 0.5,6.5C 1.5,3.5 3.5,1.5 6.5,0.5 Z"/></g>
<g><path style="opacity:1" fill="#3c709f" d="M 21.5,4.5 C 22.1667,5.16667 22.8333,5.83333 23.5,6.5C 23.5,9.83333 23.5,13.1667 23.5,16.5C 21.5,19.1667 19.1667,21.5 16.5,23.5C 13.1667,23.5 9.83333,23.5 6.5,23.5C 3.83333,21.5 1.5,19.1667 -0.5,16.5C -0.5,13.1667 -0.5,9.83333 -0.5,6.5C -0.166667,6.5 0.166667,6.5 0.5,6.5C -0.095995,11.2846 1.57067,14.9513 5.5,17.5C 5.93205,18.7095 6.59872,19.7095 7.5,20.5C 12.4103,21.4128 16.4103,20.0795 19.5,16.5C 18.0992,13.1243 19.0992,10.6243 22.5,9C 21.6198,7.64387 21.2865,6.14387 21.5,4.5 Z"/></g>
<g><path style="opacity:1" fill="#7eafcf" d="M 11.5,10.5 C 12.531,11.2485 13.6976,11.9152 15,12.5C 15.3333,14.1667 15.6667,15.8333 16,17.5C 16.9529,15.6269 18.1196,15.2935 19.5,16.5C 16.4103,20.0795 12.4103,21.4128 7.5,20.5C 7.32051,18.0459 7.98718,15.8792 9.5,14C 9.24092,12.7387 8.57425,11.7387 7.5,11C 8.79323,10.51 10.1266,10.3433 11.5,10.5 Z"/></g>
</svg>
