<?xml version="1.0" encoding="UTF-8"?>
<!DOCTYPE svg PUBLIC "-//W3C//DTD SVG 1.1//EN" "http://www.w3.org/Graphics/SVG/1.1/DTD/svg11.dtd">
<svg xmlns="http://www.w3.org/2000/svg" version="1.1" width="24px" height="24px" style="shape-rendering:geometricPrecision; text-rendering:geometricPrecision; image-rendering:optimizeQuality; fill-rule:evenodd; clip-rule:evenodd" xmlns:xlink="http://www.w3.org/1999/xlink">
<g><path style="opacity:0.783" fill="#223a77" d="M 4.5,-0.5 C 6.83333,-0.5 9.16667,-0.5 11.5,-0.5C 12.1667,0.166667 12.8333,0.833333 13.5,1.5C 13.1667,1.5 12.8333,1.5 12.5,1.5C 12.1667,1.5 11.8333,1.5 11.5,1.5C 9.38879,0.258442 7.38879,0.258442 5.5,1.5C 5.16667,1.5 4.83333,1.5 4.5,1.5C 4.5,1.16667 4.5,0.833333 4.5,0.5C 4.5,0.166667 4.5,-0.166667 4.5,-0.5 Z"/></g>
<g><path style="opacity:0.004" fill="#011e63" d="M 11.5,-0.5 C 12.5,-0.5 13.5,-0.5 14.5,-0.5C 15.1667,0.5 15.8333,1.5 16.5,2.5C 16.1667,2.5 15.8333,2.5 15.5,2.5C 14.8333,2.16667 14.1667,1.83333 13.5,1.5C 12.8333,0.833333 12.1667,0.166667 11.5,-0.5 Z"/></g>
<g><path style="opacity:1" fill="#deedf3" d="M 4.5,1.5 C 4.83333,1.5 5.16667,1.5 5.5,1.5C 6.67504,1.28099 7.67504,1.61432 8.5,2.5C 8.37642,3.10667 8.04309,3.44001 7.5,3.5C 6.5,3.5 5.5,3.5 4.5,3.5C 4.5,2.83333 4.5,2.16667 4.5,1.5 Z"/></g>
<g><path style="opacity:0.061" fill="#092267" d="M 4.5,0.5 C 4.5,0.833333 4.5,1.16667 4.5,1.5C 4.5,2.16667 4.5,2.83333 4.5,3.5C 4.5,3.83333 4.5,4.16667 4.5,4.5C 3.5,4.5 2.5,4.5 1.5,4.5C 1.16667,4.5 0.833333,4.5 0.5,4.5C 1.5,2.83333 2.83333,1.5 4.5,0.5 Z"/></g>
<g><path style="opacity:1" fill="#c6d7e5" d="M 11.5,1.5 C 11.8333,1.5 12.1667,1.5 12.5,1.5C 12.5,2.16667 12.5,2.83333 12.5,3.5C 11.7777,4.55114 10.7777,5.21781 9.5,5.5C 8.83333,5.5 8.5,5.16667 8.5,4.5C 9.5,3.5 10.5,2.5 11.5,1.5 Z"/></g>
<g><path style="opacity:1" fill="#b2c8de" d="M 12.5,1.5 C 12.8333,1.5 13.1667,1.5 13.5,1.5C 14.1667,1.83333 14.8333,2.16667 15.5,2.5C 15.8333,3.16667 16.1667,3.83333 16.5,4.5C 15.8333,4.5 15.1667,4.5 14.5,4.5C 14.1583,3.66175 13.4916,3.32842 12.5,3.5C 12.5,2.83333 12.5,2.16667 12.5,1.5 Z"/></g>
<g><path style="opacity:1" fill="#93acce" d="M 4.5,4.5 C 4.5,4.16667 4.5,3.83333 4.5,3.5C 5.5,3.5 6.5,3.5 7.5,3.5C 7.5,4.16667 7.83333,4.5 8.5,4.5C 8.5,5.16667 8.83333,5.5 9.5,5.5C 9.5,5.83333 9.5,6.16667 9.5,6.5C 9.16667,6.5 8.83333,6.5 8.5,6.5C 7.39514,5.39952 6.06181,4.73286 4.5,4.5 Z"/></g>
<g><path style="opacity:1" fill="#cbdbe8" d="M 5.5,1.5 C 7.38879,0.258442 9.38879,0.258442 11.5,1.5C 10.5,2.5 9.5,3.5 8.5,4.5C 7.83333,4.5 7.5,4.16667 7.5,3.5C 8.04309,3.44001 8.37642,3.10667 8.5,2.5C 7.67504,1.61432 6.67504,1.28099 5.5,1.5 Z"/></g>
<g><path style="opacity:0.569" fill="#102769" d="M 15.5,2.5 C 15.8333,2.5 16.1667,2.5 16.5,2.5C 18.0269,2.42702 19.0269,3.09368 19.5,4.5C 19.5,5.16667 19.1667,5.5 18.5,5.5C 18.5,4.83333 18.1667,4.5 17.5,4.5C 17.1667,4.5 16.8333,4.5 16.5,4.5C 16.1667,3.83333 15.8333,3.16667 15.5,2.5 Z"/></g>
<g><path style="opacity:1" fill="#b7cbe0" d="M 1.5,5.5 C 1.5,5.16667 1.5,4.83333 1.5,4.5C 2.5,4.5 3.5,4.5 4.5,4.5C 4.5,5.16667 4.5,5.83333 4.5,6.5C 3.83333,6.5 3.16667,6.5 2.5,6.5C 2.5,5.83333 2.16667,5.5 1.5,5.5 Z"/></g>
<g><path style="opacity:1" fill="#b4c8db" d="M 12.5,3.5 C 13.4916,3.32842 14.1583,3.66175 14.5,4.5C 14.1667,4.5 13.8333,4.5 13.5,4.5C 12.7777,5.55114 11.7777,6.21781 10.5,6.5C 10.1667,6.5 9.83333,6.5 9.5,6.5C 9.5,6.16667 9.5,5.83333 9.5,5.5C 10.7777,5.21781 11.7777,4.55114 12.5,3.5 Z"/></g>
<g><path style="opacity:1" fill="#a2b9d0" d="M 13.5,4.5 C 13.8333,4.5 14.1667,4.5 14.5,4.5C 15.1667,4.5 15.8333,4.5 16.5,4.5C 16.8333,4.5 17.1667,4.5 17.5,4.5C 17.5,5.16667 17.1667,5.5 16.5,5.5C 15.391,5.55688 14.391,5.89022 13.5,6.5C 13.5,5.83333 13.5,5.16667 13.5,4.5 Z"/></g>
<g><path style="opacity:0.325" fill="#163071" d="M 19.5,4.5 C 20.6737,5.51369 21.3404,6.84702 21.5,8.5C 21.5,8.83333 21.5,9.16667 21.5,9.5C 20.8333,8.83333 20.1667,8.16667 19.5,7.5C 19.1667,6.83333 18.8333,6.16667 18.5,5.5C 19.1667,5.5 19.5,5.16667 19.5,4.5 Z"/></g>
<g><path style="opacity:1" fill="#264487" d="M 4.5,4.5 C 6.06181,4.73286 7.39514,5.39952 8.5,6.5C 8.5,6.83333 8.5,7.16667 8.5,7.5C 7.83333,7.5 7.5,7.83333 7.5,8.5C 6.83333,8.16667 6.16667,7.83333 5.5,7.5C 5.5,6.83333 5.16667,6.5 4.5,6.5C 4.5,5.83333 4.5,5.16667 4.5,4.5 Z"/></g>
<g><path style="opacity:1" fill="#a8bdd3" d="M 13.5,4.5 C 13.5,5.16667 13.5,5.83333 13.5,6.5C 13.1583,7.33825 12.4916,7.67158 11.5,7.5C 10.8333,7.5 10.5,7.16667 10.5,6.5C 11.7777,6.21781 12.7777,5.55114 13.5,4.5 Z"/></g>
<g><path style="opacity:1" fill="#dee9f0" d="M 1.5,5.5 C 2.16667,5.5 2.5,5.83333 2.5,6.5C 2.78448,8.41467 2.45115,10.0813 1.5,11.5C 1.16667,11.5 0.833333,11.5 0.5,11.5C 0.205283,9.26465 0.538616,7.26465 1.5,5.5 Z"/></g>
<g><path style="opacity:1" fill="#446196" d="M 8.5,7.5 C 8.5,7.16667 8.5,6.83333 8.5,6.5C 8.83333,6.5 9.16667,6.5 9.5,6.5C 9.83333,6.5 10.1667,6.5 10.5,6.5C 10.5,7.16667 10.8333,7.5 11.5,7.5C 11.5,8.16667 11.8333,8.5 12.5,8.5C 12.8333,9.5 13.5,10.1667 14.5,10.5C 14.5,11.1667 14.8333,11.5 15.5,11.5C 15.5,12.1667 15.8333,12.5 16.5,12.5C 16.5,13.1667 16.8333,13.5 17.5,13.5C 18.1667,14.5 18.8333,15.5 19.5,16.5C 16.5691,14.9092 13.9024,12.9092 11.5,10.5C 10.8333,9.16667 9.83333,8.16667 8.5,7.5 Z"/></g>
<g><path style="opacity:1" fill="#98afc9" d="M 16.5,5.5 C 15.7377,7.26242 14.4044,8.26242 12.5,8.5C 11.8333,8.5 11.5,8.16667 11.5,7.5C 12.4916,7.67158 13.1583,7.33825 13.5,6.5C 14.391,5.89022 15.391,5.55688 16.5,5.5 Z"/></g>
<g><path style="opacity:1" fill="#87a1c1" d="M 17.5,4.5 C 18.1667,4.5 18.5,4.83333 18.5,5.5C 18.8333,6.16667 19.1667,6.83333 19.5,7.5C 19.5,7.83333 19.5,8.16667 19.5,8.5C 17.6776,8.83084 16.0109,9.49751 14.5,10.5C 13.5,10.1667 12.8333,9.5 12.5,8.5C 14.4044,8.26242 15.7377,7.26242 16.5,5.5C 17.1667,5.5 17.5,5.16667 17.5,4.5 Z"/></g>
<g><path style="opacity:0.78" fill="#1a3473" d="M -0.5,4.5 C -0.166667,4.5 0.166667,4.5 0.5,4.5C 0.833333,4.5 1.16667,4.5 1.5,4.5C 1.5,4.83333 1.5,5.16667 1.5,5.5C 0.538616,7.26465 0.205283,9.26465 0.5,11.5C 0.166667,11.5 -0.166667,11.5 -0.5,11.5C -0.5,9.16667 -0.5,6.83333 -0.5,4.5 Z"/></g>
<g><path style="opacity:1" fill="#c6d7e4" d="M 4.5,6.5 C 5.16667,6.5 5.5,6.83333 5.5,7.5C 5.55688,8.60895 5.89022,9.60895 6.5,10.5C 5.83333,10.5 5.16667,10.5 4.5,10.5C 4.5,9.16667 4.5,7.83333 4.5,6.5 Z"/></g>
<g><path style="opacity:1" fill="#6884b0" d="M 5.5,7.5 C 6.16667,7.83333 6.83333,8.16667 7.5,8.5C 8.16667,9.83333 9.16667,10.8333 10.5,11.5C 11.8333,13.1667 13.1667,14.8333 14.5,16.5C 14.5,16.8333 14.5,17.1667 14.5,17.5C 13.8333,17.1667 13.1667,16.8333 12.5,16.5C 12.1667,15.5 11.5,14.8333 10.5,14.5C 10.5,13.8333 10.1667,13.5 9.5,13.5C 9.5,12.8333 9.16667,12.5 8.5,12.5C 8.5,11.8333 8.16667,11.5 7.5,11.5C 7.5,10.8333 7.16667,10.5 6.5,10.5C 5.89022,9.60895 5.55688,8.60895 5.5,7.5 Z"/></g>
<g><path style="opacity:1" fill="#113074" d="M 8.5,7.5 C 9.83333,8.16667 10.8333,9.16667 11.5,10.5C 10.8333,10.5 10.5,10.8333 10.5,11.5C 9.16667,10.8333 8.16667,9.83333 7.5,8.5C 7.5,7.83333 7.83333,7.5 8.5,7.5 Z"/></g>
<g><path style="opacity:0.039" fill="#042266" d="M 21.5,8.5 C 22.1667,8.83333 22.8333,9.16667 23.5,9.5C 23.5,10.5 23.5,11.5 23.5,12.5C 23.1667,12.5 22.8333,12.5 22.5,12.5C 22.6716,11.5084 22.3382,10.8417 21.5,10.5C 21.5,10.1667 21.5,9.83333 21.5,9.5C 21.5,9.16667 21.5,8.83333 21.5,8.5 Z"/></g>
<g><path style="opacity:1" fill="#7590b3" d="M 19.5,8.5 C 19.5,8.83333 19.5,9.16667 19.5,9.5C 18.1667,10.1667 16.8333,10.8333 15.5,11.5C 14.8333,11.5 14.5,11.1667 14.5,10.5C 16.0109,9.49751 17.6776,8.83084 19.5,8.5 Z"/></g>
<g><path style="opacity:1" fill="#6e90bd" d="M 19.5,7.5 C 20.1667,8.16667 20.8333,8.83333 21.5,9.5C 21.5,9.83333 21.5,10.1667 21.5,10.5C 21.6716,11.4916 21.3382,12.1583 20.5,12.5C 20.1667,11.8333 19.8333,11.1667 19.5,10.5C 19.5,10.1667 19.5,9.83333 19.5,9.5C 19.5,9.16667 19.5,8.83333 19.5,8.5C 19.5,8.16667 19.5,7.83333 19.5,7.5 Z"/></g>
<g><path style="opacity:1" fill="#e0ecf2" d="M 2.5,6.5 C 3.16667,6.5 3.83333,6.5 4.5,6.5C 4.5,7.83333 4.5,9.16667 4.5,10.5C 4.5,11.1667 4.5,11.8333 4.5,12.5C 3.60895,13.1098 2.60895,13.4431 1.5,13.5C 1.5,12.8333 1.5,12.1667 1.5,11.5C 2.45115,10.0813 2.78448,8.41467 2.5,6.5 Z"/></g>
<g><path style="opacity:1" fill="#132f71" d="M 11.5,10.5 C 13.9024,12.9092 16.5691,14.9092 19.5,16.5C 20.5,16.5 21.5,16.5 22.5,16.5C 22.5,15.1667 22.5,13.8333 22.5,12.5C 22.8333,12.5 23.1667,12.5 23.5,12.5C 23.5,14.1667 23.5,15.8333 23.5,17.5C 23.1667,17.5 22.8333,17.5 22.5,17.5C 20.5853,17.2155 18.9187,17.5489 17.5,18.5C 16.8333,18.1667 16.1667,17.8333 15.5,17.5C 15.5,16.8333 15.1667,16.5 14.5,16.5C 13.1667,14.8333 11.8333,13.1667 10.5,11.5C 10.5,10.8333 10.8333,10.5 11.5,10.5 Z"/></g>
<g><path style="opacity:1" fill="#6985aa" d="M 19.5,9.5 C 19.5,9.83333 19.5,10.1667 19.5,10.5C 18.7777,11.5511 17.7777,12.2178 16.5,12.5C 15.8333,12.5 15.5,12.1667 15.5,11.5C 16.8333,10.8333 18.1667,10.1667 19.5,9.5 Z"/></g>
<g><path style="opacity:1" fill="#bfd1df" d="M 6.5,10.5 C 7.16667,10.5 7.5,10.8333 7.5,11.5C 6.65859,13.3792 6.32526,15.3792 6.5,17.5C 6.16667,17.5 5.83333,17.5 5.5,17.5C 5.29803,15.0504 5.63137,12.717 6.5,10.5 Z"/></g>
<g><path style="opacity:1" fill="#5e7aa2" d="M 19.5,10.5 C 19.8333,11.1667 20.1667,11.8333 20.5,12.5C 19.609,13.1098 18.609,13.4431 17.5,13.5C 16.8333,13.5 16.5,13.1667 16.5,12.5C 17.7777,12.2178 18.7777,11.5511 19.5,10.5 Z"/></g>
<g><path style="opacity:0.012" fill="#223473" d="M -0.5,11.5 C -0.166667,11.5 0.166667,11.5 0.5,11.5C 0.833333,11.5 1.16667,11.5 1.5,11.5C 1.5,12.1667 1.5,12.8333 1.5,13.5C 1.83333,14.5 2.5,15.1667 3.5,15.5C 3.83333,16.1667 4.16667,16.8333 4.5,17.5C 3.83333,17.5 3.16667,17.5 2.5,17.5C 1.83333,16.1667 0.833333,15.1667 -0.5,14.5C -0.5,13.5 -0.5,12.5 -0.5,11.5 Z"/></g>
<g><path style="opacity:1" fill="#b0c3d5" d="M 7.5,11.5 C 8.16667,11.5 8.5,11.8333 8.5,12.5C 7.962,14.1172 7.62867,15.7839 7.5,17.5C 7.16667,17.5 6.83333,17.5 6.5,17.5C 6.32526,15.3792 6.65859,13.3792 7.5,11.5 Z"/></g>
<g><path style="opacity:1" fill="#4c6c9b" d="M 21.5,10.5 C 22.3382,10.8417 22.6716,11.5084 22.5,12.5C 22.5,13.8333 22.5,15.1667 22.5,16.5C 21.5,16.5 20.5,16.5 19.5,16.5C 18.8333,15.5 18.1667,14.5 17.5,13.5C 18.609,13.4431 19.609,13.1098 20.5,12.5C 21.3382,12.1583 21.6716,11.4916 21.5,10.5 Z"/></g>
<g><path style="opacity:1" fill="#d4e0ea" d="M 4.5,12.5 C 4.73731,13.791 4.40397,14.791 3.5,15.5C 2.5,15.1667 1.83333,14.5 1.5,13.5C 2.60895,13.4431 3.60895,13.1098 4.5,12.5 Z"/></g>
<g><path style="opacity:1" fill="#ccdbe7" d="M 4.5,10.5 C 5.16667,10.5 5.83333,10.5 6.5,10.5C 5.63137,12.717 5.29803,15.0504 5.5,17.5C 5.16667,17.5 4.83333,17.5 4.5,17.5C 4.16667,16.8333 3.83333,16.1667 3.5,15.5C 4.40397,14.791 4.73731,13.791 4.5,12.5C 4.5,11.8333 4.5,11.1667 4.5,10.5 Z"/></g>
<g><path style="opacity:1" fill="#a0b6cb" d="M 8.5,12.5 C 9.16667,12.5 9.5,12.8333 9.5,13.5C 8.962,15.1172 8.62867,16.7839 8.5,18.5C 7.83333,18.5 7.5,18.1667 7.5,17.5C 7.62867,15.7839 7.962,14.1172 8.5,12.5 Z"/></g>
<g><path style="opacity:1" fill="#adbed2" d="M 4.5,17.5 C 4.83333,17.5 5.16667,17.5 5.5,17.5C 5.83333,17.5 6.16667,17.5 6.5,17.5C 6.83333,17.5 7.16667,17.5 7.5,17.5C 7.5,18.1667 7.83333,18.5 8.5,18.5C 8.5,19.1667 8.83333,19.5 9.5,19.5C 9.5,19.8333 9.5,20.1667 9.5,20.5C 7.93819,20.2671 6.60486,19.6005 5.5,18.5C 4.83333,18.5 4.5,18.1667 4.5,17.5 Z"/></g>
<g><path style="opacity:1" fill="#91a7c2" d="M 9.5,13.5 C 10.1667,13.5 10.5,13.8333 10.5,14.5C 10.3713,16.2161 10.038,17.8828 9.5,19.5C 8.83333,19.5 8.5,19.1667 8.5,18.5C 8.62867,16.7839 8.962,15.1172 9.5,13.5 Z"/></g>
<g><path style="opacity:0.047" fill="#032165" d="M 2.5,17.5 C 3.16667,17.5 3.83333,17.5 4.5,17.5C 4.5,18.1667 4.83333,18.5 5.5,18.5C 5.5,19.1667 5.5,19.8333 5.5,20.5C 4.16667,19.8333 3.16667,18.8333 2.5,17.5 Z"/></g>
<g><path style="opacity:1" fill="#869ebb" d="M 10.5,14.5 C 11.5,14.8333 12.1667,15.5 12.5,16.5C 12.2786,17.7348 11.6119,18.7348 10.5,19.5C 10.9569,20.2975 11.6236,20.6309 12.5,20.5C 12.1583,21.3382 11.4916,21.6716 10.5,21.5C 10.1667,21.5 9.83333,21.5 9.5,21.5C 9.5,21.1667 9.5,20.8333 9.5,20.5C 9.5,20.1667 9.5,19.8333 9.5,19.5C 10.038,17.8828 10.3713,16.2161 10.5,14.5 Z"/></g>
<g><path style="opacity:1" fill="#708aad" d="M 12.5,16.5 C 13.1667,16.8333 13.8333,17.1667 14.5,17.5C 13.8333,18.5 13.1667,19.5 12.5,20.5C 11.6236,20.6309 10.9569,20.2975 10.5,19.5C 11.6119,18.7348 12.2786,17.7348 12.5,16.5 Z"/></g>
<g><path style="opacity:0.31" fill="#092669" d="M 22.5,17.5 C 20.4864,19.1829 18.8198,21.1829 17.5,23.5C 15.8333,23.5 14.1667,23.5 12.5,23.5C 12.5,23.1667 12.5,22.8333 12.5,22.5C 13.5,22.5 14.5,22.5 15.5,22.5C 17.1042,21.713 17.7709,20.3797 17.5,18.5C 18.9187,17.5489 20.5853,17.2155 22.5,17.5 Z"/></g>
<g><path style="opacity:1" fill="#446190" d="M 15.5,17.5 C 16.1667,17.8333 16.8333,18.1667 17.5,18.5C 17.7709,20.3797 17.1042,21.713 15.5,22.5C 15.5,20.8333 15.5,19.1667 15.5,17.5 Z"/></g>
<g><path style="opacity:0.016" fill="#1a3271" d="M 5.5,18.5 C 6.60486,19.6005 7.93819,20.2671 9.5,20.5C 9.5,20.8333 9.5,21.1667 9.5,21.5C 8.83333,21.5 8.5,21.8333 8.5,22.5C 7.5,21.8333 6.5,21.1667 5.5,20.5C 5.5,19.8333 5.5,19.1667 5.5,18.5 Z"/></g>
<g><path style="opacity:1" fill="#5d78a1" d="M 14.5,16.5 C 15.1667,16.5 15.5,16.8333 15.5,17.5C 15.5,19.1667 15.5,20.8333 15.5,22.5C 14.5,22.5 13.5,22.5 12.5,22.5C 11.5084,22.6716 10.8417,22.3382 10.5,21.5C 11.4916,21.6716 12.1583,21.3382 12.5,20.5C 13.1667,19.5 13.8333,18.5 14.5,17.5C 14.5,17.1667 14.5,16.8333 14.5,16.5 Z"/></g>
<g><path style="opacity:0.043" fill="#042266" d="M 8.5,22.5 C 8.5,21.8333 8.83333,21.5 9.5,21.5C 9.83333,21.5 10.1667,21.5 10.5,21.5C 10.8417,22.3382 11.5084,22.6716 12.5,22.5C 12.5,22.8333 12.5,23.1667 12.5,23.5C 11.5,23.5 10.5,23.5 9.5,23.5C 9.5,22.8333 9.16667,22.5 8.5,22.5 Z"/></g>
</svg>
