<?xml version="1.0" encoding="UTF-8"?>
<!DOCTYPE svg PUBLIC "-//W3C//DTD SVG 1.1//EN" "http://www.w3.org/Graphics/SVG/1.1/DTD/svg11.dtd">
<svg xmlns="http://www.w3.org/2000/svg" version="1.1" width="24px" height="24px" style="shape-rendering:geometricPrecision; text-rendering:geometricPrecision; image-rendering:optimizeQuality; fill-rule:evenodd; clip-rule:evenodd" xmlns:xlink="http://www.w3.org/1999/xlink">
<g><path style="opacity:1" fill="#e0dcf2" d="M -0.5,-0.5 C 0.166667,-0.5 0.833333,-0.5 1.5,-0.5C 1.5,-0.166667 1.5,0.166667 1.5,0.5C 1.5,0.833333 1.5,1.16667 1.5,1.5C 1.16667,1.5 0.833333,1.5 0.5,1.5C 0.166667,1.5 -0.166667,1.5 -0.5,1.5C -0.5,0.833333 -0.5,0.166667 -0.5,-0.5 Z"/></g>
<g><path style="opacity:1" fill="#0a0b7d" d="M 1.5,1.5 C 1.5,1.16667 1.5,0.833333 1.5,0.5C 8.5,0.5 15.5,0.5 22.5,0.5C 22.5,7.5 22.5,14.5 22.5,21.5C 22.1667,21.5 21.8333,21.5 21.5,21.5C 21.5,16.8333 21.5,12.1667 21.5,7.5C 21.9746,4.91791 21.3079,2.91791 19.5,1.5C 17.2646,1.20528 15.2646,1.53862 13.5,2.5C 9.60023,1.57007 5.60023,1.23674 1.5,1.5 Z"/></g>
<g><path style="opacity:1" fill="#2234b5" d="M 1.5,1.5 C 5.60023,1.23674 9.60023,1.57007 13.5,2.5C 13.1667,3.16667 12.8333,3.83333 12.5,4.5C 12.1667,4.5 11.8333,4.5 11.5,4.5C 10.3684,3.6457 9.03503,3.6457 7.5,4.5C 5.36195,3.19187 3.36195,3.5252 1.5,5.5C 1.5,4.16667 1.5,2.83333 1.5,1.5 Z"/></g>
<g><path style="opacity:1" fill="#6c72c0" d="M 13.5,2.5 C 15.2646,1.53862 17.2646,1.20528 19.5,1.5C 19.7678,3.09903 19.4345,4.43236 18.5,5.5C 18.5,4.5 18.5,3.5 18.5,2.5C 16.8333,2.5 15.1667,2.5 13.5,2.5 Z"/></g>
<g><path style="opacity:1" fill="#0e27b5" d="M 7.5,4.5 C 7.5,4.83333 7.5,5.16667 7.5,5.5C 5.88277,6.038 4.2161,6.37133 2.5,6.5C 2.5,7.5 2.5,8.5 2.5,9.5C 2.16667,9.5 1.83333,9.5 1.5,9.5C 1.5,8.16667 1.5,6.83333 1.5,5.5C 3.36195,3.5252 5.36195,3.19187 7.5,4.5 Z"/></g>
<g><path style="opacity:1" fill="#021db1" d="M 7.5,5.5 C 8.33825,5.84171 8.67158,6.50838 8.5,7.5C 7.19331,12.7772 5.69331,12.7772 4,7.5C 3.72158,8.4158 3.22158,9.08247 2.5,9.5C 2.5,8.5 2.5,7.5 2.5,6.5C 4.2161,6.37133 5.88277,6.038 7.5,5.5 Z"/></g>
<g><path style="opacity:1" fill="#f5f7fe" d="M 13.5,2.5 C 15.1667,2.5 16.8333,2.5 18.5,2.5C 18.5,3.5 18.5,4.5 18.5,5.5C 17.8333,5.5 17.1667,5.5 16.5,5.5C 15.596,6.20895 15.2627,7.20895 15.5,8.5C 16.5,8.5 17.5,8.5 18.5,8.5C 18.5,9.5 18.5,10.5 18.5,11.5C 17.8333,11.5 17.1667,11.5 16.5,11.5C 16.1667,11.5 15.8333,11.5 15.5,11.5C 14.5,11.5 13.5,11.5 12.5,11.5C 12.1667,11.5 11.8333,11.5 11.5,11.5C 11.1667,11.5 10.8333,11.5 10.5,11.5C 11.449,9.26271 12.1156,6.92937 12.5,4.5C 12.8333,3.83333 13.1667,3.16667 13.5,2.5 Z"/></g>
<g><path style="opacity:1" fill="#06199f" d="M 11.5,4.5 C 10.551,6.73729 9.88438,9.07063 9.5,11.5C 8.56552,10.4324 8.23219,9.09903 8.5,7.5C 8.67158,6.50838 8.33825,5.84171 7.5,5.5C 7.5,5.16667 7.5,4.83333 7.5,4.5C 9.03503,3.6457 10.3684,3.6457 11.5,4.5 Z"/></g>
<g><path style="opacity:1" fill="#141ba2" d="M 19.5,1.5 C 21.3079,2.91791 21.9746,4.91791 21.5,7.5C 20.5655,8.56764 20.2322,9.90097 20.5,11.5C 20.1667,11.5 19.8333,11.5 19.5,11.5C 19.5,10.1667 19.5,8.83333 19.5,7.5C 17.8212,7.71481 16.8212,7.04814 16.5,5.5C 17.1667,5.5 17.8333,5.5 18.5,5.5C 19.4345,4.43236 19.7678,3.09903 19.5,1.5 Z"/></g>
<g><path style="opacity:1" fill="#02087f" d="M 0.5,1.5 C 0.833333,1.5 1.16667,1.5 1.5,1.5C 1.5,2.83333 1.5,4.16667 1.5,5.5C 1.5,6.83333 1.5,8.16667 1.5,9.5C 1.3347,13.1817 1.50137,16.8484 2,20.5C 2.38258,21.056 2.88258,21.3893 3.5,21.5C 3.5,21.8333 3.5,22.1667 3.5,22.5C 2.5041,22.5858 1.67076,22.2524 1,21.5C 0.500416,14.8417 0.333749,8.17499 0.5,1.5 Z"/></g>
<g><path style="opacity:1" fill="#6164b7" d="M 16.5,5.5 C 16.8212,7.04814 17.8212,7.71481 19.5,7.5C 19.5,8.83333 19.5,10.1667 19.5,11.5C 19.1667,11.5 18.8333,11.5 18.5,11.5C 18.5,10.5 18.5,9.5 18.5,8.5C 17.5,8.5 16.5,8.5 15.5,8.5C 15.2627,7.20895 15.596,6.20895 16.5,5.5 Z"/></g>
<g><path style="opacity:1" fill="#8b90d4" d="M 11.5,4.5 C 11.8333,4.5 12.1667,4.5 12.5,4.5C 12.1156,6.92937 11.449,9.26271 10.5,11.5C 10.1667,11.5 9.83333,11.5 9.5,11.5C 9.88438,9.07063 10.551,6.73729 11.5,4.5 Z"/></g>
<g><path style="opacity:1" fill="#071fb0" d="M 8.5,7.5 C 8.23219,9.09903 8.56552,10.4324 9.5,11.5C 9.83333,11.5 10.1667,11.5 10.5,11.5C 10.8128,15.0419 10.4794,18.3752 9.5,21.5C 8.86231,16.8942 6.86231,16.2276 3.5,19.5C 2.51298,16.2317 2.17964,12.8984 2.5,9.5C 3.22158,9.08247 3.72158,8.4158 4,7.5C 5.69331,12.7772 7.19331,12.7772 8.5,7.5 Z"/></g>
<g><path style="opacity:1" fill="#f9fbff" d="M 12.5,11.5 C 13.5,11.5 14.5,11.5 15.5,11.5C 15.5,14.5 15.5,17.5 15.5,20.5C 14.5,20.5 13.5,20.5 12.5,20.5C 12.5,17.5 12.5,14.5 12.5,11.5 Z"/></g>
<g><path style="opacity:1" fill="#7a7ef3" d="M 1.5,0.5 C 1.5,0.166667 1.5,-0.166667 1.5,-0.5C 8.83333,-0.5 16.1667,-0.5 23.5,-0.5C 23.5,6.83333 23.5,14.1667 23.5,21.5C 23.1667,21.5 22.8333,21.5 22.5,21.5C 22.5,14.5 22.5,7.5 22.5,0.5C 15.5,0.5 8.5,0.5 1.5,0.5 Z"/></g>
<g><path style="opacity:1" fill="#8f95d4" d="M 11.5,11.5 C 11.8333,11.5 12.1667,11.5 12.5,11.5C 12.5,14.5 12.5,17.5 12.5,20.5C 13.5,20.5 14.5,20.5 15.5,20.5C 15.5,20.8333 15.5,21.1667 15.5,21.5C 14.1667,21.5 12.8333,21.5 11.5,21.5C 11.5,18.1667 11.5,14.8333 11.5,11.5 Z"/></g>
<g><path style="opacity:1" fill="#0e23ac" d="M 1.5,9.5 C 1.83333,9.5 2.16667,9.5 2.5,9.5C 2.17964,12.8984 2.51298,16.2317 3.5,19.5C 6.86231,16.2276 8.86231,16.8942 9.5,21.5C 7.5,21.5 5.5,21.5 3.5,21.5C 2.88258,21.3893 2.38258,21.056 2,20.5C 1.50137,16.8484 1.3347,13.1817 1.5,9.5 Z"/></g>
<g><path style="opacity:1" fill="#4040bc" d="M 21.5,7.5 C 21.5,12.1667 21.5,16.8333 21.5,21.5C 19.5,21.5 17.5,21.5 15.5,21.5C 15.5,21.1667 15.5,20.8333 15.5,20.5C 15.5,17.5 15.5,14.5 15.5,11.5C 15.8333,11.5 16.1667,11.5 16.5,11.5C 16.19,14.7131 16.5233,17.7131 17.5,20.5C 18.5,20.5 19.5,20.5 20.5,20.5C 20.5,17.5 20.5,14.5 20.5,11.5C 20.2322,9.90097 20.5655,8.56764 21.5,7.5 Z"/></g>
<g><path style="opacity:1" fill="#101c9e" d="M 16.5,11.5 C 17.1667,11.5 17.8333,11.5 18.5,11.5C 18.8333,11.5 19.1667,11.5 19.5,11.5C 18.8333,14.5 18.1667,17.5 17.5,20.5C 16.5233,17.7131 16.19,14.7131 16.5,11.5 Z"/></g>
<g><path style="opacity:1" fill="#0a1cac" d="M 19.5,11.5 C 19.8333,11.5 20.1667,11.5 20.5,11.5C 20.5,14.5 20.5,17.5 20.5,20.5C 19.5,20.5 18.5,20.5 17.5,20.5C 18.1667,17.5 18.8333,14.5 19.5,11.5 Z"/></g>
<g><path style="opacity:1" fill="#020880" d="M 10.5,11.5 C 10.8333,11.5 11.1667,11.5 11.5,11.5C 11.5,14.8333 11.5,18.1667 11.5,21.5C 12.8333,21.5 14.1667,21.5 15.5,21.5C 17.5,21.5 19.5,21.5 21.5,21.5C 21.5,22.1667 21.1667,22.5 20.5,22.5C 14.8333,22.5 9.16667,22.5 3.5,22.5C 3.5,22.1667 3.5,21.8333 3.5,21.5C 5.5,21.5 7.5,21.5 9.5,21.5C 10.4794,18.3752 10.8128,15.0419 10.5,11.5 Z"/></g>
<g><path style="opacity:1" fill="#abaaf9" d="M -0.5,1.5 C -0.166667,1.5 0.166667,1.5 0.5,1.5C 0.333749,8.17499 0.500416,14.8417 1,21.5C 1.67076,22.2524 2.5041,22.5858 3.5,22.5C 9.16667,22.5 14.8333,22.5 20.5,22.5C 20.5,22.8333 20.5,23.1667 20.5,23.5C 13.5,23.5 6.5,23.5 -0.5,23.5C -0.5,16.1667 -0.5,8.83333 -0.5,1.5 Z"/></g>
<g><path style="opacity:1" fill="#dfe3f9" d="M 21.5,21.5 C 21.8333,21.5 22.1667,21.5 22.5,21.5C 22.8333,21.5 23.1667,21.5 23.5,21.5C 23.5,22.1667 23.5,22.8333 23.5,23.5C 22.5,23.5 21.5,23.5 20.5,23.5C 20.5,23.1667 20.5,22.8333 20.5,22.5C 21.1667,22.5 21.5,22.1667 21.5,21.5 Z"/></g>
</svg>
