<?xml version="1.0" encoding="UTF-8"?>
<!DOCTYPE svg PUBLIC "-//W3C//DTD SVG 1.1//EN" "http://www.w3.org/Graphics/SVG/1.1/DTD/svg11.dtd">
<svg xmlns="http://www.w3.org/2000/svg" version="1.1" width="24px" height="24px" style="shape-rendering:geometricPrecision; text-rendering:geometricPrecision; image-rendering:optimizeQuality; fill-rule:evenodd; clip-rule:evenodd" xmlns:xlink="http://www.w3.org/1999/xlink">
<g><path style="opacity:0.906" fill="#677eb4" d="M 22.5,4.5 C 22.8182,9.03225 22.4849,13.3656 21.5,17.5C 21.5,15.8333 21.5,14.1667 21.5,12.5C 21.5,11.8333 21.5,11.1667 21.5,10.5C 21.5,10.1667 21.5,9.83333 21.5,9.5C 21.5,9.16667 21.5,8.83333 21.5,8.5C 21.5,7.5 21.5,6.5 21.5,5.5C 19.0504,5.70197 16.717,5.36863 14.5,4.5C 14.3893,3.88258 14.056,3.38258 13.5,3C 10.1177,2.17638 6.78437,2.34305 3.5,3.5C 2.17376,4.64218 1.17376,5.97551 0.5,7.5C 0.5,8.5 0.5,9.5 0.5,10.5C 0.5,11.1667 0.5,11.8333 0.5,12.5C 0.5,13.1667 0.5,13.8333 0.5,14.5C 0.5,15.5 0.5,16.5 0.5,17.5C 0.5,17.8333 0.5,18.1667 0.5,18.5C 0.5,18.8333 0.5,19.1667 0.5,19.5C 0.5,19.8333 0.5,20.1667 0.5,20.5C 0.5,20.8333 0.5,21.1667 0.5,21.5C 0.166667,21.5 -0.166667,21.5 -0.5,21.5C -0.5,15.8333 -0.5,10.1667 -0.5,4.5C 1.37672,4.09973 2.87672,3.09973 4,1.5C 8.83909,-0.46456 13.0058,0.368774 16.5,4C 18.4727,4.49546 20.4727,4.66212 22.5,4.5 Z"/></g>
<g><path style="opacity:1" fill="#d3dff1" d="M 14.5,4.5 C 13.713,6.10422 12.3797,6.77089 10.5,6.5C 7.2869,6.19 4.2869,6.52333 1.5,7.5C 1.16667,7.5 0.833333,7.5 0.5,7.5C 1.17376,5.97551 2.17376,4.64218 3.5,3.5C 6.78437,2.34305 10.1177,2.17638 13.5,3C 14.056,3.38258 14.3893,3.88258 14.5,4.5 Z"/></g>
<g><path style="opacity:1" fill="#bbcae4" d="M 10.5,6.5 C 10.0825,7.22158 9.4158,7.72158 8.5,8C 12.8206,8.49902 17.1539,8.66568 21.5,8.5C 21.5,8.83333 21.5,9.16667 21.5,9.5C 14.4163,10.1255 7.74963,9.45888 1.5,7.5C 4.2869,6.52333 7.2869,6.19 10.5,6.5 Z"/></g>
<g><path style="opacity:1" fill="#b6c4e1" d="M 14.5,4.5 C 16.717,5.36863 19.0504,5.70197 21.5,5.5C 21.5,6.5 21.5,7.5 21.5,8.5C 17.1539,8.66568 12.8206,8.49902 8.5,8C 9.4158,7.72158 10.0825,7.22158 10.5,6.5C 12.3797,6.77089 13.713,6.10422 14.5,4.5 Z"/></g>
<g><path style="opacity:1" fill="#c6d8ec" d="M 0.5,7.5 C 0.833333,7.5 1.16667,7.5 1.5,7.5C 7.74963,9.45888 14.4163,10.1255 21.5,9.5C 21.5,9.83333 21.5,10.1667 21.5,10.5C 14.5,10.5 7.5,10.5 0.5,10.5C 0.5,9.5 0.5,8.5 0.5,7.5 Z"/></g>
<g><path style="opacity:1" fill="#d3e8f7" d="M 0.5,10.5 C 7.5,10.5 14.5,10.5 21.5,10.5C 21.5,11.1667 21.5,11.8333 21.5,12.5C 21.1667,12.5 20.8333,12.5 20.5,12.5C 13.8333,12.5 7.16667,12.5 0.5,12.5C 0.5,11.8333 0.5,11.1667 0.5,10.5 Z"/></g>
<g><path style="opacity:0.341" fill="#1d3c73" d="M 22.5,4.5 C 22.8333,4.5 23.1667,4.5 23.5,4.5C 23.5,10.5 23.5,16.5 23.5,22.5C 15.5,22.5 7.5,22.5 -0.5,22.5C -0.5,22.1667 -0.5,21.8333 -0.5,21.5C -0.166667,21.5 0.166667,21.5 0.5,21.5C 7.17499,21.6663 13.8417,21.4996 20.5,21C 21.056,20.6174 21.3893,20.1174 21.5,19.5C 21.5,18.8333 21.5,18.1667 21.5,17.5C 22.4849,13.3656 22.8182,9.03225 22.5,4.5 Z"/></g>
<g><path style="opacity:1" fill="#dff1f9" d="M 0.5,12.5 C 7.16667,12.5 13.8333,12.5 20.5,12.5C 20.1667,13.1667 19.8333,13.8333 19.5,14.5C 19.1667,14.5 18.8333,14.5 18.5,14.5C 12.5,14.5 6.5,14.5 0.5,14.5C 0.5,13.8333 0.5,13.1667 0.5,12.5 Z"/></g>
<g><path style="opacity:1" fill="#e9f5f8" d="M 0.5,14.5 C 6.5,14.5 12.5,14.5 18.5,14.5C 18.4226,15.7498 17.756,16.5831 16.5,17C 11.1771,17.4994 5.84372,17.666 0.5,17.5C 0.5,16.5 0.5,15.5 0.5,14.5 Z"/></g>
<g><path style="opacity:1" fill="#d5e6ed" d="M 18.5,14.5 C 18.8333,14.5 19.1667,14.5 19.5,14.5C 19.6399,16.1238 18.9733,17.2904 17.5,18C 11.8431,18.4994 6.17645,18.6661 0.5,18.5C 0.5,18.1667 0.5,17.8333 0.5,17.5C 5.84372,17.666 11.1771,17.4994 16.5,17C 17.756,16.5831 18.4226,15.7498 18.5,14.5 Z"/></g>
<g><path style="opacity:1" fill="#c3d9e5" d="M 20.5,12.5 C 20.8333,12.5 21.1667,12.5 21.5,12.5C 21.5,14.1667 21.5,15.8333 21.5,17.5C 20.5266,17.9867 19.5266,18.4867 18.5,19C 12.5092,19.4995 6.50924,19.6662 0.5,19.5C 0.5,19.1667 0.5,18.8333 0.5,18.5C 6.17645,18.6661 11.8431,18.4994 17.5,18C 18.9733,17.2904 19.6399,16.1238 19.5,14.5C 19.8333,13.8333 20.1667,13.1667 20.5,12.5 Z"/></g>
<g><path style="opacity:1" fill="#afcadb" d="M 21.5,17.5 C 21.5,18.1667 21.5,18.8333 21.5,19.5C 14.557,20.4267 7.55696,20.76 0.5,20.5C 0.5,20.1667 0.5,19.8333 0.5,19.5C 6.50924,19.6662 12.5092,19.4995 18.5,19C 19.5266,18.4867 20.5266,17.9867 21.5,17.5 Z"/></g>
<g><path style="opacity:0.914" fill="#7ea3bf" d="M 21.5,19.5 C 21.3893,20.1174 21.056,20.6174 20.5,21C 13.8417,21.4996 7.17499,21.6663 0.5,21.5C 0.5,21.1667 0.5,20.8333 0.5,20.5C 7.55696,20.76 14.557,20.4267 21.5,19.5 Z"/></g>
</svg>
