<?xml version="1.0" encoding="UTF-8"?>
<!DOCTYPE svg PUBLIC "-//W3C//DTD SVG 1.1//EN" "http://www.w3.org/Graphics/SVG/1.1/DTD/svg11.dtd">
<svg xmlns="http://www.w3.org/2000/svg" version="1.1" width="24px" height="24px" style="shape-rendering:geometricPrecision; text-rendering:geometricPrecision; image-rendering:optimizeQuality; fill-rule:evenodd; clip-rule:evenodd" xmlns:xlink="http://www.w3.org/1999/xlink">
<g><path style="opacity:0.106" fill="#547cba" d="M 3.5,-0.5 C 7.16667,-0.5 10.8333,-0.5 14.5,-0.5C 14.5,-0.166667 14.5,0.166667 14.5,0.5C 13.8333,0.5 13.1667,0.5 12.5,0.5C 9.83333,0.5 7.16667,0.5 4.5,0.5C 4.5,1.83333 4.5,3.16667 4.5,4.5C 4.16667,4.5 3.83333,4.5 3.5,4.5C 3.5,2.83333 3.5,1.16667 3.5,-0.5 Z"/></g>
<g><path style="opacity:0.106" fill="#4e75b9" d="M 14.5,0.5 C 14.5,0.166667 14.5,-0.166667 14.5,-0.5C 16.1667,-0.5 17.8333,-0.5 19.5,-0.5C 19.5,1.16667 19.5,2.83333 19.5,4.5C 19.1667,4.5 18.8333,4.5 18.5,4.5C 18.5,3.16667 18.5,1.83333 18.5,0.5C 17.1667,0.5 15.8333,0.5 14.5,0.5 Z"/></g>
<g><path style="opacity:1" fill="#acc8de" d="M 12.5,0.5 C 12.5,0.833333 12.5,1.16667 12.5,1.5C 11.8333,1.5 11.1667,1.5 10.5,1.5C 8.90097,1.23219 7.56764,1.56552 6.5,2.5C 6.76202,3.97782 6.42869,5.31116 5.5,6.5C 4.70245,6.04311 4.36912,5.37644 4.5,4.5C 4.5,3.16667 4.5,1.83333 4.5,0.5C 7.16667,0.5 9.83333,0.5 12.5,0.5 Z"/></g>
<g><path style="opacity:1" fill="#a7bcde" d="M 12.5,1.5 C 12.5,1.16667 12.5,0.833333 12.5,0.5C 13.1667,0.5 13.8333,0.5 14.5,0.5C 15.8333,0.5 17.1667,0.5 18.5,0.5C 18.5,1.83333 18.5,3.16667 18.5,4.5C 18.5,5.16667 18.1667,5.5 17.5,5.5C 16.4019,4.60305 16.4019,3.76971 17.5,3C 16.9056,2.53566 16.2389,2.36899 15.5,2.5C 14.8333,2.5 14.1667,2.5 13.5,2.5C 13.5,1.83333 13.1667,1.5 12.5,1.5 Z"/></g>
<g><path style="opacity:1" fill="#c5e1f2" d="M 10.5,1.5 C 11.1667,1.5 11.8333,1.5 12.5,1.5C 13.1667,1.5 13.5,1.83333 13.5,2.5C 12.5416,2.9528 11.7083,3.61947 11,4.5C 10.5357,3.90558 10.369,3.23891 10.5,2.5C 10.5,2.16667 10.5,1.83333 10.5,1.5 Z"/></g>
<g><path style="opacity:1" fill="#366293" d="M 10.5,2.5 C 10.369,3.23891 10.5357,3.90558 11,4.5C 11.7083,3.61947 12.5416,2.9528 13.5,2.5C 13.5,4.16667 13.5,5.83333 13.5,7.5C 11.9974,7.16539 10.664,7.16539 9.5,7.5C 8.86137,6.90318 8.52804,6.06985 8.5,5C 8.68423,3.62439 9.35089,2.79106 10.5,2.5 Z"/></g>
<g><path style="opacity:1" fill="#e3f2f5" d="M 6.5,2.5 C 7.56764,1.56552 8.90097,1.23219 10.5,1.5C 10.5,1.83333 10.5,2.16667 10.5,2.5C 9.35089,2.79106 8.68423,3.62439 8.5,5C 8.52804,6.06985 8.86137,6.90318 9.5,7.5C 9.5,7.83333 9.5,8.16667 9.5,8.5C 7.83333,8.5 6.16667,8.5 4.5,8.5C 5.20895,7.59603 6.20895,7.26269 7.5,7.5C 7.78448,5.58533 7.45115,3.91866 6.5,2.5 Z"/></g>
<g><path style="opacity:1" fill="#9db4d4" d="M 13.5,2.5 C 14.1667,2.5 14.8333,2.5 15.5,2.5C 14.2935,3.8804 14.6269,5.04707 16.5,6C 15.5842,6.27842 14.9175,6.77842 14.5,7.5C 14.1667,7.5 13.8333,7.5 13.5,7.5C 13.5,5.83333 13.5,4.16667 13.5,2.5 Z"/></g>
<g><path style="opacity:1" fill="#215086" d="M 15.5,2.5 C 16.2389,2.36899 16.9056,2.53566 17.5,3C 16.4019,3.76971 16.4019,4.60305 17.5,5.5C 17.5,5.83333 17.5,6.16667 17.5,6.5C 16.791,7.40397 15.791,7.73731 14.5,7.5C 14.9175,6.77842 15.5842,6.27842 16.5,6C 14.6269,5.04707 14.2935,3.8804 15.5,2.5 Z"/></g>
<g><path style="opacity:0.502" fill="#3d659e" d="M 18.5,4.5 C 18.8333,4.5 19.1667,4.5 19.5,4.5C 19.5,5.83333 19.5,7.16667 19.5,8.5C 19.1667,8.5 18.8333,8.5 18.5,8.5C 18.6716,7.50838 18.3382,6.84171 17.5,6.5C 17.5,6.16667 17.5,5.83333 17.5,5.5C 18.1667,5.5 18.5,5.16667 18.5,4.5 Z"/></g>
<g><path style="opacity:0.502" fill="#436e9e" d="M 6.5,2.5 C 7.45115,3.91866 7.78448,5.58533 7.5,7.5C 6.20895,7.26269 5.20895,7.59603 4.5,8.5C 4.16667,8.5 3.83333,8.5 3.5,8.5C 3.5,7.16667 3.5,5.83333 3.5,4.5C 3.83333,4.5 4.16667,4.5 4.5,4.5C 4.36912,5.37644 4.70245,6.04311 5.5,6.5C 6.42869,5.31116 6.76202,3.97782 6.5,2.5 Z"/></g>
<g><path style="opacity:1" fill="#c8e2f1" d="M 13.5,7.5 C 13.8333,7.5 14.1667,7.5 14.5,7.5C 14.5,7.83333 14.5,8.16667 14.5,8.5C 13.5,8.5 12.5,8.5 11.5,8.5C 10.8333,8.5 10.1667,8.5 9.5,8.5C 9.5,8.16667 9.5,7.83333 9.5,7.5C 10.664,7.16539 11.9974,7.16539 13.5,7.5 Z"/></g>
<g><path style="opacity:1" fill="#8399be" d="M 17.5,6.5 C 18.3382,6.84171 18.6716,7.50838 18.5,8.5C 17.5,8.5 16.5,8.5 15.5,8.5C 15.1667,8.5 14.8333,8.5 14.5,8.5C 14.5,8.16667 14.5,7.83333 14.5,7.5C 15.791,7.73731 16.791,7.40397 17.5,6.5 Z"/></g>
<g><path style="opacity:0.588" fill="#2f5ba7" d="M 3.5,8.5 C 3.83333,8.5 4.16667,8.5 4.5,8.5C 4.5,8.83333 4.5,9.16667 4.5,9.5C 4.16667,9.5 3.83333,9.5 3.5,9.5C 2.50838,9.32842 1.84171,9.66175 1.5,10.5C 0.565525,11.5676 0.232191,12.901 0.5,14.5C 0.5,15.1667 0.5,15.8333 0.5,16.5C 0.166667,16.5 -0.166667,16.5 -0.5,16.5C -0.5,14.1667 -0.5,11.8333 -0.5,9.5C 0.707917,8.76589 2.04125,8.43255 3.5,8.5 Z"/></g>
<g><path style="opacity:1" fill="#678abf" d="M 4.5,9.5 C 4.5,9.16667 4.5,8.83333 4.5,8.5C 6.16667,8.5 7.83333,8.5 9.5,8.5C 10.1667,8.5 10.8333,8.5 11.5,8.5C 11.5,8.83333 11.5,9.16667 11.5,9.5C 8.75236,9.40171 8.0857,10.4017 9.5,12.5C 9.5,14.5 9.5,16.5 9.5,18.5C 9.5,19.1667 9.5,19.8333 9.5,20.5C 9.16667,20.5 8.83333,20.5 8.5,20.5C 8.5,20.1667 8.5,19.8333 8.5,19.5C 8.5,18.5 8.5,17.5 8.5,16.5C 8.5,15.8333 8.5,15.1667 8.5,14.5C 8.44312,13.391 8.10978,12.391 7.5,11.5C 7.02694,10.0937 6.02694,9.42702 4.5,9.5 Z"/></g>
<g><path style="opacity:1" fill="#5074b4" d="M 15.5,9.5 C 15.5,9.16667 15.5,8.83333 15.5,8.5C 16.5,8.5 17.5,8.5 18.5,8.5C 18.5,8.83333 18.5,9.16667 18.5,9.5C 17.6618,9.84171 17.3284,10.5084 17.5,11.5C 16.8333,11.5 16.5,11.1667 16.5,10.5C 16.5,9.83333 16.1667,9.5 15.5,9.5 Z"/></g>
<g><path style="opacity:0.388" fill="#2854a6" d="M 18.5,9.5 C 18.5,9.16667 18.5,8.83333 18.5,8.5C 18.8333,8.5 19.1667,8.5 19.5,8.5C 21.1788,8.28519 22.1788,8.95186 22.5,10.5C 22.1667,10.5 21.8333,10.5 21.5,10.5C 20.791,9.59603 19.791,9.26269 18.5,9.5 Z"/></g>
<g><path style="opacity:1" fill="#698bc3" d="M 11.5,8.5 C 12.5,8.5 13.5,8.5 14.5,8.5C 14.8333,8.5 15.1667,8.5 15.5,8.5C 15.5,8.83333 15.5,9.16667 15.5,9.5C 13.9519,9.82124 13.2852,10.8212 13.5,12.5C 13.5,13.1667 13.1667,13.5 12.5,13.5C 12.5674,12.0413 12.2341,10.7079 11.5,9.5C 11.5,9.16667 11.5,8.83333 11.5,8.5 Z"/></g>
<g><path style="opacity:1" fill="#9fb6dc" d="M 18.5,9.5 C 19.791,9.26269 20.791,9.59603 21.5,10.5C 20.209,10.2627 19.209,10.596 18.5,11.5C 18.1667,11.5 17.8333,11.5 17.5,11.5C 17.3284,10.5084 17.6618,9.84171 18.5,9.5 Z"/></g>
<g><path style="opacity:1" fill="#bbcbe7" d="M 3.5,9.5 C 3.83333,9.5 4.16667,9.5 4.5,9.5C 6.02694,9.42702 7.02694,10.0937 7.5,11.5C 6.5,11.5 5.5,11.5 4.5,11.5C 3.66175,11.1583 3.32842,10.4916 3.5,9.5 Z"/></g>
<g><path style="opacity:1" fill="#adc0e0" d="M 15.5,9.5 C 16.1667,9.5 16.5,9.83333 16.5,10.5C 15.1667,10.5 14.5,11.1667 14.5,12.5C 14.1667,12.5 13.8333,12.5 13.5,12.5C 13.2852,10.8212 13.9519,9.82124 15.5,9.5 Z"/></g>
<g><path style="opacity:1" fill="#a3b7d9" d="M 21.5,10.5 C 21.8333,10.5 22.1667,10.5 22.5,10.5C 22.5,11.5 22.5,12.5 22.5,13.5C 20.8212,13.2852 19.8212,13.9519 19.5,15.5C 19.7373,16.791 19.404,17.791 18.5,18.5C 18.5,16.1667 18.5,13.8333 18.5,11.5C 19.209,10.596 20.209,10.2627 21.5,10.5 Z"/></g>
<g><path style="opacity:1" fill="#b6c6e3" d="M 11.5,9.5 C 12.2341,10.7079 12.5674,12.0413 12.5,13.5C 11.7784,13.0825 11.2784,12.4158 11,11.5C 10.6174,12.056 10.1174,12.3893 9.5,12.5C 8.0857,10.4017 8.75236,9.40171 11.5,9.5 Z"/></g>
<g><path style="opacity:1" fill="#b6c5e1" d="M 16.5,10.5 C 16.5,11.1667 16.8333,11.5 17.5,11.5C 17.5,12.1667 17.5,12.8333 17.5,13.5C 16.5,13.5 15.5,13.5 14.5,13.5C 14.5,13.1667 14.5,12.8333 14.5,12.5C 14.5,11.1667 15.1667,10.5 16.5,10.5 Z"/></g>
<g><path style="opacity:1" fill="#afc5e5" d="M 1.5,10.5 C 2.02211,12.2191 3.02211,13.5525 4.5,14.5C 4.5,15.1667 4.5,15.8333 4.5,16.5C 3.83333,16.1667 3.16667,15.8333 2.5,15.5C 1.83333,15.1667 1.16667,14.8333 0.5,14.5C 0.232191,12.901 0.565525,11.5676 1.5,10.5 Z"/></g>
<g><path style="opacity:1" fill="#b7c7e2" d="M 4.5,11.5 C 5.5,11.5 6.5,11.5 7.5,11.5C 8.10978,12.391 8.44312,13.391 8.5,14.5C 7.16667,14.5 5.83333,14.5 4.5,14.5C 4.5,13.5 4.5,12.5 4.5,11.5 Z"/></g>
<g><path style="opacity:1" fill="#b0c4e0" d="M 12.5,13.5 C 12.5,13.8333 12.5,14.1667 12.5,14.5C 10.8235,15.1834 10.1568,16.5168 10.5,18.5C 10.1667,18.5 9.83333,18.5 9.5,18.5C 9.5,16.5 9.5,14.5 9.5,12.5C 10.1174,12.3893 10.6174,12.056 11,11.5C 11.2784,12.4158 11.7784,13.0825 12.5,13.5 Z"/></g>
<g><path style="opacity:1" fill="#8ba3cf" d="M 1.5,10.5 C 1.84171,9.66175 2.50838,9.32842 3.5,9.5C 3.32842,10.4916 3.66175,11.1583 4.5,11.5C 4.5,12.5 4.5,13.5 4.5,14.5C 3.02211,13.5525 2.02211,12.2191 1.5,10.5 Z"/></g>
<g><path style="opacity:1" fill="#c8dbef" d="M 14.5,13.5 C 15.5,13.5 16.5,13.5 17.5,13.5C 17.5,14.1667 17.5,14.8333 17.5,15.5C 16.5,15.5 15.5,15.5 14.5,15.5C 14.5,14.8333 14.5,14.1667 14.5,13.5 Z"/></g>
<g><path style="opacity:1" fill="#d0e6f5" d="M 4.5,14.5 C 5.83333,14.5 7.16667,14.5 8.5,14.5C 8.5,15.1667 8.5,15.8333 8.5,16.5C 7.16667,16.5 5.83333,16.5 4.5,16.5C 4.5,15.8333 4.5,15.1667 4.5,14.5 Z"/></g>
<g><path style="opacity:1" fill="#91b0cd" d="M 12.5,14.5 C 13.1667,15.8333 13.8333,17.1667 14.5,18.5C 13.0857,20.5983 13.7524,21.5983 16.5,21.5C 16.5,22.1667 16.1667,22.5 15.5,22.5C 14.1667,22.5 12.8333,22.5 11.5,22.5C 11.8333,21.8333 12.1667,21.1667 12.5,20.5C 12.5,19.8333 12.5,19.1667 12.5,18.5C 12.5,17.1667 12.5,15.8333 12.5,14.5 Z"/></g>
<g><path style="opacity:1" fill="#b7cfe5" d="M 22.5,13.5 C 22.7947,15.7354 22.4614,17.7354 21.5,19.5C 21.8432,17.5168 21.1765,16.1834 19.5,15.5C 19.8212,13.9519 20.8212,13.2852 22.5,13.5 Z"/></g>
<g><path style="opacity:1" fill="#c2d0eb" d="M 0.5,14.5 C 1.16667,14.8333 1.83333,15.1667 2.5,15.5C 2.16667,16.1667 1.83333,16.8333 1.5,17.5C 1.5,18.1667 1.16667,18.5 0.5,18.5C 0.5,17.8333 0.5,17.1667 0.5,16.5C 0.5,15.8333 0.5,15.1667 0.5,14.5 Z"/></g>
<g><path style="opacity:1" fill="#d1e1f1" d="M 2.5,15.5 C 3.16667,15.8333 3.83333,16.1667 4.5,16.5C 4.5,17.5 4.5,18.5 4.5,19.5C 4.5,20.1667 4.5,20.8333 4.5,21.5C 3.5,20.1667 2.5,18.8333 1.5,17.5C 1.83333,16.8333 2.16667,16.1667 2.5,15.5 Z"/></g>
<g><path style="opacity:1" fill="#698dbb" d="M 13.5,12.5 C 13.8333,12.5 14.1667,12.5 14.5,12.5C 14.5,12.8333 14.5,13.1667 14.5,13.5C 14.5,14.1667 14.5,14.8333 14.5,15.5C 14.5,16.1667 14.5,16.8333 14.5,17.5C 14.5,17.8333 14.5,18.1667 14.5,18.5C 13.8333,17.1667 13.1667,15.8333 12.5,14.5C 12.5,14.1667 12.5,13.8333 12.5,13.5C 13.1667,13.5 13.5,13.1667 13.5,12.5 Z"/></g>
<g><path style="opacity:1" fill="#ddf0fb" d="M 14.5,15.5 C 15.5,15.5 16.5,15.5 17.5,15.5C 17.5,16.1667 17.5,16.8333 17.5,17.5C 16.5,17.5 15.5,17.5 14.5,17.5C 14.5,16.8333 14.5,16.1667 14.5,15.5 Z"/></g>
<g><path style="opacity:1" fill="#668ab8" d="M 17.5,11.5 C 17.8333,11.5 18.1667,11.5 18.5,11.5C 18.5,13.8333 18.5,16.1667 18.5,18.5C 18.7373,19.791 18.404,20.791 17.5,21.5C 17.1667,21.5 16.8333,21.5 16.5,21.5C 17.2341,20.2921 17.5674,18.9587 17.5,17.5C 17.5,16.8333 17.5,16.1667 17.5,15.5C 17.5,14.8333 17.5,14.1667 17.5,13.5C 17.5,12.8333 17.5,12.1667 17.5,11.5 Z"/></g>
<g><path style="opacity:1" fill="#e5f4f9" d="M 4.5,16.5 C 5.83333,16.5 7.16667,16.5 8.5,16.5C 8.5,17.5 8.5,18.5 8.5,19.5C 7.16667,19.5 5.83333,19.5 4.5,19.5C 4.5,18.5 4.5,17.5 4.5,16.5 Z"/></g>
<g><path style="opacity:1" fill="#dceff8" d="M 12.5,14.5 C 12.5,15.8333 12.5,17.1667 12.5,18.5C 11.8333,18.5 11.1667,18.5 10.5,18.5C 10.1568,16.5168 10.8235,15.1834 12.5,14.5 Z"/></g>
<g><path style="opacity:0.584" fill="#1c4a88" d="M -0.5,16.5 C -0.166667,16.5 0.166667,16.5 0.5,16.5C 0.5,17.1667 0.5,17.8333 0.5,18.5C 0.229113,20.3797 0.895779,21.713 2.5,22.5C 2.5,22.8333 2.5,23.1667 2.5,23.5C 1.83333,23.5 1.16667,23.5 0.5,23.5C 0.5,22.8333 0.166667,22.5 -0.5,22.5C -0.5,20.5 -0.5,18.5 -0.5,16.5 Z"/></g>
<g><path style="opacity:1" fill="#a5c1df" d="M 1.5,17.5 C 2.5,18.8333 3.5,20.1667 4.5,21.5C 5.5,21.5 6.5,21.5 7.5,21.5C 6.08134,22.4511 4.41467,22.7845 2.5,22.5C 0.895779,21.713 0.229113,20.3797 0.5,18.5C 1.16667,18.5 1.5,18.1667 1.5,17.5 Z"/></g>
<g><path style="opacity:1" fill="#e9f4f7" d="M 9.5,18.5 C 9.83333,18.5 10.1667,18.5 10.5,18.5C 11.1667,18.5 11.8333,18.5 12.5,18.5C 12.5,19.1667 12.5,19.8333 12.5,20.5C 11.5,20.5 10.5,20.5 9.5,20.5C 9.5,19.8333 9.5,19.1667 9.5,18.5 Z"/></g>
<g><path style="opacity:1" fill="#e2f0f4" d="M 14.5,17.5 C 15.5,17.5 16.5,17.5 17.5,17.5C 17.5674,18.9587 17.2341,20.2921 16.5,21.5C 13.7524,21.5983 13.0857,20.5983 14.5,18.5C 14.5,18.1667 14.5,17.8333 14.5,17.5 Z"/></g>
<g><path style="opacity:1" fill="#d3e5ee" d="M 19.5,15.5 C 21.1765,16.1834 21.8432,17.5168 21.5,19.5C 21.5,20.5 21.5,21.5 21.5,22.5C 19.901,22.7678 18.5676,22.4345 17.5,21.5C 18.404,20.791 18.7373,19.791 18.5,18.5C 19.404,17.791 19.7373,16.791 19.5,15.5 Z"/></g>
<g><path style="opacity:1" fill="#d6e8ee" d="M 4.5,19.5 C 5.83333,19.5 7.16667,19.5 8.5,19.5C 8.5,19.8333 8.5,20.1667 8.5,20.5C 7.83333,20.5 7.5,20.8333 7.5,21.5C 6.5,21.5 5.5,21.5 4.5,21.5C 4.5,20.8333 4.5,20.1667 4.5,19.5 Z"/></g>
<g><path style="opacity:1" fill="#b2cddd" d="M 8.5,20.5 C 8.83333,20.5 9.16667,20.5 9.5,20.5C 10.5,20.5 11.5,20.5 12.5,20.5C 12.1667,21.1667 11.8333,21.8333 11.5,22.5C 9.82124,22.7148 8.82124,22.0481 8.5,20.5 Z"/></g>
<g><path style="opacity:0.671" fill="#1a4d83" d="M 8.5,20.5 C 8.82124,22.0481 9.82124,22.7148 11.5,22.5C 12.8333,22.5 14.1667,22.5 15.5,22.5C 15.5,22.8333 15.5,23.1667 15.5,23.5C 11.1667,23.5 6.83333,23.5 2.5,23.5C 2.5,23.1667 2.5,22.8333 2.5,22.5C 4.41467,22.7845 6.08134,22.4511 7.5,21.5C 7.5,20.8333 7.83333,20.5 8.5,20.5 Z"/></g>
<g><path style="opacity:0.673" fill="#1a4885" d="M 22.5,10.5 C 22.8333,10.5 23.1667,10.5 23.5,10.5C 23.5,14.5 23.5,18.5 23.5,22.5C 22.8333,22.5 22.5,22.8333 22.5,23.5C 20.1667,23.5 17.8333,23.5 15.5,23.5C 15.5,23.1667 15.5,22.8333 15.5,22.5C 16.1667,22.5 16.5,22.1667 16.5,21.5C 16.8333,21.5 17.1667,21.5 17.5,21.5C 18.5676,22.4345 19.901,22.7678 21.5,22.5C 21.5,21.5 21.5,20.5 21.5,19.5C 22.4614,17.7354 22.7947,15.7354 22.5,13.5C 22.5,12.5 22.5,11.5 22.5,10.5 Z"/></g>
</svg>
