<?xml version="1.0" encoding="UTF-8"?>
<!DOCTYPE svg PUBLIC "-//W3C//DTD SVG 1.1//EN" "http://www.w3.org/Graphics/SVG/1.1/DTD/svg11.dtd">
<svg xmlns="http://www.w3.org/2000/svg" version="1.1" width="24px" height="24px" style="shape-rendering:geometricPrecision; text-rendering:geometricPrecision; image-rendering:optimizeQuality; fill-rule:evenodd; clip-rule:evenodd" xmlns:xlink="http://www.w3.org/1999/xlink">
<g><path style="opacity:0.852" fill="#146d9f" d="M -0.5,-0.5 C 7.5,-0.5 15.5,-0.5 23.5,-0.5C 23.5,7.5 23.5,15.5 23.5,23.5C 15.5,23.5 7.5,23.5 -0.5,23.5C -0.5,15.5 -0.5,7.5 -0.5,-0.5 Z"/></g>
<g><path style="opacity:1" fill="#eaf2f6" d="M 19.5,10.5 C 19.5,13.5 19.5,16.5 19.5,19.5C 18.1667,19.5 16.8333,19.5 15.5,19.5C 15.5,16.8333 15.5,14.1667 15.5,11.5C 14.5,11.5 13.5,11.5 12.5,11.5C 12.5,13.8333 12.5,16.1667 12.5,18.5C 11.5,18.5 10.5,18.5 9.5,18.5C 9.5,15.5 9.5,12.5 9.5,9.5C 10.5,9.5 11.5,9.5 12.5,9.5C 15.0835,8.06231 17.4168,8.39564 19.5,10.5 Z"/></g>
<g><path style="opacity:1" fill="#f6fafb" d="M 3.5,9.5 C 4.5,9.5 5.5,9.5 6.5,9.5C 6.5,12.5 6.5,15.5 6.5,18.5C 5.5,18.5 4.5,18.5 3.5,18.5C 3.5,17.1667 3.5,15.8333 3.5,14.5C 3.5,12.8333 3.5,11.1667 3.5,9.5 Z"/></g>
<g><path style="opacity:1" fill="#4f9ec1" d="M 21.5,0.5 C 22.4767,3.2869 22.81,6.2869 22.5,9.5C 21.209,9.26269 20.209,9.59603 19.5,10.5C 17.4168,8.39564 15.0835,8.06231 12.5,9.5C 11.4324,8.56552 10.099,8.23219 8.5,8.5C 8.16667,8.5 7.83333,8.5 7.5,8.5C 5.90097,8.23219 4.56764,8.56552 3.5,9.5C 3.5,11.1667 3.5,12.8333 3.5,14.5C 1.32733,11.9826 0.327332,8.98264 0.5,5.5C 1.60895,5.55688 2.60895,5.89022 3.5,6.5C 5.70893,7.97579 7.04226,7.30913 7.5,4.5C 12.1667,4.5 16.8333,4.5 21.5,4.5C 21.5,3.16667 21.5,1.83333 21.5,0.5 Z"/></g>
<g><path style="opacity:1" fill="#e3eff5" d="M 7.5,4.5 C 7.04226,7.30913 5.70893,7.97579 3.5,6.5C 3.83734,3.6643 5.17068,2.99763 7.5,4.5 Z"/></g>
<g><path style="opacity:1" fill="#6bb2d6" d="M 21.5,0.5 C 21.5,1.83333 21.5,3.16667 21.5,4.5C 16.8333,4.5 12.1667,4.5 7.5,4.5C 5.17068,2.99763 3.83734,3.6643 3.5,6.5C 2.60895,5.89022 1.60895,5.55688 0.5,5.5C 0.5,3.83333 0.5,2.16667 0.5,0.5C 7.5,0.5 14.5,0.5 21.5,0.5 Z"/></g>
<g><path style="opacity:1" fill="#96c0d6" d="M 3.5,9.5 C 4.56764,8.56552 5.90097,8.23219 7.5,8.5C 7.5,12.1667 7.5,15.8333 7.5,19.5C 5.90097,19.7678 4.56764,19.4345 3.5,18.5C 4.5,18.5 5.5,18.5 6.5,18.5C 6.5,15.5 6.5,12.5 6.5,9.5C 5.5,9.5 4.5,9.5 3.5,9.5 Z"/></g>
<g><path style="opacity:1" fill="#9fc5d9" d="M 8.5,8.5 C 10.099,8.23219 11.4324,8.56552 12.5,9.5C 11.5,9.5 10.5,9.5 9.5,9.5C 9.5,12.5 9.5,15.5 9.5,18.5C 10.5,18.5 11.5,18.5 12.5,18.5C 11.4324,19.4345 10.099,19.7678 8.5,19.5C 8.5,15.8333 8.5,12.1667 8.5,8.5 Z"/></g>
</svg>
