<?xml version="1.0" encoding="UTF-8"?>
<!DOCTYPE svg PUBLIC "-//W3C//DTD SVG 1.1//EN" "http://www.w3.org/Graphics/SVG/1.1/DTD/svg11.dtd">
<svg xmlns="http://www.w3.org/2000/svg" version="1.1" width="24px" height="24px" style="shape-rendering:geometricPrecision; text-rendering:geometricPrecision; image-rendering:optimizeQuality; fill-rule:evenodd; clip-rule:evenodd" xmlns:xlink="http://www.w3.org/1999/xlink">
<g><path style="opacity:0.783" fill="#8684b2" d="M -0.5,-0.5 C 2.5,-0.5 5.5,-0.5 8.5,-0.5C 8.5,-0.166667 8.5,0.166667 8.5,0.5C 5.9407,0.198448 3.60737,0.531782 1.5,1.5C 1.16667,1.5 0.833333,1.5 0.5,1.5C 0.166667,1.5 -0.166667,1.5 -0.5,1.5C -0.5,0.833333 -0.5,0.166667 -0.5,-0.5 Z"/></g>
<g><path style="opacity:1" fill="#b3afd2" d="M 1.5,1.5 C 3.60737,0.531782 5.9407,0.198448 8.5,0.5C 8.83333,0.5 9.16667,0.5 9.5,0.5C 9.83333,1.16667 10.1667,1.83333 10.5,2.5C 8.16667,2.5 5.83333,2.5 3.5,2.5C 3.15829,1.66175 2.49162,1.32842 1.5,1.5 Z"/></g>
<g><path style="opacity:1" fill="#c4bfdb" d="M 9.5,0.5 C 12.1667,0.5 14.8333,0.5 17.5,0.5C 16.5876,1.7382 16.4209,3.07153 17,4.5C 19.0714,5.10287 20.2381,6.4362 20.5,8.5C 19.5416,8.0472 18.7083,7.38053 18,6.5C 17.6012,6.72845 17.4346,7.06178 17.5,7.5C 16.5,6.83333 15.5,6.16667 14.5,5.5C 13.7377,3.73758 12.4044,2.73758 10.5,2.5C 10.1667,1.83333 9.83333,1.16667 9.5,0.5 Z"/></g>
<g><path style="opacity:0.784" fill="#8987b4" d="M 8.5,0.5 C 8.5,0.166667 8.5,-0.166667 8.5,-0.5C 13.5,-0.5 18.5,-0.5 23.5,-0.5C 23.5,1.16667 23.5,2.83333 23.5,4.5C 23.1667,4.5 22.8333,4.5 22.5,4.5C 22.5,4.16667 22.5,3.83333 22.5,3.5C 21.9517,0.916181 20.285,-0.0838188 17.5,0.5C 14.8333,0.5 12.1667,0.5 9.5,0.5C 9.16667,0.5 8.83333,0.5 8.5,0.5 Z"/></g>
<g><path style="opacity:1" fill="#d0cbe3" d="M 0.5,1.5 C 0.833333,1.5 1.16667,1.5 1.5,1.5C 2.49162,1.32842 3.15829,1.66175 3.5,2.5C 3.5,2.83333 3.5,3.16667 3.5,3.5C 4.16667,4.16667 4.83333,4.83333 5.5,5.5C 3.7839,5.37133 2.11723,5.038 0.5,4.5C 0.5,3.5 0.5,2.5 0.5,1.5 Z"/></g>
<g><path style="opacity:1" fill="#bfbbda" d="M 3.5,3.5 C 3.5,3.16667 3.5,2.83333 3.5,2.5C 5.83333,2.5 8.16667,2.5 10.5,2.5C 10.8925,4.2838 11.5592,5.95047 12.5,7.5C 9.82099,7.47538 8.48766,6.14205 8.5,3.5C 6.83333,3.5 5.16667,3.5 3.5,3.5 Z"/></g>
<g><path style="opacity:1" fill="#b5b1d4" d="M 17.5,0.5 C 20.285,-0.0838188 21.9517,0.916181 22.5,3.5C 18.4835,0.747775 17.9835,1.08111 21,4.5C 21.49,5.79323 21.6567,7.12656 21.5,8.5C 21.1667,8.5 20.8333,8.5 20.5,8.5C 20.2381,6.4362 19.0714,5.10287 17,4.5C 16.4209,3.07153 16.5876,1.7382 17.5,0.5 Z"/></g>
<g><path style="opacity:1" fill="#cdc7e0" d="M 3.5,3.5 C 5.16667,3.5 6.83333,3.5 8.5,3.5C 8.48766,6.14205 9.82099,7.47538 12.5,7.5C 12.8333,8.16667 13.1667,8.83333 13.5,9.5C 13.5,10.1667 13.5,10.8333 13.5,11.5C 11.3477,9.01518 8.68106,7.34852 5.5,6.5C 5.5,6.16667 5.5,5.83333 5.5,5.5C 4.83333,4.83333 4.16667,4.16667 3.5,3.5 Z"/></g>
<g><path style="opacity:0.839" fill="#8a87b4" d="M -0.5,1.5 C -0.166667,1.5 0.166667,1.5 0.5,1.5C 0.5,2.5 0.5,3.5 0.5,4.5C 0.5,5.5 0.5,6.5 0.5,7.5C 0.5,8.16667 0.5,8.83333 0.5,9.5C 0.833333,10.1667 1.16667,10.8333 1.5,11.5C 1.16667,11.5 0.833333,11.5 0.5,11.5C 0.166667,11.5 -0.166667,11.5 -0.5,11.5C -0.5,8.16667 -0.5,4.83333 -0.5,1.5 Z"/></g>
<g><path style="opacity:0.784" fill="#8986b5" d="M 22.5,4.5 C 22.8333,4.5 23.1667,4.5 23.5,4.5C 23.5,9.5 23.5,14.5 23.5,19.5C 22.1667,20.5 20.8333,21.5 19.5,22.5C 19.5,22.1667 19.5,21.8333 19.5,21.5C 20.3138,19.369 20.8138,17.0356 21,14.5C 21.3333,15.1667 21.6667,15.8333 22,16.5C 22.4988,12.5138 22.6655,8.51383 22.5,4.5 Z"/></g>
<g><path style="opacity:1" fill="#b1add2" d="M 0.5,4.5 C 2.11723,5.038 3.7839,5.37133 5.5,5.5C 5.5,5.83333 5.5,6.16667 5.5,6.5C 5.83333,7.16667 6.16667,7.83333 6.5,8.5C 4.56475,7.85048 2.56475,7.51715 0.5,7.5C 0.5,6.5 0.5,5.5 0.5,4.5 Z"/></g>
<g><path style="opacity:1" fill="#b5b0d4" d="M 10.5,2.5 C 12.4044,2.73758 13.7377,3.73758 14.5,5.5C 15.398,8.39562 17.0647,10.729 19.5,12.5C 19.5,15.5 19.5,18.5 19.5,21.5C 19.5,21.8333 19.5,22.1667 19.5,22.5C 18.5,22.5 17.5,22.5 16.5,22.5C 16.5,22.1667 16.5,21.8333 16.5,21.5C 17.6378,18.6965 17.8045,15.6965 17,12.5C 16.6174,11.944 16.1174,11.6107 15.5,11.5C 15.1667,10.5 14.5,9.83333 13.5,9.5C 13.1667,8.83333 12.8333,8.16667 12.5,7.5C 11.5592,5.95047 10.8925,4.2838 10.5,2.5 Z"/></g>
<g><path style="opacity:1" fill="#a7a3cb" d="M 14.5,5.5 C 15.5,6.16667 16.5,6.83333 17.5,7.5C 18.9418,8.81953 19.6085,10.4862 19.5,12.5C 17.0647,10.729 15.398,8.39562 14.5,5.5 Z"/></g>
<g><path style="opacity:1" fill="#a8a4cb" d="M 22.5,3.5 C 22.5,3.83333 22.5,4.16667 22.5,4.5C 22.6655,8.51383 22.4988,12.5138 22,16.5C 21.6667,15.8333 21.3333,15.1667 21,14.5C 20.8138,17.0356 20.3138,19.369 19.5,21.5C 19.5,18.5 19.5,15.5 19.5,12.5C 20.1174,12.6107 20.6174,12.944 21,13.5C 21.4935,11.8659 21.6602,10.1992 21.5,8.5C 21.6567,7.12656 21.49,5.79323 21,4.5C 17.9835,1.08111 18.4835,0.747775 22.5,3.5 Z"/></g>
<g><path style="opacity:1" fill="#b8b4d6" d="M 6.5,8.5 C 9.5,9.5 11.5,11.5 12.5,14.5C 10.1667,12.8333 8.16667,10.8333 6.5,8.5 Z"/></g>
<g><path style="opacity:1" fill="#a7a3ca" d="M 5.5,6.5 C 8.68106,7.34852 11.3477,9.01518 13.5,11.5C 13.8333,12.8333 14.1667,14.1667 14.5,15.5C 13.8333,15.1667 13.1667,14.8333 12.5,14.5C 11.5,11.5 9.5,9.5 6.5,8.5C 6.16667,7.83333 5.83333,7.16667 5.5,6.5 Z"/></g>
<g><path style="opacity:1" fill="#c6c0dd" d="M 0.5,7.5 C 2.56475,7.51715 4.56475,7.85048 6.5,8.5C 8.16667,10.8333 10.1667,12.8333 12.5,14.5C 13.1667,14.8333 13.8333,15.1667 14.5,15.5C 14.5,17.8333 14.5,20.1667 14.5,22.5C 13.8333,22.5 13.1667,22.5 12.5,22.5C 12.7845,20.5853 12.4511,18.9187 11.5,17.5C 9.5359,12.5412 5.86923,9.87449 0.5,9.5C 0.5,8.83333 0.5,8.16667 0.5,7.5 Z"/></g>
<g><path style="opacity:1" fill="#cbc5df" d="M 13.5,9.5 C 14.5,9.83333 15.1667,10.5 15.5,11.5C 16.494,13.3344 16.494,15.0011 15.5,16.5C 15.5,15.8333 15.1667,15.5 14.5,15.5C 14.1667,14.1667 13.8333,12.8333 13.5,11.5C 13.5,10.8333 13.5,10.1667 13.5,9.5 Z"/></g>
<g><path style="opacity:1" fill="#c3bedb" d="M 20.5,8.5 C 20.8333,8.5 21.1667,8.5 21.5,8.5C 21.6602,10.1992 21.4935,11.8659 21,13.5C 20.6174,12.944 20.1174,12.6107 19.5,12.5C 19.6085,10.4862 18.9418,8.81953 17.5,7.5C 17.4346,7.06178 17.6012,6.72845 18,6.5C 18.7083,7.38053 19.5416,8.0472 20.5,8.5 Z"/></g>
<g><path style="opacity:1" fill="#d5cde3" d="M 0.5,9.5 C 5.86923,9.87449 9.5359,12.5412 11.5,17.5C 10.6043,16.4937 9.93767,16.4937 9.5,17.5C 8.5,17.1667 7.83333,16.5 7.5,15.5C 5.85254,13.6736 3.85254,12.3403 1.5,11.5C 1.16667,10.8333 0.833333,10.1667 0.5,9.5 Z"/></g>
<g><path style="opacity:1" fill="#873b8c" d="M 0.5,11.5 C 0.833333,11.5 1.16667,11.5 1.5,11.5C 3.85254,12.3403 5.85254,13.6736 7.5,15.5C 6.95691,15.56 6.62358,15.8933 6.5,16.5C 7.17171,18.5295 7.83837,20.5295 8.5,22.5C 7.83333,22.5 7.16667,22.5 6.5,22.5C 6.55327,18.8618 4.8866,16.8618 1.5,16.5C 1.5,15.8333 1.16667,15.5 0.5,15.5C 0.5,14.1667 0.5,12.8333 0.5,11.5 Z"/></g>
<g><path style="opacity:1" fill="#c6c0dd" d="M 15.5,11.5 C 16.1174,11.6107 16.6174,11.944 17,12.5C 17.8045,15.6965 17.6378,18.6965 16.5,21.5C 16.634,19.7085 16.3007,18.0418 15.5,16.5C 16.494,15.0011 16.494,13.3344 15.5,11.5 Z"/></g>
<g><path style="opacity:1" fill="#aaa6cd" d="M 14.5,15.5 C 15.1667,15.5 15.5,15.8333 15.5,16.5C 16.3007,18.0418 16.634,19.7085 16.5,21.5C 16.5,21.8333 16.5,22.1667 16.5,22.5C 15.8333,22.5 15.1667,22.5 14.5,22.5C 14.5,20.1667 14.5,17.8333 14.5,15.5 Z"/></g>
<g><path style="opacity:1" fill="#d8d0e6" d="M 11.5,17.5 C 12.4511,18.9187 12.7845,20.5853 12.5,22.5C 11.8333,22.5 11.1667,22.5 10.5,22.5C 10.7373,21.209 10.404,20.209 9.5,19.5C 9.5,18.8333 9.5,18.1667 9.5,17.5C 9.93767,16.4937 10.6043,16.4937 11.5,17.5 Z"/></g>
<g><path style="opacity:1" fill="#ac7db4" d="M 0.5,15.5 C 1.16667,15.5 1.5,15.8333 1.5,16.5C 2.87715,18.2895 3.87715,20.2895 4.5,22.5C 3.17793,22.67 2.01127,22.3366 1,21.5C 0.504543,19.5273 0.337876,17.5273 0.5,15.5 Z"/></g>
<g><path style="opacity:1" fill="#7e2b83" d="M 7.5,15.5 C 7.83333,16.5 8.5,17.1667 9.5,17.5C 9.5,18.1667 9.5,18.8333 9.5,19.5C 9.73731,20.791 9.40397,21.791 8.5,22.5C 7.83837,20.5295 7.17171,18.5295 6.5,16.5C 6.62358,15.8933 6.95691,15.56 7.5,15.5 Z"/></g>
<g><path style="opacity:1" fill="#9d5fa1" d="M 1.5,16.5 C 4.8866,16.8618 6.55327,18.8618 6.5,22.5C 5.83333,22.5 5.16667,22.5 4.5,22.5C 3.87715,20.2895 2.87715,18.2895 1.5,16.5 Z"/></g>
<g><path style="opacity:0.837" fill="#867dad" d="M -0.5,11.5 C -0.166667,11.5 0.166667,11.5 0.5,11.5C 0.5,12.8333 0.5,14.1667 0.5,15.5C 0.337876,17.5273 0.504543,19.5273 1,21.5C 2.01127,22.3366 3.17793,22.67 4.5,22.5C 5.16667,22.5 5.83333,22.5 6.5,22.5C 7.16667,22.5 7.83333,22.5 8.5,22.5C 9.40397,21.791 9.73731,20.791 9.5,19.5C 10.404,20.209 10.7373,21.209 10.5,22.5C 10.5,22.8333 10.5,23.1667 10.5,23.5C 6.83333,23.5 3.16667,23.5 -0.5,23.5C -0.5,19.5 -0.5,15.5 -0.5,11.5 Z"/></g>
<g><path style="opacity:0.561" fill="#8381b0" d="M 23.5,19.5 C 23.5,20.8333 23.5,22.1667 23.5,23.5C 19.1667,23.5 14.8333,23.5 10.5,23.5C 10.5,23.1667 10.5,22.8333 10.5,22.5C 11.1667,22.5 11.8333,22.5 12.5,22.5C 13.1667,22.5 13.8333,22.5 14.5,22.5C 15.1667,22.5 15.8333,22.5 16.5,22.5C 17.5,22.5 18.5,22.5 19.5,22.5C 20.8333,21.5 22.1667,20.5 23.5,19.5 Z"/></g>
</svg>
