<?xml version="1.0" encoding="UTF-8"?>
<!DOCTYPE svg PUBLIC "-//W3C//DTD SVG 1.1//EN" "http://www.w3.org/Graphics/SVG/1.1/DTD/svg11.dtd">
<svg xmlns="http://www.w3.org/2000/svg" version="1.1" width="24px" height="24px" style="shape-rendering:geometricPrecision; text-rendering:geometricPrecision; image-rendering:optimizeQuality; fill-rule:evenodd; clip-rule:evenodd" xmlns:xlink="http://www.w3.org/1999/xlink">
<g><path style="opacity:1" fill="#375ea1" d="M -0.5,2.5 C 7.5,2.5 15.5,2.5 23.5,2.5C 23.5,6.83333 23.5,11.1667 23.5,15.5C 23.1667,15.5 22.8333,15.5 22.5,15.5C 22.5,14.1667 22.5,12.8333 22.5,11.5C 22.9227,9.21879 22.256,7.55213 20.5,6.5C 20.5,6.16667 20.5,5.83333 20.5,5.5C 21.2891,5.21719 21.9558,4.71719 22.5,4C 15.1667,3.33333 7.83333,3.33333 0.5,4C 1.0442,4.71719 1.71087,5.21719 2.5,5.5C 2.5,5.83333 2.5,6.16667 2.5,6.5C 0.743953,7.55213 0.0772868,9.21879 0.5,11.5C 0.5,12.5 0.5,13.5 0.5,14.5C 0.166667,14.5 -0.166667,14.5 -0.5,14.5C -0.5,10.5 -0.5,6.5 -0.5,2.5 Z"/></g>
<g><path style="opacity:1" fill="#d7e0ee" d="M 20.5,5.5 C 17.7131,4.52333 14.7131,4.19 11.5,4.5C 8.2869,4.19 5.2869,4.52333 2.5,5.5C 1.71087,5.21719 1.0442,4.71719 0.5,4C 7.83333,3.33333 15.1667,3.33333 22.5,4C 21.9558,4.71719 21.2891,5.21719 20.5,5.5 Z"/></g>
<g><path style="opacity:1" fill="#f1f4f9" d="M 11.5,4.5 C 11.0825,5.22158 10.4158,5.72158 9.5,6C 12.3647,6.1829 15.0314,6.6829 17.5,7.5C 14.9065,11.881 11.5732,12.881 7.5,10.5C 6.41543,8.41311 4.74876,7.07978 2.5,6.5C 2.5,6.16667 2.5,5.83333 2.5,5.5C 5.2869,4.52333 8.2869,4.19 11.5,4.5 Z"/></g>
<g><path style="opacity:1" fill="#eef2f8" d="M 11.5,4.5 C 14.7131,4.19 17.7131,4.52333 20.5,5.5C 20.5,5.83333 20.5,6.16667 20.5,6.5C 19.391,6.55688 18.391,6.89022 17.5,7.5C 15.0314,6.6829 12.3647,6.1829 9.5,6C 10.4158,5.72158 11.0825,5.22158 11.5,4.5 Z"/></g>
<g><path style="opacity:1" fill="#5673a2" d="M 2.5,6.5 C 4.74876,7.07978 6.41543,8.41311 7.5,10.5C 7.16667,10.5 6.83333,10.5 6.5,10.5C 4.83333,9.5 3.5,8.16667 2.5,6.5 Z"/></g>
<g><path style="opacity:1" fill="#56719c" d="M 20.5,6.5 C 19.1667,8.5 17.5,10.1667 15.5,11.5C 14.5,11.8333 13.8333,12.5 13.5,13.5C 12.1667,13.5 10.8333,13.5 9.5,13.5C 8.83333,12.5 8.16667,11.5 7.5,10.5C 11.5732,12.881 14.9065,11.881 17.5,7.5C 18.391,6.89022 19.391,6.55688 20.5,6.5 Z"/></g>
<g><path style="opacity:1" fill="#d1e5f2" d="M 2.5,6.5 C 3.5,8.16667 4.83333,9.5 6.5,10.5C 5.44787,12.256 3.78121,12.9227 1.5,12.5C 1.5,11.8333 1.16667,11.5 0.5,11.5C 0.0772868,9.21879 0.743953,7.55213 2.5,6.5 Z"/></g>
<g><path style="opacity:1" fill="#cde1ef" d="M 20.5,6.5 C 22.256,7.55213 22.9227,9.21879 22.5,11.5C 22.1667,11.5 21.8333,11.5 21.5,11.5C 19.3888,12.7416 17.3888,12.7416 15.5,11.5C 17.5,10.1667 19.1667,8.5 20.5,6.5 Z"/></g>
<g><path style="opacity:1" fill="#bdcfe6" d="M 6.5,10.5 C 6.83333,10.5 7.16667,10.5 7.5,10.5C 8.16667,11.5 8.83333,12.5 9.5,13.5C 8.37841,14.1558 7.04508,14.4892 5.5,14.5C 3.66723,14.4146 2.3339,13.7479 1.5,12.5C 3.78121,12.9227 5.44787,12.256 6.5,10.5 Z"/></g>
<g><path style="opacity:1" fill="#bacce3" d="M 15.5,11.5 C 17.3888,12.7416 19.3888,12.7416 21.5,11.5C 21.5,12.1667 21.5,12.8333 21.5,13.5C 18.6717,14.4967 16.005,14.4967 13.5,13.5C 13.8333,12.5 14.5,11.8333 15.5,11.5 Z"/></g>
<g><path style="opacity:1" fill="#adbdda" d="M 0.5,11.5 C 1.16667,11.5 1.5,11.8333 1.5,12.5C 2.3339,13.7479 3.66723,14.4146 5.5,14.5C 7.04508,14.4892 8.37841,14.1558 9.5,13.5C 10.8333,13.5 12.1667,13.5 13.5,13.5C 16.005,14.4967 18.6717,14.4967 21.5,13.5C 19.9254,15.1137 19.2587,17.1137 19.5,19.5C 18.5,19.5 17.5,19.5 16.5,19.5C 16.5858,18.5041 16.2524,17.6708 15.5,17C 10.6478,16.1849 5.98115,16.3516 1.5,17.5C 1.5,18.1667 1.5,18.8333 1.5,19.5C 0.548855,18.0813 0.215521,16.4147 0.5,14.5C 0.5,13.5 0.5,12.5 0.5,11.5 Z"/></g>
<g><path style="opacity:1" fill="#8397ba" d="M 21.5,11.5 C 21.8333,11.5 22.1667,11.5 22.5,11.5C 22.5,12.8333 22.5,14.1667 22.5,15.5C 22.5,16.8333 22.5,18.1667 22.5,19.5C 21.5,19.5 20.5,19.5 19.5,19.5C 19.2587,17.1137 19.9254,15.1137 21.5,13.5C 21.5,12.8333 21.5,12.1667 21.5,11.5 Z"/></g>
<g><path style="opacity:1" fill="#284979" d="M -0.5,14.5 C -0.166667,14.5 0.166667,14.5 0.5,14.5C 0.215521,16.4147 0.548855,18.0813 1.5,19.5C 5.5,19.5 9.5,19.5 13.5,19.5C 14.5,19.5 15.5,19.5 16.5,19.5C 17.5,19.5 18.5,19.5 19.5,19.5C 20.5,19.5 21.5,19.5 22.5,19.5C 22.5,18.1667 22.5,16.8333 22.5,15.5C 22.8333,15.5 23.1667,15.5 23.5,15.5C 23.5,17.1667 23.5,18.8333 23.5,20.5C 15.5,20.5 7.5,20.5 -0.5,20.5C -0.5,18.5 -0.5,16.5 -0.5,14.5 Z"/></g>
<g><path style="opacity:1" fill="#becfe7" d="M 1.5,17.5 C 5.84611,17.3343 10.1794,17.501 14.5,18C 13.944,18.3826 13.6107,18.8826 13.5,19.5C 9.5,19.5 5.5,19.5 1.5,19.5C 1.5,18.8333 1.5,18.1667 1.5,17.5 Z"/></g>
<g><path style="opacity:1" fill="#b9c9e3" d="M 1.5,17.5 C 5.98115,16.3516 10.6478,16.1849 15.5,17C 16.2524,17.6708 16.5858,18.5041 16.5,19.5C 15.5,19.5 14.5,19.5 13.5,19.5C 13.6107,18.8826 13.944,18.3826 14.5,18C 10.1794,17.501 5.84611,17.3343 1.5,17.5 Z"/></g>
</svg>
