<?xml version="1.0" encoding="UTF-8"?>
<!DOCTYPE svg PUBLIC "-//W3C//DTD SVG 1.1//EN" "http://www.w3.org/Graphics/SVG/1.1/DTD/svg11.dtd">
<svg xmlns="http://www.w3.org/2000/svg" version="1.1" width="24px" height="24px" style="shape-rendering:geometricPrecision; text-rendering:geometricPrecision; image-rendering:optimizeQuality; fill-rule:evenodd; clip-rule:evenodd" xmlns:xlink="http://www.w3.org/1999/xlink">
<g><path style="opacity:1" fill="#4e7a9c" d="M 8.5,-0.5 C 9.5,-0.5 10.5,-0.5 11.5,-0.5C 11.5,0.5 11.5,1.5 11.5,2.5C 10.8333,2.5 10.1667,2.5 9.5,2.5C 8.89022,1.60895 8.55688,0.608953 8.5,-0.5 Z"/></g>
<g><path style="opacity:1" fill="#346693" d="M 11.5,-0.5 C 12.5,-0.5 13.5,-0.5 14.5,-0.5C 14.5,0.166667 14.5,0.833333 14.5,1.5C 13.6236,1.36912 12.9569,1.70245 12.5,2.5C 13.325,3.38568 14.325,3.71901 15.5,3.5C 16.1667,3.5 16.5,3.83333 16.5,4.5C 15.8333,4.5 15.1667,4.5 14.5,4.5C 13.5,4.5 12.5,4.5 11.5,4.5C 11.5,3.83333 11.5,3.16667 11.5,2.5C 11.5,1.5 11.5,0.5 11.5,-0.5 Z"/></g>
<g><path style="opacity:0.09" fill="#124678" d="M 7.5,-0.5 C 7.83333,-0.5 8.16667,-0.5 8.5,-0.5C 8.55688,0.608953 8.89022,1.60895 9.5,2.5C 9.15829,3.33825 8.49162,3.67158 7.5,3.5C 7.5,2.16667 7.5,0.833333 7.5,-0.5 Z"/></g>
<g><path style="opacity:0.455" fill="#114078" d="M 14.5,1.5 C 14.8333,2.16667 15.1667,2.83333 15.5,3.5C 14.325,3.71901 13.325,3.38568 12.5,2.5C 12.9569,1.70245 13.6236,1.36912 14.5,1.5 Z"/></g>
<g><path style="opacity:1" fill="#618baf" d="M 9.5,2.5 C 10.1667,2.5 10.8333,2.5 11.5,2.5C 11.5,3.16667 11.5,3.83333 11.5,4.5C 10.1667,4.5 8.83333,4.5 7.5,4.5C 7.5,4.16667 7.5,3.83333 7.5,3.5C 8.49162,3.67158 9.15829,3.33825 9.5,2.5 Z"/></g>
<g><path style="opacity:1" fill="#d9e4ef" d="M 6.5,5.5 C 6.5,4.83333 6.83333,4.5 7.5,4.5C 8.83333,4.5 10.1667,4.5 11.5,4.5C 11.5,4.83333 11.5,5.16667 11.5,5.5C 11.1583,6.33825 10.4916,6.67158 9.5,6.5C 8.79105,5.59603 7.79105,5.26269 6.5,5.5 Z"/></g>
<g><path style="opacity:1" fill="#b7cbdc" d="M 11.5,5.5 C 11.5,5.16667 11.5,4.83333 11.5,4.5C 12.5,4.5 13.5,4.5 14.5,4.5C 14.4431,5.60895 14.1098,6.60895 13.5,7.5C 12.8333,6.83333 12.1667,6.16667 11.5,5.5 Z"/></g>
<g><path style="opacity:0.965" fill="#5071b2" d="M 7.5,3.5 C 7.5,3.83333 7.5,4.16667 7.5,4.5C 6.83333,4.5 6.5,4.83333 6.5,5.5C 5.83333,5.5 5.5,5.83333 5.5,6.5C 4.83333,6.5 4.5,6.83333 4.5,7.5C 3.83333,7.5 3.5,7.83333 3.5,8.5C 3.16667,8.5 2.83333,8.5 2.5,8.5C 3.16667,5.83333 4.83333,4.16667 7.5,3.5 Z"/></g>
<g><path style="opacity:1" fill="#e6edf5" d="M 5.5,6.5 C 5.5,5.83333 5.83333,5.5 6.5,5.5C 7.79105,5.26269 8.79105,5.59603 9.5,6.5C 8.50838,6.32842 7.84171,6.66175 7.5,7.5C 6.83333,7.16667 6.16667,6.83333 5.5,6.5 Z"/></g>
<g><path style="opacity:1" fill="#d3e2ee" d="M 11.5,5.5 C 12.1667,6.16667 12.8333,6.83333 13.5,7.5C 14.1667,7.5 14.5,7.83333 14.5,8.5C 13.5084,8.32842 12.8417,8.66175 12.5,9.5C 12.1667,9.5 11.8333,9.5 11.5,9.5C 11.6716,8.50838 11.3382,7.84171 10.5,7.5C 9.5,7.5 8.5,7.5 7.5,7.5C 7.84171,6.66175 8.50838,6.32842 9.5,6.5C 10.4916,6.67158 11.1583,6.33825 11.5,5.5 Z"/></g>
<g><path style="opacity:0.71" fill="#1b4682" d="M 17.5,6.5 C 17.5,6.16667 17.5,5.83333 17.5,5.5C 19.9118,5.69408 20.9118,7.02741 20.5,9.5C 19.7281,8.30646 18.7281,7.30646 17.5,6.5 Z"/></g>
<g><path style="opacity:1" fill="#e0eaf3" d="M 4.5,7.5 C 4.5,6.83333 4.83333,6.5 5.5,6.5C 6.16667,6.83333 6.83333,7.16667 7.5,7.5C 8.5,7.5 9.5,7.5 10.5,7.5C 10.5,8.16667 10.5,8.83333 10.5,9.5C 10.1667,9.5 9.83333,9.5 9.5,9.5C 8.65225,8.37505 7.65225,8.37505 6.5,9.5C 6.5,8.83333 6.16667,8.5 5.5,8.5C 5.5,7.83333 5.16667,7.5 4.5,7.5 Z"/></g>
<g><path style="opacity:1" fill="#9bb4ce" d="M 14.5,4.5 C 15.1667,4.5 15.8333,4.5 16.5,4.5C 17.1667,4.5 17.5,4.83333 17.5,5.5C 16.1001,6.09982 15.1001,7.09982 14.5,8.5C 14.5,7.83333 14.1667,7.5 13.5,7.5C 14.1098,6.60895 14.4431,5.60895 14.5,4.5 Z"/></g>
<g><path style="opacity:1" fill="#e5ecf4" d="M 4.5,7.5 C 5.16667,7.5 5.5,7.83333 5.5,8.5C 4.89022,9.39105 4.55688,10.391 4.5,11.5C 3.59603,10.791 3.26269,9.79105 3.5,8.5C 3.5,7.83333 3.83333,7.5 4.5,7.5 Z"/></g>
<g><path style="opacity:1" fill="#bcd2e4" d="M 17.5,5.5 C 17.5,5.83333 17.5,6.16667 17.5,6.5C 16.596,7.20895 16.2627,8.20895 16.5,9.5C 15.8333,9.5 15.1667,9.5 14.5,9.5C 13.6043,10.5063 12.9377,10.5063 12.5,9.5C 12.8417,8.66175 13.5084,8.32842 14.5,8.5C 15.1001,7.09982 16.1001,6.09982 17.5,5.5 Z"/></g>
<g><path style="opacity:1" fill="#b6cadc" d="M 17.5,6.5 C 18.7281,7.30646 19.7281,8.30646 20.5,9.5C 20.5,11.1667 20.5,12.8333 20.5,14.5C 20.6716,15.4916 20.3382,16.1583 19.5,16.5C 19.6621,14.4727 19.4955,12.4727 19,10.5C 18.8019,12.3817 18.3019,14.0484 17.5,15.5C 17.7678,13.901 17.4345,12.5676 16.5,11.5C 17.5063,10.6043 17.5063,9.93767 16.5,9.5C 16.2627,8.20895 16.596,7.20895 17.5,6.5 Z"/></g>
<g><path style="opacity:1" fill="#ccdbea" d="M 5.5,8.5 C 6.16667,8.5 6.5,8.83333 6.5,9.5C 6.5,9.83333 6.5,10.1667 6.5,10.5C 5.66175,10.8417 5.32842,11.5084 5.5,12.5C 4.83333,12.5 4.5,12.1667 4.5,11.5C 4.55688,10.391 4.89022,9.39105 5.5,8.5 Z"/></g>
<g><path style="opacity:1" fill="#a4bed3" d="M 9.5,9.5 C 8.82803,10.2674 7.9947,10.9341 7,11.5C 6.60123,11.2716 6.43456,10.9382 6.5,10.5C 6.5,10.1667 6.5,9.83333 6.5,9.5C 7.65225,8.37505 8.65225,8.37505 9.5,9.5 Z"/></g>
<g><path style="opacity:1" fill="#3c7090" d="M 10.5,7.5 C 11.3382,7.84171 11.6716,8.50838 11.5,9.5C 11.2322,11.099 11.5655,12.4324 12.5,13.5C 12.5,14.1667 12.5,14.8333 12.5,15.5C 11.5,15.1667 10.8333,14.5 10.5,13.5C 10.5,12.1667 10.5,10.8333 10.5,9.5C 10.5,8.83333 10.5,8.16667 10.5,7.5 Z"/></g>
<g><path style="opacity:1" fill="#9fbdd4" d="M 14.5,9.5 C 15.1667,9.5 15.8333,9.5 16.5,9.5C 17.5063,9.93767 17.5063,10.6043 16.5,11.5C 15.1667,11.5 14.5,10.8333 14.5,9.5 Z"/></g>
<g><path style="opacity:0.344" fill="#123c99" d="M 2.5,8.5 C 1.78138,10.7638 1.44805,13.0971 1.5,15.5C 1.5,15.8333 1.5,16.1667 1.5,16.5C 0.847611,15.5514 0.514278,14.3847 0.5,13C 0.306836,10.9919 0.973503,9.49189 2.5,8.5 Z"/></g>
<g><path style="opacity:1" fill="#dff0f9" d="M 9.5,9.5 C 9.83333,9.5 10.1667,9.5 10.5,9.5C 10.5,10.8333 10.5,12.1667 10.5,13.5C 9.5,13.5 8.5,13.5 7.5,13.5C 7.15829,12.6618 6.49162,12.3284 5.5,12.5C 5.32842,11.5084 5.66175,10.8417 6.5,10.5C 6.43456,10.9382 6.60123,11.2716 7,11.5C 7.9947,10.9341 8.82803,10.2674 9.5,9.5 Z"/></g>
<g><path style="opacity:1" fill="#d6eaf6" d="M 11.5,9.5 C 11.8333,9.5 12.1667,9.5 12.5,9.5C 12.9377,10.5063 13.6043,10.5063 14.5,9.5C 14.5,10.8333 15.1667,11.5 16.5,11.5C 17.4345,12.5676 17.7678,13.901 17.5,15.5C 16.7321,14.7375 16.2321,13.7375 16,12.5C 15.6012,12.7284 15.4346,13.0618 15.5,13.5C 14.5,12.1667 13.5,12.1667 12.5,13.5C 11.5655,12.4324 11.2322,11.099 11.5,9.5 Z"/></g>
<g><path style="opacity:1" fill="#d7ebf7" d="M 15.5,13.5 C 14.8902,14.391 14.5569,15.391 14.5,16.5C 13.8333,16.1667 13.1667,15.8333 12.5,15.5C 12.5,14.8333 12.5,14.1667 12.5,13.5C 13.5,12.1667 14.5,12.1667 15.5,13.5 Z"/></g>
<g><path style="opacity:1" fill="#d5e0ea" d="M 19.5,16.5 C 19.5,16.8333 19.5,17.1667 19.5,17.5C 18.8333,17.5 18.1667,17.5 17.5,17.5C 17.5,16.8333 17.5,16.1667 17.5,15.5C 18.3019,14.0484 18.8019,12.3817 19,10.5C 19.4955,12.4727 19.6621,14.4727 19.5,16.5 Z"/></g>
<g><path style="opacity:1" fill="#547fa5" d="M 20.5,9.5 C 21.2223,10.5511 22.2223,11.2178 23.5,11.5C 23.5,12.5 23.5,13.5 23.5,14.5C 22.8333,14.5 22.1667,14.5 21.5,14.5C 21.1667,14.5 20.8333,14.5 20.5,14.5C 20.5,12.8333 20.5,11.1667 20.5,9.5 Z"/></g>
<g><path style="opacity:1" fill="#cddbea" d="M 2.5,8.5 C 2.83333,8.5 3.16667,8.5 3.5,8.5C 3.26269,9.79105 3.59603,10.791 4.5,11.5C 4.5,12.1667 4.83333,12.5 5.5,12.5C 5.16667,13.8333 4.83333,15.1667 4.5,16.5C 3.83333,16.5 3.16667,16.5 2.5,16.5C 2.5,15.8333 2.16667,15.5 1.5,15.5C 1.44805,13.0971 1.78138,10.7638 2.5,8.5 Z"/></g>
<g><path style="opacity:1" fill="#a6c2d6" d="M 17.5,15.5 C 17.5,16.1667 17.5,16.8333 17.5,17.5C 17.1667,17.5 16.8333,17.5 16.5,17.5C 16.1583,16.6618 15.4916,16.3284 14.5,16.5C 14.5569,15.391 14.8902,14.391 15.5,13.5C 15.4346,13.0618 15.6012,12.7284 16,12.5C 16.2321,13.7375 16.7321,14.7375 17.5,15.5 Z"/></g>
<g><path style="opacity:1" fill="#a7c4d9" d="M 5.5,12.5 C 6.49162,12.3284 7.15829,12.6618 7.5,13.5C 6.88432,14.2022 6.88432,15.2022 7.5,16.5C 6.83333,16.8333 6.16667,17.1667 5.5,17.5C 5.5,16.8333 5.16667,16.5 4.5,16.5C 4.83333,15.1667 5.16667,13.8333 5.5,12.5 Z"/></g>
<g><path style="opacity:1" fill="#d3e9f5" d="M 7.5,13.5 C 8.5,13.5 9.5,13.5 10.5,13.5C 10.8333,14.5 11.5,15.1667 12.5,15.5C 12.5,16.1667 12.5,16.8333 12.5,17.5C 12.1667,17.5 11.8333,17.5 11.5,17.5C 11.1583,16.6618 10.4916,16.3284 9.5,16.5C 8.83333,16.5 8.16667,16.5 7.5,16.5C 6.88432,15.2022 6.88432,14.2022 7.5,13.5 Z"/></g>
<g><path style="opacity:1" fill="#bbcdde" d="M 2.5,16.5 C 3.16667,16.5 3.83333,16.5 4.5,16.5C 5.16667,16.5 5.5,16.8333 5.5,17.5C 6.16667,18.1667 6.83333,18.8333 7.5,19.5C 6.49367,19.9377 6.49367,20.6043 7.5,21.5C 6.83333,21.5 6.16667,21.5 5.5,21.5C 4.24848,19.9991 3.24848,18.3325 2.5,16.5 Z"/></g>
<g><path style="opacity:0.173" fill="#2752a4" d="M 1.5,15.5 C 2.16667,15.5 2.5,15.8333 2.5,16.5C 3.24848,18.3325 4.24848,19.9991 5.5,21.5C 3.00291,20.8707 1.66957,19.204 1.5,16.5C 1.5,16.1667 1.5,15.8333 1.5,15.5 Z"/></g>
<g><path style="opacity:1" fill="#aac4d9" d="M 7.5,16.5 C 8.16667,16.5 8.83333,16.5 9.5,16.5C 9.57298,18.0269 8.90632,19.0269 7.5,19.5C 6.83333,18.8333 6.16667,18.1667 5.5,17.5C 6.16667,17.1667 6.83333,16.8333 7.5,16.5 Z"/></g>
<g><path style="opacity:1" fill="#c8d9e6" d="M 9.5,16.5 C 10.4916,16.3284 11.1583,16.6618 11.5,17.5C 8.62145,20.0307 9.28812,21.0307 13.5,20.5C 13.5,20.8333 13.5,21.1667 13.5,21.5C 12.4324,22.4345 11.099,22.7678 9.5,22.5C 8.83333,22.1667 8.16667,21.8333 7.5,21.5C 6.49367,20.6043 6.49367,19.9377 7.5,19.5C 8.90632,19.0269 9.57298,18.0269 9.5,16.5 Z"/></g>
<g><path style="opacity:1" fill="#aec6d9" d="M 11.5,17.5 C 11.8333,17.5 12.1667,17.5 12.5,17.5C 13.3382,17.8417 13.6716,18.5084 13.5,19.5C 13.5,19.8333 13.5,20.1667 13.5,20.5C 9.28812,21.0307 8.62145,20.0307 11.5,17.5 Z"/></g>
<g><path style="opacity:1" fill="#9fbad0" d="M 12.5,15.5 C 13.1667,15.8333 13.8333,16.1667 14.5,16.5C 14.4142,17.4959 14.7476,18.3292 15.5,19C 14.9056,19.4643 14.2389,19.631 13.5,19.5C 13.6716,18.5084 13.3382,17.8417 12.5,17.5C 12.5,16.8333 12.5,16.1667 12.5,15.5 Z"/></g>
<g><path style="opacity:1" fill="#b7cada" d="M 16.5,17.5 C 16.8333,17.5 17.1667,17.5 17.5,17.5C 18.1667,17.5 18.8333,17.5 19.5,17.5C 18.8333,18.8333 17.8333,19.8333 16.5,20.5C 16.5,19.5 16.5,18.5 16.5,17.5 Z"/></g>
<g><path style="opacity:0.118" fill="#17407e" d="M 20.5,14.5 C 20.8333,14.5 21.1667,14.5 21.5,14.5C 21.3484,18.1407 19.6818,20.8073 16.5,22.5C 16.5,22.1667 16.5,21.8333 16.5,21.5C 16.5,21.1667 16.5,20.8333 16.5,20.5C 17.8333,19.8333 18.8333,18.8333 19.5,17.5C 19.5,17.1667 19.5,16.8333 19.5,16.5C 20.3382,16.1583 20.6716,15.4916 20.5,14.5 Z"/></g>
<g><path style="opacity:1" fill="#c6d6e3" d="M 14.5,16.5 C 15.4916,16.3284 16.1583,16.6618 16.5,17.5C 16.5,18.5 16.5,19.5 16.5,20.5C 16.5,20.8333 16.5,21.1667 16.5,21.5C 15.5,21.5 14.5,21.5 13.5,21.5C 13.5,21.1667 13.5,20.8333 13.5,20.5C 13.5,20.1667 13.5,19.8333 13.5,19.5C 14.2389,19.631 14.9056,19.4643 15.5,19C 14.7476,18.3292 14.4142,17.4959 14.5,16.5 Z"/></g>
<g><path style="opacity:0.514" fill="#365fa0" d="M 5.5,21.5 C 6.16667,21.5 6.83333,21.5 7.5,21.5C 8.16667,21.8333 8.83333,22.1667 9.5,22.5C 9.5,22.8333 9.5,23.1667 9.5,23.5C 8.5,23.5 7.5,23.5 6.5,23.5C 6.16667,22.8333 5.83333,22.1667 5.5,21.5 Z"/></g>
<g><path style="opacity:0.776" fill="#255191" d="M 13.5,21.5 C 14.5,21.5 15.5,21.5 16.5,21.5C 16.5,21.8333 16.5,22.1667 16.5,22.5C 16.5,22.8333 16.5,23.1667 16.5,23.5C 14.1667,23.5 11.8333,23.5 9.5,23.5C 9.5,23.1667 9.5,22.8333 9.5,22.5C 11.099,22.7678 12.4324,22.4345 13.5,21.5 Z"/></g>
</svg>
