<?xml version="1.0" encoding="UTF-8"?>
<!DOCTYPE svg PUBLIC "-//W3C//DTD SVG 1.1//EN" "http://www.w3.org/Graphics/SVG/1.1/DTD/svg11.dtd">
<svg xmlns="http://www.w3.org/2000/svg" version="1.1" width="24px" height="24px" style="shape-rendering:geometricPrecision; text-rendering:geometricPrecision; image-rendering:optimizeQuality; fill-rule:evenodd; clip-rule:evenodd" xmlns:xlink="http://www.w3.org/1999/xlink">
<g><path style="opacity:0.784" fill="#3966ac" d="M -0.5,-0.5 C 5.16667,-0.5 10.8333,-0.5 16.5,-0.5C 16.5,-0.166667 16.5,0.166667 16.5,0.5C 15.5,0.5 14.5,0.5 13.5,0.5C 11.5,0.5 9.5,0.5 7.5,0.5C 6.5,0.5 5.5,0.5 4.5,0.5C 3.5,0.5 2.5,0.5 1.5,0.5C 0.538616,2.26465 0.205283,4.26465 0.5,6.5C 0.5,9.83333 0.5,13.1667 0.5,16.5C 0.5,16.8333 0.5,17.1667 0.5,17.5C 0.166667,17.5 -0.166667,17.5 -0.5,17.5C -0.5,11.5 -0.5,5.5 -0.5,-0.5 Z"/></g>
<g><path style="opacity:0.783" fill="#3662ab" d="M 16.5,0.5 C 16.5,0.166667 16.5,-0.166667 16.5,-0.5C 18.8333,-0.5 21.1667,-0.5 23.5,-0.5C 23.5,3.16667 23.5,6.83333 23.5,10.5C 23.1667,10.5 22.8333,10.5 22.5,10.5C 22.5,7.5 22.5,4.5 22.5,1.5C 20.7354,0.538616 18.7354,0.205283 16.5,0.5 Z"/></g>
<g><path style="opacity:1" fill="#e7f6fc" d="M 7.5,0.5 C 9.5,0.5 11.5,0.5 13.5,0.5C 13.5,1.16667 13.1667,1.5 12.5,1.5C 11.5,1.5 10.5,1.5 9.5,1.5C 9.84316,3.48324 9.17649,4.81658 7.5,5.5C 8.56205,3.90078 8.56205,2.23411 7.5,0.5 Z"/></g>
<g><path style="opacity:1" fill="#d8e9ee" d="M 1.5,0.5 C 2.5,0.5 3.5,0.5 4.5,0.5C 4.5,2.16667 4.5,3.83333 4.5,5.5C 4.16667,5.5 3.83333,5.5 3.5,5.5C 2.06873,4.21959 1.40206,2.55292 1.5,0.5 Z"/></g>
<g><path style="opacity:1" fill="#ebf6f9" d="M 4.5,0.5 C 5.5,0.5 6.5,0.5 7.5,0.5C 8.56205,2.23411 8.56205,3.90078 7.5,5.5C 6.5,5.5 5.5,5.5 4.5,5.5C 4.5,3.83333 4.5,2.16667 4.5,0.5 Z"/></g>
<g><path style="opacity:1" fill="#b9cae4" d="M 16.5,1.5 C 16.8432,3.48324 16.1765,4.81658 14.5,5.5C 14.1568,3.51676 14.8235,2.18342 16.5,1.5 Z"/></g>
<g><path style="opacity:1" fill="#adc2e0" d="M 16.5,1.5 C 18.1765,2.18342 18.8432,3.51676 18.5,5.5C 19.5,5.5 20.5,5.5 21.5,5.5C 21.5,5.83333 21.5,6.16667 21.5,6.5C 19.1667,6.5 16.8333,6.5 14.5,6.5C 14.5,6.16667 14.5,5.83333 14.5,5.5C 16.1765,4.81658 16.8432,3.48324 16.5,1.5 Z"/></g>
<g><path style="opacity:1" fill="#bccbe5" d="M 16.5,1.5 C 16.5,1.16667 16.5,0.833333 16.5,0.5C 18.7354,0.205283 20.7354,0.538616 22.5,1.5C 21.5655,2.56764 21.2322,3.90097 21.5,5.5C 20.5,5.5 19.5,5.5 18.5,5.5C 18.8432,3.51676 18.1765,2.18342 16.5,1.5 Z"/></g>
<g><path style="opacity:1" fill="#c8dff1" d="M 13.5,0.5 C 14.5,0.5 15.5,0.5 16.5,0.5C 16.5,0.833333 16.5,1.16667 16.5,1.5C 14.8235,2.18342 14.1568,3.51676 14.5,5.5C 14.5,5.83333 14.5,6.16667 14.5,6.5C 13.1667,6.5 11.8333,6.5 10.5,6.5C 11.1667,4.83333 11.8333,3.16667 12.5,1.5C 13.1667,1.5 13.5,1.16667 13.5,0.5 Z"/></g>
<g><path style="opacity:1" fill="#b7d4e2" d="M 1.5,0.5 C 1.40206,2.55292 2.06873,4.21959 3.5,5.5C 3.5,5.83333 3.5,6.16667 3.5,6.5C 2.83333,6.5 2.16667,6.5 1.5,6.5C 1.16667,6.5 0.833333,6.5 0.5,6.5C 0.205283,4.26465 0.538616,2.26465 1.5,0.5 Z"/></g>
<g><path style="opacity:1" fill="#d7eef9" d="M 12.5,1.5 C 11.8333,3.16667 11.1667,4.83333 10.5,6.5C 8.16667,6.5 5.83333,6.5 3.5,6.5C 3.5,6.16667 3.5,5.83333 3.5,5.5C 3.83333,5.5 4.16667,5.5 4.5,5.5C 5.5,5.5 6.5,5.5 7.5,5.5C 9.17649,4.81658 9.84316,3.48324 9.5,1.5C 10.5,1.5 11.5,1.5 12.5,1.5 Z"/></g>
<g><path style="opacity:1" fill="#2fa8de" d="M 1.5,6.5 C 2.16667,6.5 2.83333,6.5 3.5,6.5C 5.83333,6.5 8.16667,6.5 10.5,6.5C 11.8333,6.5 13.1667,6.5 14.5,6.5C 16.8333,6.5 19.1667,6.5 21.5,6.5C 20.8333,7.5 20.1667,8.5 19.5,9.5C 18.5,9.83333 17.8333,10.5 17.5,11.5C 17.1667,11.5 16.8333,11.5 16.5,11.5C 16.6716,10.5084 16.3382,9.84171 15.5,9.5C 14.4324,8.56552 13.099,8.23219 11.5,8.5C 11.5,9.5 11.5,10.5 11.5,11.5C 10.8333,11.5 10.5,11.1667 10.5,10.5C 8.94935,8.0184 7.61601,8.35173 6.5,11.5C 6.16667,11.5 5.83333,11.5 5.5,11.5C 5.08247,10.7784 4.4158,10.2784 3.5,10C 7.22594,8.95685 6.8926,8.45685 2.5,8.5C 1.66175,8.15829 1.32842,7.49162 1.5,6.5 Z"/></g>
<g><path style="opacity:1" fill="#c1d3eb" d="M 22.5,1.5 C 22.5,4.5 22.5,7.5 22.5,10.5C 21.5416,10.9528 20.7083,11.6195 20,12.5C 19.5172,11.552 19.3505,10.552 19.5,9.5C 20.1667,8.5 20.8333,7.5 21.5,6.5C 21.5,6.16667 21.5,5.83333 21.5,5.5C 21.2322,3.90097 21.5655,2.56764 22.5,1.5 Z"/></g>
<g><path style="opacity:1" fill="#ecf4fa" d="M 2.5,8.5 C 6.8926,8.45685 7.22594,8.95685 3.5,10C 4.4158,10.2784 5.08247,10.7784 5.5,11.5C 4.83333,11.5 4.5,11.8333 4.5,12.5C 1.87583,11.9236 1.20916,10.5902 2.5,8.5 Z"/></g>
<g><path style="opacity:1" fill="#d4e4f3" d="M 10.5,10.5 C 9.84439,11.2778 9.01106,11.9444 8,12.5C 7.2352,12.4301 6.7352,12.0967 6.5,11.5C 7.61601,8.35173 8.94935,8.0184 10.5,10.5 Z"/></g>
<g><path style="opacity:1" fill="#f9fbfd" d="M 10.5,10.5 C 10.5,11.1667 10.8333,11.5 11.5,11.5C 11.6716,12.4916 11.3382,13.1583 10.5,13.5C 7.87283,14.0916 5.20616,14.4249 2.5,14.5C 2.16667,14.5 1.83333,14.5 1.5,14.5C 2.5,13.8333 3.5,13.1667 4.5,12.5C 4.5,11.8333 4.83333,11.5 5.5,11.5C 5.83333,11.5 6.16667,11.5 6.5,11.5C 6.7352,12.0967 7.2352,12.4301 8,12.5C 9.01106,11.9444 9.84439,11.2778 10.5,10.5 Z"/></g>
<g><path style="opacity:1" fill="#82b4d7" d="M 0.5,6.5 C 0.833333,6.5 1.16667,6.5 1.5,6.5C 1.32842,7.49162 1.66175,8.15829 2.5,8.5C 1.20916,10.5902 1.87583,11.9236 4.5,12.5C 3.5,13.1667 2.5,13.8333 1.5,14.5C 1.5,15.1667 1.5,15.8333 1.5,16.5C 1.16667,16.5 0.833333,16.5 0.5,16.5C 0.5,13.1667 0.5,9.83333 0.5,6.5 Z"/></g>
<g><path style="opacity:1" fill="#deebf5" d="M 15.5,9.5 C 16.3382,9.84171 16.6716,10.5084 16.5,11.5C 14.8102,11.8564 13.8102,12.8564 13.5,14.5C 13.1667,14.5 12.8333,14.5 12.5,14.5C 12.5,12.8333 12.5,11.1667 12.5,9.5C 13.5,9.5 14.5,9.5 15.5,9.5 Z"/></g>
<g><path style="opacity:1" fill="#b1c1de" d="M 19.5,9.5 C 19.3505,10.552 19.5172,11.552 20,12.5C 20.7083,11.6195 21.5416,10.9528 22.5,10.5C 22.5,11.5 22.5,12.5 22.5,13.5C 20.8007,13.5271 19.4674,14.1938 18.5,15.5C 17.5655,14.4324 17.2322,13.099 17.5,11.5C 17.8333,10.5 18.5,9.83333 19.5,9.5 Z"/></g>
<g><path style="opacity:1" fill="#fdfefe" d="M 15.5,9.5 C 14.5,9.5 13.5,9.5 12.5,9.5C 12.5,11.1667 12.5,12.8333 12.5,14.5C 11.5084,14.6716 10.8417,14.3382 10.5,13.5C 11.3382,13.1583 11.6716,12.4916 11.5,11.5C 11.5,10.5 11.5,9.5 11.5,8.5C 13.099,8.23219 14.4324,8.56552 15.5,9.5 Z"/></g>
<g><path style="opacity:1" fill="#9bb3d8" d="M 16.5,11.5 C 16.8333,11.5 17.1667,11.5 17.5,11.5C 17.2322,13.099 17.5655,14.4324 18.5,15.5C 18.5,16.1667 18.1667,16.5 17.5,16.5C 17.1667,16.5 16.8333,16.5 16.5,16.5C 14.0752,16.316 14.0752,15.6493 16.5,14.5C 15.5754,13.4376 14.5754,13.4376 13.5,14.5C 13.8102,12.8564 14.8102,11.8564 16.5,11.5 Z"/></g>
<g><path style="opacity:1" fill="#5682be" d="M 10.5,13.5 C 10.8417,14.3382 11.5084,14.6716 12.5,14.5C 12.8333,14.5 13.1667,14.5 13.5,14.5C 13.5,15.1667 13.1667,15.5 12.5,15.5C 8.95815,15.8128 5.62482,15.4794 2.5,14.5C 5.20616,14.4249 7.87283,14.0916 10.5,13.5 Z"/></g>
<g><path style="opacity:1" fill="#255da9" d="M 1.5,14.5 C 1.83333,14.5 2.16667,14.5 2.5,14.5C 5.62482,15.4794 8.95815,15.8128 12.5,15.5C 12.5,15.8333 12.5,16.1667 12.5,16.5C 11.1667,16.5 9.83333,16.5 8.5,16.5C 6.83333,16.5 5.16667,16.5 3.5,16.5C 2.83333,16.5 2.16667,16.5 1.5,16.5C 1.5,15.8333 1.5,15.1667 1.5,14.5 Z"/></g>
<g><path style="opacity:1" fill="#bccfe7" d="M 16.5,16.5 C 15.6586,18.3792 15.3253,20.3792 15.5,22.5C 14.8333,22.5 14.1667,22.5 13.5,22.5C 13.5,22.1667 13.5,21.8333 13.5,21.5C 13.7845,19.5853 13.4511,17.9187 12.5,16.5C 12.5,16.1667 12.5,15.8333 12.5,15.5C 13.1667,15.5 13.5,15.1667 13.5,14.5C 14.5754,13.4376 15.5754,13.4376 16.5,14.5C 14.0752,15.6493 14.0752,16.316 16.5,16.5 Z"/></g>
<g><path style="opacity:1" fill="#a4b4d2" d="M 22.5,13.5 C 22.5,13.8333 22.5,14.1667 22.5,14.5C 20.8207,15.9163 19.1541,17.2497 17.5,18.5C 17.5,17.8333 17.5,17.1667 17.5,16.5C 18.1667,16.5 18.5,16.1667 18.5,15.5C 19.4674,14.1938 20.8007,13.5271 22.5,13.5 Z"/></g>
<g><path style="opacity:1" fill="#afccdd" d="M 0.5,16.5 C 0.833333,16.5 1.16667,16.5 1.5,16.5C 2.16667,16.5 2.83333,16.5 3.5,16.5C 3.5,16.8333 3.5,17.1667 3.5,17.5C 1.74395,18.5521 1.07729,20.2188 1.5,22.5C 0.548855,21.0813 0.215521,19.4147 0.5,17.5C 0.5,17.1667 0.5,16.8333 0.5,16.5 Z"/></g>
<g><path style="opacity:1" fill="#cadfe9" d="M 3.5,17.5 C 3.5,19.1667 3.5,20.8333 3.5,22.5C 2.83333,22.5 2.16667,22.5 1.5,22.5C 1.07729,20.2188 1.74395,18.5521 3.5,17.5 Z"/></g>
<g><path style="opacity:1" fill="#d8e8f0" d="M 3.5,16.5 C 5.16667,16.5 6.83333,16.5 8.5,16.5C 8.5,16.8333 8.5,17.1667 8.5,17.5C 8.16667,17.5 7.83333,17.5 7.5,17.5C 6.5,17.5 5.5,17.5 4.5,17.5C 4.5,19.1667 4.5,20.8333 4.5,22.5C 4.16667,22.5 3.83333,22.5 3.5,22.5C 3.5,20.8333 3.5,19.1667 3.5,17.5C 3.5,17.1667 3.5,16.8333 3.5,16.5 Z"/></g>
<g><path style="opacity:1" fill="#ecf7f9" d="M 7.5,17.5 C 7.36534,19.5542 8.03201,21.2209 9.5,22.5C 7.83333,22.5 6.16667,22.5 4.5,22.5C 4.5,20.8333 4.5,19.1667 4.5,17.5C 5.5,17.5 6.5,17.5 7.5,17.5 Z"/></g>
<g><path style="opacity:1" fill="#e0f2f9" d="M 7.5,17.5 C 7.83333,17.5 8.16667,17.5 8.5,17.5C 9.16667,17.5 9.83333,17.5 10.5,17.5C 10.366,19.2915 10.6993,20.9582 11.5,22.5C 10.8333,22.5 10.1667,22.5 9.5,22.5C 8.03201,21.2209 7.36534,19.5542 7.5,17.5 Z"/></g>
<g><path style="opacity:1" fill="#d4eaf8" d="M 10.5,17.5 C 11.9779,18.4475 12.9779,19.7809 13.5,21.5C 13.5,21.8333 13.5,22.1667 13.5,22.5C 12.8333,22.5 12.1667,22.5 11.5,22.5C 10.6993,20.9582 10.366,19.2915 10.5,17.5 Z"/></g>
<g><path style="opacity:1" fill="#c9dff1" d="M 8.5,17.5 C 8.5,17.1667 8.5,16.8333 8.5,16.5C 9.83333,16.5 11.1667,16.5 12.5,16.5C 13.4511,17.9187 13.7845,19.5853 13.5,21.5C 12.9779,19.7809 11.9779,18.4475 10.5,17.5C 9.83333,17.5 9.16667,17.5 8.5,17.5 Z"/></g>
<g><path style="opacity:1" fill="#a8b8d6" d="M 16.5,16.5 C 16.8333,16.5 17.1667,16.5 17.5,16.5C 17.5,17.1667 17.5,17.8333 17.5,18.5C 17.5,19.8333 17.5,21.1667 17.5,22.5C 17.1667,22.5 16.8333,22.5 16.5,22.5C 16.1667,22.5 15.8333,22.5 15.5,22.5C 15.3253,20.3792 15.6586,18.3792 16.5,16.5 Z"/></g>
<g><path style="opacity:1" fill="#7589ad" d="M 22.5,16.5 C 22.5,18.5 22.5,20.5 22.5,22.5C 21.5,22.5 20.5,22.5 19.5,22.5C 19.7549,20.0326 20.7549,18.0326 22.5,16.5 Z"/></g>
<g><path style="opacity:1" fill="#95a6c6" d="M 22.5,14.5 C 22.5,15.1667 22.5,15.8333 22.5,16.5C 20.7549,18.0326 19.7549,20.0326 19.5,22.5C 18.8333,22.5 18.1667,22.5 17.5,22.5C 17.5,21.1667 17.5,19.8333 17.5,18.5C 19.1541,17.2497 20.8207,15.9163 22.5,14.5 Z"/></g>
<g><path style="opacity:0.784" fill="#1f5187" d="M -0.5,17.5 C -0.166667,17.5 0.166667,17.5 0.5,17.5C 0.215521,19.4147 0.548855,21.0813 1.5,22.5C 2.16667,22.5 2.83333,22.5 3.5,22.5C 3.83333,22.5 4.16667,22.5 4.5,22.5C 6.16667,22.5 7.83333,22.5 9.5,22.5C 10.1667,22.5 10.8333,22.5 11.5,22.5C 12.1667,22.5 12.8333,22.5 13.5,22.5C 14.1667,22.5 14.8333,22.5 15.5,22.5C 15.8333,22.5 16.1667,22.5 16.5,22.5C 16.5,22.8333 16.5,23.1667 16.5,23.5C 10.8333,23.5 5.16667,23.5 -0.5,23.5C -0.5,21.5 -0.5,19.5 -0.5,17.5 Z"/></g>
<g><path style="opacity:0.78" fill="#144681" d="M 22.5,10.5 C 22.8333,10.5 23.1667,10.5 23.5,10.5C 23.5,14.8333 23.5,19.1667 23.5,23.5C 21.1667,23.5 18.8333,23.5 16.5,23.5C 16.5,23.1667 16.5,22.8333 16.5,22.5C 16.8333,22.5 17.1667,22.5 17.5,22.5C 18.1667,22.5 18.8333,22.5 19.5,22.5C 20.5,22.5 21.5,22.5 22.5,22.5C 22.5,20.5 22.5,18.5 22.5,16.5C 22.5,15.8333 22.5,15.1667 22.5,14.5C 22.5,14.1667 22.5,13.8333 22.5,13.5C 22.5,12.5 22.5,11.5 22.5,10.5 Z"/></g>
</svg>
