<?xml version="1.0" encoding="UTF-8"?>
<!DOCTYPE svg PUBLIC "-//W3C//DTD SVG 1.1//EN" "http://www.w3.org/Graphics/SVG/1.1/DTD/svg11.dtd">
<svg xmlns="http://www.w3.org/2000/svg" version="1.1" width="24px" height="24px" style="shape-rendering:geometricPrecision; text-rendering:geometricPrecision; image-rendering:optimizeQuality; fill-rule:evenodd; clip-rule:evenodd" xmlns:xlink="http://www.w3.org/1999/xlink">
<g><path style="opacity:1" fill="#f7f9f9" d="M -0.5,-0.5 C 7.5,-0.5 15.5,-0.5 23.5,-0.5C 23.5,7.5 23.5,15.5 23.5,23.5C 15.5,23.5 7.5,23.5 -0.5,23.5C -0.5,15.5 -0.5,7.5 -0.5,-0.5 Z"/></g>
<g><path style="opacity:1" fill="#1c243c" d="M 8.5,7.5 C 8.5,8.16667 8.5,8.83333 8.5,9.5C 4.5,8.83333 4.5,8.16667 8.5,7.5 Z"/></g>
<g><path style="opacity:1" fill="#808996" d="M 7.5,1.5 C 25.7687,3.04968 25.7687,4.04968 7.5,4.5C 7.5,3.5 7.5,2.5 7.5,1.5 Z"/></g>
<g><path style="opacity:1" fill="#7a848d" d="M 1.5,1.5 C 3.35572,1.43714 5.02239,1.77048 6.5,2.5C 5.33152,4.21744 3.66485,4.88411 1.5,4.5C 1.5,3.5 1.5,2.5 1.5,1.5 Z"/></g>
<g><path style="opacity:1" fill="#161b3b" d="M 11.5,13.5 C 10.1667,12.8333 9.16667,11.8333 8.5,10.5C 9.16667,11.8333 10.1667,12.8333 11.5,13.5 Z"/></g>
<g><path style="opacity:1" fill="#b9c2cf" d="M 16.5,19.5 C 18.0635,16.5546 17.5635,13.888 15,11.5C 13.8118,12.5634 13.3118,13.8967 13.5,15.5C 12.8333,14.8333 12.1667,14.1667 11.5,13.5C 12.2341,12.2921 12.5674,10.9587 12.5,9.5C 11.0413,9.43255 9.70792,9.76589 8.5,10.5C 8.5,10.1667 8.5,9.83333 8.5,9.5C 8.5,8.83333 8.5,8.16667 8.5,7.5C 8.61998,6.41383 9.28665,5.74716 10.5,5.5C 14.1379,6.18209 17.8046,6.68209 21.5,7C 19.4815,11.2665 18.1481,15.7665 17.5,20.5C 16.8933,20.3764 16.56,20.0431 16.5,19.5 Z"/></g>
<g><path style="opacity:1" fill="#0d1529" d="M 16.5,8.5 C 18.2726,9.31431 18.7726,10.6476 18,12.5C 15.988,11.4335 15.488,10.1002 16.5,8.5 Z"/></g>
<g><path style="opacity:1" fill="#121820" d="M 12.5,8.5 C 13.0768,7.22671 13.7435,7.22671 14.5,8.5C 14.0302,9.46295 13.3635,9.46295 12.5,8.5 Z"/></g>
<g><path style="opacity:1" fill="#121a35" d="M 16.5,19.5 C 15.5,18.1667 14.5,16.8333 13.5,15.5C 13.3118,13.8967 13.8118,12.5634 15,11.5C 17.5635,13.888 18.0635,16.5546 16.5,19.5 Z"/></g>
</svg>
