<?xml version="1.0" encoding="UTF-8"?>
<!DOCTYPE svg PUBLIC "-//W3C//DTD SVG 1.1//EN" "http://www.w3.org/Graphics/SVG/1.1/DTD/svg11.dtd">
<svg xmlns="http://www.w3.org/2000/svg" version="1.1" width="24px" height="24px" style="shape-rendering:geometricPrecision; text-rendering:geometricPrecision; image-rendering:optimizeQuality; fill-rule:evenodd; clip-rule:evenodd" xmlns:xlink="http://www.w3.org/1999/xlink">
<g><path style="opacity:0.74" fill="#325daa" d="M 4.5,0.5 C 4.5,0.166667 4.5,-0.166667 4.5,-0.5C 9.16667,-0.5 13.8333,-0.5 18.5,-0.5C 20.348,3.85362 21.0147,8.52028 20.5,13.5C 20.1667,13.5 19.8333,13.5 19.5,13.5C 19.8168,9.29841 19.4834,5.29841 18.5,1.5C 13.8809,0.686398 9.21425,0.353065 4.5,0.5 Z"/></g>
<g><path style="opacity:1" fill="#9eb8de" d="M 4.5,0.5 C 9.21425,0.353065 13.8809,0.686398 18.5,1.5C 16.1561,1.93971 14.1561,2.93971 12.5,4.5C 10.5315,2.68501 8.19822,2.18501 5.5,3C 6.4158,3.27842 7.08247,3.77842 7.5,4.5C 6.83333,4.5 6.16667,4.5 5.5,4.5C 4.51192,9.64045 4.17859,14.9738 4.5,20.5C 3.19137,13.9322 3.19137,7.26556 4.5,0.5 Z"/></g>
<g><path style="opacity:1" fill="#bed8e5" d="M 5.5,4.5 C 5.21427,10.2586 5.5476,15.9252 6.5,21.5C 5.50838,21.6716 4.84171,21.3382 4.5,20.5C 4.17859,14.9738 4.51192,9.64045 5.5,4.5 Z"/></g>
<g><path style="opacity:1" fill="#deeef4" d="M 5.5,4.5 C 6.16667,4.5 6.83333,4.5 7.5,4.5C 8.49162,4.32842 9.15829,4.66175 9.5,5.5C 9.5,8.16667 9.5,10.8333 9.5,13.5C 8.83333,13.5 8.5,13.8333 8.5,14.5C 9.01017,17.3878 8.34351,19.7211 6.5,21.5C 5.5476,15.9252 5.21427,10.2586 5.5,4.5 Z"/></g>
<g><path style="opacity:1" fill="#d9f3fd" d="M 9.5,5.5 C 10.5,5.5 11.5,5.5 12.5,5.5C 12.5,8.16667 12.5,10.8333 12.5,13.5C 11.5,13.5 10.5,13.5 9.5,13.5C 9.5,10.8333 9.5,8.16667 9.5,5.5 Z"/></g>
<g><path style="opacity:1" fill="#c2d7ec" d="M 12.5,4.5 C 13.1667,4.5 13.8333,4.5 14.5,4.5C 14.5,7.5 14.5,10.5 14.5,13.5C 13.8333,13.5 13.1667,13.5 12.5,13.5C 12.5,10.8333 12.5,8.16667 12.5,5.5C 11.5,5.5 10.5,5.5 9.5,5.5C 9.15829,4.66175 8.49162,4.32842 7.5,4.5C 7.08247,3.77842 6.4158,3.27842 5.5,3C 8.19822,2.18501 10.5315,2.68501 12.5,4.5 Z"/></g>
<g><path style="opacity:1" fill="#b9cae6" d="M 14.5,4.5 C 15.8333,4.5 17.1667,4.5 18.5,4.5C 18.5,7.5 18.5,10.5 18.5,13.5C 17.1667,13.5 15.8333,13.5 14.5,13.5C 14.5,10.5 14.5,7.5 14.5,4.5 Z"/></g>
<g><path style="opacity:0.298" fill="#1b4c91" d="M 4.5,0.5 C 3.19137,7.26556 3.19137,13.9322 4.5,20.5C 4.84171,21.3382 5.50838,21.6716 6.5,21.5C 7.16667,22.1667 7.83333,22.8333 8.5,23.5C 7.16667,23.5 5.83333,23.5 4.5,23.5C 4.21719,22.7109 3.71719,22.0442 3,21.5C 2.83333,18 2.66667,14.5 2.5,11C 2.51229,7.09823 3.17896,3.59823 4.5,0.5 Z"/></g>
<g><path style="opacity:1" fill="#7f9ece" d="M 18.5,1.5 C 19.4834,5.29841 19.8168,9.29841 19.5,13.5C 19.5,13.8333 19.5,14.1667 19.5,14.5C 16.1667,14.5 12.8333,14.5 9.5,14.5C 9.16667,14.5 8.83333,14.5 8.5,14.5C 8.5,13.8333 8.83333,13.5 9.5,13.5C 10.5,13.5 11.5,13.5 12.5,13.5C 13.1667,13.5 13.8333,13.5 14.5,13.5C 15.8333,13.5 17.1667,13.5 18.5,13.5C 18.5,10.5 18.5,7.5 18.5,4.5C 17.1667,4.5 15.8333,4.5 14.5,4.5C 13.8333,4.5 13.1667,4.5 12.5,4.5C 14.1561,2.93971 16.1561,1.93971 18.5,1.5 Z"/></g>
<g><path style="opacity:1" fill="#bcd0e6" d="M 9.5,14.5 C 12.8333,14.5 16.1667,14.5 19.5,14.5C 20.5,14.5 21.5,14.5 22.5,14.5C 22.7852,16.288 22.4519,17.9547 21.5,19.5C 20.6143,18.675 20.281,17.675 20.5,16.5C 19.2789,15.5354 17.9456,15.702 16.5,17C 17.7112,17.8928 17.7112,18.7261 16.5,19.5C 15.7899,16.3467 14.7899,16.0134 13.5,18.5C 11.4508,18.2942 11.1175,17.4609 12.5,16C 11.5509,15.3828 10.7175,15.5494 10,16.5C 9.53566,15.9056 9.36899,15.2389 9.5,14.5 Z"/></g>
<g><path style="opacity:1" fill="#6382ad" d="M 20.5,16.5 C 19.0347,18.5463 19.368,20.3796 21.5,22C 20.5842,22.2784 19.9175,22.7784 19.5,23.5C 18.5,23.5 17.5,23.5 16.5,23.5C 16.5,23.1667 16.5,22.8333 16.5,22.5C 16.9382,22.5654 17.2716,22.3988 17.5,22C 16.4734,21.4867 15.4734,20.9867 14.5,20.5C 14.1667,19.8333 13.8333,19.1667 13.5,18.5C 14.7899,16.0134 15.7899,16.3467 16.5,19.5C 17.7112,18.7261 17.7112,17.8928 16.5,17C 17.9456,15.702 19.2789,15.5354 20.5,16.5 Z"/></g>
<g><path style="opacity:1" fill="#486ca1" d="M 19.5,14.5 C 19.5,14.1667 19.5,13.8333 19.5,13.5C 19.8333,13.5 20.1667,13.5 20.5,13.5C 21.5,13.5 22.5,13.5 23.5,13.5C 23.5,16.8333 23.5,20.1667 23.5,23.5C 22.1667,23.5 20.8333,23.5 19.5,23.5C 19.9175,22.7784 20.5842,22.2784 21.5,22C 19.368,20.3796 19.0347,18.5463 20.5,16.5C 20.281,17.675 20.6143,18.675 21.5,19.5C 22.4519,17.9547 22.7852,16.288 22.5,14.5C 21.5,14.5 20.5,14.5 19.5,14.5 Z"/></g>
<g><path style="opacity:1" fill="#e1f4fa" d="M 14.5,20.5 C 15.4734,20.9867 16.4734,21.4867 17.5,22C 17.2716,22.3988 16.9382,22.5654 16.5,22.5C 14.1432,22.6633 11.8098,22.4966 9.5,22C 11.1545,21.3923 12.8211,20.8923 14.5,20.5 Z"/></g>
<g><path style="opacity:0.784" fill="#7297b9" d="M 8.5,14.5 C 8.83333,14.5 9.16667,14.5 9.5,14.5C 9.36899,15.2389 9.53566,15.9056 10,16.5C 10.7175,15.5494 11.5509,15.3828 12.5,16C 11.1175,17.4609 11.4508,18.2942 13.5,18.5C 13.8333,19.1667 14.1667,19.8333 14.5,20.5C 12.8211,20.8923 11.1545,21.3923 9.5,22C 11.8098,22.4966 14.1432,22.6633 16.5,22.5C 16.5,22.8333 16.5,23.1667 16.5,23.5C 13.8333,23.5 11.1667,23.5 8.5,23.5C 7.83333,22.8333 7.16667,22.1667 6.5,21.5C 8.34351,19.7211 9.01017,17.3878 8.5,14.5 Z"/></g>
</svg>
