<?xml version="1.0" encoding="UTF-8"?>
<!DOCTYPE svg PUBLIC "-//W3C//DTD SVG 1.1//EN" "http://www.w3.org/Graphics/SVG/1.1/DTD/svg11.dtd">
<svg xmlns="http://www.w3.org/2000/svg" version="1.1" width="24px" height="24px" style="shape-rendering:geometricPrecision; text-rendering:geometricPrecision; image-rendering:optimizeQuality; fill-rule:evenodd; clip-rule:evenodd" xmlns:xlink="http://www.w3.org/1999/xlink">
<g><path style="opacity:1" fill="#fbfdfe" d="M -0.5,-0.5 C 7.5,-0.5 15.5,-0.5 23.5,-0.5C 23.5,7.5 23.5,15.5 23.5,23.5C 15.5,23.5 7.5,23.5 -0.5,23.5C -0.5,15.5 -0.5,7.5 -0.5,-0.5 Z"/></g>
<g><path style="opacity:1" fill="#33a5e3" d="M 13.5,4.5 C 15.46,5.13826 17.2933,5.13826 19,4.5C 18.956,14.2122 14.1226,18.7122 4.5,18C 4.16667,17.6667 3.83333,17.3333 3.5,17C 4.93801,16.7811 6.27135,16.2811 7.5,15.5C 5.92635,14.0158 4.59302,12.3492 3.5,10.5C 3.66944,8.88268 4.00277,7.21602 4.5,5.5C 8.10639,9.83262 11.1064,9.49929 13.5,4.5 Z"/></g>
</svg>
