<?xml version="1.0" encoding="UTF-8"?>
<!DOCTYPE svg PUBLIC "-//W3C//DTD SVG 1.1//EN" "http://www.w3.org/Graphics/SVG/1.1/DTD/svg11.dtd">
<svg xmlns="http://www.w3.org/2000/svg" version="1.1" width="24px" height="24px" style="shape-rendering:geometricPrecision; text-rendering:geometricPrecision; image-rendering:optimizeQuality; fill-rule:evenodd; clip-rule:evenodd" xmlns:xlink="http://www.w3.org/1999/xlink">
<g><path style="opacity:0.082" fill="#325aa1" d="M 15.5,0.5 C 15.5,0.166667 15.5,-0.166667 15.5,-0.5C 16.1667,-0.5 16.8333,-0.5 17.5,-0.5C 19.385,1.05322 20.385,3.05322 20.5,5.5C 19.7281,4.30646 18.7281,3.30646 17.5,2.5C 17.1667,1.5 16.5,0.833333 15.5,0.5 Z"/></g>
<g><path style="opacity:1" fill="#e1f7fd" d="M 9.5,0.5 C 10.1667,0.5 10.8333,0.5 11.5,0.5C 10.6993,2.04181 10.366,3.70848 10.5,5.5C 9.83333,5.5 9.16667,5.5 8.5,5.5C 8.36596,3.70848 8.69929,2.04181 9.5,0.5 Z"/></g>
<g><path style="opacity:1" fill="#d4effc" d="M 11.5,0.5 C 11.8333,0.5 12.1667,0.5 12.5,0.5C 12.7845,2.41467 12.4511,4.08134 11.5,5.5C 11.1667,5.5 10.8333,5.5 10.5,5.5C 10.366,3.70848 10.6993,2.04181 11.5,0.5 Z"/></g>
<g><path style="opacity:1" fill="#c5dcf1" d="M 12.5,0.5 C 13.1667,0.5 13.8333,0.5 14.5,0.5C 14.5,3.16667 14.5,5.83333 14.5,8.5C 13.5,8.5 12.5,8.5 11.5,8.5C 11.5,8.16667 11.5,7.83333 11.5,7.5C 11.5,6.83333 11.5,6.16667 11.5,5.5C 12.4511,4.08134 12.7845,2.41467 12.5,0.5 Z"/></g>
<g><path style="opacity:1" fill="#ecf8fa" d="M 5.5,0.5 C 6.83333,0.5 8.16667,0.5 9.5,0.5C 8.69929,2.04181 8.36596,3.70848 8.5,5.5C 7.5,5.5 6.5,5.5 5.5,5.5C 5.5,3.83333 5.5,2.16667 5.5,0.5 Z"/></g>
<g><path style="opacity:1" fill="#98afd1" d="M 17.5,2.5 C 18.7281,3.30646 19.7281,4.30646 20.5,5.5C 20.8064,8.38544 20.4731,11.0521 19.5,13.5C 19.7947,11.2646 19.4614,9.26465 18.5,7.5C 17.6016,6.84233 16.6016,6.17566 15.5,5.5C 16.1925,4.48224 16.8592,3.48224 17.5,2.5 Z"/></g>
<g><path style="opacity:1" fill="#8eaec8" d="M 5.5,5.5 C 6.5,5.5 7.5,5.5 8.5,5.5C 9.16667,5.5 9.83333,5.5 10.5,5.5C 10.8333,5.5 11.1667,5.5 11.5,5.5C 11.5,6.16667 11.5,6.83333 11.5,7.5C 8.91791,7.97461 6.91791,7.30794 5.5,5.5 Z"/></g>
<g><path style="opacity:1" fill="#b0c4df" d="M 14.5,0.5 C 14.8333,0.5 15.1667,0.5 15.5,0.5C 16.5,0.833333 17.1667,1.5 17.5,2.5C 16.8592,3.48224 16.1925,4.48224 15.5,5.5C 16.6016,6.17566 17.6016,6.84233 18.5,7.5C 17.5386,9.26465 17.2053,11.2646 17.5,13.5C 15.8863,11.9254 13.8863,11.2587 11.5,11.5C 9.6309,10.8354 7.6309,10.1687 5.5,9.5C 5.62358,8.89333 5.95691,8.55999 6.5,8.5C 8.98402,9.3689 11.6507,10.0356 14.5,10.5C 17.0828,9.75818 17.0828,9.09152 14.5,8.5C 14.5,5.83333 14.5,3.16667 14.5,0.5 Z"/></g>
<g><path style="opacity:1" fill="#7999be" d="M 6.5,8.5 C 8.16667,8.5 9.83333,8.5 11.5,8.5C 12.5,8.5 13.5,8.5 14.5,8.5C 17.0828,9.09152 17.0828,9.75818 14.5,10.5C 11.6507,10.0356 8.98402,9.3689 6.5,8.5 Z"/></g>
<g><path style="opacity:1" fill="#d4e8f0" d="M 4.5,0.5 C 4.83333,0.5 5.16667,0.5 5.5,0.5C 5.5,2.16667 5.5,3.83333 5.5,5.5C 6.91791,7.30794 8.91791,7.97461 11.5,7.5C 11.5,7.83333 11.5,8.16667 11.5,8.5C 9.83333,8.5 8.16667,8.5 6.5,8.5C 5.95691,8.55999 5.62358,8.89333 5.5,9.5C 7.6309,10.1687 9.6309,10.8354 11.5,11.5C 4.86561,11.6768 4.86561,12.1768 11.5,13C 10.2625,13.2321 9.26253,13.7321 8.5,14.5C 7.83333,14.5 7.16667,14.5 6.5,14.5C 4.56356,10.2853 3.8969,5.6186 4.5,0.5 Z"/></g>
<g><path style="opacity:1" fill="#becfeb" d="M 18.5,7.5 C 19.4614,9.26465 19.7947,11.2646 19.5,13.5C 18.8333,13.5 18.1667,13.5 17.5,13.5C 17.2053,11.2646 17.5386,9.26465 18.5,7.5 Z"/></g>
<g><path style="opacity:1" fill="#7999c2" d="M 11.5,11.5 C 13.8863,11.2587 15.8863,11.9254 17.5,13.5C 18.1667,13.5 18.8333,13.5 19.5,13.5C 19.5,13.8333 19.5,14.1667 19.5,14.5C 18.5,14.5 17.5,14.5 16.5,14.5C 14.1667,14.5 11.8333,14.5 9.5,14.5C 9.16667,14.5 8.83333,14.5 8.5,14.5C 9.26253,13.7321 10.2625,13.2321 11.5,13C 4.86561,12.1768 4.86561,11.6768 11.5,11.5 Z"/></g>
<g><path style="opacity:1" fill="#7d9ec2" d="M 2.5,-0.5 C 6.83333,-0.5 11.1667,-0.5 15.5,-0.5C 15.5,-0.166667 15.5,0.166667 15.5,0.5C 15.1667,0.5 14.8333,0.5 14.5,0.5C 13.8333,0.5 13.1667,0.5 12.5,0.5C 12.1667,0.5 11.8333,0.5 11.5,0.5C 10.8333,0.5 10.1667,0.5 9.5,0.5C 8.16667,0.5 6.83333,0.5 5.5,0.5C 5.16667,0.5 4.83333,0.5 4.5,0.5C 3.50837,7.64761 3.17503,14.9809 3.5,22.5C 2.50797,15.0182 2.17464,7.35156 2.5,-0.5 Z"/></g>
<g><path style="opacity:1" fill="#dceef3" d="M 9.5,14.5 C 11.8333,14.5 14.1667,14.5 16.5,14.5C 15.8333,15.1667 15.1667,15.8333 14.5,16.5C 13.1667,17.1667 13.1667,17.8333 14.5,18.5C 14.44,19.0431 14.1067,19.3764 13.5,19.5C 12.8243,18.3984 12.1577,17.3984 11.5,16.5C 10.1667,16.5 9.5,15.8333 9.5,14.5 Z"/></g>
<g><path style="opacity:1" fill="#bdd4eb" d="M 16.5,14.5 C 17.5,14.5 18.5,14.5 19.5,14.5C 20.675,14.281 21.675,14.6143 22.5,15.5C 22.3764,16.1067 22.0431,16.44 21.5,16.5C 20.2946,15.3143 18.9613,15.3143 17.5,16.5C 16.6618,16.8417 16.3284,17.5084 16.5,18.5C 15.8333,18.5 15.1667,18.5 14.5,18.5C 15.5063,17.6043 15.5063,16.9377 14.5,16.5C 15.1667,15.8333 15.8333,15.1667 16.5,14.5 Z"/></g>
<g><path style="opacity:1" fill="#2f5e90" d="M 14.5,16.5 C 15.5063,16.9377 15.5063,17.6043 14.5,18.5C 13.1667,17.8333 13.1667,17.1667 14.5,16.5 Z"/></g>
<g><path style="opacity:0.784" fill="#3f619f" d="M 20.5,5.5 C 20.9016,8.47661 21.9016,11.1433 23.5,13.5C 23.5,16.8333 23.5,20.1667 23.5,23.5C 21.8333,23.5 20.1667,23.5 18.5,23.5C 18.5,23.1667 18.5,22.8333 18.5,22.5C 19.8333,22.5 21.1667,22.5 22.5,22.5C 22.7845,20.5853 22.4511,18.9187 21.5,17.5C 21.5,17.1667 21.5,16.8333 21.5,16.5C 22.0431,16.44 22.3764,16.1067 22.5,15.5C 21.675,14.6143 20.675,14.281 19.5,14.5C 19.5,14.1667 19.5,13.8333 19.5,13.5C 20.4731,11.0521 20.8064,8.38544 20.5,5.5 Z"/></g>
<g><path style="opacity:1" fill="#7296bb" d="M 6.5,14.5 C 7.16667,14.5 7.83333,14.5 8.5,14.5C 8.83333,14.5 9.16667,14.5 9.5,14.5C 9.5,15.8333 10.1667,16.5 11.5,16.5C 11.5,17.1667 11.1667,17.5 10.5,17.5C 9.60895,18.1098 8.60895,18.4431 7.5,18.5C 7.06178,18.5654 6.72845,18.3988 6.5,18C 7.16667,17.6667 7.83333,17.3333 8.5,17C 7.61947,16.2917 6.9528,15.4584 6.5,14.5 Z"/></g>
<g><path style="opacity:1" fill="#99b1d2" d="M 21.5,16.5 C 20.1411,17.0065 19.1411,18.0065 18.5,19.5C 17.6143,18.675 17.281,17.675 17.5,16.5C 18.9613,15.3143 20.2946,15.3143 21.5,16.5 Z"/></g>
<g><path style="opacity:1" fill="#3a6396" d="M 17.5,16.5 C 17.281,17.675 17.6143,18.675 18.5,19.5C 19.1411,18.0065 20.1411,17.0065 21.5,16.5C 21.5,16.8333 21.5,17.1667 21.5,17.5C 21.5,18.5 21.5,19.5 21.5,20.5C 19.8333,20.5 18.1667,20.5 16.5,20.5C 16.5,19.8333 16.5,19.1667 16.5,18.5C 16.3284,17.5084 16.6618,16.8417 17.5,16.5 Z"/></g>
<g><path style="opacity:1" fill="#c7dde8" d="M 4.5,0.5 C 3.8969,5.6186 4.56356,10.2853 6.5,14.5C 6.9528,15.4584 7.61947,16.2917 8.5,17C 7.83333,17.3333 7.16667,17.6667 6.5,18C 6.72845,18.3988 7.06178,18.5654 7.5,18.5C 7.5,18.8333 7.5,19.1667 7.5,19.5C 5.95186,19.8212 5.28519,20.8212 5.5,22.5C 4.83333,22.5 4.16667,22.5 3.5,22.5C 3.17503,14.9809 3.50837,7.64761 4.5,0.5 Z"/></g>
<g><path style="opacity:1" fill="#e0eff4" d="M 7.5,19.5 C 8.40397,20.209 8.73731,21.209 8.5,22.5C 7.5,22.5 6.5,22.5 5.5,22.5C 5.28519,20.8212 5.95186,19.8212 7.5,19.5 Z"/></g>
<g><path style="opacity:1" fill="#84a7c4" d="M 10.5,17.5 C 10.5569,18.609 10.8902,19.609 11.5,20.5C 10.1667,20.5 9.5,21.1667 9.5,22.5C 9.16667,22.5 8.83333,22.5 8.5,22.5C 8.73731,21.209 8.40397,20.209 7.5,19.5C 7.5,19.1667 7.5,18.8333 7.5,18.5C 8.60895,18.4431 9.60895,18.1098 10.5,17.5 Z"/></g>
<g><path style="opacity:1" fill="#426e9b" d="M 11.5,16.5 C 12.1577,17.3984 12.8243,18.3984 13.5,19.5C 14.1067,19.3764 14.44,19.0431 14.5,18.5C 15.1667,18.5 15.8333,18.5 16.5,18.5C 16.5,19.1667 16.5,19.8333 16.5,20.5C 14.8333,20.5 13.1667,20.5 11.5,20.5C 10.8902,19.609 10.5569,18.609 10.5,17.5C 11.1667,17.5 11.5,17.1667 11.5,16.5 Z"/></g>
<g><path style="opacity:1" fill="#d7ecf4" d="M 11.5,20.5 C 13.1667,20.5 14.8333,20.5 16.5,20.5C 17.1667,21.1667 17.8333,21.8333 18.5,22.5C 15.5,22.5 12.5,22.5 9.5,22.5C 9.5,21.1667 10.1667,20.5 11.5,20.5 Z"/></g>
<g><path style="opacity:1" fill="#96a9cb" d="M 21.5,17.5 C 22.4511,18.9187 22.7845,20.5853 22.5,22.5C 21.1667,22.5 19.8333,22.5 18.5,22.5C 17.8333,21.8333 17.1667,21.1667 16.5,20.5C 18.1667,20.5 19.8333,20.5 21.5,20.5C 21.5,19.5 21.5,18.5 21.5,17.5 Z"/></g>
<g><path style="opacity:0.784" fill="#486495" d="M 1.5,-0.5 C 1.83333,-0.5 2.16667,-0.5 2.5,-0.5C 2.17464,7.35156 2.50797,15.0182 3.5,22.5C 4.16667,22.5 4.83333,22.5 5.5,22.5C 6.5,22.5 7.5,22.5 8.5,22.5C 8.83333,22.5 9.16667,22.5 9.5,22.5C 12.5,22.5 15.5,22.5 18.5,22.5C 18.5,22.8333 18.5,23.1667 18.5,23.5C 12.8333,23.5 7.16667,23.5 1.5,23.5C 1.5,15.5 1.5,7.5 1.5,-0.5 Z"/></g>
</svg>
